<svg xmlns="http://www.w3.org/2000/svg" xmlns:xlink="http://www.w3.org/1999/xlink" viewBox="0 0 776.12 555.43"><defs><style>.cls-1{fill:#333;}.cls-2{fill:#33f;}</style><symbol id="meeco-icon" data-name="meeco-icon" viewBox="0 0 530.36 379.55"><path class="cls-1" d="M220.68,194.23A120,120,0,1,0,240,259.55H190a70,70,0,0,1-98.57,63.92ZM70.5,210.05a70,70,0,0,1,78.06-14.42L56.08,288.12A70,70,0,0,1,70.5,210.05Z"/><path class="cls-1" d="M309.68,194.23a120,120,0,1,1-19.33,65.32h50a70,70,0,0,0,98.57,63.92Zm150.18,15.82a70,70,0,0,0-78.07-14.42l92.49,92.49A70,70,0,0,0,459.86,210.05Z"/><polygon class="cls-2" points="265.18 70.71 314.68 120.21 350.03 84.85 300.54 35.35 265.18 0 229.82 35.35 180.33 84.85 215.68 120.21 265.18 70.71"/></symbol></defs><g id="Layer_2" data-name="Layer 2"><g id="meeco-icon-original"><use width="530.36" height="379.55" transform="scale(1.46)" xlink:href="#meeco-icon"/></g></g></svg>