<svg xmlns="http://www.w3.org/2000/svg" viewBox="0 0 1545.89 379.55"><defs><style>.cls-1{fill:#fff;}</style></defs><g id="Layer_2" data-name="Layer 2"><g id="meeco-white"><path class="cls-1" d="M1425.89,139.55a120,120,0,1,0,120,120A120,120,0,0,0,1425.89,139.55Zm0,190a70,70,0,1,1,70-70A70,70,0,0,1,1425.89,329.55Z"/><path class="cls-1" d="M1181.05,329.55a70,70,0,1,1,49.5-119.5l35.34-35.34a120,120,0,1,0,0,169.7l-35.34-35.36A69.82,69.82,0,0,1,1181.05,329.55Z"/><path class="cls-1" d="M701,194.23a120,120,0,1,0,19.33,65.32h-50a70,70,0,0,1-98.57,63.92ZM550.84,210.05a70,70,0,0,1,78.07-14.42l-92.49,92.49A70.05,70.05,0,0,1,550.84,210.05Z"/><path class="cls-1" d="M790,194.23a120,120,0,1,1-19.33,65.32h50a70,70,0,0,0,98.57,63.92ZM940.2,210.05a70,70,0,0,0-78.06-14.42l92.49,92.49A70.06,70.06,0,0,0,940.2,210.05Z"/><path class="cls-1" d="M430,259.55v120H380v-120a70,70,0,1,0-140,0v120H190v-120a70,70,0,0,0-140,0v120H0v-120a120,120,0,0,1,215-73.32,120,120,0,0,1,215,73.32Z"/><polygon class="cls-1" points="745.52 70.71 795.02 120.21 830.38 84.85 780.88 35.35 745.52 0 710.17 35.35 660.67 84.85 696.03 120.21 745.52 70.71"/></g></g></svg>