<svg xmlns="http://www.w3.org/2000/svg" viewBox="0 0 1254.84 379.55"><defs><style>.cls-1{fill:#fafafa;}</style></defs><g id="Layer_2" data-name="Layer 2"><g id="mêco-white"><g id="mêco-white-2" data-name="mêco-white"><path class="cls-1" d="M1134.84,139.55a120,120,0,1,0,120,120A120,120,0,0,0,1134.84,139.55Zm0,190a70,70,0,1,1,70-70A70,70,0,0,1,1134.84,329.55Z"/><path class="cls-1" d="M890,329.55a70,70,0,1,1,49.5-119.5l35.34-35.34a120,120,0,1,0,0,169.7L939.5,309.05A69.82,69.82,0,0,1,890,329.55Z"/><path class="cls-1" d="M700.32,194.23a120,120,0,1,0,19.34,65.32h-50a70,70,0,0,1-98.57,63.92ZM550.15,210.05a70,70,0,0,1,78.06-14.42l-92.49,92.49A70.06,70.06,0,0,1,550.15,210.05Z"/><path class="cls-1" d="M430,259.55v120H380v-120a70,70,0,1,0-140,0v120H190v-120a70,70,0,0,0-140,0v120H0v-120a120,120,0,0,1,215-73.32,120,120,0,0,1,215,73.32Z"/><polygon class="cls-1" points="599.65 70.71 649.14 120.21 684.5 84.85 635 35.35 599.65 0 564.29 35.35 514.79 84.85 550.15 120.21 599.65 70.71"/></g></g></g></svg>