<svg id="quote-start" xmlns="http://www.w3.org/2000/svg" width="30" height="18.692" viewBox="0 0 30 18.692">
  <path id="Path_96" data-name="Path 96" d="M6.563,0A6.563,6.563,0,0,0,0,6.563V18.692H4.688V12.853a6.563,6.563,0,0,0,8.438-6.291h0A6.562,6.562,0,0,0,6.563,0Zm0,8.438A1.875,1.875,0,1,1,8.438,6.563,1.875,1.875,0,0,1,6.563,8.438Z" fill="#33f"/>
  <path id="Path_97" data-name="Path 97" d="M96.563,0A6.563,6.563,0,0,0,90,6.563V18.692h4.688V12.853a6.563,6.563,0,0,0,8.438-6.291h0A6.563,6.563,0,0,0,96.563,0Zm0,8.438a1.875,1.875,0,1,1,1.875-1.875A1.875,1.875,0,0,1,96.563,8.438Z" transform="translate(-73.125 0)" fill="#33f"/>
</svg>
