<?xml version="1.0" encoding="utf-8"?>
<!-- Generator: Adobe Illustrator 24.1.3, SVG Export Plug-In . SVG Version: 6.00 Build 0)  -->
<svg version="1.1" id="Layer_1" xmlns="http://www.w3.org/2000/svg" xmlns:xlink="http://www.w3.org/1999/xlink" x="0px" y="0px"
	 viewBox="0 0 30 18.7" style="enable-background:new 0 0 30 18.7;" xml:space="preserve">
<style type="text/css">
	.st0{fill:#3333FF;}
</style>
<g id="quote-end" transform="translate(0 0)">
	<path id="Path_96" class="st0" d="M23.4,18.7c3.6,0,6.6-2.9,6.6-6.6c0,0,0,0,0,0V0h-4.7v5.8c-3.5-1-7.1,0.9-8.2,4.4
		c-0.2,0.6-0.3,1.2-0.3,1.9l0,0C16.9,15.8,19.8,18.7,23.4,18.7C23.4,18.7,23.4,18.7,23.4,18.7z M23.4,10.3c1,0,1.9,0.8,1.9,1.9
		c0,1-0.8,1.9-1.9,1.9c-1,0-1.9-0.8-1.9-1.9S22.4,10.3,23.4,10.3L23.4,10.3z"/>
	<path id="Path_97" class="st0" d="M6.6,18.7c3.6,0,6.6-2.9,6.6-6.6c0,0,0,0,0,0V0H8.4v5.8c-3.5-1-7.1,0.9-8.2,4.4
		C0.1,10.9,0,11.5,0,12.1l0,0C0,15.8,2.9,18.7,6.6,18.7C6.6,18.7,6.6,18.7,6.6,18.7z M6.6,10.3c1,0,1.9,0.8,1.9,1.9
		c0,1-0.8,1.9-1.9,1.9c-1,0-1.9-0.8-1.9-1.9S5.5,10.3,6.6,10.3L6.6,10.3z"/>
</g>
</svg>
