<svg xmlns="http://www.w3.org/2000/svg" viewBox="0 0 45.7 45.55"><defs><style>.cls-1{fill:#ffeae5;}.cls-2{fill:#f53;}</style></defs><g id="Layer_2" data-name="Layer 2"><g id="Layer_1-2" data-name="Layer 1"><path class="cls-1" d="M35.67,45.05a1.45,1.45,0,0,1-.73-.19l-10.88-6a2.52,2.52,0,0,0-2.42,0l-10.88,6a1.44,1.44,0,0,1-.72.19,1.53,1.53,0,0,1-1.15-.54,1.44,1.44,0,0,1-.33-1.2l2.12-13A2.51,2.51,0,0,0,10,28.13L.93,18.83A1.49,1.49,0,0,1,.58,17.3a1.46,1.46,0,0,1,1.2-1l12.37-1.89A2.51,2.51,0,0,0,16,13L21.49,1.36A1.48,1.48,0,0,1,22.85.5a1.46,1.46,0,0,1,1.36.86L29.67,13a2.53,2.53,0,0,0,1.89,1.41L43.93,16.3a1.45,1.45,0,0,1,1.19,1,1.46,1.46,0,0,1-.34,1.53l-9.08,9.3A2.52,2.52,0,0,0,35,30.28l2.13,13a1.48,1.48,0,0,1-.33,1.2A1.53,1.53,0,0,1,35.67,45.05Z"/><path class="cls-2" d="M22.85,1a1,1,0,0,1,.91.58l5.46,11.63a3,3,0,0,0,2.26,1.69l12.37,1.89a1,1,0,0,1,.57,1.69l-9.08,9.3a3,3,0,0,0-.81,2.58l2.12,13a.94.94,0,0,1-.21.8,1,1,0,0,1-.77.36,1.07,1.07,0,0,1-.49-.12l-10.88-6a3,3,0,0,0-2.9,0l-10.88,6a1,1,0,0,1-.48.12,1,1,0,0,1-.77-.36,1,1,0,0,1-.22-.8l2.13-13a3,3,0,0,0-.82-2.58l-9.07-9.3a1,1,0,0,1-.24-1,1,1,0,0,1,.8-.67L14.22,14.9a3,3,0,0,0,2.27-1.69L22,1.58a1,1,0,0,1,.9-.58m0-1A2,2,0,0,0,21,1.15L15.58,12.79a2,2,0,0,1-1.51,1.12L1.7,15.8A2,2,0,0,0,.57,19.18l9.08,9.3a2,2,0,0,1,.54,1.72l-2.13,13a2,2,0,0,0,2,2.32,2,2,0,0,0,1-.25l10.87-6a2,2,0,0,1,1-.25,2,2,0,0,1,1,.25l10.88,6a2,2,0,0,0,1,.25,2,2,0,0,0,2-2.32l-2.13-13a2,2,0,0,1,.55-1.72l9.07-9.3A2,2,0,0,0,44,15.8L31.63,13.91a2,2,0,0,1-1.51-1.12L24.66,1.15A2,2,0,0,0,22.85,0Z"/></g></g></svg>