<?xml version="1.0" encoding="utf-8"?>
<!-- Generator: Adobe Illustrator 24.3.0, SVG Export Plug-In . SVG Version: 6.00 Build 0)  -->
<svg version="1.1" id="Layer_1" xmlns="http://www.w3.org/2000/svg" xmlns:xlink="http://www.w3.org/1999/xlink" x="0px" y="0px"
	 viewBox="0 0 210 210" style="enable-background:new 0 0 210 210;" xml:space="preserve">
<style type="text/css">
	.st0{fill:#FFFFFF;}
	.st1{fill:#292966;}
	.st2{font-family:'Bitter-Bold';}
	.st3{font-size:39.87px;}
	.st4{enable-background:new    ;}
</style>
<g id="_-2ans-active-state" transform="translate(0 0)">
	<circle id="ellipse" class="st0" cx="105" cy="105" r="105"/>
	<g id="icon" transform="translate(53 89.27)">
		<text transform="matrix(1 0 0 1 -5 28.73)" class="st1 st2 st3">-</text>
		<g class="st4">
			<path class="st1" d="M13.8,28.7v-4.8c3-2.5,5.5-4.6,7.4-6.4c1.9-1.8,3.4-3.4,4.3-4.8c0.9-1.4,1.4-2.8,1.4-4.2s-0.4-2.4-1.3-3.1
				c-0.9-0.7-2-1-3.3-1c-0.6,0-1.3,0.1-2.1,0.2c-0.7,0.1-1.5,0.4-2.3,0.6l0.6-1l-0.7,4.5h-3.4l-0.4-7.1c1.6-0.5,3.3-0.9,4.8-1.1
				c1.6-0.3,3-0.4,4.4-0.4c1.9,0,3.6,0.3,5,0.8c1.5,0.5,2.6,1.3,3.4,2.4c0.8,1.1,1.2,2.6,1.2,4.3c0,1.9-0.5,3.8-1.5,5.6
				c-1,1.8-2.4,3.6-4.3,5.5c-1.9,1.9-4.1,3.9-6.8,6.1v-0.6h13.1v4.5H13.8z"/>
			<path class="st1" d="M61.2,25.9l-0.8-1.1l3.4,1.1v2.8l-7,0.4l-0.8-3.8l0.4,0.1c-1.1,1.3-2.2,2.3-3.5,2.9c-1.2,0.6-2.5,1-3.9,1
				c-1.7,0-3.1-0.5-4.2-1.6s-1.7-2.7-1.7-4.7c0-1.5,0.3-2.7,1-3.6c0.7-0.9,1.6-1.5,2.9-1.9c1.2-0.4,2.8-0.6,4.5-0.6H56l-0.4,0.4
				v-2.6c0-1.2-0.3-2.1-0.9-2.7c-0.6-0.5-1.5-0.8-2.6-0.8c-0.6,0-1.2,0.1-1.8,0.2c-0.6,0.1-1.3,0.3-2.1,0.5l0.6-0.6l-0.5,3.2h-3.5
				l-0.3-5.8c1.8-0.5,3.5-0.9,5-1.2C51,7.1,52.4,7,53.6,7c2.5,0,4.4,0.5,5.7,1.6s2,2.7,2,4.9V25.9z M48.9,22.3c0,1,0.2,1.7,0.7,2.2
				c0.5,0.5,1.1,0.7,1.8,0.7c0.7,0,1.4-0.2,2.2-0.6c0.8-0.4,1.6-1,2.3-1.7l-0.2,1v-4.5l0.4,0.4h-3.4c-1.4,0-2.3,0.2-2.9,0.6
				C49.2,20.7,48.9,21.4,48.9,22.3z"/>
			<path class="st1" d="M65.5,28.7v-2.9l3.3-1l-0.7,0.8V10.5l0.7,0.9l-3.3-1V7.6l7-0.3l0.7,3.8l-0.7-0.3c1.3-1.3,2.6-2.3,4.1-2.9
				C78,7.3,79.4,7,80.7,7c1.8,0,3.3,0.6,4.5,1.7s1.8,2.8,1.8,5.1v11.9l-0.5-0.8l3.2,1v2.9H79v-2.9l3-0.9l-0.6,0.8V15
				c0-1.3-0.3-2.3-0.9-2.9c-0.6-0.6-1.3-0.9-2.3-0.9c-0.7,0-1.5,0.2-2.4,0.6c-0.9,0.4-1.7,1-2.5,1.8l0.4-0.8v13.1L73.3,25l2.9,0.9
				v2.9H65.5z"/>
			<path class="st1" d="M97.3,12.8c0,0.6,0.3,1.1,0.8,1.5c0.5,0.4,1.2,0.7,2.1,1c0.8,0.3,1.7,0.5,2.7,0.8c0.9,0.3,1.8,0.7,2.7,1.1
				c0.8,0.5,1.5,1.1,2.1,1.9c0.5,0.8,0.8,1.8,0.8,3c0,1.6-0.4,2.9-1.3,3.9c-0.9,1.1-2,1.9-3.5,2.4c-1.5,0.5-3.1,0.8-4.9,0.8
				c-1.1,0-2.2-0.1-3.4-0.3c-1.2-0.2-2.4-0.4-3.6-0.8l0.2-6h3.5l0.4,3.5L95.4,25c0.5,0.2,1.1,0.3,1.8,0.4c0.6,0.1,1.2,0.1,1.7,0.1
				c0.7,0,1.3-0.1,1.9-0.3c0.6-0.2,1.1-0.5,1.5-0.8c0.4-0.4,0.6-0.8,0.6-1.4c0-0.6-0.3-1.1-0.8-1.5c-0.5-0.4-1.2-0.7-2.1-1
				c-0.8-0.3-1.7-0.5-2.6-0.8c-0.9-0.3-1.8-0.7-2.6-1.2c-0.8-0.5-1.5-1.1-2.1-1.9c-0.5-0.8-0.8-1.8-0.8-3.1c0-1.5,0.4-2.8,1.2-3.8
				c0.8-1,1.8-1.7,3.1-2.1c1.3-0.5,2.7-0.7,4.2-0.7c1.1,0,2.2,0.1,3.5,0.3c1.2,0.2,2.5,0.5,3.7,0.9l-0.2,5.3h-3.5l-0.6-3.1l0.8,0.8
				c-1.2-0.3-2.4-0.5-3.3-0.5c-1,0-1.8,0.2-2.4,0.6C97.6,11.6,97.3,12.1,97.3,12.8z"/>
		</g>
	</g>
</g>
</svg>
