<?xml version="1.0" encoding="utf-8"?>
<!-- Generator: Adobe Illustrator 24.3.0, SVG Export Plug-In . SVG Version: 6.00 Build 0)  -->
<svg version="1.1" id="Layer_1" xmlns="http://www.w3.org/2000/svg" xmlns:xlink="http://www.w3.org/1999/xlink" x="0px" y="0px"
	 viewBox="0 0 210 210" style="enable-background:new 0 0 210 210;" xml:space="preserve">
<style type="text/css">
	.st0{fill:#FFFFFF;}
	.st1{fill:#292966;}
	.st2{font-family:'Bitter-Bold';}
	.st3{font-size:39.87px;}
	.st4{enable-background:new    ;}
</style>
<circle id="ellipse" class="st0" cx="105" cy="105" r="105"/>
<g id="icon_1_" transform="translate(53 89.27)">
	<text transform="matrix(1 0 0 1 -4.7501 27.8703)" class="st1 st2 st3">-</text>
	<g class="st4">
		<path class="st1" d="M14,27.8V23c3-2.5,5.5-4.6,7.4-6.4c1.9-1.8,3.4-3.4,4.3-4.8s1.4-2.8,1.4-4.2s-0.4-2.4-1.3-3.1s-2-1-3.3-1
			c-0.6,0-1.3,0.1-2.1,0.2c-0.7,0.1-1.5,0.4-2.3,0.6l0.6-1L18,7.8h-3.4l-0.4-7.1c1.6-0.5,3.3-0.9,4.8-1.1c1.6-0.3,3-0.4,4.4-0.4
			c1.9,0,3.6,0.3,5,0.8c1.5,0.5,2.6,1.3,3.4,2.4S33,5,33,6.7c0,1.9-0.5,3.8-1.5,5.6s-2.4,3.6-4.3,5.5s-4.1,3.9-6.8,6.1v-0.6h13.1
			v4.5C33.5,27.8,14,27.8,14,27.8z"/>
		<path class="st1" d="M61.4,25l-0.8-1.1L64,25v2.8l-7,0.4l-0.8-3.8l0.4,0.1c-1.1,1.3-2.2,2.3-3.5,2.9c-1.2,0.6-2.5,1-3.9,1
			c-1.7,0-3.1-0.5-4.2-1.6s-1.7-2.7-1.7-4.7c0-1.5,0.3-2.7,1-3.6s1.6-1.5,2.9-1.9c1.2-0.4,2.8-0.6,4.5-0.6h4.5l-0.4,0.4v-2.6
			c0-1.2-0.3-2.1-0.9-2.7c-0.6-0.5-1.5-0.8-2.6-0.8c-0.6,0-1.2,0.1-1.8,0.2c-0.6,0.1-1.3,0.3-2.1,0.5l0.6-0.6l-0.5,3.2H45l-0.3-5.8
			c1.8-0.5,3.5-0.9,5-1.2c1.5-0.4,2.9-0.5,4.1-0.5c2.5,0,4.4,0.5,5.7,1.6s2,2.7,2,4.9L61.4,25L61.4,25z M49.1,21.4
			c0,1,0.2,1.7,0.7,2.2s1.1,0.7,1.8,0.7s1.4-0.2,2.2-0.6s1.6-1,2.3-1.7l-0.2,1v-4.5l0.4,0.4h-3.4c-1.4,0-2.3,0.2-2.9,0.6
			C49.4,19.8,49.1,20.5,49.1,21.4z"/>
		<path class="st1" d="M65.7,27.8v-2.9l3.3-1l-0.7,0.8V9.6l0.7,0.9l-3.3-1V6.7l7-0.3l0.7,3.8l-0.7-0.3C74,8.6,75.3,7.6,76.8,7
			c1.4-0.6,2.8-0.9,4.1-0.9c1.8,0,3.3,0.6,4.5,1.7s1.8,2.8,1.8,5.1v11.9L86.7,24l3.2,1v2.9H79.2V25l3-0.9l-0.6,0.8V14.1
			c0-1.3-0.3-2.3-0.9-2.9c-0.6-0.6-1.3-0.9-2.3-0.9c-0.7,0-1.5,0.2-2.4,0.6c-0.9,0.4-1.7,1-2.5,1.8l0.4-0.8V25l-0.4-0.9l2.9,0.9v2.9
			L65.7,27.8L65.7,27.8z"/>
		<path class="st1" d="M97.5,11.9c0,0.6,0.3,1.1,0.8,1.5s1.2,0.7,2.1,1c0.8,0.3,1.7,0.5,2.7,0.8c0.9,0.3,1.8,0.7,2.7,1.1
			c0.8,0.5,1.5,1.1,2.1,1.9c0.5,0.8,0.8,1.8,0.8,3c0,1.6-0.4,2.9-1.3,3.9c-0.9,1.1-2,1.9-3.5,2.4s-3.1,0.8-4.9,0.8
			c-1.1,0-2.2-0.1-3.4-0.3c-1.2-0.2-2.4-0.4-3.6-0.8l0.2-6h3.5l0.4,3.5l-0.5-0.6c0.5,0.2,1.1,0.3,1.8,0.4c0.6,0.1,1.2,0.1,1.7,0.1
			c0.7,0,1.3-0.1,1.9-0.3c0.6-0.2,1.1-0.5,1.5-0.8c0.4-0.4,0.6-0.8,0.6-1.4s-0.3-1.1-0.8-1.5s-1.2-0.7-2.1-1
			c-0.8-0.3-1.7-0.5-2.6-0.8s-1.8-0.7-2.6-1.2c-0.8-0.5-1.5-1.1-2.1-1.9c-0.5-0.8-0.8-1.8-0.8-3.1c0-1.5,0.4-2.8,1.2-3.8
			c0.8-1,1.8-1.7,3.1-2.1c1.3-0.5,2.7-0.7,4.2-0.7c1.1,0,2.2,0.1,3.5,0.3c1.2,0.2,2.5,0.5,3.7,0.9l-0.2,5.3h-3.5l-0.6-3.1l0.8,0.8
			c-1.2-0.3-2.4-0.5-3.3-0.5c-1,0-1.8,0.2-2.4,0.6C97.8,10.7,97.5,11.2,97.5,11.9z"/>
	</g>
</g>
</svg>
