<?xml version="1.0" encoding="utf-8"?>
<!-- Generator: Adobe Illustrator 24.3.0, SVG Export Plug-In . SVG Version: 6.00 Build 0)  -->
<svg version="1.1" id="Layer_1" xmlns="http://www.w3.org/2000/svg" xmlns:xlink="http://www.w3.org/1999/xlink" x="0px" y="0px"
	 viewBox="0 0 210 210" style="enable-background:new 0 0 210 210;" xml:space="preserve">
<style type="text/css">
	.st0{fill:#FFFFFF;}
	.st1{fill:#E6E6E6;}
	.st2{fill:#FAFAFA;}
	.st3{fill:none;stroke:#CCCCCC;stroke-width:2;stroke-miterlimit:10;}
	.st4{fill:#999999;}
	.st5{fill:#808080;}
	.st6{fill:#B3B3B3;}
	.st7{fill:#CCCCCC;}
</style>
<g id="_30-degree-default-state" transform="translate(-15 0)">
	<circle id="ellipse" class="st0" cx="120" cy="105" r="105"/>
	<g id="icon" transform="translate(70.674 61.199)">
		<path id="Path_785" class="st1" d="M42.6,31.6v61h59.9V36.4H50.8L42.6,31.6z"/>
		<path id="Path_786" class="st2" d="M42.6,31.6v61H-5V4.2L42.6,31.6z"/>
		<line id="Line_17" class="st3" x1="42.6" y1="31.6" x2="-5" y2="31.6"/>
		<path id="Path_787" class="st4" d="M54.1-5H-5l59.8,34.5h59.1L54.1-5z"/>
		<path id="Path_788" class="st5" d="M54.8,29.5l-4,6.9h59.1l4-6.9H54.8z"/>
		<path id="Path_789" class="st6" d="M54.8,29.5l-4,6.9l-8.2-4.7l-25-14.4L-5,4.2V-5l25.9,15l0.6,0.3L54.8,29.5z"/>
		<path id="Path_790" class="st7" d="M42.6,31.6H20.6c0-3.9,1-7.6,2.9-11L42.6,31.6z"/>
	</g>
</g>
</svg>
