<?xml version="1.0" encoding="utf-8"?>
<!-- Generator: Adobe Illustrator 24.1.3, SVG Export Plug-In . SVG Version: 6.00 Build 0)  -->
<svg version="1.1" xmlns="http://www.w3.org/2000/svg" xmlns:xlink="http://www.w3.org/1999/xlink" x="0px" y="0px"
	 viewBox="0 0 210 210" style="enable-background:new 0 0 210 210;" xml:space="preserve">
<style type="text/css">
	.st0{clip-path:url(#SVGID_2_);}
	.st1{fill:#E5E5FF;}
	.st2{fill:#CCCCFF;}
	.st3{fill:#B3B3FF;}
	.st4{clip-path:url(#SVGID_2_);fill:none;stroke:#9999FF;stroke-width:3.5;stroke-miterlimit:10;}
</style>
<g id="Layer_2">
</g>
<g id="Layer_4">
</g>
<g id="Layer_3">
</g>
<g id="Layer_1">
</g>
<g id="Layer_5">
	<g>
		<defs>
			<circle id="SVGID_1_" cx="105" cy="105" r="105"/>
		</defs>
		<clipPath id="SVGID_2_">
			<use xlink:href="#SVGID_1_"  style="overflow:visible;"/>
		</clipPath>
		<g class="st0">
			<polygon class="st1" points="146.2,48.2 146.2,211.5 174.2,211.5 174.2,48.2 174.2,-115.2 146.2,-115.2 			"/>
			<polygon class="st1" points="185.8,-115.2 185.8,48.2 185.8,211.5 213.8,211.5 213.8,48.2 213.8,-115.2 			"/>
			<polygon class="st1" points="38.8,48.2 38.8,211.5 66.8,211.5 66.8,48.2 66.8,-115.2 38.8,-115.2 			"/>
			<polygon class="st1" points="78.5,-115.2 78.5,48.2 78.5,211.5 106.5,211.5 134.5,211.5 134.5,48.2 134.5,-115.2 106.5,-115.2 
							"/>
			<polygon class="st1" points="-0.8,48.2 -0.8,211.5 27.2,211.5 27.2,48.2 27.2,-115.2 -0.8,-115.2 			"/>
		</g>
		<g class="st0">
			<polygon class="st2" points="134.5,-115.2 134.5,48.2 134.5,211.5 146.2,211.5 146.2,48.2 146.2,-115.2 			"/>
			<polygon class="st2" points="27.2,48.2 27.2,211.5 38.8,211.5 38.8,48.2 38.8,-115.2 27.2,-115.2 			"/>
		</g>
		<g class="st0">
			<polygon class="st3" points="174.2,-115.2 174.2,48.2 174.2,211.5 185.8,211.5 185.8,48.2 185.8,-115.2 			"/>
			<polygon class="st3" points="66.8,48.2 66.8,211.5 78.5,211.5 78.5,48.2 78.5,-115.2 66.8,-115.2 			"/>
		</g>
		<polyline class="st4" points="106.5,108.8 134.5,108.8 146.2,118.2 174.2,118.2 185.8,108.8 213.8,108.8 		"/>
		<polyline class="st4" points="-0.8,108.8 27.2,108.8 38.8,118.2 66.8,118.2 78.5,108.8 106.5,108.8 		"/>
	</g>
</g>
</svg>
