<?xml version="1.0" encoding="utf-8"?>
<!-- Generator: Adobe Illustrator 24.3.0, SVG Export Plug-In . SVG Version: 6.00 Build 0)  -->
<svg version="1.1" id="Layer_1" xmlns="http://www.w3.org/2000/svg" xmlns:xlink="http://www.w3.org/1999/xlink" x="0px" y="0px"
	 viewBox="0 0 210 210" style="enable-background:new 0 0 210 210;" xml:space="preserve">
<style type="text/css">
	.st0{fill:none;}
	.st1{fill:#FAFAFA;}
	.st2{fill:#CCCCCC;}
	.st3{fill:#E6E6E6;}
	.st4{fill:none;stroke:#B3B3B3;stroke-width:3;stroke-miterlimit:10;}
	.st5{fill:#FFFFFF;}
	.st6{fill:url(#SVGID_1_);}
</style>
<pattern  y="210" width="92" height="140" patternUnits="userSpaceOnUse" id="acier_2" viewBox="0 -140 92 140" style="overflow:visible;">
	<g>
		<rect y="-140" class="st0" width="92" height="140"/>
		<rect x="-24" y="-82" transform="matrix(-1.836970e-16 1 -1 -1.836970e-16 -24 -116)" class="st1" width="140" height="24"/>
		<rect x="-7" y="-75" transform="matrix(-1.836970e-16 1 -1 -1.836970e-16 -7 -133)" class="st2" width="140" height="10"/>
		<rect x="-41" y="-75" transform="matrix(-1.836970e-16 1 -1 -1.836970e-16 -41 -99)" class="st3" width="140" height="10"/>
		<rect x="10" y="-82" transform="matrix(-1.836970e-16 1 -1 -1.836970e-16 10 -150)" class="st1" width="140" height="24"/>
		<rect x="-58" y="-82" transform="matrix(-1.836970e-16 1 -1 -1.836970e-16 -58 -82)" class="st1" width="140" height="24"/>
		<polyline class="st4" points="0,-52 24,-52 34,-60 58,-60 68,-52 92,-52 		"/>
	</g>
</pattern>
<circle class="st5" cx="105" cy="105" r="105"/>
<pattern  id="SVGID_1_" xlink:href="#acier_2" patternTransform="matrix(0.8571 0 0 0.8571 -1155 -1115)">
</pattern>
<circle class="st6" cx="105" cy="105" r="90"/>
</svg>
