<?xml version="1.0" encoding="utf-8"?>
<!-- Generator: Adobe Illustrator 24.1.3, SVG Export Plug-In . SVG Version: 6.00 Build 0)  -->
<svg version="1.1" id="Layer_1" xmlns="http://www.w3.org/2000/svg" xmlns:xlink="http://www.w3.org/1999/xlink" x="0px" y="0px"
	 viewBox="0 0 210 210" style="enable-background:new 0 0 210 210;" xml:space="preserve">
<style type="text/css">
	.st0{clip-path:url(#SVGID_2_);}
	.st1{fill:none;}
	.st2{fill:#E5E5FF;}
	.st3{fill:#B3B3FF;}
	.st4{fill:#CCCCFF;}
	.st5{fill:none;stroke:#9999FF;stroke-width:2.5713;stroke-miterlimit:10;}
</style>
<g>
	<g>
		<defs>
			<circle id="SVGID_1_" cx="105" cy="105" r="105"/>
		</defs>
		<clipPath id="SVGID_2_">
			<use xlink:href="#SVGID_1_"  style="overflow:visible;"/>
		</clipPath>
		<g class="st0">
			<rect x="157.3" y="107.6" class="st1" width="92" height="140"/>
			<g>
				<rect x="157.3" y="107.6" class="st1" width="92" height="140"/>
				<rect x="191.3" y="107.6" class="st2" width="24" height="140"/>
				<rect x="215.3" y="107.6" class="st3" width="10" height="140"/>
				<rect x="181.3" y="107.6" class="st4" width="10" height="140"/>
				<rect x="225.3" y="107.6" class="st2" width="24" height="140"/>
				<rect x="157.3" y="107.6" class="st2" width="24" height="140"/>
				<polyline class="st5" points="157.3,195.6 181.3,195.6 191.3,187.6 215.3,187.6 225.3,195.6 249.3,195.6 				"/>
			</g>
		</g>
		<g class="st0">
			<rect x="157.3" y="-32.4" class="st1" width="92" height="140"/>
			<g>
				<rect x="157.3" y="-32.4" class="st1" width="92" height="140"/>
				<rect x="191.3" y="-32.4" class="st2" width="24" height="140"/>
				<rect x="215.3" y="-32.4" class="st3" width="10" height="140"/>
				<rect x="181.3" y="-32.4" class="st4" width="10" height="140"/>
				<rect x="225.3" y="-32.4" class="st2" width="24" height="140"/>
				<rect x="157.3" y="-32.4" class="st2" width="24" height="140"/>
				<polyline class="st5" points="157.3,55.6 181.3,55.6 191.3,47.6 215.3,47.6 225.3,55.6 249.3,55.6 				"/>
			</g>
		</g>
		<g class="st0">
			<rect x="65.3" y="107.6" class="st1" width="92" height="140"/>
			<g>
				<rect x="65.3" y="107.6" class="st1" width="92" height="140"/>
				<rect x="99.3" y="107.6" class="st2" width="24" height="140"/>
				<rect x="123.3" y="107.6" class="st3" width="10" height="140"/>
				<rect x="89.3" y="107.6" class="st4" width="10" height="140"/>
				<rect x="133.3" y="107.6" class="st2" width="24" height="140"/>
				<rect x="65.3" y="107.6" class="st2" width="24" height="140"/>
				<polyline class="st5" points="65.3,195.6 89.3,195.6 99.3,187.6 123.3,187.6 133.3,195.6 157.3,195.6 				"/>
			</g>
		</g>
		<g class="st0">
			<rect x="65.3" y="-32.4" class="st1" width="92" height="140"/>
			<g>
				<rect x="65.3" y="-32.4" class="st1" width="92" height="140"/>
				<rect x="99.3" y="-32.4" class="st2" width="24" height="140"/>
				<rect x="123.3" y="-32.4" class="st3" width="10" height="140"/>
				<rect x="89.3" y="-32.4" class="st4" width="10" height="140"/>
				<rect x="133.3" y="-32.4" class="st2" width="24" height="140"/>
				<rect x="65.3" y="-32.4" class="st2" width="24" height="140"/>
				<polyline class="st5" points="65.3,55.6 89.3,55.6 99.3,47.6 123.3,47.6 133.3,55.6 157.3,55.6 				"/>
			</g>
		</g>
		<g class="st0">
			<rect x="-26.7" y="107.6" class="st1" width="92" height="140"/>
			<g>
				<rect x="-26.7" y="107.6" class="st1" width="92" height="140"/>
				<rect x="7.3" y="107.6" class="st2" width="24" height="140"/>
				<rect x="31.3" y="107.6" class="st3" width="10" height="140"/>
				<rect x="-2.7" y="107.6" class="st4" width="10" height="140"/>
				<rect x="41.3" y="107.6" class="st2" width="24" height="140"/>
				<rect x="-26.7" y="107.6" class="st2" width="24" height="140"/>
				<polyline class="st5" points="-26.7,195.6 -2.7,195.6 7.3,187.6 31.3,187.6 41.3,195.6 65.3,195.6 				"/>
			</g>
		</g>
		<g class="st0">
			<rect x="-26.7" y="-32.4" class="st1" width="92" height="140"/>
			<g>
				<rect x="-26.7" y="-32.4" class="st1" width="92" height="140"/>
				<rect x="7.3" y="-32.4" class="st2" width="24" height="140"/>
				<rect x="31.3" y="-32.4" class="st3" width="10" height="140"/>
				<rect x="-2.7" y="-32.4" class="st4" width="10" height="140"/>
				<rect x="41.3" y="-32.4" class="st2" width="24" height="140"/>
				<rect x="-26.7" y="-32.4" class="st2" width="24" height="140"/>
				<polyline class="st5" points="-26.7,55.6 -2.7,55.6 7.3,47.6 31.3,47.6 41.3,55.6 65.3,55.6 				"/>
			</g>
		</g>
	</g>
</g>
</svg>
