<?xml version="1.0" encoding="utf-8"?>
<!-- Generator: Adobe Illustrator 24.1.3, SVG Export Plug-In . SVG Version: 6.00 Build 0)  -->
<svg version="1.1" id="Layer_1" xmlns="http://www.w3.org/2000/svg" xmlns:xlink="http://www.w3.org/1999/xlink" x="0px" y="0px"
	 viewBox="0 0 210 210" style="enable-background:new 0 0 210 210;" xml:space="preserve">
<style type="text/css">
	.st0{clip-path:url(#SVGID_2_);}
	.st1{clip-path:url(#SVGID_4_);}
	.st2{fill:none;}
	.st3{clip-path:url(#SVGID_6_);}
	.st4{fill:#CCCCCC;}
	.st5{fill:#E6E6E6;}
	.st6{clip-path:url(#SVGID_8_);}
	.st7{fill:#B3B3B3;}
	.st8{fill:#7F7F7F;}
	.st9{clip-path:url(#SVGID_10_);}
	.st10{clip-path:url(#SVGID_12_);}
	.st11{clip-path:url(#SVGID_14_);}
	.st12{clip-path:url(#SVGID_16_);}
	.st13{clip-path:url(#SVGID_18_);}
	.st14{clip-path:url(#SVGID_20_);}
	.st15{clip-path:url(#SVGID_22_);}
	.st16{clip-path:url(#SVGID_24_);}
	.st17{clip-path:url(#SVGID_26_);}
	.st18{clip-path:url(#SVGID_28_);}
	.st19{clip-path:url(#SVGID_30_);}
	.st20{clip-path:url(#SVGID_32_);}
	.st21{clip-path:url(#SVGID_34_);}
	.st22{clip-path:url(#SVGID_36_);}
	.st23{clip-path:url(#SVGID_38_);}
	.st24{clip-path:url(#SVGID_40_);}
	.st25{clip-path:url(#SVGID_42_);}
	.st26{clip-path:url(#SVGID_44_);}
	.st27{clip-path:url(#SVGID_46_);}
	.st28{clip-path:url(#SVGID_48_);}
	.st29{clip-path:url(#SVGID_50_);}
	.st30{clip-path:url(#SVGID_52_);}
	.st31{clip-path:url(#SVGID_54_);}
	.st32{clip-path:url(#SVGID_56_);}
	.st33{clip-path:url(#SVGID_58_);}
	.st34{clip-path:url(#SVGID_60_);}
	.st35{clip-path:url(#SVGID_62_);}
	.st36{clip-path:url(#SVGID_64_);}
	.st37{clip-path:url(#SVGID_66_);}
	.st38{clip-path:url(#SVGID_68_);}
	.st39{clip-path:url(#SVGID_70_);}
	.st40{clip-path:url(#SVGID_72_);}
	.st41{clip-path:url(#SVGID_74_);}
	.st42{clip-path:url(#SVGID_76_);}
	.st43{clip-path:url(#SVGID_78_);}
	.st44{clip-path:url(#SVGID_80_);}
	.st45{clip-path:url(#SVGID_82_);}
	.st46{clip-path:url(#SVGID_84_);}
	.st47{clip-path:url(#SVGID_86_);}
	.st48{clip-path:url(#SVGID_88_);}
	.st49{clip-path:url(#SVGID_90_);}
	.st50{clip-path:url(#SVGID_92_);}
	.st51{clip-path:url(#SVGID_94_);}
	.st52{clip-path:url(#SVGID_96_);}
	.st53{clip-path:url(#SVGID_98_);}
	.st54{clip-path:url(#SVGID_100_);}
	.st55{clip-path:url(#SVGID_102_);}
	.st56{clip-path:url(#SVGID_104_);}
	.st57{clip-path:url(#SVGID_106_);}
	.st58{clip-path:url(#SVGID_108_);}
	.st59{clip-path:url(#SVGID_110_);}
	.st60{clip-path:url(#SVGID_112_);}
	.st61{clip-path:url(#SVGID_114_);}
	.st62{clip-path:url(#SVGID_116_);}
	.st63{clip-path:url(#SVGID_118_);}
	.st64{clip-path:url(#SVGID_120_);}
	.st65{clip-path:url(#SVGID_122_);}
	.st66{clip-path:url(#SVGID_124_);}
	.st67{clip-path:url(#SVGID_126_);}
	.st68{clip-path:url(#SVGID_128_);}
	.st69{clip-path:url(#SVGID_130_);}
	.st70{clip-path:url(#SVGID_132_);}
	.st71{clip-path:url(#SVGID_134_);}
	.st72{clip-path:url(#SVGID_136_);}
	.st73{clip-path:url(#SVGID_138_);}
	.st74{clip-path:url(#SVGID_140_);}
	.st75{clip-path:url(#SVGID_142_);}
	.st76{clip-path:url(#SVGID_144_);}
	.st77{clip-path:url(#SVGID_146_);}
</style>
<g>
	<g>
		<defs>
			<circle id="SVGID_1_" cx="105" cy="105" r="105"/>
		</defs>
		<clipPath id="SVGID_2_">
			<use xlink:href="#SVGID_1_"  style="overflow:visible;"/>
		</clipPath>
		<g class="st0">
			<g>
				<defs>
					<rect id="SVGID_3_" x="195.9" y="-56.4" width="87" height="106"/>
				</defs>
				<clipPath id="SVGID_4_">
					<use xlink:href="#SVGID_3_"  style="overflow:visible;"/>
				</clipPath>
				<g class="st1">
					<rect x="195.9" y="-56.4" class="st2" width="87" height="106"/>
					<g>
						<g>
							<defs>
								<rect id="SVGID_5_" x="195.9" y="-56.4" width="87" height="106"/>
							</defs>
							<clipPath id="SVGID_6_">
								<use xlink:href="#SVGID_5_"  style="overflow:visible;"/>
							</clipPath>
							<g class="st3">
								<rect x="239.4" y="23.1" class="st4" width="84" height="48"/>
								<rect x="239.4" y="23.1" class="st5" width="84" height="4"/>
								<rect x="239.4" y="23.1" class="st5" width="4" height="48"/>
							</g>
						</g>
						<g>
							<defs>
								<rect id="SVGID_7_" x="195.9" y="-56.4" width="87" height="106"/>
							</defs>
							<clipPath id="SVGID_8_">
								<use xlink:href="#SVGID_7_"  style="overflow:visible;"/>
							</clipPath>
							<g class="st6">
								<rect x="152.4" y="23.1" class="st4" width="84" height="48"/>
								<rect x="152.4" y="23.1" class="st5" width="84" height="4"/>
								<rect x="232.4" y="23.1" class="st7" width="4" height="48"/>
								<rect x="236.4" y="23.1" class="st8" width="3" height="53"/>
							</g>
						</g>
						<g>
							<defs>
								<rect id="SVGID_9_" x="195.9" y="-56.4" width="87" height="106"/>
							</defs>
							<clipPath id="SVGID_10_">
								<use xlink:href="#SVGID_9_"  style="overflow:visible;"/>
							</clipPath>
							<g class="st9">
								<rect x="195.9" y="-29.9" class="st4" width="84" height="48"/>
								<rect x="195.9" y="-29.9" class="st5" width="84" height="4"/>
								<rect x="195.9" y="14.1" class="st7" width="84" height="4"/>
								<rect x="195.9" y="-29.9" class="st5" width="4" height="48"/>
								<rect x="275.9" y="-29.9" class="st7" width="4" height="48"/>
								<rect x="195.9" y="18.1" class="st8" width="84" height="5"/>
								<rect x="279.9" y="-29.9" class="st8" width="3" height="53"/>
							</g>
						</g>
						<g>
							<defs>
								<rect id="SVGID_11_" x="195.9" y="-56.4" width="87" height="106"/>
							</defs>
							<clipPath id="SVGID_12_">
								<use xlink:href="#SVGID_11_"  style="overflow:visible;"/>
							</clipPath>
							<g class="st10">
								<rect x="239.4" y="-82.9" class="st4" width="84" height="48"/>
								<rect x="239.4" y="-38.9" class="st7" width="84" height="4"/>
								<rect x="239.4" y="-82.9" class="st5" width="4" height="48"/>
								<rect x="239.4" y="-34.9" class="st8" width="84" height="5"/>
							</g>
						</g>
						<g>
							<defs>
								<rect id="SVGID_13_" x="195.9" y="-56.4" width="87" height="106"/>
							</defs>
							<clipPath id="SVGID_14_">
								<use xlink:href="#SVGID_13_"  style="overflow:visible;"/>
							</clipPath>
							<g class="st11">
								<rect x="152.4" y="-82.9" class="st4" width="84" height="48"/>
								<rect x="152.4" y="-38.9" class="st7" width="84" height="4"/>
								<rect x="232.4" y="-82.9" class="st7" width="4" height="48"/>
								<rect x="152.4" y="-34.9" class="st8" width="84" height="5"/>
								<rect x="236.4" y="-82.9" class="st8" width="3" height="53"/>
							</g>
						</g>
					</g>
				</g>
			</g>
		</g>
		<g class="st0">
			<g>
				<defs>
					<rect id="SVGID_15_" x="195.9" y="49.6" width="87" height="106"/>
				</defs>
				<clipPath id="SVGID_16_">
					<use xlink:href="#SVGID_15_"  style="overflow:visible;"/>
				</clipPath>
				<g class="st12">
					<rect x="195.9" y="49.6" class="st2" width="87" height="106"/>
					<g>
						<g>
							<defs>
								<rect id="SVGID_17_" x="195.9" y="49.6" width="87" height="106"/>
							</defs>
							<clipPath id="SVGID_18_">
								<use xlink:href="#SVGID_17_"  style="overflow:visible;"/>
							</clipPath>
							<g class="st13">
								<rect x="239.4" y="129.1" class="st4" width="84" height="48"/>
								<rect x="239.4" y="129.1" class="st5" width="84" height="4"/>
								<rect x="239.4" y="129.1" class="st5" width="4" height="48"/>
							</g>
						</g>
						<g>
							<defs>
								<rect id="SVGID_19_" x="195.9" y="49.6" width="87" height="106"/>
							</defs>
							<clipPath id="SVGID_20_">
								<use xlink:href="#SVGID_19_"  style="overflow:visible;"/>
							</clipPath>
							<g class="st14">
								<rect x="152.4" y="129.1" class="st4" width="84" height="48"/>
								<rect x="152.4" y="129.1" class="st5" width="84" height="4"/>
								<rect x="232.4" y="129.1" class="st7" width="4" height="48"/>
								<rect x="236.4" y="129.1" class="st8" width="3" height="53"/>
							</g>
						</g>
						<g>
							<defs>
								<rect id="SVGID_21_" x="195.9" y="49.6" width="87" height="106"/>
							</defs>
							<clipPath id="SVGID_22_">
								<use xlink:href="#SVGID_21_"  style="overflow:visible;"/>
							</clipPath>
							<g class="st15">
								<rect x="195.9" y="76.1" class="st4" width="84" height="48"/>
								<rect x="195.9" y="76.1" class="st5" width="84" height="4"/>
								<rect x="195.9" y="120.1" class="st7" width="84" height="4"/>
								<rect x="195.9" y="76.1" class="st5" width="4" height="48"/>
								<rect x="275.9" y="76.1" class="st7" width="4" height="48"/>
								<rect x="195.9" y="124.1" class="st8" width="84" height="5"/>
								<rect x="279.9" y="76.1" class="st8" width="3" height="53"/>
							</g>
						</g>
						<g>
							<defs>
								<rect id="SVGID_23_" x="195.9" y="49.6" width="87" height="106"/>
							</defs>
							<clipPath id="SVGID_24_">
								<use xlink:href="#SVGID_23_"  style="overflow:visible;"/>
							</clipPath>
							<g class="st16">
								<rect x="239.4" y="23.1" class="st4" width="84" height="48"/>
								<rect x="239.4" y="67.1" class="st7" width="84" height="4"/>
								<rect x="239.4" y="23.1" class="st5" width="4" height="48"/>
								<rect x="239.4" y="71.1" class="st8" width="84" height="5"/>
							</g>
						</g>
						<g>
							<defs>
								<rect id="SVGID_25_" x="195.9" y="49.6" width="87" height="106"/>
							</defs>
							<clipPath id="SVGID_26_">
								<use xlink:href="#SVGID_25_"  style="overflow:visible;"/>
							</clipPath>
							<g class="st17">
								<rect x="152.4" y="23.1" class="st4" width="84" height="48"/>
								<rect x="152.4" y="67.1" class="st7" width="84" height="4"/>
								<rect x="232.4" y="23.1" class="st7" width="4" height="48"/>
								<rect x="152.4" y="71.1" class="st8" width="84" height="5"/>
								<rect x="236.4" y="23.1" class="st8" width="3" height="53"/>
							</g>
						</g>
					</g>
				</g>
			</g>
		</g>
		<g class="st0">
			<g>
				<defs>
					<rect id="SVGID_27_" x="195.9" y="155.6" width="87" height="106"/>
				</defs>
				<clipPath id="SVGID_28_">
					<use xlink:href="#SVGID_27_"  style="overflow:visible;"/>
				</clipPath>
				<g class="st18">
					<rect x="195.9" y="155.6" class="st2" width="87" height="106"/>
					<g>
						<g>
							<defs>
								<rect id="SVGID_29_" x="195.9" y="155.6" width="87" height="106"/>
							</defs>
							<clipPath id="SVGID_30_">
								<use xlink:href="#SVGID_29_"  style="overflow:visible;"/>
							</clipPath>
							<g class="st19">
								<rect x="239.4" y="235.1" class="st4" width="84" height="48"/>
								<rect x="239.4" y="235.1" class="st5" width="84" height="4"/>
								<rect x="239.4" y="235.1" class="st5" width="4" height="48"/>
							</g>
						</g>
						<g>
							<defs>
								<rect id="SVGID_31_" x="195.9" y="155.6" width="87" height="106"/>
							</defs>
							<clipPath id="SVGID_32_">
								<use xlink:href="#SVGID_31_"  style="overflow:visible;"/>
							</clipPath>
							<g class="st20">
								<rect x="152.4" y="235.1" class="st4" width="84" height="48"/>
								<rect x="152.4" y="235.1" class="st5" width="84" height="4"/>
								<rect x="232.4" y="235.1" class="st7" width="4" height="48"/>
								<rect x="236.4" y="235.1" class="st8" width="3" height="53"/>
							</g>
						</g>
						<g>
							<defs>
								<rect id="SVGID_33_" x="195.9" y="155.6" width="87" height="106"/>
							</defs>
							<clipPath id="SVGID_34_">
								<use xlink:href="#SVGID_33_"  style="overflow:visible;"/>
							</clipPath>
							<g class="st21">
								<rect x="195.9" y="182.1" class="st4" width="84" height="48"/>
								<rect x="195.9" y="182.1" class="st5" width="84" height="4"/>
								<rect x="195.9" y="226.1" class="st7" width="84" height="4"/>
								<rect x="195.9" y="182.1" class="st5" width="4" height="48"/>
								<rect x="275.9" y="182.1" class="st7" width="4" height="48"/>
								<rect x="195.9" y="230.1" class="st8" width="84" height="5"/>
								<rect x="279.9" y="182.1" class="st8" width="3" height="53"/>
							</g>
						</g>
						<g>
							<defs>
								<rect id="SVGID_35_" x="195.9" y="155.6" width="87" height="106"/>
							</defs>
							<clipPath id="SVGID_36_">
								<use xlink:href="#SVGID_35_"  style="overflow:visible;"/>
							</clipPath>
							<g class="st22">
								<rect x="239.4" y="129.1" class="st4" width="84" height="48"/>
								<rect x="239.4" y="173.1" class="st7" width="84" height="4"/>
								<rect x="239.4" y="129.1" class="st5" width="4" height="48"/>
								<rect x="239.4" y="177.1" class="st8" width="84" height="5"/>
							</g>
						</g>
						<g>
							<defs>
								<rect id="SVGID_37_" x="195.9" y="155.6" width="87" height="106"/>
							</defs>
							<clipPath id="SVGID_38_">
								<use xlink:href="#SVGID_37_"  style="overflow:visible;"/>
							</clipPath>
							<g class="st23">
								<rect x="152.4" y="129.1" class="st4" width="84" height="48"/>
								<rect x="152.4" y="173.1" class="st7" width="84" height="4"/>
								<rect x="232.4" y="129.1" class="st7" width="4" height="48"/>
								<rect x="152.4" y="177.1" class="st8" width="84" height="5"/>
								<rect x="236.4" y="129.1" class="st8" width="3" height="53"/>
							</g>
						</g>
					</g>
				</g>
			</g>
		</g>
		<g class="st0">
			<g>
				<defs>
					<rect id="SVGID_39_" x="108.9" y="-56.4" width="87" height="106"/>
				</defs>
				<clipPath id="SVGID_40_">
					<use xlink:href="#SVGID_39_"  style="overflow:visible;"/>
				</clipPath>
				<g class="st24">
					<rect x="108.9" y="-56.4" class="st2" width="87" height="106"/>
					<g>
						<g>
							<defs>
								<rect id="SVGID_41_" x="108.9" y="-56.4" width="87" height="106"/>
							</defs>
							<clipPath id="SVGID_42_">
								<use xlink:href="#SVGID_41_"  style="overflow:visible;"/>
							</clipPath>
							<g class="st25">
								<rect x="152.4" y="23.1" class="st4" width="84" height="48"/>
								<rect x="152.4" y="23.1" class="st5" width="84" height="4"/>
								<rect x="152.4" y="23.1" class="st5" width="4" height="48"/>
							</g>
						</g>
						<g>
							<defs>
								<rect id="SVGID_43_" x="108.9" y="-56.4" width="87" height="106"/>
							</defs>
							<clipPath id="SVGID_44_">
								<use xlink:href="#SVGID_43_"  style="overflow:visible;"/>
							</clipPath>
							<g class="st26">
								<rect x="65.4" y="23.1" class="st4" width="84" height="48"/>
								<rect x="65.4" y="23.1" class="st5" width="84" height="4"/>
								<rect x="145.4" y="23.1" class="st7" width="4" height="48"/>
								<rect x="149.4" y="23.1" class="st8" width="3" height="53"/>
							</g>
						</g>
						<g>
							<defs>
								<rect id="SVGID_45_" x="108.9" y="-56.4" width="87" height="106"/>
							</defs>
							<clipPath id="SVGID_46_">
								<use xlink:href="#SVGID_45_"  style="overflow:visible;"/>
							</clipPath>
							<g class="st27">
								<rect x="108.9" y="-29.9" class="st4" width="84" height="48"/>
								<rect x="108.9" y="-29.9" class="st5" width="84" height="4"/>
								<rect x="108.9" y="14.1" class="st7" width="84" height="4"/>
								<rect x="108.9" y="-29.9" class="st5" width="4" height="48"/>
								<rect x="188.9" y="-29.9" class="st7" width="4" height="48"/>
								<rect x="108.9" y="18.1" class="st8" width="84" height="5"/>
								<rect x="192.9" y="-29.9" class="st8" width="3" height="53"/>
							</g>
						</g>
						<g>
							<defs>
								<rect id="SVGID_47_" x="108.9" y="-56.4" width="87" height="106"/>
							</defs>
							<clipPath id="SVGID_48_">
								<use xlink:href="#SVGID_47_"  style="overflow:visible;"/>
							</clipPath>
							<g class="st28">
								<rect x="152.4" y="-82.9" class="st4" width="84" height="48"/>
								<rect x="152.4" y="-38.9" class="st7" width="84" height="4"/>
								<rect x="152.4" y="-82.9" class="st5" width="4" height="48"/>
								<rect x="152.4" y="-34.9" class="st8" width="84" height="5"/>
							</g>
						</g>
						<g>
							<defs>
								<rect id="SVGID_49_" x="108.9" y="-56.4" width="87" height="106"/>
							</defs>
							<clipPath id="SVGID_50_">
								<use xlink:href="#SVGID_49_"  style="overflow:visible;"/>
							</clipPath>
							<g class="st29">
								<rect x="65.4" y="-82.9" class="st4" width="84" height="48"/>
								<rect x="65.4" y="-38.9" class="st7" width="84" height="4"/>
								<rect x="145.4" y="-82.9" class="st7" width="4" height="48"/>
								<rect x="65.4" y="-34.9" class="st8" width="84" height="5"/>
								<rect x="149.4" y="-82.9" class="st8" width="3" height="53"/>
							</g>
						</g>
					</g>
				</g>
			</g>
		</g>
		<g class="st0">
			<g>
				<defs>
					<rect id="SVGID_51_" x="108.9" y="49.6" width="87" height="106"/>
				</defs>
				<clipPath id="SVGID_52_">
					<use xlink:href="#SVGID_51_"  style="overflow:visible;"/>
				</clipPath>
				<g class="st30">
					<rect x="108.9" y="49.6" class="st2" width="87" height="106"/>
					<g>
						<g>
							<defs>
								<rect id="SVGID_53_" x="108.9" y="49.6" width="87" height="106"/>
							</defs>
							<clipPath id="SVGID_54_">
								<use xlink:href="#SVGID_53_"  style="overflow:visible;"/>
							</clipPath>
							<g class="st31">
								<rect x="152.4" y="129.1" class="st4" width="84" height="48"/>
								<rect x="152.4" y="129.1" class="st5" width="84" height="4"/>
								<rect x="152.4" y="129.1" class="st5" width="4" height="48"/>
							</g>
						</g>
						<g>
							<defs>
								<rect id="SVGID_55_" x="108.9" y="49.6" width="87" height="106"/>
							</defs>
							<clipPath id="SVGID_56_">
								<use xlink:href="#SVGID_55_"  style="overflow:visible;"/>
							</clipPath>
							<g class="st32">
								<rect x="65.4" y="129.1" class="st4" width="84" height="48"/>
								<rect x="65.4" y="129.1" class="st5" width="84" height="4"/>
								<rect x="145.4" y="129.1" class="st7" width="4" height="48"/>
								<rect x="149.4" y="129.1" class="st8" width="3" height="53"/>
							</g>
						</g>
						<g>
							<defs>
								<rect id="SVGID_57_" x="108.9" y="49.6" width="87" height="106"/>
							</defs>
							<clipPath id="SVGID_58_">
								<use xlink:href="#SVGID_57_"  style="overflow:visible;"/>
							</clipPath>
							<g class="st33">
								<rect x="108.9" y="76.1" class="st4" width="84" height="48"/>
								<rect x="108.9" y="76.1" class="st5" width="84" height="4"/>
								<rect x="108.9" y="120.1" class="st7" width="84" height="4"/>
								<rect x="108.9" y="76.1" class="st5" width="4" height="48"/>
								<rect x="188.9" y="76.1" class="st7" width="4" height="48"/>
								<rect x="108.9" y="124.1" class="st8" width="84" height="5"/>
								<rect x="192.9" y="76.1" class="st8" width="3" height="53"/>
							</g>
						</g>
						<g>
							<defs>
								<rect id="SVGID_59_" x="108.9" y="49.6" width="87" height="106"/>
							</defs>
							<clipPath id="SVGID_60_">
								<use xlink:href="#SVGID_59_"  style="overflow:visible;"/>
							</clipPath>
							<g class="st34">
								<rect x="152.4" y="23.1" class="st4" width="84" height="48"/>
								<rect x="152.4" y="67.1" class="st7" width="84" height="4"/>
								<rect x="152.4" y="23.1" class="st5" width="4" height="48"/>
								<rect x="152.4" y="71.1" class="st8" width="84" height="5"/>
							</g>
						</g>
						<g>
							<defs>
								<rect id="SVGID_61_" x="108.9" y="49.6" width="87" height="106"/>
							</defs>
							<clipPath id="SVGID_62_">
								<use xlink:href="#SVGID_61_"  style="overflow:visible;"/>
							</clipPath>
							<g class="st35">
								<rect x="65.4" y="23.1" class="st4" width="84" height="48"/>
								<rect x="65.4" y="67.1" class="st7" width="84" height="4"/>
								<rect x="145.4" y="23.1" class="st7" width="4" height="48"/>
								<rect x="65.4" y="71.1" class="st8" width="84" height="5"/>
								<rect x="149.4" y="23.1" class="st8" width="3" height="53"/>
							</g>
						</g>
					</g>
				</g>
			</g>
		</g>
		<g class="st0">
			<g>
				<defs>
					<rect id="SVGID_63_" x="108.9" y="155.6" width="87" height="106"/>
				</defs>
				<clipPath id="SVGID_64_">
					<use xlink:href="#SVGID_63_"  style="overflow:visible;"/>
				</clipPath>
				<g class="st36">
					<rect x="108.9" y="155.6" class="st2" width="87" height="106"/>
					<g>
						<g>
							<defs>
								<rect id="SVGID_65_" x="108.9" y="155.6" width="87" height="106"/>
							</defs>
							<clipPath id="SVGID_66_">
								<use xlink:href="#SVGID_65_"  style="overflow:visible;"/>
							</clipPath>
							<g class="st37">
								<rect x="152.4" y="235.1" class="st4" width="84" height="48"/>
								<rect x="152.4" y="235.1" class="st5" width="84" height="4"/>
								<rect x="152.4" y="235.1" class="st5" width="4" height="48"/>
							</g>
						</g>
						<g>
							<defs>
								<rect id="SVGID_67_" x="108.9" y="155.6" width="87" height="106"/>
							</defs>
							<clipPath id="SVGID_68_">
								<use xlink:href="#SVGID_67_"  style="overflow:visible;"/>
							</clipPath>
							<g class="st38">
								<rect x="65.4" y="235.1" class="st4" width="84" height="48"/>
								<rect x="65.4" y="235.1" class="st5" width="84" height="4"/>
								<rect x="145.4" y="235.1" class="st7" width="4" height="48"/>
								<rect x="149.4" y="235.1" class="st8" width="3" height="53"/>
							</g>
						</g>
						<g>
							<defs>
								<rect id="SVGID_69_" x="108.9" y="155.6" width="87" height="106"/>
							</defs>
							<clipPath id="SVGID_70_">
								<use xlink:href="#SVGID_69_"  style="overflow:visible;"/>
							</clipPath>
							<g class="st39">
								<rect x="108.9" y="182.1" class="st4" width="84" height="48"/>
								<rect x="108.9" y="182.1" class="st5" width="84" height="4"/>
								<rect x="108.9" y="226.1" class="st7" width="84" height="4"/>
								<rect x="108.9" y="182.1" class="st5" width="4" height="48"/>
								<rect x="188.9" y="182.1" class="st7" width="4" height="48"/>
								<rect x="108.9" y="230.1" class="st8" width="84" height="5"/>
								<rect x="192.9" y="182.1" class="st8" width="3" height="53"/>
							</g>
						</g>
						<g>
							<defs>
								<rect id="SVGID_71_" x="108.9" y="155.6" width="87" height="106"/>
							</defs>
							<clipPath id="SVGID_72_">
								<use xlink:href="#SVGID_71_"  style="overflow:visible;"/>
							</clipPath>
							<g class="st40">
								<rect x="152.4" y="129.1" class="st4" width="84" height="48"/>
								<rect x="152.4" y="173.1" class="st7" width="84" height="4"/>
								<rect x="152.4" y="129.1" class="st5" width="4" height="48"/>
								<rect x="152.4" y="177.1" class="st8" width="84" height="5"/>
							</g>
						</g>
						<g>
							<defs>
								<rect id="SVGID_73_" x="108.9" y="155.6" width="87" height="106"/>
							</defs>
							<clipPath id="SVGID_74_">
								<use xlink:href="#SVGID_73_"  style="overflow:visible;"/>
							</clipPath>
							<g class="st41">
								<rect x="65.4" y="129.1" class="st4" width="84" height="48"/>
								<rect x="65.4" y="173.1" class="st7" width="84" height="4"/>
								<rect x="145.4" y="129.1" class="st7" width="4" height="48"/>
								<rect x="65.4" y="177.1" class="st8" width="84" height="5"/>
								<rect x="149.4" y="129.1" class="st8" width="3" height="53"/>
							</g>
						</g>
					</g>
				</g>
			</g>
		</g>
		<g class="st0">
			<g>
				<defs>
					<rect id="SVGID_75_" x="21.9" y="-56.4" width="87" height="106"/>
				</defs>
				<clipPath id="SVGID_76_">
					<use xlink:href="#SVGID_75_"  style="overflow:visible;"/>
				</clipPath>
				<g class="st42">
					<rect x="21.9" y="-56.4" class="st2" width="87" height="106"/>
					<g>
						<g>
							<defs>
								<rect id="SVGID_77_" x="21.9" y="-56.4" width="87" height="106"/>
							</defs>
							<clipPath id="SVGID_78_">
								<use xlink:href="#SVGID_77_"  style="overflow:visible;"/>
							</clipPath>
							<g class="st43">
								<rect x="65.4" y="23.1" class="st4" width="84" height="48"/>
								<rect x="65.4" y="23.1" class="st5" width="84" height="4"/>
								<rect x="65.4" y="23.1" class="st5" width="4" height="48"/>
							</g>
						</g>
						<g>
							<defs>
								<rect id="SVGID_79_" x="21.9" y="-56.4" width="87" height="106"/>
							</defs>
							<clipPath id="SVGID_80_">
								<use xlink:href="#SVGID_79_"  style="overflow:visible;"/>
							</clipPath>
							<g class="st44">
								<rect x="-21.6" y="23.1" class="st4" width="84" height="48"/>
								<rect x="-21.6" y="23.1" class="st5" width="84" height="4"/>
								<rect x="58.4" y="23.1" class="st7" width="4" height="48"/>
								<rect x="62.4" y="23.1" class="st8" width="3" height="53"/>
							</g>
						</g>
						<g>
							<defs>
								<rect id="SVGID_81_" x="21.9" y="-56.4" width="87" height="106"/>
							</defs>
							<clipPath id="SVGID_82_">
								<use xlink:href="#SVGID_81_"  style="overflow:visible;"/>
							</clipPath>
							<g class="st45">
								<rect x="21.9" y="-29.9" class="st4" width="84" height="48"/>
								<rect x="21.9" y="-29.9" class="st5" width="84" height="4"/>
								<rect x="21.9" y="14.1" class="st7" width="84" height="4"/>
								<rect x="21.9" y="-29.9" class="st5" width="4" height="48"/>
								<rect x="101.9" y="-29.9" class="st7" width="4" height="48"/>
								<rect x="21.9" y="18.1" class="st8" width="84" height="5"/>
								<rect x="105.9" y="-29.9" class="st8" width="3" height="53"/>
							</g>
						</g>
						<g>
							<defs>
								<rect id="SVGID_83_" x="21.9" y="-56.4" width="87" height="106"/>
							</defs>
							<clipPath id="SVGID_84_">
								<use xlink:href="#SVGID_83_"  style="overflow:visible;"/>
							</clipPath>
							<g class="st46">
								<rect x="65.4" y="-82.9" class="st4" width="84" height="48"/>
								<rect x="65.4" y="-38.9" class="st7" width="84" height="4"/>
								<rect x="65.4" y="-82.9" class="st5" width="4" height="48"/>
								<rect x="65.4" y="-34.9" class="st8" width="84" height="5"/>
							</g>
						</g>
						<g>
							<defs>
								<rect id="SVGID_85_" x="21.9" y="-56.4" width="87" height="106"/>
							</defs>
							<clipPath id="SVGID_86_">
								<use xlink:href="#SVGID_85_"  style="overflow:visible;"/>
							</clipPath>
							<g class="st47">
								<rect x="-21.6" y="-82.9" class="st4" width="84" height="48"/>
								<rect x="-21.6" y="-38.9" class="st7" width="84" height="4"/>
								<rect x="58.4" y="-82.9" class="st7" width="4" height="48"/>
								<rect x="-21.6" y="-34.9" class="st8" width="84" height="5"/>
								<rect x="62.4" y="-82.9" class="st8" width="3" height="53"/>
							</g>
						</g>
					</g>
				</g>
			</g>
		</g>
		<g class="st0">
			<g>
				<defs>
					<rect id="SVGID_87_" x="21.9" y="49.6" width="87" height="106"/>
				</defs>
				<clipPath id="SVGID_88_">
					<use xlink:href="#SVGID_87_"  style="overflow:visible;"/>
				</clipPath>
				<g class="st48">
					<rect x="21.9" y="49.6" class="st2" width="87" height="106"/>
					<g>
						<g>
							<defs>
								<rect id="SVGID_89_" x="21.9" y="49.6" width="87" height="106"/>
							</defs>
							<clipPath id="SVGID_90_">
								<use xlink:href="#SVGID_89_"  style="overflow:visible;"/>
							</clipPath>
							<g class="st49">
								<rect x="65.4" y="129.1" class="st4" width="84" height="48"/>
								<rect x="65.4" y="129.1" class="st5" width="84" height="4"/>
								<rect x="65.4" y="129.1" class="st5" width="4" height="48"/>
							</g>
						</g>
						<g>
							<defs>
								<rect id="SVGID_91_" x="21.9" y="49.6" width="87" height="106"/>
							</defs>
							<clipPath id="SVGID_92_">
								<use xlink:href="#SVGID_91_"  style="overflow:visible;"/>
							</clipPath>
							<g class="st50">
								<rect x="-21.6" y="129.1" class="st4" width="84" height="48"/>
								<rect x="-21.6" y="129.1" class="st5" width="84" height="4"/>
								<rect x="58.4" y="129.1" class="st7" width="4" height="48"/>
								<rect x="62.4" y="129.1" class="st8" width="3" height="53"/>
							</g>
						</g>
						<g>
							<defs>
								<rect id="SVGID_93_" x="21.9" y="49.6" width="87" height="106"/>
							</defs>
							<clipPath id="SVGID_94_">
								<use xlink:href="#SVGID_93_"  style="overflow:visible;"/>
							</clipPath>
							<g class="st51">
								<rect x="21.9" y="76.1" class="st4" width="84" height="48"/>
								<rect x="21.9" y="76.1" class="st5" width="84" height="4"/>
								<rect x="21.9" y="120.1" class="st7" width="84" height="4"/>
								<rect x="21.9" y="76.1" class="st5" width="4" height="48"/>
								<rect x="101.9" y="76.1" class="st7" width="4" height="48"/>
								<rect x="21.9" y="124.1" class="st8" width="84" height="5"/>
								<rect x="105.9" y="76.1" class="st8" width="3" height="53"/>
							</g>
						</g>
						<g>
							<defs>
								<rect id="SVGID_95_" x="21.9" y="49.6" width="87" height="106"/>
							</defs>
							<clipPath id="SVGID_96_">
								<use xlink:href="#SVGID_95_"  style="overflow:visible;"/>
							</clipPath>
							<g class="st52">
								<rect x="65.4" y="23.1" class="st4" width="84" height="48"/>
								<rect x="65.4" y="67.1" class="st7" width="84" height="4"/>
								<rect x="65.4" y="23.1" class="st5" width="4" height="48"/>
								<rect x="65.4" y="71.1" class="st8" width="84" height="5"/>
							</g>
						</g>
						<g>
							<defs>
								<rect id="SVGID_97_" x="21.9" y="49.6" width="87" height="106"/>
							</defs>
							<clipPath id="SVGID_98_">
								<use xlink:href="#SVGID_97_"  style="overflow:visible;"/>
							</clipPath>
							<g class="st53">
								<rect x="-21.6" y="23.1" class="st4" width="84" height="48"/>
								<rect x="-21.6" y="67.1" class="st7" width="84" height="4"/>
								<rect x="58.4" y="23.1" class="st7" width="4" height="48"/>
								<rect x="-21.6" y="71.1" class="st8" width="84" height="5"/>
								<rect x="62.4" y="23.1" class="st8" width="3" height="53"/>
							</g>
						</g>
					</g>
				</g>
			</g>
		</g>
		<g class="st0">
			<g>
				<defs>
					<rect id="SVGID_99_" x="21.9" y="155.6" width="87" height="106"/>
				</defs>
				<clipPath id="SVGID_100_">
					<use xlink:href="#SVGID_99_"  style="overflow:visible;"/>
				</clipPath>
				<g class="st54">
					<rect x="21.9" y="155.6" class="st2" width="87" height="106"/>
					<g>
						<g>
							<defs>
								<rect id="SVGID_101_" x="21.9" y="155.6" width="87" height="106"/>
							</defs>
							<clipPath id="SVGID_102_">
								<use xlink:href="#SVGID_101_"  style="overflow:visible;"/>
							</clipPath>
							<g class="st55">
								<rect x="65.4" y="235.1" class="st4" width="84" height="48"/>
								<rect x="65.4" y="235.1" class="st5" width="84" height="4"/>
								<rect x="65.4" y="235.1" class="st5" width="4" height="48"/>
							</g>
						</g>
						<g>
							<defs>
								<rect id="SVGID_103_" x="21.9" y="155.6" width="87" height="106"/>
							</defs>
							<clipPath id="SVGID_104_">
								<use xlink:href="#SVGID_103_"  style="overflow:visible;"/>
							</clipPath>
							<g class="st56">
								<rect x="-21.6" y="235.1" class="st4" width="84" height="48"/>
								<rect x="-21.6" y="235.1" class="st5" width="84" height="4"/>
								<rect x="58.4" y="235.1" class="st7" width="4" height="48"/>
								<rect x="62.4" y="235.1" class="st8" width="3" height="53"/>
							</g>
						</g>
						<g>
							<defs>
								<rect id="SVGID_105_" x="21.9" y="155.6" width="87" height="106"/>
							</defs>
							<clipPath id="SVGID_106_">
								<use xlink:href="#SVGID_105_"  style="overflow:visible;"/>
							</clipPath>
							<g class="st57">
								<rect x="21.9" y="182.1" class="st4" width="84" height="48"/>
								<rect x="21.9" y="182.1" class="st5" width="84" height="4"/>
								<rect x="21.9" y="226.1" class="st7" width="84" height="4"/>
								<rect x="21.9" y="182.1" class="st5" width="4" height="48"/>
								<rect x="101.9" y="182.1" class="st7" width="4" height="48"/>
								<rect x="21.9" y="230.1" class="st8" width="84" height="5"/>
								<rect x="105.9" y="182.1" class="st8" width="3" height="53"/>
							</g>
						</g>
						<g>
							<defs>
								<rect id="SVGID_107_" x="21.9" y="155.6" width="87" height="106"/>
							</defs>
							<clipPath id="SVGID_108_">
								<use xlink:href="#SVGID_107_"  style="overflow:visible;"/>
							</clipPath>
							<g class="st58">
								<rect x="65.4" y="129.1" class="st4" width="84" height="48"/>
								<rect x="65.4" y="173.1" class="st7" width="84" height="4"/>
								<rect x="65.4" y="129.1" class="st5" width="4" height="48"/>
								<rect x="65.4" y="177.1" class="st8" width="84" height="5"/>
							</g>
						</g>
						<g>
							<defs>
								<rect id="SVGID_109_" x="21.9" y="155.6" width="87" height="106"/>
							</defs>
							<clipPath id="SVGID_110_">
								<use xlink:href="#SVGID_109_"  style="overflow:visible;"/>
							</clipPath>
							<g class="st59">
								<rect x="-21.6" y="129.1" class="st4" width="84" height="48"/>
								<rect x="-21.6" y="173.1" class="st7" width="84" height="4"/>
								<rect x="58.4" y="129.1" class="st7" width="4" height="48"/>
								<rect x="-21.6" y="177.1" class="st8" width="84" height="5"/>
								<rect x="62.4" y="129.1" class="st8" width="3" height="53"/>
							</g>
						</g>
					</g>
				</g>
			</g>
		</g>
		<g class="st0">
			<g>
				<defs>
					<rect id="SVGID_111_" x="-65.1" y="-56.4" width="87" height="106"/>
				</defs>
				<clipPath id="SVGID_112_">
					<use xlink:href="#SVGID_111_"  style="overflow:visible;"/>
				</clipPath>
				<g class="st60">
					<rect x="-65.1" y="-56.4" class="st2" width="87" height="106"/>
					<g>
						<g>
							<defs>
								<rect id="SVGID_113_" x="-65.1" y="-56.4" width="87" height="106"/>
							</defs>
							<clipPath id="SVGID_114_">
								<use xlink:href="#SVGID_113_"  style="overflow:visible;"/>
							</clipPath>
							<g class="st61">
								<rect x="-21.6" y="23.1" class="st4" width="84" height="48"/>
								<rect x="-21.6" y="23.1" class="st5" width="84" height="4"/>
								<rect x="-21.6" y="23.1" class="st5" width="4" height="48"/>
							</g>
						</g>
						<g>
							<defs>
								<rect id="SVGID_115_" x="-65.1" y="-56.4" width="87" height="106"/>
							</defs>
							<clipPath id="SVGID_116_">
								<use xlink:href="#SVGID_115_"  style="overflow:visible;"/>
							</clipPath>
							<g class="st62">
								<rect x="-108.6" y="23.1" class="st4" width="84" height="48"/>
								<rect x="-108.6" y="23.1" class="st5" width="84" height="4"/>
								<rect x="-28.6" y="23.1" class="st7" width="4" height="48"/>
								<rect x="-24.6" y="23.1" class="st8" width="3" height="53"/>
							</g>
						</g>
						<g>
							<defs>
								<rect id="SVGID_117_" x="-65.1" y="-56.4" width="87" height="106"/>
							</defs>
							<clipPath id="SVGID_118_">
								<use xlink:href="#SVGID_117_"  style="overflow:visible;"/>
							</clipPath>
							<g class="st63">
								<rect x="-65.1" y="-29.9" class="st4" width="84" height="48"/>
								<rect x="-65.1" y="-29.9" class="st5" width="84" height="4"/>
								<rect x="-65.1" y="14.1" class="st7" width="84" height="4"/>
								<rect x="-65.1" y="-29.9" class="st5" width="4" height="48"/>
								<rect x="14.9" y="-29.9" class="st7" width="4" height="48"/>
								<rect x="-65.1" y="18.1" class="st8" width="84" height="5"/>
								<rect x="18.9" y="-29.9" class="st8" width="3" height="53"/>
							</g>
						</g>
						<g>
							<defs>
								<rect id="SVGID_119_" x="-65.1" y="-56.4" width="87" height="106"/>
							</defs>
							<clipPath id="SVGID_120_">
								<use xlink:href="#SVGID_119_"  style="overflow:visible;"/>
							</clipPath>
							<g class="st64">
								<rect x="-21.6" y="-82.9" class="st4" width="84" height="48"/>
								<rect x="-21.6" y="-38.9" class="st7" width="84" height="4"/>
								<rect x="-21.6" y="-82.9" class="st5" width="4" height="48"/>
								<rect x="-21.6" y="-34.9" class="st8" width="84" height="5"/>
							</g>
						</g>
						<g>
							<defs>
								<rect id="SVGID_121_" x="-65.1" y="-56.4" width="87" height="106"/>
							</defs>
							<clipPath id="SVGID_122_">
								<use xlink:href="#SVGID_121_"  style="overflow:visible;"/>
							</clipPath>
							<g class="st65">
								<rect x="-108.6" y="-82.9" class="st4" width="84" height="48"/>
								<rect x="-108.6" y="-38.9" class="st7" width="84" height="4"/>
								<rect x="-28.6" y="-82.9" class="st7" width="4" height="48"/>
								<rect x="-108.6" y="-34.9" class="st8" width="84" height="5"/>
								<rect x="-24.6" y="-82.9" class="st8" width="3" height="53"/>
							</g>
						</g>
					</g>
				</g>
			</g>
		</g>
		<g class="st0">
			<g>
				<defs>
					<rect id="SVGID_123_" x="-65.1" y="49.6" width="87" height="106"/>
				</defs>
				<clipPath id="SVGID_124_">
					<use xlink:href="#SVGID_123_"  style="overflow:visible;"/>
				</clipPath>
				<g class="st66">
					<rect x="-65.1" y="49.6" class="st2" width="87" height="106"/>
					<g>
						<g>
							<defs>
								<rect id="SVGID_125_" x="-65.1" y="49.6" width="87" height="106"/>
							</defs>
							<clipPath id="SVGID_126_">
								<use xlink:href="#SVGID_125_"  style="overflow:visible;"/>
							</clipPath>
							<g class="st67">
								<rect x="-21.6" y="129.1" class="st4" width="84" height="48"/>
								<rect x="-21.6" y="129.1" class="st5" width="84" height="4"/>
								<rect x="-21.6" y="129.1" class="st5" width="4" height="48"/>
							</g>
						</g>
						<g>
							<defs>
								<rect id="SVGID_127_" x="-65.1" y="49.6" width="87" height="106"/>
							</defs>
							<clipPath id="SVGID_128_">
								<use xlink:href="#SVGID_127_"  style="overflow:visible;"/>
							</clipPath>
							<g class="st68">
								<rect x="-108.6" y="129.1" class="st4" width="84" height="48"/>
								<rect x="-108.6" y="129.1" class="st5" width="84" height="4"/>
								<rect x="-28.6" y="129.1" class="st7" width="4" height="48"/>
								<rect x="-24.6" y="129.1" class="st8" width="3" height="53"/>
							</g>
						</g>
						<g>
							<defs>
								<rect id="SVGID_129_" x="-65.1" y="49.6" width="87" height="106"/>
							</defs>
							<clipPath id="SVGID_130_">
								<use xlink:href="#SVGID_129_"  style="overflow:visible;"/>
							</clipPath>
							<g class="st69">
								<rect x="-65.1" y="76.1" class="st4" width="84" height="48"/>
								<rect x="-65.1" y="76.1" class="st5" width="84" height="4"/>
								<rect x="-65.1" y="120.1" class="st7" width="84" height="4"/>
								<rect x="-65.1" y="76.1" class="st5" width="4" height="48"/>
								<rect x="14.9" y="76.1" class="st7" width="4" height="48"/>
								<rect x="-65.1" y="124.1" class="st8" width="84" height="5"/>
								<rect x="18.9" y="76.1" class="st8" width="3" height="53"/>
							</g>
						</g>
						<g>
							<defs>
								<rect id="SVGID_131_" x="-65.1" y="49.6" width="87" height="106"/>
							</defs>
							<clipPath id="SVGID_132_">
								<use xlink:href="#SVGID_131_"  style="overflow:visible;"/>
							</clipPath>
							<g class="st70">
								<rect x="-21.6" y="23.1" class="st4" width="84" height="48"/>
								<rect x="-21.6" y="67.1" class="st7" width="84" height="4"/>
								<rect x="-21.6" y="23.1" class="st5" width="4" height="48"/>
								<rect x="-21.6" y="71.1" class="st8" width="84" height="5"/>
							</g>
						</g>
						<g>
							<defs>
								<rect id="SVGID_133_" x="-65.1" y="49.6" width="87" height="106"/>
							</defs>
							<clipPath id="SVGID_134_">
								<use xlink:href="#SVGID_133_"  style="overflow:visible;"/>
							</clipPath>
							<g class="st71">
								<rect x="-108.6" y="23.1" class="st4" width="84" height="48"/>
								<rect x="-108.6" y="67.1" class="st7" width="84" height="4"/>
								<rect x="-28.6" y="23.1" class="st7" width="4" height="48"/>
								<rect x="-108.6" y="71.1" class="st8" width="84" height="5"/>
								<rect x="-24.6" y="23.1" class="st8" width="3" height="53"/>
							</g>
						</g>
					</g>
				</g>
			</g>
		</g>
		<g class="st0">
			<g>
				<defs>
					<rect id="SVGID_135_" x="-65.1" y="155.6" width="87" height="106"/>
				</defs>
				<clipPath id="SVGID_136_">
					<use xlink:href="#SVGID_135_"  style="overflow:visible;"/>
				</clipPath>
				<g class="st72">
					<rect x="-65.1" y="155.6" class="st2" width="87" height="106"/>
					<g>
						<g>
							<defs>
								<rect id="SVGID_137_" x="-65.1" y="155.6" width="87" height="106"/>
							</defs>
							<clipPath id="SVGID_138_">
								<use xlink:href="#SVGID_137_"  style="overflow:visible;"/>
							</clipPath>
							<g class="st73">
								<rect x="-21.6" y="235.1" class="st4" width="84" height="48"/>
								<rect x="-21.6" y="235.1" class="st5" width="84" height="4"/>
								<rect x="-21.6" y="235.1" class="st5" width="4" height="48"/>
							</g>
						</g>
						<g>
							<defs>
								<rect id="SVGID_139_" x="-65.1" y="155.6" width="87" height="106"/>
							</defs>
							<clipPath id="SVGID_140_">
								<use xlink:href="#SVGID_139_"  style="overflow:visible;"/>
							</clipPath>
							<g class="st74">
								<rect x="-108.6" y="235.1" class="st4" width="84" height="48"/>
								<rect x="-108.6" y="235.1" class="st5" width="84" height="4"/>
								<rect x="-28.6" y="235.1" class="st7" width="4" height="48"/>
								<rect x="-24.6" y="235.1" class="st8" width="3" height="53"/>
							</g>
						</g>
						<g>
							<defs>
								<rect id="SVGID_141_" x="-65.1" y="155.6" width="87" height="106"/>
							</defs>
							<clipPath id="SVGID_142_">
								<use xlink:href="#SVGID_141_"  style="overflow:visible;"/>
							</clipPath>
							<g class="st75">
								<rect x="-65.1" y="182.1" class="st4" width="84" height="48"/>
								<rect x="-65.1" y="182.1" class="st5" width="84" height="4"/>
								<rect x="-65.1" y="226.1" class="st7" width="84" height="4"/>
								<rect x="-65.1" y="182.1" class="st5" width="4" height="48"/>
								<rect x="14.9" y="182.1" class="st7" width="4" height="48"/>
								<rect x="-65.1" y="230.1" class="st8" width="84" height="5"/>
								<rect x="18.9" y="182.1" class="st8" width="3" height="53"/>
							</g>
						</g>
						<g>
							<defs>
								<rect id="SVGID_143_" x="-65.1" y="155.6" width="87" height="106"/>
							</defs>
							<clipPath id="SVGID_144_">
								<use xlink:href="#SVGID_143_"  style="overflow:visible;"/>
							</clipPath>
							<g class="st76">
								<rect x="-21.6" y="129.1" class="st4" width="84" height="48"/>
								<rect x="-21.6" y="173.1" class="st7" width="84" height="4"/>
								<rect x="-21.6" y="129.1" class="st5" width="4" height="48"/>
								<rect x="-21.6" y="177.1" class="st8" width="84" height="5"/>
							</g>
						</g>
						<g>
							<defs>
								<rect id="SVGID_145_" x="-65.1" y="155.6" width="87" height="106"/>
							</defs>
							<clipPath id="SVGID_146_">
								<use xlink:href="#SVGID_145_"  style="overflow:visible;"/>
							</clipPath>
							<g class="st77">
								<rect x="-108.6" y="129.1" class="st4" width="84" height="48"/>
								<rect x="-108.6" y="173.1" class="st7" width="84" height="4"/>
								<rect x="-28.6" y="129.1" class="st7" width="4" height="48"/>
								<rect x="-108.6" y="177.1" class="st8" width="84" height="5"/>
								<rect x="-24.6" y="129.1" class="st8" width="3" height="53"/>
							</g>
						</g>
					</g>
				</g>
			</g>
		</g>
	</g>
</g>
</svg>
