<?xml version="1.0" encoding="utf-8"?>
<!-- Generator: Adobe Illustrator 24.1.3, SVG Export Plug-In . SVG Version: 6.00 Build 0)  -->
<svg version="1.1" id="Layer_1" xmlns="http://www.w3.org/2000/svg" xmlns:xlink="http://www.w3.org/1999/xlink" x="0px" y="0px"
	 viewBox="0 0 210 210" style="enable-background:new 0 0 210 210;" xml:space="preserve">
<style type="text/css">
	.st0{clip-path:url(#SVGID_2_);}
	.st1{clip-path:url(#SVGID_4_);}
	.st2{fill:none;}
	.st3{fill:#9999FF;}
	.st4{fill:#B3B3FF;}
	.st5{fill:#8080FF;}
	.st6{fill:#414199;}
	.st7{clip-path:url(#SVGID_6_);}
	.st8{clip-path:url(#SVGID_8_);}
	.st9{clip-path:url(#SVGID_10_);}
	.st10{clip-path:url(#SVGID_12_);}
	.st11{clip-path:url(#SVGID_14_);}
	.st12{clip-path:url(#SVGID_16_);}
	.st13{clip-path:url(#SVGID_18_);}
	.st14{clip-path:url(#SVGID_20_);}
	.st15{clip-path:url(#SVGID_22_);}
	.st16{clip-path:url(#SVGID_24_);}
	.st17{clip-path:url(#SVGID_26_);}
	.st18{clip-path:url(#SVGID_28_);}
	.st19{clip-path:url(#SVGID_30_);}
	.st20{clip-path:url(#SVGID_32_);}
	.st21{clip-path:url(#SVGID_34_);}
	.st22{clip-path:url(#SVGID_36_);}
	.st23{clip-path:url(#SVGID_38_);}
	.st24{clip-path:url(#SVGID_40_);}
	.st25{clip-path:url(#SVGID_42_);}
	.st26{clip-path:url(#SVGID_44_);}
	.st27{clip-path:url(#SVGID_46_);}
	.st28{clip-path:url(#SVGID_48_);}
</style>
<g>
	<g>
		<g>
			<defs>
				<circle id="SVGID_1_" cx="105" cy="105" r="105"/>
			</defs>
			<clipPath id="SVGID_2_">
				<use xlink:href="#SVGID_1_"  style="overflow:visible;"/>
			</clipPath>
			<g class="st0">
				<g>
					<g>
						<defs>
							<rect id="SVGID_3_" x="195.9" y="-56.3" width="87" height="106"/>
						</defs>
						<clipPath id="SVGID_4_">
							<use xlink:href="#SVGID_3_"  style="overflow:visible;"/>
						</clipPath>
						<g class="st1">
							<rect x="195.9" y="-56.3" class="st2" width="87" height="106"/>
							<g>
								<rect x="195.9" y="-56.3" class="st2" width="87" height="106"/>
								<g>
									<rect x="239.4" y="23.2" class="st3" width="84.1" height="48"/>
									<rect x="239.4" y="23.2" class="st4" width="84.1" height="4"/>
									<rect x="239.4" y="23.2" class="st4" width="4" height="48"/>
								</g>
								<g>
									<rect x="152.4" y="23.2" class="st3" width="84.1" height="48"/>
									<rect x="152.4" y="23.2" class="st4" width="84.1" height="4"/>
									<rect x="232.5" y="23.2" class="st5" width="4" height="48"/>
									<rect x="236.4" y="23.2" class="st6" width="3" height="53"/>
								</g>
								<g>
									<rect x="195.9" y="-29.8" class="st3" width="84.1" height="48"/>
									<rect x="195.9" y="-29.8" class="st4" width="84.1" height="4"/>
									<rect x="195.9" y="14.2" class="st5" width="84.1" height="4"/>
									<rect x="195.9" y="-29.8" class="st4" width="4" height="48"/>
									<rect x="276" y="-29.8" class="st5" width="4" height="48"/>
									<rect x="195.9" y="18.1" class="st6" width="84.1" height="5"/>
									<rect x="279.9" y="-29.8" class="st6" width="3" height="53"/>
								</g>
								<g>
									<rect x="239.4" y="-82.8" class="st3" width="84.1" height="48"/>
									<rect x="239.4" y="-38.8" class="st5" width="84.1" height="4"/>
									<rect x="239.4" y="-82.8" class="st4" width="4" height="48"/>
									<rect x="239.4" y="-34.9" class="st6" width="84.1" height="5"/>
								</g>
								<g>
									<rect x="152.4" y="-82.8" class="st3" width="84.1" height="48"/>
									<rect x="152.4" y="-38.8" class="st5" width="84.1" height="4"/>
									<rect x="232.5" y="-82.8" class="st5" width="4" height="48"/>
									<rect x="152.4" y="-34.9" class="st6" width="84.1" height="5"/>
									<rect x="236.4" y="-82.8" class="st6" width="3" height="53"/>
								</g>
							</g>
						</g>
					</g>
				</g>
			</g>
		</g>
		<g>
			<defs>
				<circle id="SVGID_5_" cx="105" cy="105" r="105"/>
			</defs>
			<clipPath id="SVGID_6_">
				<use xlink:href="#SVGID_5_"  style="overflow:visible;"/>
			</clipPath>
			<g class="st7">
				<g>
					<g>
						<defs>
							<rect id="SVGID_7_" x="195.9" y="49.7" width="87" height="106"/>
						</defs>
						<clipPath id="SVGID_8_">
							<use xlink:href="#SVGID_7_"  style="overflow:visible;"/>
						</clipPath>
						<g class="st8">
							<rect x="195.9" y="49.7" class="st2" width="87" height="106"/>
							<g>
								<rect x="195.9" y="49.7" class="st2" width="87" height="106"/>
								<g>
									<rect x="239.4" y="129.2" class="st3" width="84.1" height="48"/>
									<rect x="239.4" y="129.2" class="st4" width="84.1" height="4"/>
									<rect x="239.4" y="129.2" class="st4" width="4" height="48"/>
								</g>
								<g>
									<rect x="152.4" y="129.2" class="st3" width="84.1" height="48"/>
									<rect x="152.4" y="129.2" class="st4" width="84.1" height="4"/>
									<rect x="232.5" y="129.2" class="st5" width="4" height="48"/>
									<rect x="236.4" y="129.2" class="st6" width="3" height="53"/>
								</g>
								<g>
									<rect x="195.9" y="76.2" class="st3" width="84.1" height="48"/>
									<rect x="195.9" y="76.2" class="st4" width="84.1" height="4"/>
									<rect x="195.9" y="120.2" class="st5" width="84.1" height="4"/>
									<rect x="195.9" y="76.2" class="st4" width="4" height="48"/>
									<rect x="276" y="76.2" class="st5" width="4" height="48"/>
									<rect x="195.9" y="124.1" class="st6" width="84.1" height="5"/>
									<rect x="279.9" y="76.2" class="st6" width="3" height="53"/>
								</g>
								<g>
									<rect x="239.4" y="23.2" class="st3" width="84.1" height="48"/>
									<rect x="239.4" y="67.2" class="st5" width="84.1" height="4"/>
									<rect x="239.4" y="23.2" class="st4" width="4" height="48"/>
									<rect x="239.4" y="71.1" class="st6" width="84.1" height="5"/>
								</g>
								<g>
									<rect x="152.4" y="23.2" class="st3" width="84.1" height="48"/>
									<rect x="152.4" y="67.2" class="st5" width="84.1" height="4"/>
									<rect x="232.5" y="23.2" class="st5" width="4" height="48"/>
									<rect x="152.4" y="71.1" class="st6" width="84.1" height="5"/>
									<rect x="236.4" y="23.2" class="st6" width="3" height="53"/>
								</g>
							</g>
						</g>
					</g>
				</g>
			</g>
		</g>
		<g>
			<defs>
				<circle id="SVGID_9_" cx="105" cy="105" r="105"/>
			</defs>
			<clipPath id="SVGID_10_">
				<use xlink:href="#SVGID_9_"  style="overflow:visible;"/>
			</clipPath>
			<g class="st9">
				<g>
					<g>
						<defs>
							<rect id="SVGID_11_" x="195.9" y="155.7" width="87" height="106"/>
						</defs>
						<clipPath id="SVGID_12_">
							<use xlink:href="#SVGID_11_"  style="overflow:visible;"/>
						</clipPath>
						<g class="st10">
							<rect x="195.9" y="155.7" class="st2" width="87" height="106"/>
							<g>
								<rect x="195.9" y="155.7" class="st2" width="87" height="106"/>
								<g>
									<rect x="239.4" y="235.2" class="st3" width="84.1" height="48"/>
									<rect x="239.4" y="235.2" class="st4" width="84.1" height="4"/>
									<rect x="239.4" y="235.2" class="st4" width="4" height="48"/>
								</g>
								<g>
									<rect x="152.4" y="235.2" class="st3" width="84.1" height="48"/>
									<rect x="152.4" y="235.2" class="st4" width="84.1" height="4"/>
									<rect x="232.5" y="235.2" class="st5" width="4" height="48"/>
									<rect x="236.4" y="235.2" class="st6" width="3" height="53"/>
								</g>
								<g>
									<rect x="195.9" y="182.2" class="st3" width="84.1" height="48"/>
									<rect x="195.9" y="182.2" class="st4" width="84.1" height="4"/>
									<rect x="195.9" y="226.2" class="st5" width="84.1" height="4"/>
									<rect x="195.9" y="182.2" class="st4" width="4" height="48"/>
									<rect x="276" y="182.2" class="st5" width="4" height="48"/>
									<rect x="195.9" y="230.1" class="st6" width="84.1" height="5"/>
									<rect x="279.9" y="182.2" class="st6" width="3" height="53"/>
								</g>
								<g>
									<rect x="239.4" y="129.2" class="st3" width="84.1" height="48"/>
									<rect x="239.4" y="173.2" class="st5" width="84.1" height="4"/>
									<rect x="239.4" y="129.2" class="st4" width="4" height="48"/>
									<rect x="239.4" y="177.1" class="st6" width="84.1" height="5"/>
								</g>
								<g>
									<rect x="152.4" y="129.2" class="st3" width="84.1" height="48"/>
									<rect x="152.4" y="173.2" class="st5" width="84.1" height="4"/>
									<rect x="232.5" y="129.2" class="st5" width="4" height="48"/>
									<rect x="152.4" y="177.1" class="st6" width="84.1" height="5"/>
									<rect x="236.4" y="129.2" class="st6" width="3" height="53"/>
								</g>
							</g>
						</g>
					</g>
				</g>
			</g>
		</g>
		<g>
			<defs>
				<circle id="SVGID_13_" cx="105" cy="105" r="105"/>
			</defs>
			<clipPath id="SVGID_14_">
				<use xlink:href="#SVGID_13_"  style="overflow:visible;"/>
			</clipPath>
			<g class="st11">
				<g>
					<g>
						<defs>
							<rect id="SVGID_15_" x="108.9" y="-56.3" width="87" height="106"/>
						</defs>
						<clipPath id="SVGID_16_">
							<use xlink:href="#SVGID_15_"  style="overflow:visible;"/>
						</clipPath>
						<g class="st12">
							<rect x="108.9" y="-56.3" class="st2" width="87" height="106"/>
							<g>
								<rect x="108.9" y="-56.3" class="st2" width="87" height="106"/>
								<g>
									<rect x="152.4" y="23.2" class="st3" width="84.1" height="48"/>
									<rect x="152.4" y="23.2" class="st4" width="84.1" height="4"/>
									<rect x="152.4" y="23.2" class="st4" width="4" height="48"/>
								</g>
								<g>
									<rect x="65.4" y="23.2" class="st3" width="84.1" height="48"/>
									<rect x="65.4" y="23.2" class="st4" width="84.1" height="4"/>
									<rect x="145.4" y="23.2" class="st5" width="4" height="48"/>
									<rect x="149.4" y="23.2" class="st6" width="3" height="53"/>
								</g>
								<g>
									<rect x="108.9" y="-29.8" class="st3" width="84.1" height="48"/>
									<rect x="108.9" y="-29.8" class="st4" width="84.1" height="4"/>
									<rect x="108.9" y="14.2" class="st5" width="84.1" height="4"/>
									<rect x="108.9" y="-29.8" class="st4" width="4" height="48"/>
									<rect x="189" y="-29.8" class="st5" width="4" height="48"/>
									<rect x="108.9" y="18.1" class="st6" width="84.1" height="5"/>
									<rect x="192.9" y="-29.8" class="st6" width="3" height="53"/>
								</g>
								<g>
									<rect x="152.4" y="-82.8" class="st3" width="84.1" height="48"/>
									<rect x="152.4" y="-38.8" class="st5" width="84.1" height="4"/>
									<rect x="152.4" y="-82.8" class="st4" width="4" height="48"/>
									<rect x="152.4" y="-34.9" class="st6" width="84.1" height="5"/>
								</g>
								<g>
									<rect x="65.4" y="-82.8" class="st3" width="84.1" height="48"/>
									<rect x="65.4" y="-38.8" class="st5" width="84.1" height="4"/>
									<rect x="145.4" y="-82.8" class="st5" width="4" height="48"/>
									<rect x="65.4" y="-34.9" class="st6" width="84.1" height="5"/>
									<rect x="149.4" y="-82.8" class="st6" width="3" height="53"/>
								</g>
							</g>
						</g>
					</g>
				</g>
			</g>
		</g>
		<g>
			<defs>
				<circle id="SVGID_17_" cx="105" cy="105" r="105"/>
			</defs>
			<clipPath id="SVGID_18_">
				<use xlink:href="#SVGID_17_"  style="overflow:visible;"/>
			</clipPath>
			<g class="st13">
				<g>
					<g>
						<defs>
							<rect id="SVGID_19_" x="108.9" y="49.7" width="87" height="106"/>
						</defs>
						<clipPath id="SVGID_20_">
							<use xlink:href="#SVGID_19_"  style="overflow:visible;"/>
						</clipPath>
						<g class="st14">
							<rect x="108.9" y="49.7" class="st2" width="87" height="106"/>
							<g>
								<rect x="108.9" y="49.7" class="st2" width="87" height="106"/>
								<g>
									<rect x="152.4" y="129.2" class="st3" width="84.1" height="48"/>
									<rect x="152.4" y="129.2" class="st4" width="84.1" height="4"/>
									<rect x="152.4" y="129.2" class="st4" width="4" height="48"/>
								</g>
								<g>
									<rect x="65.4" y="129.2" class="st3" width="84.1" height="48"/>
									<rect x="65.4" y="129.2" class="st4" width="84.1" height="4"/>
									<rect x="145.4" y="129.2" class="st5" width="4" height="48"/>
									<rect x="149.4" y="129.2" class="st6" width="3" height="53"/>
								</g>
								<g>
									<rect x="108.9" y="76.2" class="st3" width="84.1" height="48"/>
									<rect x="108.9" y="76.2" class="st4" width="84.1" height="4"/>
									<rect x="108.9" y="120.2" class="st5" width="84.1" height="4"/>
									<rect x="108.9" y="76.2" class="st4" width="4" height="48"/>
									<rect x="189" y="76.2" class="st5" width="4" height="48"/>
									<rect x="108.9" y="124.1" class="st6" width="84.1" height="5"/>
									<rect x="192.9" y="76.2" class="st6" width="3" height="53"/>
								</g>
								<g>
									<rect x="152.4" y="23.2" class="st3" width="84.1" height="48"/>
									<rect x="152.4" y="67.2" class="st5" width="84.1" height="4"/>
									<rect x="152.4" y="23.2" class="st4" width="4" height="48"/>
									<rect x="152.4" y="71.1" class="st6" width="84.1" height="5"/>
								</g>
								<g>
									<rect x="65.4" y="23.2" class="st3" width="84.1" height="48"/>
									<rect x="65.4" y="67.2" class="st5" width="84.1" height="4"/>
									<rect x="145.4" y="23.2" class="st5" width="4" height="48"/>
									<rect x="65.4" y="71.1" class="st6" width="84.1" height="5"/>
									<rect x="149.4" y="23.2" class="st6" width="3" height="53"/>
								</g>
							</g>
						</g>
					</g>
				</g>
			</g>
		</g>
		<g>
			<defs>
				<circle id="SVGID_21_" cx="105" cy="105" r="105"/>
			</defs>
			<clipPath id="SVGID_22_">
				<use xlink:href="#SVGID_21_"  style="overflow:visible;"/>
			</clipPath>
			<g class="st15">
				<g>
					<g>
						<defs>
							<rect id="SVGID_23_" x="108.9" y="155.7" width="87" height="106"/>
						</defs>
						<clipPath id="SVGID_24_">
							<use xlink:href="#SVGID_23_"  style="overflow:visible;"/>
						</clipPath>
						<g class="st16">
							<rect x="108.9" y="155.7" class="st2" width="87" height="106"/>
							<g>
								<rect x="108.9" y="155.7" class="st2" width="87" height="106"/>
								<g>
									<rect x="152.4" y="235.2" class="st3" width="84.1" height="48"/>
									<rect x="152.4" y="235.2" class="st4" width="84.1" height="4"/>
									<rect x="152.4" y="235.2" class="st4" width="4" height="48"/>
								</g>
								<g>
									<rect x="65.4" y="235.2" class="st3" width="84.1" height="48"/>
									<rect x="65.4" y="235.2" class="st4" width="84.1" height="4"/>
									<rect x="145.4" y="235.2" class="st5" width="4" height="48"/>
									<rect x="149.4" y="235.2" class="st6" width="3" height="53"/>
								</g>
								<g>
									<rect x="108.9" y="182.2" class="st3" width="84.1" height="48"/>
									<rect x="108.9" y="182.2" class="st4" width="84.1" height="4"/>
									<rect x="108.9" y="226.2" class="st5" width="84.1" height="4"/>
									<rect x="108.9" y="182.2" class="st4" width="4" height="48"/>
									<rect x="189" y="182.2" class="st5" width="4" height="48"/>
									<rect x="108.9" y="230.1" class="st6" width="84.1" height="5"/>
									<rect x="192.9" y="182.2" class="st6" width="3" height="53"/>
								</g>
								<g>
									<rect x="152.4" y="129.2" class="st3" width="84.1" height="48"/>
									<rect x="152.4" y="173.2" class="st5" width="84.1" height="4"/>
									<rect x="152.4" y="129.2" class="st4" width="4" height="48"/>
									<rect x="152.4" y="177.1" class="st6" width="84.1" height="5"/>
								</g>
								<g>
									<rect x="65.4" y="129.2" class="st3" width="84.1" height="48"/>
									<rect x="65.4" y="173.2" class="st5" width="84.1" height="4"/>
									<rect x="145.4" y="129.2" class="st5" width="4" height="48"/>
									<rect x="65.4" y="177.1" class="st6" width="84.1" height="5"/>
									<rect x="149.4" y="129.2" class="st6" width="3" height="53"/>
								</g>
							</g>
						</g>
					</g>
				</g>
			</g>
		</g>
		<g>
			<defs>
				<circle id="SVGID_25_" cx="105" cy="105" r="105"/>
			</defs>
			<clipPath id="SVGID_26_">
				<use xlink:href="#SVGID_25_"  style="overflow:visible;"/>
			</clipPath>
			<g class="st17">
				<g>
					<g>
						<defs>
							<rect id="SVGID_27_" x="21.8" y="-56.3" width="87" height="106"/>
						</defs>
						<clipPath id="SVGID_28_">
							<use xlink:href="#SVGID_27_"  style="overflow:visible;"/>
						</clipPath>
						<g class="st18">
							<rect x="21.8" y="-56.3" class="st2" width="87" height="106"/>
							<g>
								<rect x="21.8" y="-56.3" class="st2" width="87" height="106"/>
								<g>
									<rect x="65.4" y="23.2" class="st3" width="84.1" height="48"/>
									<rect x="65.4" y="23.2" class="st4" width="84.1" height="4"/>
									<rect x="65.4" y="23.2" class="st4" width="4" height="48"/>
								</g>
								<g>
									<rect x="-21.6" y="23.2" class="st3" width="84.1" height="48"/>
									<rect x="-21.6" y="23.2" class="st4" width="84.1" height="4"/>
									<rect x="58.4" y="23.2" class="st5" width="4" height="48"/>
									<rect x="62.4" y="23.2" class="st6" width="3" height="53"/>
								</g>
								<g>
									<rect x="21.8" y="-29.8" class="st3" width="84.1" height="48"/>
									<rect x="21.8" y="-29.8" class="st4" width="84.1" height="4"/>
									<rect x="21.8" y="14.2" class="st5" width="84.1" height="4"/>
									<rect x="21.8" y="-29.8" class="st4" width="4" height="48"/>
									<rect x="101.9" y="-29.8" class="st5" width="4" height="48"/>
									<rect x="21.8" y="18.1" class="st6" width="84.1" height="5"/>
									<rect x="105.9" y="-29.8" class="st6" width="3" height="53"/>
								</g>
								<g>
									<rect x="65.4" y="-82.8" class="st3" width="84.1" height="48"/>
									<rect x="65.4" y="-38.8" class="st5" width="84.1" height="4"/>
									<rect x="65.4" y="-82.8" class="st4" width="4" height="48"/>
									<rect x="65.4" y="-34.9" class="st6" width="84.1" height="5"/>
								</g>
								<g>
									<rect x="-21.6" y="-82.8" class="st3" width="84.1" height="48"/>
									<rect x="-21.6" y="-38.8" class="st5" width="84.1" height="4"/>
									<rect x="58.4" y="-82.8" class="st5" width="4" height="48"/>
									<rect x="-21.6" y="-34.9" class="st6" width="84.1" height="5"/>
									<rect x="62.4" y="-82.8" class="st6" width="3" height="53"/>
								</g>
							</g>
						</g>
					</g>
				</g>
			</g>
		</g>
		<g>
			<defs>
				<circle id="SVGID_29_" cx="105" cy="105" r="105"/>
			</defs>
			<clipPath id="SVGID_30_">
				<use xlink:href="#SVGID_29_"  style="overflow:visible;"/>
			</clipPath>
			<g class="st19">
				<g>
					<g>
						<defs>
							<rect id="SVGID_31_" x="21.8" y="49.7" width="87" height="106"/>
						</defs>
						<clipPath id="SVGID_32_">
							<use xlink:href="#SVGID_31_"  style="overflow:visible;"/>
						</clipPath>
						<g class="st20">
							<rect x="21.8" y="49.7" class="st2" width="87" height="106"/>
							<g>
								<rect x="21.8" y="49.7" class="st2" width="87" height="106"/>
								<g>
									<rect x="65.4" y="129.2" class="st3" width="84.1" height="48"/>
									<rect x="65.4" y="129.2" class="st4" width="84.1" height="4"/>
									<rect x="65.4" y="129.2" class="st4" width="4" height="48"/>
								</g>
								<g>
									<rect x="-21.6" y="129.2" class="st3" width="84.1" height="48"/>
									<rect x="-21.6" y="129.2" class="st4" width="84.1" height="4"/>
									<rect x="58.4" y="129.2" class="st5" width="4" height="48"/>
									<rect x="62.4" y="129.2" class="st6" width="3" height="53"/>
								</g>
								<g>
									<rect x="21.8" y="76.2" class="st3" width="84.1" height="48"/>
									<rect x="21.8" y="76.2" class="st4" width="84.1" height="4"/>
									<rect x="21.8" y="120.2" class="st5" width="84.1" height="4"/>
									<rect x="21.8" y="76.2" class="st4" width="4" height="48"/>
									<rect x="101.9" y="76.2" class="st5" width="4" height="48"/>
									<rect x="21.8" y="124.1" class="st6" width="84.1" height="5"/>
									<rect x="105.9" y="76.2" class="st6" width="3" height="53"/>
								</g>
								<g>
									<rect x="65.4" y="23.2" class="st3" width="84.1" height="48"/>
									<rect x="65.4" y="67.2" class="st5" width="84.1" height="4"/>
									<rect x="65.4" y="23.2" class="st4" width="4" height="48"/>
									<rect x="65.4" y="71.1" class="st6" width="84.1" height="5"/>
								</g>
								<g>
									<rect x="-21.6" y="23.2" class="st3" width="84.1" height="48"/>
									<rect x="-21.6" y="67.2" class="st5" width="84.1" height="4"/>
									<rect x="58.4" y="23.2" class="st5" width="4" height="48"/>
									<rect x="-21.6" y="71.1" class="st6" width="84.1" height="5"/>
									<rect x="62.4" y="23.2" class="st6" width="3" height="53"/>
								</g>
							</g>
						</g>
					</g>
				</g>
			</g>
		</g>
		<g>
			<defs>
				<circle id="SVGID_33_" cx="105" cy="105" r="105"/>
			</defs>
			<clipPath id="SVGID_34_">
				<use xlink:href="#SVGID_33_"  style="overflow:visible;"/>
			</clipPath>
			<g class="st21">
				<g>
					<g>
						<defs>
							<rect id="SVGID_35_" x="21.8" y="155.7" width="87" height="106"/>
						</defs>
						<clipPath id="SVGID_36_">
							<use xlink:href="#SVGID_35_"  style="overflow:visible;"/>
						</clipPath>
						<g class="st22">
							<rect x="21.8" y="155.7" class="st2" width="87" height="106"/>
							<g>
								<rect x="21.8" y="155.7" class="st2" width="87" height="106"/>
								<g>
									<rect x="65.4" y="235.2" class="st3" width="84.1" height="48"/>
									<rect x="65.4" y="235.2" class="st4" width="84.1" height="4"/>
									<rect x="65.4" y="235.2" class="st4" width="4" height="48"/>
								</g>
								<g>
									<rect x="-21.6" y="235.2" class="st3" width="84.1" height="48"/>
									<rect x="-21.6" y="235.2" class="st4" width="84.1" height="4"/>
									<rect x="58.4" y="235.2" class="st5" width="4" height="48"/>
									<rect x="62.4" y="235.2" class="st6" width="3" height="53"/>
								</g>
								<g>
									<rect x="21.8" y="182.2" class="st3" width="84.1" height="48"/>
									<rect x="21.8" y="182.2" class="st4" width="84.1" height="4"/>
									<rect x="21.8" y="226.2" class="st5" width="84.1" height="4"/>
									<rect x="21.8" y="182.2" class="st4" width="4" height="48"/>
									<rect x="101.9" y="182.2" class="st5" width="4" height="48"/>
									<rect x="21.8" y="230.1" class="st6" width="84.1" height="5"/>
									<rect x="105.9" y="182.2" class="st6" width="3" height="53"/>
								</g>
								<g>
									<rect x="65.4" y="129.2" class="st3" width="84.1" height="48"/>
									<rect x="65.4" y="173.2" class="st5" width="84.1" height="4"/>
									<rect x="65.4" y="129.2" class="st4" width="4" height="48"/>
									<rect x="65.4" y="177.1" class="st6" width="84.1" height="5"/>
								</g>
								<g>
									<rect x="-21.6" y="129.2" class="st3" width="84.1" height="48"/>
									<rect x="-21.6" y="173.2" class="st5" width="84.1" height="4"/>
									<rect x="58.4" y="129.2" class="st5" width="4" height="48"/>
									<rect x="-21.6" y="177.1" class="st6" width="84.1" height="5"/>
									<rect x="62.4" y="129.2" class="st6" width="3" height="53"/>
								</g>
							</g>
						</g>
					</g>
				</g>
			</g>
		</g>
		<g>
			<defs>
				<circle id="SVGID_37_" cx="105" cy="105" r="105"/>
			</defs>
			<clipPath id="SVGID_38_">
				<use xlink:href="#SVGID_37_"  style="overflow:visible;"/>
			</clipPath>
			<g class="st23">
				<g>
					<g>
						<defs>
							<rect id="SVGID_39_" x="-65.1" y="-56.3" width="87" height="106"/>
						</defs>
						<clipPath id="SVGID_40_">
							<use xlink:href="#SVGID_39_"  style="overflow:visible;"/>
						</clipPath>
						<g class="st24">
							<rect x="-65.1" y="-56.3" class="st2" width="87" height="106"/>
							<g>
								<rect x="-65.1" y="-56.3" class="st2" width="87" height="106"/>
								<g>
									<rect x="-21.6" y="23.2" class="st3" width="84.1" height="48"/>
									<rect x="-21.6" y="23.2" class="st4" width="84.1" height="4"/>
									<rect x="-21.6" y="23.2" class="st4" width="4" height="48"/>
								</g>
								<g>
									<rect x="-108.6" y="23.2" class="st3" width="84.1" height="48"/>
									<rect x="-108.6" y="23.2" class="st4" width="84.1" height="4"/>
									<rect x="-28.6" y="23.2" class="st5" width="4" height="48"/>
									<rect x="-24.6" y="23.2" class="st6" width="3" height="53"/>
								</g>
								<g>
									<rect x="-65.1" y="-29.8" class="st3" width="84.1" height="48"/>
									<rect x="-65.1" y="-29.8" class="st4" width="84.1" height="4"/>
									<rect x="-65.1" y="14.2" class="st5" width="84.1" height="4"/>
									<rect x="-65.1" y="-29.8" class="st4" width="4" height="48"/>
									<rect x="14.9" y="-29.8" class="st5" width="4" height="48"/>
									<rect x="-65.1" y="18.1" class="st6" width="84.1" height="5"/>
									<rect x="18.9" y="-29.8" class="st6" width="3" height="53"/>
								</g>
								<g>
									<rect x="-21.6" y="-82.8" class="st3" width="84.1" height="48"/>
									<rect x="-21.6" y="-38.8" class="st5" width="84.1" height="4"/>
									<rect x="-21.6" y="-82.8" class="st4" width="4" height="48"/>
									<rect x="-21.6" y="-34.9" class="st6" width="84.1" height="5"/>
								</g>
								<g>
									<rect x="-108.6" y="-82.8" class="st3" width="84.1" height="48"/>
									<rect x="-108.6" y="-38.8" class="st5" width="84.1" height="4"/>
									<rect x="-28.6" y="-82.8" class="st5" width="4" height="48"/>
									<rect x="-108.6" y="-34.9" class="st6" width="84.1" height="5"/>
									<rect x="-24.6" y="-82.8" class="st6" width="3" height="53"/>
								</g>
							</g>
						</g>
					</g>
				</g>
			</g>
		</g>
		<g>
			<defs>
				<circle id="SVGID_41_" cx="105" cy="105" r="105"/>
			</defs>
			<clipPath id="SVGID_42_">
				<use xlink:href="#SVGID_41_"  style="overflow:visible;"/>
			</clipPath>
			<g class="st25">
				<g>
					<g>
						<defs>
							<rect id="SVGID_43_" x="-65.1" y="49.7" width="87" height="106"/>
						</defs>
						<clipPath id="SVGID_44_">
							<use xlink:href="#SVGID_43_"  style="overflow:visible;"/>
						</clipPath>
						<g class="st26">
							<rect x="-65.1" y="49.7" class="st2" width="87" height="106"/>
							<g>
								<rect x="-65.1" y="49.7" class="st2" width="87" height="106"/>
								<g>
									<rect x="-21.6" y="129.2" class="st3" width="84.1" height="48"/>
									<rect x="-21.6" y="129.2" class="st4" width="84.1" height="4"/>
									<rect x="-21.6" y="129.2" class="st4" width="4" height="48"/>
								</g>
								<g>
									<rect x="-108.6" y="129.2" class="st3" width="84.1" height="48"/>
									<rect x="-108.6" y="129.2" class="st4" width="84.1" height="4"/>
									<rect x="-28.6" y="129.2" class="st5" width="4" height="48"/>
									<rect x="-24.6" y="129.2" class="st6" width="3" height="53"/>
								</g>
								<g>
									<rect x="-65.1" y="76.2" class="st3" width="84.1" height="48"/>
									<rect x="-65.1" y="76.2" class="st4" width="84.1" height="4"/>
									<rect x="-65.1" y="120.2" class="st5" width="84.1" height="4"/>
									<rect x="-65.1" y="76.2" class="st4" width="4" height="48"/>
									<rect x="14.9" y="76.2" class="st5" width="4" height="48"/>
									<rect x="-65.1" y="124.1" class="st6" width="84.1" height="5"/>
									<rect x="18.9" y="76.2" class="st6" width="3" height="53"/>
								</g>
								<g>
									<rect x="-21.6" y="23.2" class="st3" width="84.1" height="48"/>
									<rect x="-21.6" y="67.2" class="st5" width="84.1" height="4"/>
									<rect x="-21.6" y="23.2" class="st4" width="4" height="48"/>
									<rect x="-21.6" y="71.1" class="st6" width="84.1" height="5"/>
								</g>
								<g>
									<rect x="-108.6" y="23.2" class="st3" width="84.1" height="48"/>
									<rect x="-108.6" y="67.2" class="st5" width="84.1" height="4"/>
									<rect x="-28.6" y="23.2" class="st5" width="4" height="48"/>
									<rect x="-108.6" y="71.1" class="st6" width="84.1" height="5"/>
									<rect x="-24.6" y="23.2" class="st6" width="3" height="53"/>
								</g>
							</g>
						</g>
					</g>
				</g>
			</g>
		</g>
		<g>
			<defs>
				<circle id="SVGID_45_" cx="105" cy="105" r="105"/>
			</defs>
			<clipPath id="SVGID_46_">
				<use xlink:href="#SVGID_45_"  style="overflow:visible;"/>
			</clipPath>
			<g class="st27">
				<g>
					<g>
						<defs>
							<rect id="SVGID_47_" x="-65.1" y="155.7" width="87" height="106"/>
						</defs>
						<clipPath id="SVGID_48_">
							<use xlink:href="#SVGID_47_"  style="overflow:visible;"/>
						</clipPath>
						<g class="st28">
							<rect x="-65.1" y="155.7" class="st2" width="87" height="106"/>
							<g>
								<rect x="-65.1" y="155.7" class="st2" width="87" height="106"/>
								<g>
									<rect x="-21.6" y="235.2" class="st3" width="84.1" height="48"/>
									<rect x="-21.6" y="235.2" class="st4" width="84.1" height="4"/>
									<rect x="-21.6" y="235.2" class="st4" width="4" height="48"/>
								</g>
								<g>
									<rect x="-108.6" y="235.2" class="st3" width="84.1" height="48"/>
									<rect x="-108.6" y="235.2" class="st4" width="84.1" height="4"/>
									<rect x="-28.6" y="235.2" class="st5" width="4" height="48"/>
									<rect x="-24.6" y="235.2" class="st6" width="3" height="53"/>
								</g>
								<g>
									<rect x="-65.1" y="182.2" class="st3" width="84.1" height="48"/>
									<rect x="-65.1" y="182.2" class="st4" width="84.1" height="4"/>
									<rect x="-65.1" y="226.2" class="st5" width="84.1" height="4"/>
									<rect x="-65.1" y="182.2" class="st4" width="4" height="48"/>
									<rect x="14.9" y="182.2" class="st5" width="4" height="48"/>
									<rect x="-65.1" y="230.1" class="st6" width="84.1" height="5"/>
									<rect x="18.9" y="182.2" class="st6" width="3" height="53"/>
								</g>
								<g>
									<rect x="-21.6" y="129.2" class="st3" width="84.1" height="48"/>
									<rect x="-21.6" y="173.2" class="st5" width="84.1" height="4"/>
									<rect x="-21.6" y="129.2" class="st4" width="4" height="48"/>
									<rect x="-21.6" y="177.1" class="st6" width="84.1" height="5"/>
								</g>
								<g>
									<rect x="-108.6" y="129.2" class="st3" width="84.1" height="48"/>
									<rect x="-108.6" y="173.2" class="st5" width="84.1" height="4"/>
									<rect x="-28.6" y="129.2" class="st5" width="4" height="48"/>
									<rect x="-108.6" y="177.1" class="st6" width="84.1" height="5"/>
									<rect x="-24.6" y="129.2" class="st6" width="3" height="53"/>
								</g>
							</g>
						</g>
					</g>
				</g>
			</g>
		</g>
	</g>
</g>
</svg>
