<?xml version="1.0" encoding="utf-8"?>
<!-- Generator: Adobe Illustrator 24.1.3, SVG Export Plug-In . SVG Version: 6.00 Build 0)  -->
<svg version="1.1" id="Layer_4" xmlns="http://www.w3.org/2000/svg" xmlns:xlink="http://www.w3.org/1999/xlink" x="0px" y="0px"
	 viewBox="0 0 210 210" style="enable-background:new 0 0 210 210;" xml:space="preserve">
<style type="text/css">
	.st0{clip-path:url(#SVGID_2_);fill:#9999FF;}
	.st1{clip-path:url(#SVGID_2_);fill:#8080FF;}
	.st2{clip-path:url(#SVGID_2_);fill:#B3B3FF;}
	.st3{clip-path:url(#SVGID_2_);}
	.st4{fill:#B3B3FF;}
</style>
<g>
	<defs>
		<circle id="SVGID_1_" cx="105" cy="105" r="105"/>
	</defs>
	<use xlink:href="#SVGID_1_"  style="overflow:visible;fill:#424399;"/>
	<clipPath id="SVGID_2_">
		<use xlink:href="#SVGID_1_"  style="overflow:visible;"/>
	</clipPath>
	<rect x="195.9" y="76.1" class="st0" width="84" height="48"/>
	<rect x="152.4" y="23.1" class="st0" width="84" height="48"/>
	<rect x="108.9" y="-29.9" class="st0" width="84" height="48"/>
	<rect x="152.4" y="129.1" class="st0" width="84" height="48"/>
	<rect x="108.9" y="76.1" class="st0" width="84" height="48"/>
	<rect x="108.9" y="182.1" class="st0" width="84" height="48"/>
	<rect x="65.4" y="23.1" class="st0" width="84" height="48"/>
	<rect x="-21.6" y="23.1" class="st0" width="84" height="48"/>
	<rect x="21.9" y="-29.9" class="st0" width="84" height="48"/>
	<rect x="65.4" y="129.1" class="st0" width="84" height="48"/>
	<rect x="21.9" y="76.1" class="st0" width="84" height="48"/>
	<rect x="21.9" y="182.1" class="st0" width="84" height="48"/>
	<rect x="-21.6" y="129.1" class="st0" width="84" height="48"/>
	<rect x="-65.1" y="76.1" class="st0" width="84" height="48"/>
	<rect x="195.9" y="120.1" class="st1" width="84" height="4"/>
	<rect x="108.9" y="120.1" class="st1" width="84" height="4"/>
	<rect x="188.9" y="76.1" class="st1" width="4" height="48"/>
	<rect x="152.4" y="67.1" class="st1" width="84" height="4"/>
	<rect x="65.4" y="67.1" class="st1" width="84" height="4"/>
	<rect x="145.4" y="23.1" class="st1" width="4" height="48"/>
	<rect x="152.4" y="173.1" class="st1" width="84" height="4"/>
	<rect x="65.4" y="173.1" class="st1" width="84" height="4"/>
	<rect x="145.4" y="129.1" class="st1" width="4" height="48"/>
	<rect x="21.9" y="14.1" class="st1" width="84" height="4"/>
	<rect x="101.9" y="-29.9" class="st1" width="4" height="48"/>
	<rect x="21.9" y="120.1" class="st1" width="84" height="4"/>
	<rect x="101.9" y="76.1" class="st1" width="4" height="48"/>
	<rect x="-21.6" y="67.1" class="st1" width="84" height="4"/>
	<rect x="101.9" y="182.1" class="st1" width="4" height="48"/>
	<rect x="-21.6" y="173.1" class="st1" width="84" height="4"/>
	<rect x="58.4" y="129.1" class="st1" width="4" height="48"/>
	<rect x="-65.1" y="120.1" class="st1" width="84" height="4"/>
	<rect x="14.9" y="76.1" class="st1" width="4" height="48"/>
	<rect x="58.4" y="23.1" class="st1" width="4" height="48"/>
	<polyline class="st1" points="192.9,14.1 192.9,18.1 108.9,18.1 108.9,14.1 	"/>
	<rect x="195.9" y="76.1" class="st2" width="84" height="4"/>
	<rect x="195.9" y="76.1" class="st2" width="4" height="48"/>
	<g class="st3">
		<rect x="152.4" y="23.1" class="st4" width="84" height="4"/>
		<rect x="152.4" y="23.1" class="st4" width="4" height="48"/>
	</g>
	<rect x="65.4" y="23.1" class="st2" width="84" height="4"/>
	<rect x="108.9" y="-29.9" class="st2" width="4" height="48"/>
	<g class="st3">
		<rect x="152.4" y="129.1" class="st4" width="84" height="4"/>
		<rect x="152.4" y="129.1" class="st4" width="4" height="48"/>
	</g>
	<rect x="108.9" y="76.1" class="st2" width="84" height="4"/>
	<rect x="108.9" y="76.1" class="st2" width="4" height="48"/>
	<rect x="108.9" y="182.1" class="st2" width="84" height="4"/>
	<rect x="108.9" y="182.1" class="st2" width="4" height="48"/>
	<rect x="65.4" y="23.1" class="st2" width="4" height="48"/>
	<rect x="-21.6" y="23.1" class="st2" width="84" height="4"/>
	<g class="st3">
		<rect x="65.4" y="129.1" class="st4" width="84" height="4"/>
		<rect x="65.4" y="129.1" class="st4" width="4" height="48"/>
	</g>
	<rect x="21.9" y="76.1" class="st2" width="84" height="4"/>
	<rect x="21.9" y="76.1" class="st2" width="4" height="48"/>
	<rect x="21.9" y="182.1" class="st2" width="84" height="4"/>
	<rect x="-21.6" y="129.1" class="st2" width="84" height="4"/>
	<rect x="-65.1" y="76.1" class="st2" width="84" height="4"/>
</g>
</svg>
