<?xml version="1.0" encoding="utf-8"?>
<!-- Generator: Adobe Illustrator 24.3.0, SVG Export Plug-In . SVG Version: 6.00 Build 0)  -->
<svg version="1.1" id="Layer_1" xmlns="http://www.w3.org/2000/svg" xmlns:xlink="http://www.w3.org/1999/xlink" x="0px" y="0px"
	 viewBox="0 0 210 210" style="enable-background:new 0 0 210 210;" xml:space="preserve">
<style type="text/css">
	.st0{fill:none;}
	.st1{clip-path:url(#SVGID_2_);}
	.st2{fill:#CCCCCC;}
	.st3{fill:#E6E6E6;}
	.st4{fill:#B3B3B3;}
	.st5{fill:#7F7F7F;}
	.st6{fill:#FFFFFF;}
	.st7{fill:url(#SVGID_3_);}
</style>
<pattern  y="210" width="87" height="106" patternUnits="userSpaceOnUse" id="SVGID_1" viewBox="43.5 -132.5 87 106" style="overflow:visible;">
	<g>
		<rect x="43.5" y="-132.5" class="st0" width="87" height="106"/>
		<g>
			<defs>
				<rect id="SVGID_1_" x="43.5" y="-132.5" width="87" height="106"/>
			</defs>
			<clipPath id="SVGID_2_">
				<use xlink:href="#SVGID_1_"  style="overflow:visible;"/>
			</clipPath>
			<g class="st1">
				<rect x="87" y="-154" class="st2" width="84" height="48"/>
				<rect x="87" y="-110" class="st3" width="84" height="4"/>
				<rect x="87" y="-154" class="st3" width="4" height="48"/>
			</g>
			<g class="st1">
				<rect y="-154" class="st2" width="84" height="48"/>
				<rect x="0" y="-110" class="st3" width="84" height="4"/>
				<rect x="80" y="-154" class="st4" width="4" height="48"/>
				<rect x="84" y="-159" class="st5" width="3" height="53"/>
			</g>
			<g class="st1">
				<rect x="43.5" y="-101" class="st2" width="84" height="48"/>
				<rect x="43.5" y="-57" class="st3" width="84" height="4"/>
				<rect x="43.5" y="-101" class="st4" width="84" height="4"/>
				<rect x="43.5" y="-101" class="st3" width="4" height="48"/>
				<rect x="123.5" y="-101" class="st4" width="4" height="48"/>
				<rect x="43.5" y="-106" class="st5" width="84" height="5"/>
				<rect x="127.5" y="-106" class="st5" width="3" height="53"/>
			</g>
			<g class="st1">
				<rect x="87" y="-48" class="st2" width="84" height="48"/>
				<rect x="87" y="-48" class="st4" width="84" height="4"/>
				<rect x="87" y="-48" class="st3" width="4" height="48"/>
				<rect x="87" y="-53" class="st5" width="84" height="5"/>
			</g>
			<g class="st1">
				<rect y="-48" class="st2" width="84" height="48"/>
				<rect y="-48" class="st4" width="84" height="4"/>
				<rect x="80" y="-48" class="st4" width="4" height="48"/>
				<rect x="0" y="-53" class="st5" width="84" height="5"/>
				<rect x="84" y="-53" class="st5" width="3" height="53"/>
			</g>
		</g>
	</g>
</pattern>
<circle id="ellipse" class="st6" cx="105" cy="105" r="105"/>
<pattern  id="SVGID_3_" xlink:href="#SVGID_1" patternTransform="matrix(0.8571 0 0 -0.8571 -2222.2471 -14097.4111)">
</pattern>
<circle class="st7" cx="105" cy="105" r="90"/>
</svg>
