<?xml version="1.0" encoding="utf-8"?>
<!-- Generator: Adobe Illustrator 24.1.3, SVG Export Plug-In . SVG Version: 6.00 Build 0)  -->
<svg version="1.1" id="Layer_1" xmlns="http://www.w3.org/2000/svg" xmlns:xlink="http://www.w3.org/1999/xlink" x="0px" y="0px"
	 viewBox="0 0 210 210" style="enable-background:new 0 0 210 210;" xml:space="preserve">
<style type="text/css">
	.st0{clip-path:url(#SVGID_2_);}
	.st1{fill:#9999FF;}
	.st2{fill:#414199;}
	.st3{fill:#8080FF;}
	.st4{fill:#B3B3FF;}
</style>
<g>
	<defs>
		<circle id="SVGID_1_" cx="105" cy="105" r="105"/>
	</defs>
	<clipPath id="SVGID_2_">
		<use xlink:href="#SVGID_1_"  style="overflow:visible;"/>
	</clipPath>
	<g class="st0">
		<rect x="239.4" y="23.1" class="st1" width="84" height="48"/>
		<rect x="152.4" y="23.1" class="st1" width="84" height="48"/>
		<rect x="195.9" y="-29.9" class="st1" width="84" height="48"/>
		<rect x="239.4" y="-82.9" class="st1" width="84" height="48"/>
		<rect x="152.4" y="-82.9" class="st1" width="84" height="48"/>
		<rect x="239.4" y="129.1" class="st1" width="84" height="48"/>
		<rect x="152.4" y="129.1" class="st1" width="84" height="48"/>
		<rect x="195.9" y="76.1" class="st1" width="84" height="48"/>
		<rect x="239.4" y="23.1" class="st1" width="84" height="48"/>
		<rect x="152.4" y="23.1" class="st1" width="84" height="48"/>
		<rect x="239.4" y="235.1" class="st1" width="84" height="48"/>
		<rect x="152.4" y="235.1" class="st1" width="84" height="48"/>
		<rect x="195.9" y="182.1" class="st1" width="84" height="48"/>
		<rect x="239.4" y="129.1" class="st1" width="84" height="48"/>
		<rect x="152.4" y="129.1" class="st1" width="84" height="48"/>
		<rect x="152.4" y="23.1" class="st1" width="84" height="48"/>
		<rect x="65.4" y="23.1" class="st1" width="84" height="48"/>
		<rect x="108.9" y="-29.9" class="st1" width="84" height="48"/>
		<rect x="152.4" y="-82.9" class="st1" width="84" height="48"/>
		<rect x="65.4" y="-82.9" class="st1" width="84" height="48"/>
		<rect x="152.4" y="129.1" class="st1" width="84" height="48"/>
		<rect x="65.4" y="129.1" class="st1" width="84" height="48"/>
		<rect x="108.9" y="76.1" class="st1" width="84" height="48"/>
		<rect x="152.4" y="23.1" class="st1" width="84" height="48"/>
		<rect x="65.4" y="23.1" class="st1" width="84" height="48"/>
		<rect x="152.4" y="235.1" class="st1" width="84" height="48"/>
		<rect x="65.4" y="235.1" class="st1" width="84" height="48"/>
		<rect x="108.9" y="182.1" class="st1" width="84" height="48"/>
		<rect x="152.4" y="129.1" class="st1" width="84" height="48"/>
		<rect x="65.4" y="129.1" class="st1" width="84" height="48"/>
		<rect x="65.4" y="23.1" class="st1" width="84" height="48"/>
		<rect x="-21.6" y="23.1" class="st1" width="84" height="48"/>
		<rect x="21.9" y="-29.9" class="st1" width="84" height="48"/>
		<rect x="65.4" y="-82.9" class="st1" width="84" height="48"/>
		<rect x="-21.6" y="-82.9" class="st1" width="84" height="48"/>
		<rect x="65.4" y="129.1" class="st1" width="84" height="48"/>
		<rect x="-21.6" y="129.1" class="st1" width="84" height="48"/>
		<rect x="21.9" y="76.1" class="st1" width="84" height="48"/>
		<rect x="65.4" y="23.1" class="st1" width="84" height="48"/>
		<rect x="-21.6" y="23.1" class="st1" width="84" height="48"/>
		<rect x="65.4" y="235.1" class="st1" width="84" height="48"/>
		<rect x="-21.6" y="235.1" class="st1" width="84" height="48"/>
		<rect x="21.9" y="182.1" class="st1" width="84" height="48"/>
		<rect x="65.4" y="129.1" class="st1" width="84" height="48"/>
		<rect x="-21.6" y="129.1" class="st1" width="84" height="48"/>
		<rect x="-21.6" y="23.1" class="st1" width="84" height="48"/>
		<rect x="-108.6" y="23.1" class="st1" width="84" height="48"/>
		<rect x="-65.1" y="-29.9" class="st1" width="84" height="48"/>
		<rect x="-21.6" y="-82.9" class="st1" width="84" height="48"/>
		<rect x="-108.6" y="-82.9" class="st1" width="84" height="48"/>
		<rect x="-21.6" y="129.1" class="st1" width="84" height="48"/>
		<rect x="-108.6" y="129.1" class="st1" width="84" height="48"/>
		<rect x="-65.1" y="76.1" class="st1" width="84" height="48"/>
		<rect x="-21.6" y="23.1" class="st1" width="84" height="48"/>
		<rect x="-108.6" y="23.1" class="st1" width="84" height="48"/>
		<rect x="-21.6" y="235.1" class="st1" width="84" height="48"/>
		<rect x="-108.6" y="235.1" class="st1" width="84" height="48"/>
		<rect x="-65.1" y="182.1" class="st1" width="84" height="48"/>
		<rect x="-21.6" y="129.1" class="st1" width="84" height="48"/>
		<rect x="-108.6" y="129.1" class="st1" width="84" height="48"/>
	</g>
	<g class="st0">
		<rect x="236.4" y="23.1" class="st2" width="3" height="53"/>
		<rect x="195.9" y="18.1" class="st2" width="84" height="5"/>
		<rect x="279.9" y="-29.9" class="st2" width="3" height="53"/>
		<rect x="239.4" y="-34.9" class="st2" width="84" height="5"/>
		<rect x="152.4" y="-34.9" class="st2" width="84" height="5"/>
		<rect x="236.4" y="-82.9" class="st2" width="3" height="53"/>
		<rect x="236.4" y="129.1" class="st2" width="3" height="53"/>
		<rect x="195.9" y="124.1" class="st2" width="84" height="5"/>
		<rect x="279.9" y="76.1" class="st2" width="3" height="53"/>
		<rect x="239.4" y="71.1" class="st2" width="84" height="5"/>
		<rect x="152.4" y="71.1" class="st2" width="84" height="5"/>
		<rect x="236.4" y="23.1" class="st2" width="3" height="53"/>
		<rect x="236.4" y="235.1" class="st2" width="3" height="53"/>
		<rect x="195.9" y="230.1" class="st2" width="84" height="5"/>
		<rect x="279.9" y="182.1" class="st2" width="3" height="53"/>
		<rect x="239.4" y="177.1" class="st2" width="84" height="5"/>
		<rect x="152.4" y="177.1" class="st2" width="84" height="5"/>
		<rect x="236.4" y="129.1" class="st2" width="3" height="53"/>
		<rect x="149.4" y="23.1" class="st2" width="3" height="53"/>
		<rect x="108.9" y="18.1" class="st2" width="84" height="5"/>
		<rect x="192.9" y="-29.9" class="st2" width="3" height="53"/>
		<rect x="152.4" y="-34.9" class="st2" width="84" height="5"/>
		<rect x="65.4" y="-34.9" class="st2" width="84" height="5"/>
		<rect x="149.4" y="-82.9" class="st2" width="3" height="53"/>
		<rect x="149.4" y="129.1" class="st2" width="3" height="53"/>
		<rect x="108.9" y="124.1" class="st2" width="84" height="5"/>
		<rect x="192.9" y="76.1" class="st2" width="3" height="53"/>
		<rect x="152.4" y="71.1" class="st2" width="84" height="5"/>
		<rect x="65.4" y="71.1" class="st2" width="84" height="5"/>
		<rect x="149.4" y="23.1" class="st2" width="3" height="53"/>
		<rect x="149.4" y="235.1" class="st2" width="3" height="53"/>
		<rect x="108.9" y="230.1" class="st2" width="84" height="5"/>
		<rect x="192.9" y="182.1" class="st2" width="3" height="53"/>
		<rect x="152.4" y="177.1" class="st2" width="84" height="5"/>
		<rect x="65.4" y="177.1" class="st2" width="84" height="5"/>
		<rect x="149.4" y="129.1" class="st2" width="3" height="53"/>
		<rect x="62.4" y="23.1" class="st2" width="3" height="53"/>
		<rect x="21.9" y="18.1" class="st2" width="84" height="5"/>
		<rect x="105.9" y="-29.9" class="st2" width="3" height="53"/>
		<rect x="65.4" y="-34.9" class="st2" width="84" height="5"/>
		<rect x="-21.6" y="-34.9" class="st2" width="84" height="5"/>
		<rect x="62.4" y="-82.9" class="st2" width="3" height="53"/>
		<rect x="62.4" y="129.1" class="st2" width="3" height="53"/>
		<rect x="21.9" y="124.1" class="st2" width="84" height="5"/>
		<rect x="105.9" y="76.1" class="st2" width="3" height="53"/>
		<rect x="65.4" y="71.1" class="st2" width="84" height="5"/>
		<rect x="-21.6" y="71.1" class="st2" width="84" height="5"/>
		<rect x="62.4" y="23.1" class="st2" width="3" height="53"/>
		<rect x="62.4" y="235.1" class="st2" width="3" height="53"/>
		<rect x="21.9" y="230.1" class="st2" width="84" height="5"/>
		<rect x="105.9" y="182.1" class="st2" width="3" height="53"/>
		<rect x="65.4" y="177.1" class="st2" width="84" height="5"/>
		<rect x="-21.6" y="177.1" class="st2" width="84" height="5"/>
		<rect x="62.4" y="129.1" class="st2" width="3" height="53"/>
		<rect x="-24.6" y="23.1" class="st2" width="3" height="53"/>
		<rect x="-65.1" y="18.1" class="st2" width="84" height="5"/>
		<rect x="18.9" y="-29.9" class="st2" width="3" height="53"/>
		<rect x="-21.6" y="-34.9" class="st2" width="84" height="5"/>
		<rect x="-108.6" y="-34.9" class="st2" width="84" height="5"/>
		<rect x="-24.6" y="-82.9" class="st2" width="3" height="53"/>
		<rect x="-24.6" y="129.1" class="st2" width="3" height="53"/>
		<rect x="-65.1" y="124.1" class="st2" width="84" height="5"/>
		<rect x="18.9" y="76.1" class="st2" width="3" height="53"/>
		<rect x="-21.6" y="71.1" class="st2" width="84" height="5"/>
		<rect x="-108.6" y="71.1" class="st2" width="84" height="5"/>
		<rect x="-24.6" y="23.1" class="st2" width="3" height="53"/>
		<rect x="-24.6" y="235.1" class="st2" width="3" height="53"/>
		<rect x="-65.1" y="230.1" class="st2" width="84" height="5"/>
		<rect x="18.9" y="182.1" class="st2" width="3" height="53"/>
		<rect x="-21.6" y="177.1" class="st2" width="84" height="5"/>
		<rect x="-108.6" y="177.1" class="st2" width="84" height="5"/>
		<rect x="-24.6" y="129.1" class="st2" width="3" height="53"/>
	</g>
	<g class="st0">
		<rect x="-108.6" y="-38.9" class="st3" width="84" height="4"/>
		<rect x="-28.6" y="-82.9" class="st3" width="4" height="48"/>
	</g>
	<g class="st0">
		<g>
			<rect x="-65.1" y="14.1" class="st3" width="84" height="4"/>
			<rect x="232.4" y="23.1" class="st3" width="4" height="48"/>
			<rect x="195.9" y="14.1" class="st3" width="84" height="4"/>
			<rect x="275.9" y="-29.9" class="st3" width="4" height="48"/>
			<rect x="239.4" y="-38.9" class="st3" width="84" height="4"/>
			<g>
				<rect x="152.4" y="-38.9" class="st3" width="84" height="4"/>
				<rect x="232.4" y="-82.9" class="st3" width="4" height="48"/>
			</g>
			<rect x="232.4" y="129.1" class="st3" width="4" height="48"/>
			<rect x="195.9" y="120.1" class="st3" width="84" height="4"/>
			<rect x="275.9" y="76.1" class="st3" width="4" height="48"/>
			<rect x="239.4" y="67.1" class="st3" width="84" height="4"/>
			<g>
				<rect x="152.4" y="67.1" class="st3" width="84" height="4"/>
				<rect x="232.4" y="23.1" class="st3" width="4" height="48"/>
			</g>
			<rect x="232.4" y="235.1" class="st3" width="4" height="48"/>
			<rect x="195.9" y="226.1" class="st3" width="84" height="4"/>
			<rect x="275.9" y="182.1" class="st3" width="4" height="48"/>
			<rect x="239.4" y="173.1" class="st3" width="84" height="4"/>
			<rect x="145.4" y="23.1" class="st3" width="4" height="48"/>
			<rect x="108.9" y="14.1" class="st3" width="84" height="4"/>
			<rect x="188.9" y="-29.9" class="st3" width="4" height="48"/>
			<rect x="152.4" y="-38.9" class="st3" width="84" height="4"/>
			<g>
				<rect x="65.4" y="-38.9" class="st3" width="84" height="4"/>
				<rect x="145.4" y="-82.9" class="st3" width="4" height="48"/>
			</g>
			<rect x="145.4" y="129.1" class="st3" width="4" height="48"/>
			<rect x="108.9" y="120.1" class="st3" width="84" height="4"/>
			<rect x="188.9" y="76.1" class="st3" width="4" height="48"/>
			<rect x="152.4" y="67.1" class="st3" width="84" height="4"/>
			<rect x="145.4" y="235.1" class="st3" width="4" height="48"/>
			<rect x="108.9" y="226.1" class="st3" width="84" height="4"/>
			<rect x="188.9" y="182.1" class="st3" width="4" height="48"/>
			<rect x="152.4" y="173.1" class="st3" width="84" height="4"/>
			<rect x="58.4" y="23.1" class="st3" width="4" height="48"/>
			<rect x="21.9" y="14.1" class="st3" width="84" height="4"/>
			<rect x="101.9" y="-29.9" class="st3" width="4" height="48"/>
			<rect x="65.4" y="-38.9" class="st3" width="84" height="4"/>
			<g>
				<rect x="-21.6" y="-38.9" class="st3" width="84" height="4"/>
				<rect x="58.4" y="-82.9" class="st3" width="4" height="48"/>
			</g>
			<rect x="58.4" y="129.1" class="st3" width="4" height="48"/>
			<rect x="21.9" y="120.1" class="st3" width="84" height="4"/>
			<rect x="101.9" y="76.1" class="st3" width="4" height="48"/>
			<rect x="65.4" y="67.1" class="st3" width="84" height="4"/>
			<rect x="58.4" y="235.1" class="st3" width="4" height="48"/>
			<rect x="21.9" y="226.1" class="st3" width="84" height="4"/>
			<rect x="101.9" y="182.1" class="st3" width="4" height="48"/>
			<rect x="65.4" y="173.1" class="st3" width="84" height="4"/>
			<rect x="-28.6" y="23.1" class="st3" width="4" height="48"/>
			<rect x="14.9" y="-29.9" class="st3" width="4" height="48"/>
			<rect x="-21.6" y="-38.9" class="st3" width="84" height="4"/>
			<rect x="-28.6" y="129.1" class="st3" width="4" height="48"/>
			<rect x="-65.1" y="120.1" class="st3" width="84" height="4"/>
			<rect x="14.9" y="76.1" class="st3" width="4" height="48"/>
			<rect x="-21.6" y="67.1" class="st3" width="84" height="4"/>
			<g>
				<rect x="-108.6" y="67.1" class="st3" width="84" height="4"/>
				<rect x="-28.6" y="23.1" class="st3" width="4" height="48"/>
			</g>
			<rect x="-28.6" y="235.1" class="st3" width="4" height="48"/>
			<rect x="-65.1" y="226.1" class="st3" width="84" height="4"/>
			<rect x="14.9" y="182.1" class="st3" width="4" height="48"/>
			<rect x="-21.6" y="173.1" class="st3" width="84" height="4"/>
			<g>
				<rect x="-108.6" y="173.1" class="st3" width="84" height="4"/>
				<rect x="-28.6" y="129.1" class="st3" width="4" height="48"/>
			</g>
		</g>
		<g>
			<g>
				<rect x="152.4" y="23.1" class="st4" width="84" height="4"/>
			</g>
			<g>
				<rect x="195.9" y="-29.9" class="st4" width="84" height="4"/>
				<rect x="195.9" y="-29.9" class="st4" width="4" height="48"/>
			</g>
			<g>
				<rect x="239.4" y="-82.9" class="st4" width="4" height="48"/>
			</g>
			<g>
				<rect x="152.4" y="129.1" class="st4" width="84" height="4"/>
			</g>
			<g>
				<rect x="195.9" y="76.1" class="st4" width="84" height="4"/>
				<rect x="195.9" y="76.1" class="st4" width="4" height="48"/>
			</g>
			<g>
				<rect x="239.4" y="235.1" class="st4" width="84" height="4"/>
				<rect x="239.4" y="235.1" class="st4" width="4" height="48"/>
			</g>
			<g>
				<rect x="195.9" y="182.1" class="st4" width="84" height="4"/>
				<rect x="195.9" y="182.1" class="st4" width="4" height="48"/>
			</g>
			<g>
				<rect x="65.4" y="23.1" class="st4" width="84" height="4"/>
			</g>
			<g>
				<rect x="108.9" y="-29.9" class="st4" width="84" height="4"/>
				<rect x="108.9" y="-29.9" class="st4" width="4" height="48"/>
			</g>
			<g>
				<rect x="152.4" y="-82.9" class="st4" width="4" height="48"/>
			</g>
			<g>
				<rect x="65.4" y="129.1" class="st4" width="84" height="4"/>
			</g>
			<g>
				<rect x="108.9" y="76.1" class="st4" width="84" height="4"/>
				<rect x="108.9" y="76.1" class="st4" width="4" height="48"/>
			</g>
			<g>
				<rect x="152.4" y="23.1" class="st4" width="4" height="48"/>
			</g>
			<g>
				<rect x="108.9" y="182.1" class="st4" width="84" height="4"/>
				<rect x="108.9" y="182.1" class="st4" width="4" height="48"/>
			</g>
			<g>
				<rect x="152.4" y="129.1" class="st4" width="4" height="48"/>
			</g>
			<g>
				<rect x="-21.6" y="23.1" class="st4" width="84" height="4"/>
			</g>
			<g>
				<rect x="21.9" y="-29.9" class="st4" width="84" height="4"/>
				<rect x="21.9" y="-29.9" class="st4" width="4" height="48"/>
			</g>
			<g>
				<rect x="65.4" y="-82.9" class="st4" width="4" height="48"/>
			</g>
			<g>
				<rect x="-21.6" y="129.1" class="st4" width="84" height="4"/>
			</g>
			<g>
				<rect x="21.9" y="76.1" class="st4" width="84" height="4"/>
				<rect x="21.9" y="76.1" class="st4" width="4" height="48"/>
			</g>
			<g>
				<rect x="65.4" y="23.1" class="st4" width="4" height="48"/>
			</g>
			<g>
				<rect x="21.9" y="182.1" class="st4" width="84" height="4"/>
				<rect x="21.9" y="182.1" class="st4" width="4" height="48"/>
			</g>
			<g>
				<rect x="65.4" y="129.1" class="st4" width="4" height="48"/>
			</g>
			<g>
				<rect x="-108.6" y="23.1" class="st4" width="84" height="4"/>
			</g>
			<g>
				<rect x="-65.1" y="-29.9" class="st4" width="84" height="4"/>
				<rect x="-65.1" y="-29.9" class="st4" width="4" height="48"/>
			</g>
			<g>
				<rect x="-21.6" y="-82.9" class="st4" width="4" height="48"/>
			</g>
			<g>
				<rect x="-108.6" y="129.1" class="st4" width="84" height="4"/>
			</g>
			<g>
				<rect x="-65.1" y="76.1" class="st4" width="84" height="4"/>
				<rect x="-65.1" y="76.1" class="st4" width="4" height="48"/>
			</g>
			<g>
				<rect x="-21.6" y="23.1" class="st4" width="4" height="48"/>
			</g>
			<g>
				<rect x="-108.6" y="235.1" class="st4" width="84" height="4"/>
			</g>
			<g>
				<rect x="-65.1" y="182.1" class="st4" width="84" height="4"/>
				<rect x="-65.1" y="182.1" class="st4" width="4" height="48"/>
			</g>
			<g>
				<rect x="-21.6" y="129.1" class="st4" width="4" height="48"/>
			</g>
			<g>
				<rect x="-21.6" y="235.1" class="st4" width="84" height="4"/>
				<rect x="-21.6" y="235.1" class="st4" width="4" height="48"/>
			</g>
			<g>
				<rect x="65.4" y="235.1" class="st4" width="84" height="4"/>
				<rect x="65.4" y="235.1" class="st4" width="4" height="48"/>
			</g>
			<g>
				<rect x="152.4" y="235.1" class="st4" width="84" height="4"/>
				<rect x="152.4" y="235.1" class="st4" width="4" height="48"/>
			</g>
			<g>
				<rect x="239.4" y="129.1" class="st4" width="84" height="4"/>
				<rect x="239.4" y="129.1" class="st4" width="4" height="48"/>
			</g>
			<g>
				<rect x="239.4" y="23.1" class="st4" width="84" height="4"/>
				<rect x="239.4" y="23.1" class="st4" width="4" height="48"/>
			</g>
		</g>
	</g>
</g>
</svg>
