<?xml version="1.0" encoding="utf-8"?>
<!-- Generator: Adobe Illustrator 24.3.0, SVG Export Plug-In . SVG Version: 6.00 Build 0)  -->
<svg version="1.1" id="Layer_1" xmlns="http://www.w3.org/2000/svg" xmlns:xlink="http://www.w3.org/1999/xlink" x="0px" y="0px"
	 viewBox="0 0 105 105" style="enable-background:new 0 0 105 105;" xml:space="preserve">
<style type="text/css">
	.st0{fill:#FFFFFF;}
	.st1{fill:#CCCCFF;}
	.st2{fill:#9E9EFF;}
	.st3{fill:#E4E4FE;}
	.st4{fill:#FF5533;}
</style>
<g id="bois-hover-state" transform="translate(0 0)">
	<circle id="ellipse" class="st0" cx="52.5" cy="52.5" r="52.5"/>
	<g id="icon" transform="translate(29.55 23.99)">
		<path id="Path_155" class="st1" d="M5.6,26l40.6,23.4l-6.3,10.9L-0.7,37c-1.1-0.6-0.6-3.6,1.2-6.6S4.5,25.4,5.6,26z"/>
		
			<ellipse id="Ellipse_216" transform="matrix(0.5 -0.866 0.866 0.5 -26.0664 64.7527)" class="st2" cx="43" cy="55" rx="6.3" ry="3.2"/>
		<path id="Path_156" class="st3" d="M40.3,26L-0.3,49.5l6.3,10.9L46.7,37c1.1-0.6,0.5-3.6-1.2-6.6S41.4,25.4,40.3,26z"/>
		
			<ellipse id="Ellipse_217" transform="matrix(0.866 -0.5 0.5 0.866 -27.0881 8.8087)" class="st2" cx="2.9" cy="55" rx="3.2" ry="6.3"/>
		<path id="Path_157" class="st3" d="M14.5,47.8l-10.4-6l2.4-4.1l10.4,6c0.4,0.3,0.3,1.4-0.4,2.5C15.8,47.3,14.9,48.1,14.5,47.8z"/>
		
			<ellipse id="Ellipse_218" transform="matrix(0.5 -0.866 0.866 0.5 -31.7889 24.4195)" class="st2" cx="5.3" cy="39.7" rx="2.4" ry="1.3"/>
		<path id="Path_158" class="st4" d="M25.9-3c0,0-18.1,16.2-18.1,28.1c0,8,4,12.9,9.8,14.7c-7.6-8-5.2-19.6,3.7-27.6
			c-1.1,6.8,3.2,15.1,3.2,15.1s0.8-5.3,3.6-6.8c0,4.9,8.7,11,0.3,19.2c5.7-1.7,9.7-6.3,9.7-14.5C38.1,15.8,25.9,4.8,25.9-3z"/>
	</g>
</g>
</svg>
