<?xml version="1.0" encoding="utf-8"?>
<!-- Generator: Adobe Illustrator 24.1.3, SVG Export Plug-In . SVG Version: 6.00 Build 0)  -->
<svg version="1.1" id="Layer_1" xmlns="http://www.w3.org/2000/svg" xmlns:xlink="http://www.w3.org/1999/xlink" x="0px" y="0px"
	 viewBox="0 0 105 105" style="enable-background:new 0 0 105 105;" xml:space="preserve">
<style type="text/css">
	.st0{fill:#FFFFFF;}
	.st1{fill:#B29996;}
	.st2{fill:#E2CDCC;}
	.st3{fill:#99817E;}
</style>
<circle id="ellipse" class="st0" cx="52.5" cy="52.5" r="52.5"/>
<g id="icon" transform="translate(29.55 23.99)">
	<g>
		<path id="Path_156_1_" class="st1" d="M0.4,6.1l52.8,30.5l-8.2,14.2L-8,20.4c-1.4-0.8-0.6-4.7,1.6-8.6S-1.1,5.3,0.4,6.1z"/>
		
			<ellipse id="Ellipse_217_1_" transform="matrix(0.5 -0.866 0.866 0.5 -13.369 64.1734)" class="st2" cx="48.9" cy="43.7" rx="8.2" ry="4.2"/>
	</g>
	<path id="Path_156" class="st3" d="M45.5,6.1L-7.3,36.7l8.2,14.2l52.9-30.4c1.4-0.8,0.7-4.7-1.6-8.6S46.9,5.3,45.5,6.1z"/>
	
		<ellipse id="Ellipse_217" transform="matrix(0.866 -0.5 0.5 0.866 -22.2542 4.2776)" class="st2" cx="-3.1" cy="43.7" rx="4.2" ry="8.2"/>
	<path id="Path_157" class="st3" d="M11.9,34.4l-13.5-7.8l3.1-5.3L15,29.1c0.5,0.4,0.4,1.8-0.5,3.2S12.4,34.8,11.9,34.4z"/>
	
		<ellipse id="Ellipse_218" transform="matrix(0.5 -0.866 0.866 0.5 -20.7854 11.6788)" class="st2" cx="-0.3" cy="23.8" rx="3.1" ry="1.7"/>
</g>
</svg>
