<?xml version="1.0" encoding="utf-8"?>
<!-- Generator: Adobe Illustrator 24.3.0, SVG Export Plug-In . SVG Version: 6.00 Build 0)  -->
<svg version="1.1" id="Layer_1" xmlns="http://www.w3.org/2000/svg" xmlns:xlink="http://www.w3.org/1999/xlink" x="0px" y="0px"
	 viewBox="0 0 105 105" style="enable-background:new 0 0 105 105;" xml:space="preserve">
<style type="text/css">
	.st0{fill:#FFFFFF;}
	.st1{fill:#E6E6E6;}
	.st2{fill:#CCCCCC;}
	.st3{fill:#FAFAFA;}
</style>
<g id="bois-default-state" transform="translate(0 0)">
	<circle id="ellipse" class="st0" cx="52.5" cy="52.5" r="52.5"/>
	<g id="icon" transform="translate(29.55 23.99)">
		<path id="Path_155" class="st1" d="M5.6,25l40.6,23.4l-6.3,10.9L-0.7,36c-1.1-0.6-0.6-3.6,1.2-6.6S4.5,24.4,5.6,25z"/>
		
			<ellipse id="Ellipse_216" transform="matrix(0.5 -0.866 0.866 0.5 -25.2004 64.2527)" class="st2" cx="43" cy="54" rx="6.3" ry="3.2"/>
		<path id="Path_156" class="st3" d="M40.3,25L-0.3,48.5l6.3,10.9L46.7,36c1.1-0.6,0.5-3.6-1.2-6.6S41.4,24.4,40.3,25z"/>
		
			<ellipse id="Ellipse_217" transform="matrix(0.866 -0.5 0.5 0.866 -26.5881 8.6748)" class="st2" cx="2.9" cy="54" rx="3.2" ry="6.3"/>
		<path id="Path_157" class="st3" d="M14.5,46.8l-10.4-6l2.4-4.1l10.4,6c0.4,0.3,0.3,1.4-0.4,2.5C15.8,46.3,14.9,47.1,14.5,46.8z"/>
		
			<ellipse id="Ellipse_218" transform="matrix(0.5 -0.866 0.866 0.5 -30.9229 23.9195)" class="st2" cx="5.3" cy="38.7" rx="2.4" ry="1.3"/>
		<path id="Path_158" class="st2" d="M25.9-4c0,0-18.1,16.2-18.1,28.1c0,8,4,12.9,9.8,14.7c-7.6-8-5.2-19.6,3.7-27.6
			c-1.1,6.8,3.2,15.1,3.2,15.1s0.8-5.3,3.6-6.8c0,4.9,8.7,11,0.3,19.2c5.7-1.7,9.7-6.3,9.7-14.5C38.1,14.8,25.9,3.8,25.9-4z"/>
	</g>
</g>
</svg>
