<?xml version="1.0" encoding="utf-8"?>
<!-- Generator: Adobe Illustrator 24.1.3, SVG Export Plug-In . SVG Version: 6.00 Build 0)  -->
<svg version="1.1" id="Layer_1" xmlns="http://www.w3.org/2000/svg" xmlns:xlink="http://www.w3.org/1999/xlink" x="0px" y="0px"
	 viewBox="0 0 105 105" style="enable-background:new 0 0 105 105;" xml:space="preserve">
<style type="text/css">
	.st0{fill:#FFFFFF;}
	.st1{fill:#7F6867;}
	.st2{fill:#CCA7A3;}
	.st3{fill:#4C403E;}
</style>
<circle id="ellipse" class="st0" cx="52.5" cy="52.5" r="52.5"/>
<g id="icon" transform="translate(29.55 23.99)">
	<g>
		<path id="Path_156_1_" class="st1" d="M0.4,6l52.8,30.5L45,50.7L-7.9,20.3c-1.4-0.8-0.6-4.7,1.6-8.6S-1,5.2,0.4,6z"/>
		
			<ellipse id="Ellipse_217_1_" transform="matrix(0.5 -0.866 0.866 0.5 -13.2604 64.155)" class="st2" cx="48.9" cy="43.6" rx="8.2" ry="4.2"/>
	</g>
	<path id="Path_156" class="st3" d="M45.5,6L-7.3,36.5l8.2,14.2l52.9-30.4c1.4-0.8,0.6-4.7-1.6-8.6S46.9,5.2,45.5,6z"/>
	
		<ellipse id="Ellipse_217" transform="matrix(0.866 -0.5 0.5 0.866 -22.1975 4.283)" class="st2" cx="-3.1" cy="43.6" rx="4.2" ry="8.2"/>
	<path id="Path_157" class="st3" d="M12,34.3l-13.5-7.8l3.1-5.3L15.1,29c0.5,0.4,0.4,1.8-0.5,3.2C13.7,33.7,12.5,34.7,12,34.3z"/>
	
		<ellipse id="Ellipse_218" transform="matrix(0.5 -0.866 0.866 0.5 -20.6768 11.6604)" class="st2" cx="-0.2" cy="23.7" rx="3.1" ry="1.7"/>
</g>
</svg>
