<?xml version="1.0" encoding="utf-8"?>
<!-- Generator: Adobe Illustrator 24.1.3, SVG Export Plug-In . SVG Version: 6.00 Build 0)  -->
<svg version="1.1" id="Layer_1" xmlns="http://www.w3.org/2000/svg" xmlns:xlink="http://www.w3.org/1999/xlink" x="0px" y="0px"
	 viewBox="0 0 105 105" style="enable-background:new 0 0 105 105;" xml:space="preserve">
<style type="text/css">
	.st0{fill:#FFFFFF;}
	.st1{fill:#FFB7B3;}
	.st2{fill:#FF8F80;}
	.st3{fill:#FFD4CC;}
	.st4{fill:#FF5533;}
</style>
<circle id="ellipse" class="st0" cx="52.5" cy="52.5" r="52.5"/>
<g id="icon" transform="translate(29.55 23.99)">
	<g>
		<path id="Path_156_1_" class="st1" d="M5.6,25.7l40.6,23.5l-6.3,10.9L-0.8,36.7c-1.1-0.6-0.5-3.6,1.2-6.6S4.5,25.1,5.6,25.7z"/>
		
			<ellipse id="Ellipse_217_1_" transform="matrix(0.5 -0.866 0.866 0.5 -25.714 64.5908)" class="st2" cx="43.1" cy="54.6" rx="6.3" ry="3.2"/>
	</g>
	<path id="Path_156" class="st3" d="M40.3,25.7L-0.3,49.2L6,60.1l40.7-23.4c1.1-0.6,0.5-3.6-1.2-6.6S41.4,25.1,40.3,25.7z"/>
	
		<ellipse id="Ellipse_217" transform="matrix(0.866 -0.5 0.5 0.866 -26.9051 8.762)" class="st2" cx="2.9" cy="54.6" rx="3.2" ry="6.3"/>
	<path id="Path_157" class="st3" d="M14.5,47.5l-10.4-6l2.4-4.1l10.4,6c0.4,0.3,0.3,1.4-0.4,2.5S14.9,47.8,14.5,47.5z"/>
	
		<ellipse id="Ellipse_218" transform="matrix(0.5 -0.866 0.866 0.5 -31.4358 24.1127)" class="st2" cx="5.2" cy="39.3" rx="2.4" ry="1.3"/>
	<path id="Path_158" class="st4" d="M25.9-3.3c0,0-18.1,16.2-18.1,28.1c0,8,4,12.9,9.8,14.7c-7.6-8-5.2-19.6,3.7-27.6
		C20.2,18.7,24.5,27,24.5,27s0.8-5.3,3.6-6.8c0,4.9,8.7,11,0.3,19.2c5.7-1.7,9.7-6.3,9.7-14.5C38.1,15.5,25.9,4.5,25.9-3.3z"/>
</g>
</svg>
