<?xml version="1.0" encoding="utf-8"?>
<!-- Generator: Adobe Illustrator 24.3.0, SVG Export Plug-In . SVG Version: 6.00 Build 0)  -->
<svg version="1.1" id="Layer_1" xmlns="http://www.w3.org/2000/svg" xmlns:xlink="http://www.w3.org/1999/xlink" x="0px" y="0px"
	 viewBox="0 0 210 210" style="enable-background:new 0 0 210 210;" xml:space="preserve">
<style type="text/css">
	.st0{fill:#FFFFFF;}
	.st1{fill:#E5E5FF;}
	.st2{fill:#B3B3FF;}
	.st3{fill:#CCCCFF;}
	.st4{fill:#7E7ECC;}
</style>
<g id="cave-hover-state" transform="translate(-15 0)">
	<circle id="ellipse" class="st0" cx="120" cy="105" r="105"/>
	<g id="icon" transform="translate(70.926 20.329)">
		<path id="Path_211" class="st1" d="M92.5,112.3v15.1h-5v5h-5v5h-5v5h-5v5h-5v5h-5v5h-5v5H6.2v-50.4H92.5z"/>
		<rect id="Rectangle_311" x="78.2" y="46.5" class="st2" width="20.4" height="7.9"/>
		<rect id="Rectangle_312" x="0.1" y="46.5" class="st2" width="20.4" height="7.9"/>
		<path id="Path_212" class="st1" d="M6.2,46.8L49.4,3.6l43.2,43.2v60.4H6.2V46.8z"/>
		<path id="Path_213" class="st3" d="M103.7,49.3l-5.1,5.1l-6.1-6.1L49.4,5.2L0.1,54.4L-5,49.3l54-54L49.4-5L103.7,49.3z"/>
		<rect id="Rectangle_313" x="6.2" y="107.2" class="st3" width="86.3" height="5"/>
		<path id="Path_214" class="st4" d="M87.5,117.3v15.1h-5v5h-5v5h-5v5h-5v5h-5v5H11.2v-40.3H87.5z"/>
		<path id="Path_215" class="st1" d="M87.5,122.4h-5v5h-5v5h-5v5h-5v5h-5v5h-5v5h-5v5h10.1v-5h5v-5h5v-5h5v-5h5v-5h5v-5h5v-5H87.5z"
			/>
	</g>
</g>
</svg>
