<?xml version="1.0" encoding="utf-8"?>
<!-- Generator: Adobe Illustrator 24.1.3, SVG Export Plug-In . SVG Version: 6.00 Build 0)  -->
<svg version="1.1" id="Layer_1" xmlns="http://www.w3.org/2000/svg" xmlns:xlink="http://www.w3.org/1999/xlink" x="0px" y="0px"
	 viewBox="0 0 210 210" style="enable-background:new 0 0 210 210;" xml:space="preserve">
<style type="text/css">
	.st0{fill:#FFFFFF;}
	.st1{fill:#E5E5FF;}
	.st2{fill:#B3B3FF;}
	.st3{fill:#CCCCFF;}
	.st4{fill:#FFA799;}
</style>
<circle id="ellipse" class="st0" cx="105" cy="105" r="105"/>
<g id="icon" transform="translate(70.926 20.329)">
	<path id="Path_211" class="st1" d="M77.2,118.3v15.1h-5v5h-5v5h-5v5h-5v5h-5v5h-5v5h-5v5H-9.1V118h86.3
		C77.2,118,77.2,118.3,77.2,118.3z"/>
	<rect id="Rectangle_311" x="62.9" y="52.5" class="st2" width="20.4" height="7.9"/>
	<rect id="Rectangle_312" x="-15.2" y="52.5" class="st2" width="20.4" height="7.9"/>
	<path id="Path_212" class="st1" d="M-9.1,52.8L34.1,9.6l43.2,43.2v60.4H-9.1V52.8z"/>
	<path id="Path_213" class="st3" d="M88.4,55.3l-5.1,5.1l-6.1-6.1L34.1,11.2l-49.3,49.2l-5.1-5.1l54-54L34.1,1L88.4,55.3z"/>
	<rect id="Rectangle_313" x="-9.1" y="113.2" class="st3" width="86.3" height="5"/>
	<polygon class="st4" points="42.2,158.4 42.2,153.4 47.2,153.4 47.2,148.4 52.2,148.4 52.2,143.4 57.2,143.4 57.2,138.4 
		62.2,138.4 62.2,133.4 67.2,133.4 67.2,128.4 72.2,128.4 72.2,123.3 72.2,123.1 -4.1,123.1 -4.1,163.4 37.2,163.4 37.2,158.4 	"/>
</g>
</svg>
