<?xml version="1.0" encoding="utf-8"?>
<!-- Generator: Adobe Illustrator 24.3.0, SVG Export Plug-In . SVG Version: 6.00 Build 0)  -->
<svg version="1.1" id="Layer_1" xmlns="http://www.w3.org/2000/svg" xmlns:xlink="http://www.w3.org/1999/xlink" x="0px" y="0px"
	 viewBox="0 0 210 210" style="enable-background:new 0 0 210 210;" xml:space="preserve">
<style type="text/css">
	.st0{fill:#FFFFFF;}
	.st1{fill:#B3B3FF;}
	.st2{fill:#E5E5FF;}
	.st3{fill:#CCCCFF;}
	.st4{fill:#9999FF;}
</style>
<g id="célibataire-hover-state" transform="translate(-15 0)">
	<circle id="ellipse" class="st0" cx="120" cy="105" r="105"/>
	<g id="icon" transform="translate(62.17 45)">
		<rect id="Rectangle_1213" x="91.4" y="54.7" class="st1" width="23.6" height="9.1"/>
		<rect id="Rectangle_1214" x="0.9" y="54.7" class="st1" width="23.6" height="9.1"/>
		<path id="Path_929" class="st2" d="M7.9,55L58,5l50,50v70H7.9V55z"/>
		<path id="Path_930" class="st3" d="M120.9,57.9l-5.9,5.9l-7-7l-50-50l-57.1,57L-5,57.9L57.6-4.6L58-5L120.9,57.9z"/>
		<circle id="Ellipse_247" class="st4" cx="57.9" cy="79.5" r="9.2"/>
		<path id="Path_931" class="st4" d="M58,91.3c-10.1,0-18.4,8.3-18.4,18.4h36.8C76.3,99.6,68.1,91.3,58,91.3z"/>
	</g>
</g>
</svg>
