<?xml version="1.0" encoding="utf-8"?>
<!-- Generator: Adobe Illustrator 24.3.0, SVG Export Plug-In . SVG Version: 6.00 Build 0)  -->
<svg version="1.1" id="icon_1_" xmlns="http://www.w3.org/2000/svg" xmlns:xlink="http://www.w3.org/1999/xlink" x="0px" y="0px"
	 viewBox="0 0 105 105" style="enable-background:new 0 0 105 105;" xml:space="preserve">
<style type="text/css">
	.st0{fill:#FFFFFF;}
	.st1{fill:#E5E5FF;}
	.st2{clip-path:url(#SVGID_2_);fill:#B3B3FF;}
	.st3{clip-path:url(#SVGID_2_);fill:#9999FF;}
	.st4{clip-path:url(#SVGID_2_);fill:#CCCCFF;}
	.st5{fill:#B3B3FF;}
	.st6{clip-path:url(#SVGID_4_);fill:#9999FF;}
	.st7{clip-path:url(#SVGID_4_);fill:#E5E5FF;}
	.st8{clip-path:url(#SVGID_4_);fill:#CCCCFF;}
	.st9{clip-path:url(#SVGID_6_);fill:#E5E5FF;}
	.st10{clip-path:url(#SVGID_6_);fill:#9999FF;}
	.st11{clip-path:url(#SVGID_6_);fill:#CCCCFF;}
	.st12{fill:#FF5533;}
</style>
<circle id="ellipse" class="st0" cx="52.5" cy="52.5" r="52.5"/>
<g>
	<path id="Path_159_1_" class="st1" d="M75,76.8H59.1c-0.2,0-0.4-0.1-0.5-0.2l-5.3-4.9c-0.2-0.2-0.3-0.4-0.3-0.7l0.5-4.8
		c0-0.1,0-0.1,0-0.2l2.7-8.6c0.1-0.2,0.2-0.4,0.4-0.5l7.3-3.4c0.2-0.1,0.4-0.1,0.5-0.1l6.1,1.5c0.2,0.1,0.4,0.2,0.5,0.4l3.8,7.1
		c0.1,0.1,0.2,0.2,0.3,0.3l2.1,1.2c0.2,0.1,0.3,0.3,0.4,0.4l1.5,4.4c0.1,0.2,0.1,0.4,0,0.6l-3.4,6.8C75.6,76.7,75.3,76.9,75,76.8z"
		/>
	<g>
		<defs>
			<path id="SVGID_1_" d="M75,76.8H59.1c-0.2,0-0.4-0.1-0.5-0.2l-5.3-4.9c-0.2-0.2-0.3-0.4-0.3-0.7l0.5-4.8c0-0.1,0-0.1,0-0.2
				l2.7-8.6c0.1-0.2,0.2-0.4,0.4-0.5l7.3-3.4c0.2-0.1,0.4-0.1,0.5-0.1l6.1,1.5c0.2,0.1,0.4,0.2,0.5,0.4l3.8,7.1
				c0.1,0.1,0.2,0.2,0.3,0.3l2.1,1.2c0.2,0.1,0.3,0.3,0.4,0.4l1.5,4.4c0.1,0.2,0.1,0.4,0,0.6l-3.4,6.8C75.6,76.7,75.3,76.9,75,76.8z
				"/>
		</defs>
		<clipPath id="SVGID_2_">
			<use xlink:href="#SVGID_1_"  style="overflow:visible;"/>
		</clipPath>
		<path id="Path_160_1_" class="st2" d="M77.6,64.3l-3,5l-3.4,0.2l3.9-6.7l1.9-2.9l2.2,0.9L77.6,64.3z"/>
		<path id="Path_161_1_" class="st3" d="M71.2,69.5l-3.4-8.2l3.2-6.1l2.2-1.4l3.5,6.6L71.2,69.5z"/>
		<path id="Path_162_1_" class="st2" d="M67.8,61.3l-6.7,0.6l-4.8-4.7l-2.8-2.8l10.7-3.6l5.5,0.6l2.4,3L71,55.2L67.8,61.3z"/>
		<path id="Path_163_1_" class="st4" d="M61.1,61.8L57,68.6l1.8,8.3L53,71.5l-2.2-10.3l4.8-4.8L61.1,61.8z"/>
		<path id="Path_164_1_" class="st3" d="M74.6,69.3l0.9,7.6l2.8,1.6l4.7-7.3l-2.9-6.8l-2.5,0L74.6,69.3z"/>
	</g>
	<path id="Path_166_1_" class="st5" d="M25.8,64.6l0.4,7.1c0,0.2,0.1,0.5,0.3,0.6l8,7.1c0.2,0.2,0.4,0.2,0.6,0.2l9.6-0.6
		c0.3,0,0.5-0.2,0.7-0.4l5.8-8.6c0.1-0.2,0.2-0.4,0.1-0.7L50,63.2c0-0.2-0.2-0.4-0.4-0.5l-5.4-3.9c-0.1-0.1-0.2-0.1-0.3-0.1
		l-8.6-1.9c-0.2,0-0.4,0-0.6,0.1l-5.9,2.9c-0.1,0.1-0.3,0.2-0.4,0.3l-2.6,4C25.8,64.2,25.7,64.4,25.8,64.6L25.8,64.6z"/>
	<g>
		<defs>
			<path id="SVGID_3_" d="M25.8,64.6l0.4,7.1c0,0.2,0.1,0.5,0.3,0.6l8,7.1c0.2,0.2,0.4,0.2,0.6,0.2l9.6-0.6c0.3,0,0.5-0.2,0.7-0.4
				l5.8-8.6c0.1-0.2,0.2-0.4,0.1-0.7L50,63.2c0-0.2-0.2-0.4-0.4-0.5l-5.4-3.9c-0.1-0.1-0.2-0.1-0.3-0.1l-8.6-1.9
				c-0.2,0-0.4,0-0.6,0.1l-5.9,2.9c-0.1,0.1-0.3,0.2-0.4,0.3l-2.6,4C25.8,64.2,25.7,64.4,25.8,64.6L25.8,64.6z"/>
		</defs>
		<clipPath id="SVGID_4_">
			<use xlink:href="#SVGID_3_"  style="overflow:visible;"/>
		</clipPath>
		<path id="Path_167_1_" class="st6" d="M45.1,79l-6.2-11.7l5.2-8.6l8.8-4.2l2.1,15.4l-3.3,11.3L45.1,79z"/>
		<path id="Path_168_1_" class="st7" d="M38.9,67.3l-4.2,12.3l6,3.6l4.4-4.2L38.9,67.3z"/>
		<path id="Path_169_1_" class="st8" d="M25.7,64.3l13.2,3l-4.2,12.3l-4.9,2.7L24.5,72l-1.5-7.8L25.7,64.3z"/>
	</g>
	<path id="Path_171_1_" class="st5" d="M44.2,70.6l0.9,8.2c0,0.2,0.1,0.3,0.2,0.5l6.1,5.5c0.1,0.1,0.3,0.2,0.5,0.2l8.6,0.1
		c0.2,0,0.5-0.1,0.6-0.3l4.4-7c0.1-0.2,0.1-0.4,0.1-0.6l-1.6-4.5c0-0.1-0.1-0.2-0.2-0.3L57.3,67c-0.1-0.1-0.3-0.2-0.4-0.2l-6.1-0.1
		c-0.1,0-0.2,0-0.3,0.1l-5.8,3.1C44.3,70,44.2,70.3,44.2,70.6L44.2,70.6z"/>
	<g>
		<defs>
			<path id="SVGID_5_" d="M44.2,70.6l0.9,8.2c0,0.2,0.1,0.3,0.2,0.5l6.1,5.5c0.1,0.1,0.3,0.2,0.5,0.2l8.6,0.1c0.2,0,0.5-0.1,0.6-0.3
				l4.4-7c0.1-0.2,0.1-0.4,0.1-0.6l-1.6-4.5c0-0.1-0.1-0.2-0.2-0.3L57.3,67c-0.1-0.1-0.3-0.2-0.4-0.2l-6.1-0.1c-0.1,0-0.2,0-0.3,0.1
				l-5.8,3.1C44.3,70,44.2,70.3,44.2,70.6L44.2,70.6z"/>
		</defs>
		<clipPath id="SVGID_6_">
			<use xlink:href="#SVGID_5_"  style="overflow:visible;"/>
		</clipPath>
		<path id="Path_172_1_" class="st9" d="M51.6,84.9l3-7.6l3.5-0.2l2.8,7.9l1.6,6.5l-11.9-1.8L51.6,84.9z"/>
		<path id="Path_173_1_" class="st10" d="M58.1,77.1l5.7-4.7l3.8,0.5l0.8,9L61.6,88L58.1,77.1z"/>
		<path id="Path_174_1_" class="st11" d="M54.6,77.3l-10.4-7.2l0.9,9l0.6,3.8l5.5,3.5l0.3-1.4L54.6,77.3z"/>
	</g>
	<path id="Path_176_1_" class="st12" d="M55.6,20c0,0-19,17-19,29.6c0,8.5,4.2,13.6,10.3,15.4c-8-8.4-5.5-20.6,3.9-29.1
		c-1.2,7.2,3.3,15.9,3.3,15.9s0.8-5.6,3.8-7.1c0,5.2,9.2,11.6,0.3,20.2c6-1.8,10.2-6.7,10.2-15.3C68.4,39.7,55.6,28.2,55.6,20z"/>
</g>
</svg>
