<?xml version="1.0" encoding="utf-8"?>
<!-- Generator: Adobe Illustrator 24.1.3, SVG Export Plug-In . SVG Version: 6.00 Build 0)  -->
<svg version="1.1" id="icon_1_" xmlns="http://www.w3.org/2000/svg" xmlns:xlink="http://www.w3.org/1999/xlink" x="0px" y="0px"
	 viewBox="0 0 105 105" style="enable-background:new 0 0 105 105;" xml:space="preserve">
<style type="text/css">
	.st0{fill:#FFFFFF;}
	.st1{fill:#7F7F7F;}
	.st2{clip-path:url(#SVGID_2_);fill:#4C4C4C;}
	.st3{clip-path:url(#SVGID_4_);fill:#333333;}
	.st4{clip-path:url(#SVGID_6_);fill:#4C4C4C;}
	.st5{clip-path:url(#SVGID_8_);fill:#666666;}
	.st6{clip-path:url(#SVGID_10_);fill:#333333;}
	.st7{fill:#4C4C4C;}
	.st8{clip-path:url(#SVGID_12_);fill:#333333;}
	.st9{clip-path:url(#SVGID_14_);fill:#7F7F7F;}
	.st10{clip-path:url(#SVGID_16_);fill:#666666;}
	.st11{clip-path:url(#SVGID_18_);fill:#7F7F7F;}
	.st12{clip-path:url(#SVGID_20_);fill:#333333;}
	.st13{clip-path:url(#SVGID_22_);fill:#666666;}
</style>
<circle id="ellipse" class="st0" cx="52.5" cy="52.5" r="52.5"/>
<g>
	<path id="Path_159_1_" class="st1" d="M81.8,62.3H61.1c-0.3,0-0.5-0.1-0.6-0.3l-6.9-6.4c-0.3-0.3-0.4-0.5-0.4-0.9l0.6-6.2
		c0-0.1,0-0.1,0-0.3l3.5-11.2c0.1-0.3,0.3-0.5,0.5-0.6l9.5-4.4c0.3-0.1,0.5-0.1,0.6-0.1l7.9,1.9c0.3,0.1,0.5,0.3,0.7,0.5l4.9,9.2
		c0.1,0.1,0.3,0.3,0.4,0.4l2.7,1.6c0.3,0.1,0.4,0.4,0.5,0.5l2,5.7c0.1,0.3,0.1,0.5,0,0.8l-4.4,8.8C82.6,62.2,82.2,62.4,81.8,62.3z"
		/>
	<g>
		<g>
			<g>
				<defs>
					<path id="SVGID_1_" d="M81.8,62.3H61.1c-0.3,0-0.5-0.1-0.6-0.3l-6.9-6.4c-0.3-0.3-0.4-0.5-0.4-0.9l0.6-6.2c0-0.1,0-0.1,0-0.3
						l3.5-11.2c0.1-0.3,0.3-0.5,0.5-0.6l9.5-4.4c0.3-0.1,0.5-0.1,0.6-0.1l7.9,1.9c0.3,0.1,0.5,0.3,0.7,0.5l4.9,9.2
						c0.1,0.1,0.3,0.3,0.4,0.4l2.7,1.6c0.3,0.1,0.4,0.4,0.5,0.5l2,5.7c0.1,0.3,0.1,0.5,0,0.8l-4.4,8.8
						C82.6,62.2,82.2,62.4,81.8,62.3z"/>
				</defs>
				<clipPath id="SVGID_2_">
					<use xlink:href="#SVGID_1_"  style="overflow:visible;"/>
				</clipPath>
				<path id="Path_160_1_" class="st2" d="M85.2,46.1l-3.9,6.5l-4.4,0.3l5.1-8.7l2.5-3.8l2.9,1.2L85.2,46.1z"/>
			</g>
		</g>
		<g>
			<g>
				<defs>
					<path id="SVGID_3_" d="M81.8,62.3H61.1c-0.3,0-0.5-0.1-0.6-0.3l-6.9-6.4c-0.3-0.3-0.4-0.5-0.4-0.9l0.6-6.2c0-0.1,0-0.1,0-0.3
						l3.5-11.2c0.1-0.3,0.3-0.5,0.5-0.6l9.5-4.4c0.3-0.1,0.5-0.1,0.6-0.1l7.9,1.9c0.3,0.1,0.5,0.3,0.7,0.5l4.9,9.2
						c0.1,0.1,0.3,0.3,0.4,0.4l2.7,1.6c0.3,0.1,0.4,0.4,0.5,0.5l2,5.7c0.1,0.3,0.1,0.5,0,0.8l-4.4,8.8
						C82.6,62.2,82.2,62.4,81.8,62.3z"/>
				</defs>
				<clipPath id="SVGID_4_">
					<use xlink:href="#SVGID_3_"  style="overflow:visible;"/>
				</clipPath>
				<path id="Path_161_1_" class="st3" d="M76.9,52.8l-4.4-10.7l4.2-7.9l2.9-1.8L84,41L76.9,52.8z"/>
			</g>
		</g>
		<g>
			<g>
				<defs>
					<path id="SVGID_5_" d="M81.8,62.3H61.1c-0.3,0-0.5-0.1-0.6-0.3l-6.9-6.4c-0.3-0.3-0.4-0.5-0.4-0.9l0.6-6.2c0-0.1,0-0.1,0-0.3
						l3.5-11.2c0.1-0.3,0.3-0.5,0.5-0.6l9.5-4.4c0.3-0.1,0.5-0.1,0.6-0.1l7.9,1.9c0.3,0.1,0.5,0.3,0.7,0.5l4.9,9.2
						c0.1,0.1,0.3,0.3,0.4,0.4l2.7,1.6c0.3,0.1,0.4,0.4,0.5,0.5l2,5.7c0.1,0.3,0.1,0.5,0,0.8l-4.4,8.8
						C82.6,62.2,82.2,62.4,81.8,62.3z"/>
				</defs>
				<clipPath id="SVGID_6_">
					<use xlink:href="#SVGID_5_"  style="overflow:visible;"/>
				</clipPath>
				<path id="Path_162_1_" class="st4" d="M72.4,42.2l-8.7,0.8l-6.2-6.1l-3.6-3.6l13.9-4.7l7.1,0.8l3.1,3.9l-1.4,1L72.4,42.2z"/>
			</g>
		</g>
		<g>
			<g>
				<defs>
					<path id="SVGID_7_" d="M81.8,62.3H61.1c-0.3,0-0.5-0.1-0.6-0.3l-6.9-6.4c-0.3-0.3-0.4-0.5-0.4-0.9l0.6-6.2c0-0.1,0-0.1,0-0.3
						l3.5-11.2c0.1-0.3,0.3-0.5,0.5-0.6l9.5-4.4c0.3-0.1,0.5-0.1,0.6-0.1l7.9,1.9c0.3,0.1,0.5,0.3,0.7,0.5l4.9,9.2
						c0.1,0.1,0.3,0.3,0.4,0.4l2.7,1.6c0.3,0.1,0.4,0.4,0.5,0.5l2,5.7c0.1,0.3,0.1,0.5,0,0.8l-4.4,8.8
						C82.6,62.2,82.2,62.4,81.8,62.3z"/>
				</defs>
				<clipPath id="SVGID_8_">
					<use xlink:href="#SVGID_7_"  style="overflow:visible;"/>
				</clipPath>
				<path id="Path_163_1_" class="st5" d="M63.7,42.8l-5.3,8.8l2.3,10.8l-7.5-7L50.3,42l6.2-6.2L63.7,42.8z"/>
			</g>
		</g>
		<g>
			<g>
				<defs>
					<path id="SVGID_9_" d="M81.8,62.3H61.1c-0.3,0-0.5-0.1-0.6-0.3l-6.9-6.4c-0.3-0.3-0.4-0.5-0.4-0.9l0.6-6.2c0-0.1,0-0.1,0-0.3
						l3.5-11.2c0.1-0.3,0.3-0.5,0.5-0.6l9.5-4.4c0.3-0.1,0.5-0.1,0.6-0.1l7.9,1.9c0.3,0.1,0.5,0.3,0.7,0.5l4.9,9.2
						c0.1,0.1,0.3,0.3,0.4,0.4l2.7,1.6c0.3,0.1,0.4,0.4,0.5,0.5l2,5.7c0.1,0.3,0.1,0.5,0,0.8l-4.4,8.8
						C82.6,62.2,82.2,62.4,81.8,62.3z"/>
				</defs>
				<clipPath id="SVGID_10_">
					<use xlink:href="#SVGID_9_"  style="overflow:visible;"/>
				</clipPath>
				<path id="Path_164_1_" class="st6" d="M81.3,52.6l1.2,9.9l3.6,2.1l6.1-9.5l-3.8-8.8h-3.3L81.3,52.6z"/>
			</g>
		</g>
	</g>
	<path id="Path_166_1_" class="st7" d="M17.8,46.5l0.5,9.2c0,0.3,0.1,0.7,0.4,0.8l10.4,9.2c0.3,0.3,0.5,0.3,0.8,0.3l12.5-0.8
		c0.4,0,0.7-0.3,0.9-0.5l7.5-11.2c0.1-0.3,0.3-0.5,0.1-0.9l-1.7-7.9c0-0.3-0.3-0.5-0.5-0.7l-7-5.1c-0.1-0.1-0.3-0.1-0.4-0.1
		l-11.2-2.5c-0.3,0-0.5,0-0.8,0.1l-7.7,3.8c-0.1,0.1-0.4,0.3-0.5,0.4l-3.4,5.2C17.8,45.9,17.7,46.2,17.8,46.5L17.8,46.5z"/>
	<g>
		<g>
			<g>
				<defs>
					<path id="SVGID_11_" d="M17.8,46.5l0.5,9.2c0,0.3,0.1,0.7,0.4,0.8l10.4,9.2c0.3,0.3,0.5,0.3,0.8,0.3l12.5-0.8
						c0.4,0,0.7-0.3,0.9-0.5l7.5-11.2c0.1-0.3,0.3-0.5,0.1-0.9l-1.7-7.9c0-0.3-0.3-0.5-0.5-0.7l-7-5.1c-0.1-0.1-0.3-0.1-0.4-0.1
						l-11.2-2.5c-0.3,0-0.5,0-0.8,0.1l-7.7,3.8c-0.1,0.1-0.4,0.3-0.5,0.4l-3.4,5.2C17.8,45.9,17.7,46.2,17.8,46.5L17.8,46.5z"/>
				</defs>
				<clipPath id="SVGID_12_">
					<use xlink:href="#SVGID_11_"  style="overflow:visible;"/>
				</clipPath>
				<path id="Path_167_1_" class="st8" d="M42.9,65.2L34.9,50l6.8-11.2l11.4-5.5l2.7,20L51.5,68L42.9,65.2z"/>
			</g>
		</g>
		<g>
			<g>
				<defs>
					<path id="SVGID_13_" d="M17.8,46.5l0.5,9.2c0,0.3,0.1,0.7,0.4,0.8l10.4,9.2c0.3,0.3,0.5,0.3,0.8,0.3l12.5-0.8
						c0.4,0,0.7-0.3,0.9-0.5l7.5-11.2c0.1-0.3,0.3-0.5,0.1-0.9l-1.7-7.9c0-0.3-0.3-0.5-0.5-0.7l-7-5.1c-0.1-0.1-0.3-0.1-0.4-0.1
						l-11.2-2.5c-0.3,0-0.5,0-0.8,0.1l-7.7,3.8c-0.1,0.1-0.4,0.3-0.5,0.4l-3.4,5.2C17.8,45.9,17.7,46.2,17.8,46.5L17.8,46.5z"/>
				</defs>
				<clipPath id="SVGID_14_">
					<use xlink:href="#SVGID_13_"  style="overflow:visible;"/>
				</clipPath>
				<path id="Path_168_1_" class="st9" d="M34.9,50l-5.5,16l7.8,4.7l5.7-5.5L34.9,50z"/>
			</g>
		</g>
		<g>
			<g>
				<defs>
					<path id="SVGID_15_" d="M17.8,46.5l0.5,9.2c0,0.3,0.1,0.7,0.4,0.8l10.4,9.2c0.3,0.3,0.5,0.3,0.8,0.3l12.5-0.8
						c0.4,0,0.7-0.3,0.9-0.5l7.5-11.2c0.1-0.3,0.3-0.5,0.1-0.9l-1.7-7.9c0-0.3-0.3-0.5-0.5-0.7l-7-5.1c-0.1-0.1-0.3-0.1-0.4-0.1
						l-11.2-2.5c-0.3,0-0.5,0-0.8,0.1l-7.7,3.8c-0.1,0.1-0.4,0.3-0.5,0.4l-3.4,5.2C17.8,45.9,17.7,46.2,17.8,46.5L17.8,46.5z"/>
				</defs>
				<clipPath id="SVGID_16_">
					<use xlink:href="#SVGID_15_"  style="overflow:visible;"/>
				</clipPath>
				<path id="Path_169_1_" class="st10" d="M17.7,46.1L34.9,50l-5.5,16L23,69.5l-6.9-13.4l-1.9-10.1L17.7,46.1z"/>
			</g>
		</g>
	</g>
	<path id="Path_171_1_" class="st7" d="M41.8,54.3l1.2,10.7c0,0.3,0.1,0.4,0.3,0.7l7.9,7.1c0.1,0.1,0.4,0.3,0.6,0.3l11.2,0.1
		c0.3,0,0.7-0.1,0.8-0.4l5.7-9.1c0.1-0.3,0.1-0.5,0.1-0.8L67.5,57c0-0.1-0.1-0.3-0.3-0.4l-8.4-7c-0.1-0.1-0.4-0.3-0.5-0.3l-7.9-0.1
		c-0.1,0-0.3,0-0.4,0.1l-7.5,4C41.9,53.5,41.8,53.9,41.8,54.3L41.8,54.3z"/>
	<g>
		<g>
			<g>
				<defs>
					<path id="SVGID_17_" d="M41.8,54.3l1.2,10.7c0,0.3,0.1,0.4,0.3,0.7l7.9,7.1c0.1,0.1,0.4,0.3,0.6,0.3l11.2,0.1
						c0.3,0,0.7-0.1,0.8-0.4l5.7-9.1c0.1-0.3,0.1-0.5,0.1-0.8L67.5,57c0-0.1-0.1-0.3-0.3-0.4l-8.4-7c-0.1-0.1-0.4-0.3-0.5-0.3
						l-7.9-0.1c-0.1,0-0.3,0-0.4,0.1l-7.5,4C41.9,53.5,41.8,53.9,41.8,54.3L41.8,54.3z"/>
				</defs>
				<clipPath id="SVGID_18_">
					<use xlink:href="#SVGID_17_"  style="overflow:visible;"/>
				</clipPath>
				<path id="Path_172_1_" class="st11" d="M51.4,72.8l3.9-9.9l4.5-0.3L63.5,73l2.1,8.4l-15.5-2.3L51.4,72.8z"/>
			</g>
		</g>
		<g>
			<g>
				<defs>
					<path id="SVGID_19_" d="M41.8,54.3l1.2,10.7c0,0.3,0.1,0.4,0.3,0.7l7.9,7.1c0.1,0.1,0.4,0.3,0.6,0.3l11.2,0.1
						c0.3,0,0.7-0.1,0.8-0.4l5.7-9.1c0.1-0.3,0.1-0.5,0.1-0.8L67.5,57c0-0.1-0.1-0.3-0.3-0.4l-8.4-7c-0.1-0.1-0.4-0.3-0.5-0.3
						l-7.9-0.1c-0.1,0-0.3,0-0.4,0.1l-7.5,4C41.9,53.5,41.8,53.9,41.8,54.3L41.8,54.3z"/>
				</defs>
				<clipPath id="SVGID_20_">
					<use xlink:href="#SVGID_19_"  style="overflow:visible;"/>
				</clipPath>
				<path id="Path_173_1_" class="st12" d="M59.8,62.7l7.4-6.1l4.9,0.6l1,11.7l-8.8,7.9L59.8,62.7z"/>
			</g>
		</g>
		<g>
			<g>
				<defs>
					<path id="SVGID_21_" d="M41.8,54.3l1.2,10.7c0,0.3,0.1,0.4,0.3,0.7l7.9,7.1c0.1,0.1,0.4,0.3,0.6,0.3l11.2,0.1
						c0.3,0,0.7-0.1,0.8-0.4l5.7-9.1c0.1-0.3,0.1-0.5,0.1-0.8L67.5,57c0-0.1-0.1-0.3-0.3-0.4l-8.4-7c-0.1-0.1-0.4-0.3-0.5-0.3
						l-7.9-0.1c-0.1,0-0.3,0-0.4,0.1l-7.5,4C41.9,53.5,41.8,53.9,41.8,54.3L41.8,54.3z"/>
				</defs>
				<clipPath id="SVGID_22_">
					<use xlink:href="#SVGID_21_"  style="overflow:visible;"/>
				</clipPath>
				<path id="Path_174_1_" class="st13" d="M55.3,63l-13.5-9.4l1.2,11.7l0.8,4.9l7.1,4.5l0.4-1.8L55.3,63z"/>
			</g>
		</g>
	</g>
</g>
</svg>
