<?xml version="1.0" encoding="utf-8"?>
<!-- Generator: Adobe Illustrator 24.3.0, SVG Export Plug-In . SVG Version: 6.00 Build 0)  -->
<svg version="1.1" id="Layer_1" xmlns="http://www.w3.org/2000/svg" xmlns:xlink="http://www.w3.org/1999/xlink" x="0px" y="0px"
	 viewBox="0 0 210 210" style="enable-background:new 0 0 210 210;" xml:space="preserve">
<style type="text/css">
	.st0{fill:#FFFFFF;}
	.st1{fill:#FAFAFA;}
	.st2{fill:#E6E6E6;}
	.st3{fill:#CCCCCC;}
	.st4{fill:#E0E0E0;}
</style>
<g id="chaudiere-fioul-default-state" transform="translate(-15 0)">
	<circle id="ellipse" class="st0" cx="120" cy="105" r="105"/>
	<g id="icon" transform="translate(73.5 50)">
		<rect id="Rectangle_149" x="-5" y="-4.8" class="st1" width="85.6" height="85.6"/>
		<rect id="Rectangle_150" x="-5" y="80.9" class="st2" width="85.6" height="33.9"/>
		<ellipse id="Ellipse_207" class="st3" cx="21.4" cy="97.8" rx="4.5" ry="4"/>
		<ellipse id="Ellipse_208" class="st3" cx="38.3" cy="97.8" rx="4.5" ry="4"/>
		<ellipse id="Ellipse_209" class="st3" cx="55.2" cy="97.8" rx="4.5" ry="4"/>
		<rect id="Rectangle_151" x="80.9" y="-5" class="st4" width="17.1" height="85.7"/>
		<rect id="Rectangle_152" x="80.9" y="80.7" class="st3" width="17.1" height="34.3"/>
		<path id="Path_141" class="st3" d="M48.9,42.1C49,48.1,44.2,52.9,38.3,53s-10.8-4.7-10.9-10.7c0-0.1,0-0.1,0-0.2
			c0-5.9,5.4-8.6,10.8-19.4C43.6,33.6,48.9,36.2,48.9,42.1z"/>
	</g>
</g>
</svg>
