<?xml version="1.0" encoding="utf-8"?>
<!-- Generator: Adobe Illustrator 24.1.3, SVG Export Plug-In . SVG Version: 6.00 Build 0)  -->
<svg version="1.1" id="Layer_1" xmlns="http://www.w3.org/2000/svg" xmlns:xlink="http://www.w3.org/1999/xlink" x="0px" y="0px"
	 viewBox="0 0 209.9 210" style="enable-background:new 0 0 209.9 210;" xml:space="preserve">
<style type="text/css">
	.st0{fill:#FFFFFF;}
	.st1{fill:#E5E5FF;}
	.st2{fill:#CCCCFF;}
	.st3{fill:#7A7ACC;}
	.st4{fill:#666666;}
	.st5{fill:#B3B3FF;}
</style>
<circle class="st0" cx="104.9" cy="105" r="105"/>
<g>
	<g>
		<g id="icon_1_" transform="translate(73.5 50)">
			<rect id="Rectangle_185" x="-20.1" y="-5" class="st1" width="85.8" height="85.7"/>
			<rect id="Rectangle_186" x="-20.1" y="80.7" class="st2" width="85.8" height="34.3"/>
			<ellipse id="Ellipse_210" class="st3" cx="5.7" cy="97.9" rx="4.3" ry="4.3"/>
			<ellipse id="Ellipse_211" class="st3" cx="22.8" cy="97.9" rx="4.3" ry="4.3"/>
			<ellipse id="Ellipse_212" class="st3" cx="40" cy="97.9" rx="4.3" ry="4.3"/>
			<path id="Path_141" class="st4" d="M33.9,42.1c0,5.9-4.8,10.8-10.8,10.8c-5.9,0-10.8-4.8-10.8-10.8c0-5.9,5.4-8.6,10.8-19.4
				C28.6,33.6,33.9,36.2,33.9,42.1z"/>
			<rect id="Rectangle_187" x="65.8" y="-5" class="st2" width="17.2" height="85.7"/>
			<rect id="Rectangle_188" x="65.8" y="80.7" class="st5" width="17.2" height="34.3"/>
		</g>
	</g>
</g>
</svg>
