<?xml version="1.0" encoding="utf-8"?>
<!-- Generator: Adobe Illustrator 24.1.3, SVG Export Plug-In . SVG Version: 6.00 Build 0)  -->
<svg version="1.1" id="Layer_1" xmlns="http://www.w3.org/2000/svg" xmlns:xlink="http://www.w3.org/1999/xlink" x="0px" y="0px"
	 viewBox="0 0 210 210" style="enable-background:new 0 0 210 210;" xml:space="preserve">
<style type="text/css">
	.st0{fill:#FFFFFF;}
	.st1{fill:#B3B3FF;}
	.st2{fill:#E5E5FF;}
	.st3{fill:#CCCCFF;}
	.st4{fill:#FFA799;}
</style>
<g id="chauffage-hover-state" transform="translate(-15.001 0)">
	<circle id="ellipse" class="st0" cx="120" cy="105" r="105"/>
	<g id="icon" transform="translate(-14386.006 -1547.764)">
		<g id="Group_364" transform="translate(14452.905 1597.763)">
			<g id="Group_363" transform="translate(0)">
				<g id="Group_362">
					<rect id="Rectangle_343" x="84" y="50.1" class="st1" width="21.8" height="8.4"/>
					<rect id="Rectangle_344" x="0.4" y="50.1" class="st1" width="21.8" height="8.4"/>
					<path id="Path_512" class="st2" d="M7,50.4L53.1,4.2l46.1,46.2V115H7V50.4z"/>
					<g id="Group_361">
						<path id="Path_513" class="st3" d="M111.2,53.1l-5.4,5.4L99.3,52L53.1,5.9L0.4,58.5L-5,53.1L52.8-4.7L53.1-5L111.2,53.1z"/>
					</g>
				</g>
			</g>
			<path id="Path_514" class="st3" d="M64.6,81.9V115h-23V81.9c0.1-6.4,5.3-11.5,11.6-11.4C59.5,70.5,64.6,75.6,64.6,81.9L64.6,81.9
				z"/>
		</g>
		<path id="Path_87" class="st4" d="M14506,1629.4c-7.3,0-13.2,5.9-13.2,13.2s5.9,13.2,13.2,13.2s13.2-5.9,13.2-13.2l0,0
			C14519.2,1635.3,14513.3,1629.4,14506,1629.4z M14506,1646.4c-2.1,0-3.8-1.7-3.8-3.8c0-2.1,1.7-3.8,3.8-3.8s3.8,1.7,3.8,3.8
			C14509.8,1644.7,14508.1,1646.4,14506,1646.4z"/>
	</g>
</g>
</svg>
