<?xml version="1.0" encoding="utf-8"?>
<!-- Generator: Adobe Illustrator 24.3.0, SVG Export Plug-In . SVG Version: 6.00 Build 0)  -->
<svg version="1.1" id="Layer_1" xmlns="http://www.w3.org/2000/svg" xmlns:xlink="http://www.w3.org/1999/xlink" x="0px" y="0px"
	 viewBox="0 0 209.9 210" style="enable-background:new 0 0 209.9 210;" xml:space="preserve">
<style type="text/css">
	.st0{fill:#FFFFFF;}
	.st1{fill:#FAFAFA;}
	.st2{fill:#E6E6E6;}
	.st3{fill:#CCCCCC;}
	.st4{fill:#E0E0E0;}
</style>
<circle id="ellipse" class="st0" cx="105" cy="105" r="105"/>
<g id="icon" transform="translate(73.5 50)">
	<rect id="Rectangle_185" x="-20" y="-5" class="st1" width="85.8" height="85.7"/>
	<path id="Path_148" class="st2" d="M-20,80.7h85.8V115H-20V80.7z"/>
	<ellipse id="Ellipse_210" class="st3" cx="5.7" cy="97.9" rx="4.3" ry="4.3"/>
	<ellipse id="Ellipse_211" class="st3" cx="22.9" cy="97.9" rx="4.3" ry="4.3"/>
	<ellipse id="Ellipse_212" class="st3" cx="40.1" cy="97.9" rx="4.3" ry="4.3"/>
	<path id="Path_145" class="st3" d="M25.2,21.1c0,0-14.2,12.7-14.2,22.1c0,6.3,3.1,10.2,7.7,11.5c-6-6.2-4.1-15.4,2.9-21.7
		c-0.9,5.4,2.5,11.9,2.5,11.9s0.6-4.2,2.9-5.3c0,3.9,6.9,8.6,0.3,15.1c4.5-1.3,7.6-5,7.6-11.4C34.8,35.8,25.2,27.2,25.2,21.1z"/>
	<rect id="Rectangle_187" x="65.8" y="-5" class="st4" width="17.2" height="85.7"/>
	<path id="Path_149" class="st3" d="M65.8,80.7H83V115H65.8V80.7z"/>
</g>
</svg>
