<?xml version="1.0" encoding="utf-8"?>
<!-- Generator: Adobe Illustrator 24.1.3, SVG Export Plug-In . SVG Version: 6.00 Build 0)  -->
<svg version="1.1" id="Layer_1" xmlns="http://www.w3.org/2000/svg" xmlns:xlink="http://www.w3.org/1999/xlink" x="0px" y="0px"
	 viewBox="0 0 210 210" style="enable-background:new 0 0 210 210;" xml:space="preserve">
<style type="text/css">
	.st0{fill:#FFFFFF;}
	.st1{fill:#B3B3FF;}
	.st2{fill:#E5E5FF;}
	.st3{fill:#CCCCFF;}
	.st4{fill:#FFA799;}
	.st5{clip-path:url(#SVGID_2_);}
</style>
<g id="comble-perdu-hover-state" transform="translate(-15 0)">
	<circle id="ellipse" class="st0" cx="120" cy="105" r="105"/>
	<g id="icon" transform="translate(49.92 62)">
		<rect id="Rectangle_270" x="110.7" y="66.6" class="st1" width="28.3" height="11"/>
		<rect id="Rectangle_271" x="2.1" y="66.6" class="st1" width="28.3" height="11"/>
		<path id="Path_188" class="st2" d="M10.5,67l60-60l60,60v24h-120V67z"/>
		<path id="Path_189" class="st3" d="M146.1,70.5l-7.1,7.1l-8.5-8.5l-60-60L2.1,77.6L-5,70.5L70.1-4.6L70.5-5L146.1,70.5z"/>
		<path id="Path_190" class="st4" d="M119.6,68.2H21.5l48.8-48.8l0.3-0.3L119.6,68.2z"/>
		<g>
			<g>
				<defs>
					<polygon id="SVGID_1_" points="119.6,68.2 21.5,68.2 70.3,19.5 70.5,19.2 					"/>
				</defs>
				<clipPath id="SVGID_2_">
					<use xlink:href="#SVGID_1_"  style="overflow:visible;"/>
				</clipPath>
				<g id="Group_171" class="st5">
					
						<rect id="Rectangle_272" x="-18.2" y="32.7" transform="matrix(0.5 -0.866 0.866 0.5 -16.5216 39.7523)" class="st2" width="88.8" height="3"/>
					
						<rect id="Rectangle_273" x="-10.5" y="37.3" transform="matrix(0.5 -0.866 0.866 0.5 -16.6185 48.7483)" class="st2" width="88.8" height="3"/>
					
						<rect id="Rectangle_274" x="-2.7" y="41.8" transform="matrix(0.5 -0.866 0.866 0.5 -16.6092 57.7536)" class="st2" width="88.8" height="3"/>
					
						<rect id="Rectangle_275" x="5.1" y="46.3" transform="matrix(0.5 -0.866 0.866 0.5 -16.6061 66.7495)" class="st2" width="88.8" height="3"/>
					
						<rect id="Rectangle_276" x="12.9" y="50.8" transform="matrix(0.5 -0.866 0.866 0.5 -16.5977 75.7543)" class="st2" width="88.8" height="3"/>
					
						<rect id="Rectangle_277" x="20.7" y="55.2" transform="matrix(0.5 -0.866 0.866 0.5 -16.5945 84.7503)" class="st2" width="88.8" height="3"/>
					
						<rect id="Rectangle_278" x="28.5" y="59.7" transform="matrix(0.5 -0.866 0.866 0.5 -16.5861 93.755)" class="st2" width="88.8" height="3"/>
					
						<rect id="Rectangle_279" x="36.3" y="64.2" transform="matrix(0.5 -0.866 0.866 0.5 -16.5826 102.7524)" class="st2" width="88.8" height="3"/>
					
						<rect id="Rectangle_280" x="44.1" y="68.7" transform="matrix(0.5 -0.866 0.866 0.5 -16.5794 111.7483)" class="st2" width="88.8" height="3"/>
					
						<rect id="Rectangle_281" x="51.9" y="73.2" transform="matrix(0.5 -0.866 0.866 0.5 -16.571 120.7532)" class="st2" width="88.8" height="3"/>
					
						<rect id="Rectangle_282" x="59.7" y="77.7" transform="matrix(0.5 -0.866 0.866 0.5 -16.5679 129.7492)" class="st2" width="88.8" height="3"/>
					
						<rect id="Rectangle_283" x="67.5" y="82.2" transform="matrix(0.5 -0.866 0.866 0.5 -16.5586 138.7545)" class="st2" width="88.8" height="3"/>
					
						<rect id="Rectangle_284" x="75.3" y="86.7" transform="matrix(0.5 -0.866 0.866 0.5 -16.5555 147.7505)" class="st2" width="88.8" height="3"/>
					
						<rect id="Rectangle_285" x="83.1" y="91.2" transform="matrix(0.5 -0.866 0.866 0.5 -16.547 156.7552)" class="st2" width="88.8" height="3"/>
				</g>
			</g>
		</g>
	</g>
</g>
</svg>
