<?xml version="1.0" encoding="utf-8"?>
<!-- Generator: Adobe Illustrator 24.1.3, SVG Export Plug-In . SVG Version: 6.00 Build 0)  -->
<svg version="1.1" id="Layer_1" xmlns="http://www.w3.org/2000/svg" xmlns:xlink="http://www.w3.org/1999/xlink" x="0px" y="0px"
	 viewBox="0 0 210 210" style="enable-background:new 0 0 210 210;" xml:space="preserve">
<style type="text/css">
	.st0{fill:#FFFFFF;}
	.st1{fill:#3333FF;}
	.st2{fill:#151533;}
	.st3{fill:#CCCCFF;}
	.st4{fill:#292966;}
</style>
<g id="électricité-active-state" transform="translate(-15.001 0)">
	<circle id="ellipse" class="st0" cx="120" cy="105" r="105"/>
	<g id="icon" transform="translate(-14882 -1547.763)">
		
			<rect id="Rectangle_101" x="15029.3" y="1597.8" transform="matrix(0.7071 -0.7071 0.7071 0.7071 3258.5388 11104.5801)" class="st1" width="8.8" height="42.2"/>
	</g>
	<g id="icon_1_" transform="translate(-13882.236 -1547.764)">
		<g id="Group_369" transform="translate(13948.76 1597.763)">
			<g id="Group_368" transform="translate(0)">
				<g id="Group_367">
					<rect id="Rectangle_345" x="84.3" y="50.1" class="st2" width="21.8" height="8.4"/>
					<rect id="Rectangle_346" x="0.7" y="50.1" class="st2" width="21.8" height="8.4"/>
					<path id="Path_515" class="st3" d="M7.3,50.4L53.4,4.2l46.2,46.2V115H7.3V50.4z"/>
					<g id="Group_366">
						<path id="Path_516" class="st4" d="M111.5,53.1l-5.4,5.4L99.6,52L53.4,5.9L0.7,58.5l-5.4-5.4L53.1-4.7L53.4-5L111.5,53.1z"/>
					</g>
				</g>
			</g>
			<path id="Path_517" class="st4" d="M64.9,81.9V115h-23V81.9c-0.1-6.4,5.1-11.6,11.4-11.6c6.4-0.1,11.6,5.1,11.6,11.4
				C64.9,81.8,64.9,81.9,64.9,81.9z"/>
		</g>
	</g>
</g>
</svg>
