<?xml version="1.0" encoding="utf-8"?>
<!-- Generator: Adobe Illustrator 24.1.3, SVG Export Plug-In . SVG Version: 6.00 Build 0)  -->
<svg version="1.1" id="Layer_1" xmlns="http://www.w3.org/2000/svg" xmlns:xlink="http://www.w3.org/1999/xlink" x="0px" y="0px"
	 viewBox="0 0 210 210" style="enable-background:new 0 0 210 210;" xml:space="preserve">
<style type="text/css">
	.st0{fill:#FFFFFF;}
	.st1{fill:#B3B3FF;}
	.st2{fill:#E5E5FF;}
	.st3{fill:#CCCCFF;}
	.st4{fill:#9999FF;}
</style>
<g id="électricité-hover-state" transform="translate(-15.001 0)">
	<circle id="ellipse" class="st0" cx="120" cy="105" r="105"/>
	<g id="icon" transform="translate(-14882 -1547.763)">
		<g id="Group_377" transform="translate(14948.645 1597.763)">
			<g id="Group_376">
				<g id="Group_375">
					<rect id="Rectangle_347" x="84" y="50.1" class="st1" width="21.8" height="8.4"/>
					<rect id="Rectangle_348" x="0.4" y="50.1" class="st1" width="21.8" height="8.4"/>
					<path id="Path_518" class="st2" d="M7,50.4L53.1,4.2l46.2,46.2V115H7V50.4z"/>
					<g id="Group_374">
						<path id="Path_519" class="st3" d="M111.2,53.1l-5.4,5.4L99.3,52L53.1,5.9L0.4,58.5L-5,53.1L52.8-4.7L53.1-5L111.2,53.1z"/>
					</g>
				</g>
			</g>
			<path id="Path_520" class="st3" d="M64.6,81.9V115h-23V81.9c0-6.4,5.2-11.5,11.5-11.5S64.6,75.6,64.6,81.9z"/>
		</g>
		
			<rect id="Rectangle_101" x="15029.4" y="1597.7" transform="matrix(0.7071 -0.7071 0.7071 0.7071 3258.6296 11104.6318)" class="st4" width="8.8" height="42.2"/>
	</g>
</g>
</svg>
