<?xml version="1.0" encoding="utf-8"?>
<!-- Generator: Adobe Illustrator 24.1.3, SVG Export Plug-In . SVG Version: 6.00 Build 0)  -->
<svg version="1.1" id="Layer_1" xmlns="http://www.w3.org/2000/svg" xmlns:xlink="http://www.w3.org/1999/xlink" x="0px" y="0px"
	 viewBox="0 0 210 210" style="enable-background:new 0 0 210 210;" xml:space="preserve">
<style type="text/css">
	.st0{fill:#FFFFFF;}
	.st1{fill:#9999FF;}
	.st2{fill:#5C5C99;}
	.st3{fill:#E5E5FF;}
	.st4{fill:#7A7ACC;}
</style>
<g id="électricité-hover-state" transform="translate(-15.001 0)">
	<circle id="ellipse" class="st0" cx="120" cy="105" r="105"/>
	<g id="icon" transform="translate(-14882 -1547.763)">
		
			<rect id="Rectangle_101" x="15029.3" y="1597.8" transform="matrix(0.7071 -0.7071 0.7071 0.7071 3258.5388 11104.5801)" class="st1" width="8.8" height="42.2"/>
	</g>
	<g id="Group_369" transform="translate(13948.76 1597.763)">
		<g id="Group_368" transform="translate(0)">
			<g id="Group_367">
				<rect id="Rectangle_345" x="-13797.9" y="-1497.7" class="st2" width="21.8" height="8.4"/>
				<rect id="Rectangle_346" x="-13881.5" y="-1497.7" class="st2" width="21.8" height="8.4"/>
				<path id="Path_515" class="st3" d="M-13874.9-1497.4l46.1-46.2l46.2,46.2v64.6h-92.3V-1497.4z"/>
				<g id="Group_366">
					<path id="Path_516" class="st4" d="M-13770.7-1494.7l-5.4,5.4l-6.5-6.5l-46.2-46.1l-52.7,52.6l-5.4-5.4l57.8-57.8l0.3-0.3
						L-13770.7-1494.7z"/>
				</g>
			</g>
		</g>
		<path id="Path_517" class="st4" d="M-13817.3-1465.9v33.1h-23v-33.1c-0.1-6.4,5.1-11.6,11.4-11.6c6.4-0.1,11.6,5.1,11.6,11.4
			C-13817.3-1466-13817.3-1465.9-13817.3-1465.9z"/>
	</g>
</g>
</svg>
