<?xml version="1.0" encoding="utf-8"?>
<!-- Generator: Adobe Illustrator 24.1.3, SVG Export Plug-In . SVG Version: 6.00 Build 0)  -->
<svg version="1.1" id="Layer_1" xmlns="http://www.w3.org/2000/svg" xmlns:xlink="http://www.w3.org/1999/xlink" x="0px" y="0px"
	 viewBox="0 0 105 105" style="enable-background:new 0 0 105 105;" xml:space="preserve">
<style type="text/css">
	.st0{fill:#FFFFFF;}
	.st1{fill:none;}
	.st2{fill:#3333FF;}
	.st3{fill:#E5E5FF;}
	.st4{fill:#9999FF;}
	.st5{fill:#CCCCFF;}
	.st6{fill:#B3B3FF;}
</style>
<g id="est-active-state" transform="translate(0 0)">
	<circle id="ellipse" class="st0" cx="52.5" cy="52.5" r="52.5"/>
	<g id="icon" transform="translate(11 10)">
		<circle id="Ellipse_240" class="st1" cx="41.5" cy="42.5" r="45"/>
		<path id="Path_667" class="st2" d="M65,42.5L62.5,40l1.8-1.8l2.5,2.5l1.7,1.8l-1.8,1.8l-2.5,2.5L62.5,45L65,42.5z"/>
		<rect id="Rectangle_760" x="27.5" y="63.7" class="st3" width="28" height="4"/>
		<path id="Path_668" class="st4" d="M25.5,68.3l16-4.6v-45l-17.5,5v43L25.5,68.3z"/>
		<path id="Path_669" class="st4" d="M57.4,68.3l-15.9-4.6v-45l17.5,5v43L57.4,68.3z"/>
		<path id="Path_670" class="st5" d="M59,66.7v-45l-17.5-5v45L59,66.7z"/>
		<path id="Path_671" class="st6" d="M24,66.7l17.5-5v-45l-17.5,5V66.7z"/>
		<path id="Path_672" class="st2" d="M55.5,62.2v-38l-10.5-3v38L55.5,62.2z"/>
		<path id="Path_673" class="st2" d="M82.2,44.1h0.9V46h-5.2v-0.7l0.9-0.3l-0.3,0.3v-5.6l0.2,0.3l-0.9-0.2v-0.7l2.1-0.1h3v1.8H82
			l-0.2-1l0.3,0.2h-2.4l0.2-0.2v2.4L79.7,42h2.4v1h-2.4l0.2-0.2v2.5l-0.2-0.2h2.5l-0.3,0.2L82.2,44.1z"/>
	</g>
</g>
</svg>
