<?xml version="1.0" encoding="utf-8"?>
<!-- Generator: Adobe Illustrator 24.3.0, SVG Export Plug-In . SVG Version: 6.00 Build 0)  -->
<svg version="1.1" id="Layer_1" xmlns="http://www.w3.org/2000/svg" xmlns:xlink="http://www.w3.org/1999/xlink" x="0px" y="0px"
	 viewBox="0 0 104.9 105" style="enable-background:new 0 0 104.9 105;" xml:space="preserve">
<style type="text/css">
	.st0{fill:#FFFFFF;}
	.st1{fill:none;}
	.st2{fill:#808080;}
	.st3{fill:#FAFAFA;}
	.st4{fill:#B3B3B3;}
	.st5{fill:#E6E6E6;}
	.st6{fill:#CCCCCC;}
</style>
<g id="est-default-state" transform="translate(0 0)">
	<circle id="ellipse" class="st0" cx="52.4" cy="52.5" r="52.5"/>
	<g id="icon" transform="translate(11 10)">
		<circle id="Ellipse_240" class="st1" cx="41.9" cy="41" r="45"/>
		<path id="Path_667" class="st2" d="M65.4,41L63,38.5l1.8-1.8l2.5,2.5L69,41l-1.8,1.8l-2.5,2.5L63,43.5L65.4,41z"/>
		<rect id="Rectangle_760" x="27.9" y="62.2" class="st3" width="28" height="4"/>
		<path id="Path_668" class="st4" d="M26,66.8l16-4.6v-45l-17.5,5v43L26,66.8z"/>
		<path id="Path_669" class="st4" d="M57.9,66.8l-15.9-4.6v-45l17.5,5v43L57.9,66.8z"/>
		<path id="Path_670" class="st5" d="M59.4,65.2v-45l-17.5-5v45L59.4,65.2z"/>
		<path id="Path_671" class="st6" d="M24.4,65.2l17.5-5v-45l-17.5,5V65.2z"/>
		<path id="Path_672" class="st2" d="M55.9,60.7v-38l-10.5-3v38L55.9,60.7z"/>
		<path id="Path_673" class="st2" d="M82.6,42.6h0.9v1.9h-5.2v-0.7l0.9-0.3L79,43.8v-5.6l0.2,0.3l-0.9-0.2v-0.7l2.1-0.1h3v1.8h-0.9
			l-0.2-1l0.3,0.2h-2.4l0.2-0.2v2.4l-0.2-0.2h2.4v1h-2.4l0.2-0.2v2.5l-0.2-0.2h2.5l-0.3,0.2L82.6,42.6z"/>
	</g>
</g>
</svg>
