<?xml version="1.0" encoding="utf-8"?>
<!-- Generator: Adobe Illustrator 24.3.0, SVG Export Plug-In . SVG Version: 6.00 Build 0)  -->
<svg version="1.1" id="Layer_1" xmlns="http://www.w3.org/2000/svg" xmlns:xlink="http://www.w3.org/1999/xlink" x="0px" y="0px"
	 viewBox="0 0 105 105" style="enable-background:new 0 0 105 105;" xml:space="preserve">
<style type="text/css">
	.st0{fill:#FFFFFF;}
	.st1{fill:none;}
	.st2{fill:#414199;}
	.st3{fill:#E5E5FF;}
	.st4{fill:#9999FF;}
	.st5{fill:#CCCCFF;}
	.st6{fill:#B3B3FF;}
</style>
<g id="est-hover-state" transform="translate(0 0)">
	<circle id="ellipse" class="st0" cx="52.5" cy="52.5" r="52.5"/>
	<g id="icon" transform="translate(11 10)">
		<circle id="Ellipse_240" class="st1" cx="42" cy="42" r="45"/>
		<path id="Path_667" class="st2" d="M65.5,42L63,39.5l1.8-1.8l2.5,2.5L69,42l-1.8,1.8l-2.5,2.5L63,44.5L65.5,42z"/>
		<rect id="Rectangle_760" x="28" y="63.2" class="st3" width="28" height="4"/>
		<path id="Path_668" class="st4" d="M26,67.8l16-4.6v-45l-17.5,5v43L26,67.8z"/>
		<path id="Path_669" class="st4" d="M57.9,67.8L42,63.2v-45l17.5,5v43L57.9,67.8z"/>
		<path id="Path_670" class="st5" d="M59.5,66.2v-45l-17.5-5v45L59.5,66.2z"/>
		<path id="Path_671" class="st6" d="M24.5,66.2l17.5-5v-45l-17.5,5V66.2z"/>
		<path id="Path_672" class="st2" d="M56,61.7v-38l-10.5-3v38L56,61.7z"/>
		<path id="Path_673" class="st2" d="M82.7,43.6h0.9v1.9h-5.2v-0.7l0.9-0.3L79,44.8v-5.6l0.2,0.3l-0.9-0.2v-0.7l2.1-0.1h3v1.8h-0.9
			l-0.2-1l0.3,0.2h-2.4l0.2-0.2v2.4l-0.2-0.2h2.4v1h-2.4l0.2-0.2v2.5l-0.2-0.2h2.5l-0.3,0.2L82.7,43.6z"/>
	</g>
</g>
</svg>
