<?xml version="1.0" encoding="utf-8"?>
<!-- Generator: Adobe Illustrator 24.1.3, SVG Export Plug-In . SVG Version: 6.00 Build 0)  -->
<svg version="1.1" id="Layer_1" xmlns="http://www.w3.org/2000/svg" xmlns:xlink="http://www.w3.org/1999/xlink" x="0px" y="0px"
	 viewBox="0 0 210 210" style="enable-background:new 0 0 210 210;" xml:space="preserve">
<style type="text/css">
	.st0{fill:#FFFFFF;}
	.st1{fill:#B3B3FF;}
	.st2{fill:#9999FF;}
	.st3{fill:#CCCCFF;}
	.st4{fill:#E4E4FE;}
	.st5{fill:#FF4B33;}
	.st6{fill:#FFA599;}
	.st7{fill:#292966;}
</style>
<circle id="ellipse" class="st0" cx="105" cy="105" r="105"/>
<g id="icon" transform="translate(55 50)">
	<path id="Path_704" class="st1" d="M44.3,12.9C30.8,6.1,14.2,11.6,7.4,25.2C2.3,35.3,4,47.5,11.5,55.9l-28.1,48.8l3.2,8.2l8.7-1.3
		l3.5-5.9l-1.3-4.7l4.7-1.3L1,95l4.7-1.2L4.4,89L9,87.8L7.8,83l4.7-1.2l11-19c14.9,3.1,29.5-6.4,32.6-21.3
		C58.4,30.4,53.7,19.1,44.3,12.9z M32.1,37.5c-3.2-2-4.3-6.3-2.3-9.5c1.6-2.5,4.6-3.8,7.5-3.1c0.6,0.2,1.1,0.4,1.6,0.7
		c3.4,1.7,4.8,5.8,3.2,9.2s-5.8,4.8-9.2,3.2C32.6,37.9,32.3,37.7,32.1,37.5L32.1,37.5z"/>
	<path id="Path_705" class="st1" d="M5.1,101.5l-3-1.7L0.9,95l3,1.7L5.1,101.5z"/>
	<path id="Path_706" class="st1" d="M1.7,107.4l-3-1.7l-1.3-4.7l3,1.7L1.7,107.4z"/>
	<path id="Path_707" class="st1" d="M8.6,95.5l-3-1.7L4.4,89l3,1.7L8.6,95.5z"/>
	<path id="Path_708" class="st1" d="M12,89.6l-3-1.7l-1.2-4.8l3,1.7L12,89.6z"/>
	<path id="Path_709" class="st2" d="M-1.7,113.3l-10.9,1.7l-3-1.7l2.2-0.3l8.7-1.3L-1.7,113.3z"/>
	<path id="Path_710" class="st2" d="M5.1,101.4l-4.7,1.3l-3-1.7l4.7-1.3L5.1,101.4z"/>
	<path id="Path_711" class="st2" d="M8.6,95.5l-4.7,1.2l-3-1.7l4.7-1.2L8.6,95.5z"/>
	<path id="Path_712" class="st2" d="M12,89.6l-4.6,1.2l-3-1.8L9,87.8L12,89.6z"/>
	<path id="Path_713" class="st2" d="M15.5,83.5l-4.7,1.2l-3-1.7l4.7-1.2L15.5,83.5z"/>
	
		<rect id="Rectangle_767" x="-4.9" y="107.8" transform="matrix(0.5 -0.866 0.866 0.5 -95.5605 53.4426)" class="st3" width="6.8" height="3.4"/>
	<path id="Path_714" class="st4" d="M44.3,12.9c-0.5-0.3-1-0.6-1.5-0.9c-13.2-7.6-30-3.1-37.6,10.1c-5.9,10.3-4.6,23.2,3.3,32.1
		L-19.6,103l4,10.2l2.2-0.3l8.7-1.3l3.5-5.9l-1.3-4.7l4.7-1.3L1,95l4.7-1.2L4.4,89L9,87.8L7.8,83l4.7-1.2l11-19
		c14.9,3.1,29.5-6.4,32.6-21.3C58.4,30.4,53.7,19.1,44.3,12.9z M29.1,35.8c-3.2-2.1-4-6.4-1.9-9.6c1.9-2.9,5.7-3.9,8.8-2.4
		c0.5,0.3,0.9,0.7,1.3,1.1c2.7,2.7,2.7,7.1,0,9.8c-1.7,1.7-4.3,2.4-6.6,1.8C30.2,36.3,29.6,36.1,29.1,35.8L29.1,35.8z"/>
	<path id="Path_715" class="st1" d="M55.9,51.3c7.6-13.2,3.1-30-10.1-37.6l0,0c-0.5-0.3-1-0.6-1.5-0.8C57,21.3,60.4,38.4,52,51
		c-6.2,9.4-17.5,14-28.6,11.7l3,1.7C38.1,66.9,50,61.6,55.9,51.3z"/>
	
		<rect id="Rectangle_768" x="8.4" y="71.5" transform="matrix(0.5 -0.866 0.866 0.5 -53.6535 53.4261)" class="st3" width="22" height="3.4"/>
	<path id="Path_716" class="st5" d="M95.4,24.1l-21.1-5.7c-1.2-0.3-2.5-0.2-3.7,0.4l0,0l-0.2,0.1l0,0l-2.5,1.4l0.9,0.1
		c-0.3,0.5-0.6,1-0.7,1.6l-5.8,21.2c-0.4,1.3-0.2,2.7,0.5,3.9l20.4,35.4c1.4,2.5,4.6,3.3,7,1.9L117,68.9c2.5-1.4,3.3-4.6,1.9-7.1
		L98.5,26.4C97.9,25.3,96.7,24.5,95.4,24.1z M83.4,41.6c-3.3,1.9-7.5,0.8-9.4-2.5s-0.8-7.5,2.5-9.4s7.5-0.8,9.4,2.5l0,0
		C87.8,35.5,86.7,39.7,83.4,41.6L83.4,41.6z"/>
	<path id="Path_717" class="st6" d="M65.5,23.5l-5.7,21.2c-0.4,1.3-0.2,2.7,0.5,3.9L80.8,84c1.4,2.5,4.6,3.3,7.1,1.9l26.8-15.5
		c2.5-1.4,3.3-4.6,1.9-7.1L96.2,27.9c-0.7-1.2-1.8-2.1-3.1-2.4L72,19.8C69,19.1,66.2,20.8,65.5,23.5z M80.9,43
		c-3.3,1.9-7.5,0.8-9.4-2.5S70.7,33,74,31.1s7.5-0.8,9.4,2.5l0,0C85.3,36.9,84.2,41.1,80.9,43z"/>
	<path id="Path_718" class="st7" d="M68.5-1.4c-12.7-7.3-29-3-36.3,9.7c-0.1,0.1-0.1,0.2-0.1,0.2c-0.3,0.5-0.6,1-0.9,1.6
		c-4.1,8.6-3.3,18.8,2.2,26.7c1.4-0.2,2.7-0.8,3.7-1.7c-2.1-2.9-3.5-6.3-4.1-9.8c-0.1-0.7-0.2-1.5-0.3-2.2c-0.3-4.4,0.7-8.9,3-12.7
		l0,0c0.2-0.3,0.4-0.7,0.6-1C43-1.2,57-4.2,67.4,2.6c5.8,3.7,9.5,9.9,10.2,16.8l4.1,1.1C81.4,11.4,76.4,3.1,68.5-1.4z M76,30.4
		c-0.4,0.8-0.8,1.7-1.2,2.5c-0.5,0.9-1,1.7-1.6,2.5c-0.7,1-1.5,1.9-2.4,2.7c-2.4,2.2-5.2,3.9-8.3,4.9c-0.7,0.2-1.5,0.5-2.3,0.6
		c-0.4,0.1-0.8,0.2-1.2,0.2c-0.3,1.4-0.8,2.8-1.3,4.2c0.8-0.1,1.5-0.2,2.3-0.3c1-0.2,1.9-0.4,2.8-0.7c3.6-1,6.9-2.8,9.7-5.3
		c0.7-0.6,1.4-1.3,2-1.9c1.4-1.5,2.7-3.2,3.7-5c0.8-1.3,1.4-2.7,1.9-4.1C78.8,30.2,77.4,30.1,76,30.4z"/>
</g>
</svg>
