<?xml version="1.0" encoding="utf-8"?>
<!-- Generator: Adobe Illustrator 24.3.0, SVG Export Plug-In . SVG Version: 6.00 Build 0)  -->
<svg version="1.1" id="Layer_1" xmlns="http://www.w3.org/2000/svg" xmlns:xlink="http://www.w3.org/1999/xlink" x="0px" y="0px"
	 viewBox="0 0 209.8 210" style="enable-background:new 0 0 209.8 210;" xml:space="preserve">
<style type="text/css">
	.st0{fill:#FFFFFF;}
	.st1{fill:#CCCCCC;}
	.st2{fill:#B3B3B3;}
	.st3{fill:#E6E6E6;}
	.st4{fill:#FAFAFA;}
</style>
<g id="locataire-default-state" transform="translate(-15 0)">
	<circle id="ellipse" class="st0" cx="119.8" cy="105" r="105"/>
	<g id="icon" transform="translate(55 50)">
		<path id="Path_704" class="st1" d="M58.8,12.9c-13.6-6.8-30.1-1.3-36.9,12.3c-5.1,10.1-3.4,22.3,4.1,30.7l-28.2,48.9l3.2,8.2
			l8.7-1.3l3.5-5.9l-1.3-4.7l4.7-1.3L15.4,95l4.7-1.2L18.8,89l4.6-1.2L22.3,83l4.7-1.2l11-19c14.9,3.1,29.5-6.4,32.6-21.3
			C72.8,30.4,68.2,19.1,58.8,12.9z M46.5,37.5c-3.2-2-4.3-6.3-2.3-9.5c1.6-2.5,4.6-3.8,7.5-3.1c0.6,0.2,1.1,0.4,1.6,0.7
			c3.4,1.7,4.8,5.8,3.2,9.2s-5.8,4.8-9.2,3.2C47.1,37.9,46.8,37.7,46.5,37.5L46.5,37.5z"/>
		<path id="Path_705" class="st1" d="M19.6,101.5l-3-1.7L15.4,95l3,1.7L19.6,101.5z"/>
		<path id="Path_706" class="st1" d="M16.1,107.4l-3-1.7l-1.3-4.7l3,1.7L16.1,107.4z"/>
		<path id="Path_707" class="st1" d="M23,95.5l-3-1.7L18.8,89l3,1.7L23,95.5z"/>
		<path id="Path_708" class="st1" d="M26.4,89.6l-3-1.7l-1.2-4.8l3,1.7L26.4,89.6z"/>
		<path id="Path_709" class="st2" d="M12.7,113.3L1.8,115l-3-1.7l2.2-0.3l8.7-1.3L12.7,113.3z"/>
		<path id="Path_710" class="st2" d="M19.6,101.4l-4.7,1.3l-3-1.7l4.7-1.3L19.6,101.4z"/>
		<path id="Path_711" class="st2" d="M23,95.5l-4.7,1.2l-3-1.7l4.7-1.2L23,95.5z"/>
		<path id="Path_712" class="st2" d="M26.4,89.6l-4.6,1.2l-3-1.7l4.6-1.2L26.4,89.6z"/>
		<path id="Path_713" class="st2" d="M29.9,83.5l-4.7,1.2l-3-1.7l4.7-1.2L29.9,83.5z"/>
		
			<rect id="Rectangle_767" x="9.5" y="107.8" transform="matrix(0.5 -0.866 0.866 0.5 -88.3806 65.9601)" class="st3" width="6.8" height="3.4"/>
		<path id="Path_714" class="st4" d="M58.8,12.9c-0.5-0.3-1-0.6-1.5-0.9c-13.2-7.6-30-3.1-37.6,10.1c-5.9,10.3-4.6,23.2,3.3,32.1
			L-5.2,103l4,10.2l2.2-0.3l8.7-1.3l3.5-5.9l-1.3-4.7l4.7-1.3L15.4,95l4.7-1.2L18.8,89l4.6-1.2L22.3,83l4.7-1.2l11-19
			c14.9,3.1,29.5-6.4,32.6-21.3C72.8,30.4,68.2,19.1,58.8,12.9z M43.6,35.8c-3.2-2.1-4-6.4-1.9-9.6c1.9-2.9,5.7-3.9,8.8-2.4
			c0.5,0.3,0.9,0.7,1.3,1.1c2.7,2.7,2.7,7.1,0,9.8c-1.7,1.7-4.3,2.4-6.6,1.8C44.6,36.3,44.1,36.1,43.6,35.8L43.6,35.8z"/>
		<path id="Path_715" class="st1" d="M70.4,51.3c7.6-13.2,3.1-30-10.1-37.6c0,0,0,0,0,0c-0.5-0.3-1-0.6-1.5-0.8
			c12.7,8.4,16.1,25.5,7.7,38.1c-6.2,9.4-17.5,14-28.6,11.7l3,1.7C52.6,66.9,64.4,61.6,70.4,51.3z"/>
		
			<rect id="Rectangle_768" x="22.9" y="71.4" transform="matrix(0.5 -0.866 0.866 0.5 -46.3937 65.9636)" class="st3" width="22" height="3.4"/>
		<path id="Path_716" class="st1" d="M109.9,24.1l-21.1-5.7c-1.2-0.3-2.5-0.2-3.7,0.4l0,0l-0.2,0.1l0,0l-2.5,1.4l0.9,0.1
			c-0.3,0.5-0.6,1-0.7,1.6l-5.8,21.2c-0.4,1.3-0.2,2.7,0.5,3.9l20.4,35.4c1.4,2.5,4.6,3.3,7,1.9l26.8-15.5c2.5-1.4,3.3-4.6,1.9-7.1
			L113,26.5C112.3,25.3,111.2,24.5,109.9,24.1z M97.9,41.6c-3.3,1.9-7.5,0.8-9.4-2.5s-0.8-7.5,2.5-9.4c3.3-1.9,7.5-0.8,9.4,2.5
			c0,0,0,0,0,0C102.3,35.5,101.1,39.7,97.9,41.6L97.9,41.6z"/>
		<path id="Path_717" class="st3" d="M79.9,23.5l-5.7,21.2c-0.4,1.3-0.2,2.7,0.5,3.9L95.2,84c1.4,2.5,4.6,3.3,7.1,1.9l26.8-15.5
			c2.5-1.4,3.3-4.6,1.9-7.1l-20.4-35.4c-0.7-1.2-1.8-2.1-3.1-2.4l-21.1-5.7C83.5,19.1,80.7,20.8,79.9,23.5z M95.4,43
			c-3.3,1.9-7.5,0.8-9.4-2.5c-1.9-3.3-0.8-7.5,2.5-9.4c3.3-1.9,7.5-0.8,9.4,2.5c0,0,0,0,0,0C99.8,36.9,98.6,41.1,95.4,43z"/>
		<path id="Path_718" class="st2" d="M82.9-1.4c-12.7-7.3-29-3-36.3,9.7c-0.1,0.1-0.1,0.2-0.1,0.2c-0.3,0.5-0.6,1-0.9,1.6
			c-4.1,8.6-3.3,18.8,2.2,26.7c1.4-0.2,2.7-0.8,3.7-1.7c-2.1-2.9-3.5-6.3-4.1-9.8c-0.1-0.7-0.2-1.5-0.3-2.2c-0.3-4.4,0.7-8.9,3-12.7
			l0,0c0.2-0.3,0.4-0.7,0.6-1C57.5-1.2,71.4-4.2,81.9,2.6c5.8,3.7,9.5,9.9,10.2,16.8l4.1,1.1C95.8,11.4,90.8,3.1,82.9-1.4z
			 M90.4,30.4c-0.4,0.8-0.8,1.7-1.2,2.5c-0.5,0.9-1,1.7-1.6,2.5c-0.7,1-1.5,1.9-2.4,2.7c-2.4,2.2-5.2,3.9-8.3,4.9
			c-0.7,0.2-1.5,0.5-2.3,0.6c-0.4,0.1-0.8,0.2-1.2,0.2c-0.3,1.4-0.8,2.8-1.3,4.2c0.8-0.1,1.5-0.2,2.3-0.3c1-0.2,1.9-0.4,2.8-0.7
			c3.6-1,6.9-2.8,9.7-5.3c0.7-0.6,1.4-1.3,2-1.9c1.4-1.5,2.7-3.2,3.7-5c0.8-1.3,1.4-2.7,1.9-4.1C93.3,30.2,91.8,30.1,90.4,30.4z"/>
	</g>
</g>
</svg>
