<?xml version="1.0" encoding="utf-8"?>
<!-- Generator: Adobe Illustrator 24.3.0, SVG Export Plug-In . SVG Version: 6.00 Build 0)  -->
<svg version="1.1" id="Layer_1" xmlns="http://www.w3.org/2000/svg" xmlns:xlink="http://www.w3.org/1999/xlink" x="0px" y="0px"
	 viewBox="0 0 210 210" style="enable-background:new 0 0 210 210;" xml:space="preserve">
<style type="text/css">
	.st0{fill:#FFFFFF;}
	.st1{fill:#B3B3FF;}
	.st2{fill:#9999FF;}
	.st3{fill:#CCCCFF;}
	.st4{fill:#E4E4FE;}
	.st5{fill:#FF5533;}
	.st6{fill:#FFD3CC;}
	.st7{fill:#414199;}
</style>
<g id="locataire-active-state" transform="translate(-15 0)">
	<circle id="ellipse" class="st0" cx="120" cy="105" r="105"/>
	<g id="icon" transform="translate(55 50)">
		<path id="Path_704" class="st1" d="M58.9,12.9C45.4,6.1,28.8,11.6,22,25.2c-5.1,10.1-3.4,22.3,4.1,30.7L-2,104.7l3.2,8.2l8.7-1.3
			l3.5-5.9l-1.3-4.7l4.7-1.3L15.6,95l4.7-1.2L19,89l4.6-1.2L22.4,83l4.7-1.2l11-19c14.9,3.1,29.5-6.4,32.6-21.3
			C73,30.4,68.3,19.1,58.9,12.9z M46.7,37.5c-3.2-2-4.3-6.3-2.3-9.5c1.6-2.5,4.6-3.8,7.5-3.1c0.6,0.2,1.1,0.4,1.6,0.7
			c3.4,1.7,4.8,5.8,3.2,9.2s-5.8,4.8-9.2,3.2C47.2,37.9,46.9,37.7,46.7,37.5L46.7,37.5z"/>
		<path id="Path_705" class="st1" d="M19.7,101.5l-3-1.7L15.5,95l3,1.7L19.7,101.5z"/>
		<path id="Path_706" class="st1" d="M16.3,107.4l-3-1.7L12,101l3,1.7L16.3,107.4z"/>
		<path id="Path_707" class="st1" d="M23.2,95.5l-3-1.7L19,89l3,1.7L23.2,95.5z"/>
		<path id="Path_708" class="st1" d="M26.6,89.6l-3-1.7l-1.2-4.8l3,1.7L26.6,89.6z"/>
		<path id="Path_709" class="st2" d="M12.9,113.3L2,115l-3-1.7l2.2-0.3l8.7-1.3L12.9,113.3z"/>
		<path id="Path_710" class="st2" d="M19.7,101.4l-4.7,1.3l-3-1.7l4.7-1.3L19.7,101.4z"/>
		<path id="Path_711" class="st2" d="M23.2,95.5l-4.7,1.2l-3-1.7l4.7-1.2L23.2,95.5z"/>
		<path id="Path_712" class="st2" d="M26.6,89.6l-4.6,1.2L19,89l4.6-1.2L26.6,89.6z"/>
		<path id="Path_713" class="st2" d="M30.1,83.5l-4.7,1.2l-3-1.7l4.7-1.2L30.1,83.5z"/>
		
			<rect id="Rectangle_767" x="9.7" y="107.8" transform="matrix(0.5 -0.866 0.866 0.5 -88.3009 66.0982)" class="st3" width="6.8" height="3.4"/>
		<path id="Path_714" class="st4" d="M58.9,12.9c-0.5-0.3-1-0.6-1.5-0.9c-13.2-7.6-30-3.1-37.6,10.1c-5.9,10.3-4.6,23.2,3.3,32.1
			L-5,103l4,10.2l2.2-0.3l8.7-1.3l3.5-5.9l-1.3-4.7l4.7-1.3L15.6,95l4.7-1.2L19,89l4.6-1.2L22.4,83l4.7-1.2l11-19
			c14.9,3.1,29.5-6.4,32.6-21.3C73,30.4,68.3,19.1,58.9,12.9z M43.7,35.8c-3.2-2.1-4-6.4-1.9-9.6c1.9-2.9,5.7-3.9,8.8-2.4
			c0.5,0.3,0.9,0.7,1.3,1.1c2.7,2.7,2.7,7.1,0,9.8c-1.7,1.7-4.3,2.4-6.6,1.8C44.8,36.3,44.2,36.1,43.7,35.8L43.7,35.8z"/>
		<path id="Path_715" class="st1" d="M70.5,51.3c7.6-13.2,3.1-30-10.1-37.6c0,0,0,0,0,0c-0.5-0.3-1-0.6-1.5-0.8
			c12.7,8.4,16.1,25.5,7.7,38.1c-6.2,9.4-17.5,14-28.6,11.7l3,1.7C52.7,66.9,64.6,61.6,70.5,51.3z"/>
		
			<rect id="Rectangle_768" x="23.1" y="71.4" transform="matrix(0.5 -0.866 0.866 0.5 -46.314 66.1017)" class="st3" width="22" height="3.4"/>
		<path id="Path_716" class="st5" d="M110,24.1l-21.1-5.7c-1.2-0.3-2.5-0.2-3.7,0.4l0,0L85,18.9l0,0l-2.5,1.4l0.9,0.1
			c-0.3,0.5-0.6,1-0.7,1.6l-5.8,21.2c-0.4,1.3-0.2,2.7,0.5,3.9l20.4,35.4c1.4,2.5,4.6,3.3,7,1.9l26.8-15.5c2.5-1.4,3.3-4.6,1.9-7.1
			l-20.4-35.4C112.5,25.3,111.3,24.5,110,24.1z M98,41.6c-3.3,1.9-7.5,0.8-9.4-2.5s-0.8-7.5,2.5-9.4c3.3-1.9,7.5-0.8,9.4,2.5
			c0,0,0,0,0,0C102.4,35.5,101.3,39.7,98,41.6L98,41.6z"/>
		<path id="Path_717" class="st6" d="M80.1,23.5l-5.7,21.2c-0.4,1.3-0.2,2.7,0.5,3.9L95.4,84c1.4,2.5,4.6,3.3,7.1,1.9l26.8-15.5
			c2.5-1.4,3.3-4.6,1.9-7.1l-20.4-35.4c-0.7-1.2-1.8-2.1-3.1-2.4l-21.1-5.7C83.6,19.1,80.8,20.8,80.1,23.5z M95.5,43
			c-3.3,1.9-7.5,0.8-9.4-2.5c-1.9-3.3-0.8-7.5,2.5-9.4c3.3-1.9,7.5-0.8,9.4,2.5c0,0,0,0,0,0C99.9,36.9,98.8,41.1,95.5,43z"/>
		<path id="Path_718" class="st7" d="M83.1-1.4c-12.7-7.3-29-3-36.3,9.7c-0.1,0.1-0.1,0.2-0.1,0.2c-0.3,0.5-0.6,1-0.9,1.6
			c-4.1,8.6-3.3,18.8,2.2,26.7c1.4-0.2,2.7-0.8,3.7-1.7c-2.1-2.9-3.5-6.3-4.1-9.8c-0.1-0.7-0.2-1.5-0.3-2.2c-0.3-4.4,0.7-8.9,3-12.7
			l0,0c0.2-0.3,0.4-0.7,0.6-1C57.6-1.2,71.6-4.2,82,2.6c5.8,3.7,9.5,9.9,10.2,16.8l4.1,1.1C96,11.4,91,3.1,83.1-1.4z M90.6,30.4
			c-0.4,0.8-0.8,1.7-1.2,2.5c-0.5,0.9-1,1.7-1.6,2.5c-0.7,1-1.5,1.9-2.4,2.7c-2.4,2.2-5.2,3.9-8.3,4.9c-0.7,0.2-1.5,0.5-2.3,0.6
			c-0.4,0.1-0.8,0.2-1.2,0.2c-0.3,1.4-0.8,2.8-1.3,4.2c0.8-0.1,1.5-0.2,2.3-0.3c1-0.2,1.9-0.4,2.8-0.7c3.6-1,6.9-2.8,9.7-5.3
			c0.7-0.6,1.4-1.3,2-1.9c1.4-1.5,2.7-3.2,3.7-5c0.8-1.3,1.4-2.7,1.9-4.1C93.4,30.2,92,30.1,90.6,30.4z"/>
	</g>
</g>
</svg>
