<?xml version="1.0" encoding="utf-8"?>
<!-- Generator: Adobe Illustrator 24.1.3, SVG Export Plug-In . SVG Version: 6.00 Build 0)  -->
<svg version="1.1" id="Layer_1" xmlns="http://www.w3.org/2000/svg" xmlns:xlink="http://www.w3.org/1999/xlink" x="0px" y="0px"
	 viewBox="0 0 210 210" style="enable-background:new 0 0 210 210;" xml:space="preserve">
<style type="text/css">
	.st0{fill:#FFFFFF;}
	.st1{fill:#4D4DFF;}
	.st2{fill:#FFA399;}
	.st3{fill:#FF664D;}
	.st4{fill:#FF4633;}
	.st5{fill:#FF7466;}
	.st6{fill:#FFD3CC;}
	.st7{fill:#FFAA99;}
	.st8{fill:#9595F9;}
</style>
<g id="marié-active-state" transform="translate(-15 0)">
	<circle id="ellipse" class="st0" cx="120" cy="105" r="105"/>
</g>
<g id="icon" transform="translate(46.58 56.7)">
	<path id="Path_769" class="st1" d="M84.5,15.9h-1.4c-8.6,0.3-16.8,3.6-23.2,9.2c1.4,1.1,2.7,2.4,3.8,3.8c0.4,0.4,0.7,0.9,1.1,1.4
		c5.1-4.2,11.5-6.8,18.1-7.1c0.5,0,1-0.1,1.5-0.1c16.9,0,30.6,13.7,30.6,30.6s-13.7,30.6-30.6,30.6c-0.5,0-1,0-1.5-0.1
		c-0.5,0-0.9,0.1-1.4,0.1c-6.4,0-12.6-2-17.8-5.8c-0.6-0.4-1.2-0.9-1.8-1.4c-1.3-1.1-2.4-2.3-3.6-3.5c-0.5-0.6-1-1.1-1.5-1.8
		c-8-10.8-8-25.6,0-36.3c0.5,0.7,1,1.4,1.5,2.1c0.5-0.7,1-1.5,1.5-2.1c-1.5-2-3.1-3.7-5-5.3c-0.4,0.5-0.8,1-1.1,1.5
		c-9.4,13.1-9.4,30.7,0,43.8c0.4,0.6,0.7,1.1,1.1,1.5c1.1,1.4,2.3,2.7,3.6,3.9c0.5,0.5,1,0.9,1.5,1.3c6.5,5.6,14.7,8.8,23.2,9.1h1.4
		c20.9,0,37.9-16.9,37.9-37.9S105.4,15.9,84.5,15.9L84.5,15.9z"/>
	<path id="Path_770" class="st1" d="M83,84.4c-0.5,0-0.9,0.1-1.4,0.1c-6.4,0-12.7-2-17.8-5.8c-0.6-0.4-1.2-0.9-1.8-1.4
		c-1.3-1.1-2.4-2.3-3.6-3.5c-0.5-0.6-1-1.1-1.5-1.8c-8-10.8-8-25.6,0-36.3c0.5,0.7,1,1.4,1.5,2.1c-6,9.9-6,22.2,0,32.1
		c0.5,0.7,1,1.5,1.5,2.1c1,1.3,2.1,2.6,3.3,3.7c0.6,0.6,1.1,1.1,1.7,1.5C70,81.6,76.4,84.1,83,84.4z"/>
	<path id="Path_771" class="st2" d="M62,77.3c-1.3-1.1-2.4-2.3-3.6-3.5c-1.1,1.3-2.3,2.4-3.6,3.5c1.1,1.4,2.3,2.7,3.6,3.9
		c0.5,0.5,1,0.9,1.5,1.3c1.4-1.2,2.7-2.4,3.8-3.8C63.2,78.2,62.6,77.7,62,77.3z"/>
	<path id="Path_772" class="st3" d="M73.1,53.8c0,8.6-2.9,16.8-8.1,23.5c-0.6-0.5-1.1-1-1.7-1.5C73,62,72.6,43.5,62,30.3
		c-1.5-1.9-3.2-3.7-5-5.2c-5.6-4.9-12.5-8-20-8.9c-1.1-0.2-2.3-0.2-3.4-0.2h1.5c0.7,0,1.4,0,2.1,0.1c7.7,0.4,15.1,3.2,21.1,7.9
		c0.5,0.4,1,0.8,1.5,1.2c1.4,1.1,2.7,2.4,3.8,3.8c0.4,0.4,0.7,0.9,1.1,1.4C70.2,37,73.1,45.2,73.1,53.8z"/>
	<path id="Path_773" class="st3" d="M59.9,72c8-10.8,8-25.6,0-36.3c-1.5-2-3.1-3.7-5-5.3c-5.5-4.6-12.5-7.2-19.6-7.2
		c-0.5,0-0.9,0-1.4,0.1c-16.9,0.8-30,15.1-29.2,32c0.7,15.8,13.4,28.4,29.2,29.2c0.5,0,0.9,0.1,1.4,0.1c6.4,0,12.6-2,17.8-5.8
		c0.6-0.4,1.2-0.9,1.8-1.4c1.1,1.4,2.3,2.7,3.6,3.9c0.5,0.5,1,0.9,1.5,1.3c-0.5,0.4-1,0.8-1.5,1.1c-6.6,5.1-14.8,8-23.2,8h-1.5
		C12.9,90.7-3.4,73-2.4,52.2c0.8-17.4,13.4-32,30.5-35.4c1.9-0.4,3.7-0.6,5.7-0.7c1.1,0.1,2.3,0.2,3.4,0.2c7.3,0.9,14.3,4,19.9,8.8
		c1.8,1.5,3.5,3.3,5,5.2C72.5,43.5,73,62,63.2,75.7C62,74.6,60.9,73.3,59.9,72z"/>
	<path id="Path_774" class="st4" d="M41.9,4.8l4.7,4.7l-6.6,6.7l-4.8,4.8l-4.7-4.8l-6.7-6.7l4.7-4.7H41.9z"/>
	<path id="Path_775" class="st5" d="M39,4.8l4.7,4.7l-6.6,6.7L32.4,21l-4.8-4.7l-6.7-6.7l4.8-4.7H39z"/>
	<path id="Path_776" class="st6" d="M58.5,73.8c-0.5-0.6-1-1.1-1.5-1.8c-1,1.3-2,2.6-3.3,3.7c-0.6,0.6-1.1,1.1-1.7,1.5
		c0.3,0.5,0.7,0.9,1.1,1.4c1.2,1.4,2.5,2.7,3.9,3.8c0.5-0.4,1-0.9,1.5-1.3c1.3-1.2,2.4-2.5,3.6-3.9C60.7,76.2,59.5,75.1,58.5,73.8z"
		/>
	<path id="Path_777" class="st7" d="M70.2,53.8c0,7.8-2.4,15.5-7,21.9c-1.2-1.1-2.3-2.4-3.3-3.7c-0.5-0.7-1-1.4-1.5-2.1
		c6.1-9.9,6.1-22.2,0-32.1c-0.4-0.7-0.9-1.5-1.5-2.1c-1-1.3-2-2.6-3.3-3.7c-0.6-0.6-1.1-1.1-1.7-1.5c-5-4.3-11.4-6.8-18-7.1
		c-0.5,0-1-0.1-1.5-0.1c-16.9,0-30.6,13.7-30.6,30.6s13.7,30.6,30.6,30.6c0.5,0,1,0,1.5-0.1c6.7-0.3,13-2.9,18.1-7.1
		c0.3,0.5,0.7,0.9,1.1,1.4c1.2,1.4,2.5,2.7,3.9,3.8c-6.5,5.6-14.7,8.8-23.3,9.1h-1.4C11.5,91.7-5.5,74.7-5.5,53.9
		c0-19.1,14.2-35.3,33.1-37.6c1.5-0.2,3.2-0.3,4.7-0.3h1.4c1.1,0.1,2.3,0.2,3.4,0.2c7.3,1,14.3,4.1,19.9,8.9c1.8,1.5,3.5,3.3,5,5.2
		C67.3,37,70.2,45.2,70.2,53.8z"/>
	<path id="Path_778" class="st8" d="M83.1,16h-1.5c-8.4,0-16.5,2.8-23.1,8c0.5,0.4,1,0.8,1.5,1.2c1.4,1.1,2.7,2.4,3.8,3.8
		c5.2-3.7,11.4-5.8,17.8-5.8c0.5,0,0.9,0,1.4,0.1c16.9,0.8,30,15.1,29.2,32C111.4,71.1,98.8,83.8,83,84.5c-0.5,0-0.9,0.1-1.4,0.1
		c-6.4,0-12.6-2-17.8-5.8c-0.6-0.4-1.2-0.9-1.8-1.4c-1.3-1.1-2.4-2.3-3.6-3.5c-0.5-0.6-1-1.1-1.5-1.8c-8-10.8-8-25.6,0-36.3
		c-1-1.3-2-2.6-3.3-3.7c-0.6-0.6-1.1-1.1-1.7-1.5C41,44.3,41,63.7,51.9,77.4c0.3,0.5,0.7,0.9,1.1,1.4c1.2,1.4,2.5,2.7,3.9,3.8
		c0.5,0.4,1,0.8,1.5,1.1c6.6,5.2,14.7,8,23.2,8h1.5c20.8-0.9,37.1-18.5,36.2-39.4C118.6,32.6,102.8,16.8,83.1,16L83.1,16z"/>
</g>
</svg>
