<?xml version="1.0" encoding="utf-8"?>
<!-- Generator: Adobe Illustrator 24.3.0, SVG Export Plug-In . SVG Version: 6.00 Build 0)  -->
<svg version="1.1" id="Layer_1" xmlns="http://www.w3.org/2000/svg" xmlns:xlink="http://www.w3.org/1999/xlink" x="0px" y="0px"
	 viewBox="0 0 210 210" style="enable-background:new 0 0 210 210;" xml:space="preserve">
<style type="text/css">
	.st0{fill:#FFFFFF;}
	.st1{fill:#B3B3FF;}
	.st2{fill:#FFA399;}
	.st3{fill:#FFA099;}
	.st4{fill:#FF7466;}
	.st5{fill:#FFA799;}
	.st6{fill:#FFD3CC;}
	.st7{fill:#E4E4FE;}
</style>
<g id="marié-hover-state" transform="translate(-15 0)">
	<circle id="ellipse" class="st0" cx="120" cy="105" r="105"/>
	<g id="icon" transform="translate(46.58 56.7)">
		<path id="Path_769" class="st1" d="M105.5,8.6h-1.7C93.3,9,83.2,13,75.3,19.9c1.7,1.4,3.3,3,4.7,4.7c0.5,0.5,0.9,1.1,1.4,1.7
			c6.3-5.2,14.1-8.3,22.2-8.7c0.6,0,1.2-0.1,1.9-0.1c20.8,0,37.6,16.8,37.6,37.6s-16.8,37.6-37.6,37.6c-0.6,0-1.2,0-1.9-0.1
			c-0.6,0-1.1,0.1-1.7,0.1c-7.9,0-15.5-2.5-21.9-7.1c-0.7-0.5-1.5-1.1-2.2-1.7c-1.6-1.3-3-2.8-4.4-4.3c-0.6-0.7-1.2-1.4-1.8-2.2
			c-9.8-13.3-9.8-31.4,0-44.6c0.6,0.8,1.2,1.7,1.8,2.6c0.6-0.9,1.2-1.8,1.8-2.6c-1.8-2.4-3.8-4.6-6.2-6.5c-0.5,0.6-1,1.2-1.4,1.9
			c-11.5,16.1-11.5,37.7,0,53.8c0.5,0.7,0.9,1.3,1.4,1.9c1.3,1.7,2.8,3.3,4.4,4.8c0.6,0.6,1.2,1.1,1.8,1.6c8,6.9,18,10.8,28.5,11.2
			h1.7c25.7,0,46.5-20.8,46.5-46.5S131.1,8.6,105.5,8.6L105.5,8.6z"/>
		<path id="Path_770" class="st1" d="M103.6,92.7c-0.6,0-1.1,0.1-1.7,0.1c-7.9,0-15.6-2.5-21.9-7.1c-0.7-0.5-1.5-1.1-2.2-1.7
			c-1.6-1.3-3-2.8-4.4-4.3c-0.6-0.7-1.2-1.4-1.8-2.2c-9.8-13.3-9.8-31.4,0-44.6c0.6,0.8,1.2,1.7,1.8,2.6c-7.4,12.1-7.4,27.3,0,39.4
			c0.6,0.9,1.2,1.8,1.8,2.6c1.2,1.6,2.6,3.2,4.1,4.6c0.7,0.7,1.4,1.3,2.1,1.9C87.7,89.2,95.5,92.3,103.6,92.7z"/>
		<path id="Path_771" class="st2" d="M77.9,83.9c-1.6-1.3-3-2.8-4.4-4.3c-1.3,1.6-2.8,3-4.4,4.3c1.3,1.7,2.8,3.3,4.4,4.8
			c0.6,0.6,1.2,1.1,1.8,1.6c1.7-1.5,3.3-3,4.7-4.7C79.3,85.1,78.6,84.5,77.9,83.9z"/>
		<path id="Path_772" class="st3" d="M91.5,55.1c0,10.5-3.5,20.6-10,28.8c-0.7-0.6-1.4-1.2-2.1-1.9c12-16.8,11.4-39.6-1.5-55.8
			c-1.8-2.3-3.9-4.5-6.1-6.4c-6.9-6-15.4-9.8-24.5-10.9c-1.4-0.2-2.8-0.3-4.2-0.3H45c0.9,0,1.7,0,2.6,0.1c9.4,0.5,18.5,3.9,25.9,9.7
			c0.6,0.5,1.2,1,1.8,1.5c1.7,1.4,3.3,3,4.7,4.7c0.5,0.5,0.9,1.1,1.4,1.7C87.9,34.5,91.5,44.6,91.5,55.1z"/>
		<path id="Path_773" class="st3" d="M75.3,77.4c9.8-13.3,9.8-31.4,0-44.6c-1.8-2.4-3.8-4.6-6.2-6.5c-6.7-5.7-15.3-8.8-24.1-8.8
			c-0.6,0-1.1,0-1.7,0.1c-20.7,1-36.8,18.5-35.8,39.3c0.9,19.4,16.4,34.9,35.8,35.8c0.6,0,1.1,0.1,1.7,0.1c7.9,0,15.5-2.5,21.9-7.1
			c0.7-0.5,1.5-1.1,2.2-1.7c1.3,1.7,2.8,3.3,4.4,4.8c0.6,0.6,1.2,1.1,1.8,1.6c-0.6,0.5-1.2,1-1.8,1.4c-8.1,6.3-18.2,9.8-28.5,9.8
			h-1.9C17.5,100.4-2.4,78.7-1.2,53.1c1-21.4,16.4-39.3,37.4-43.5c2.3-0.5,4.6-0.7,7-0.8c1.4,0.1,2.8,0.2,4.2,0.3
			c9,1.1,17.5,4.9,24.4,10.8c2.2,1.9,4.3,4.1,6.1,6.4C90.7,42.4,91.3,65.2,79.3,82C77.8,80.6,76.5,79.1,75.3,77.4z"/>
		<path id="Path_774" class="st4" d="M53.2-5L59,0.8L50.9,9L45,14.9L39.2,9L31,0.8L36.8-5H53.2z"/>
		<path id="Path_775" class="st5" d="M49.6-5l5.8,5.8L47.3,9l-5.8,5.8L35.6,9l-8.2-8.2L33.3-5H49.6z"/>
		<path id="Path_776" class="st6" d="M73.5,79.6c-0.6-0.7-1.2-1.4-1.8-2.2c-1.2,1.6-2.5,3.2-4,4.6c-0.7,0.7-1.4,1.3-2.1,1.9
			c0.4,0.6,0.9,1.1,1.4,1.7c1.5,1.7,3.1,3.3,4.8,4.7c0.6-0.5,1.2-1.1,1.8-1.6c1.6-1.5,3-3.1,4.4-4.8C76.3,82.6,74.8,81.2,73.5,79.6z
			"/>
		<path id="Path_777" class="st6" d="M87.9,55.1c0,9.6-3,19-8.6,26.9c-1.5-1.4-2.8-3-4.1-4.6c-0.6-0.8-1.2-1.7-1.8-2.6
			c7.5-12.1,7.5-27.3,0-39.4c-0.5-0.9-1.1-1.8-1.8-2.6c-1.2-1.6-2.5-3.2-4-4.6c-0.7-0.7-1.4-1.3-2.1-1.9C59.3,21,51.5,18,43.4,17.6
			c-0.6,0-1.2-0.1-1.9-0.1c-20.8,0-37.6,16.8-37.6,37.6c0,20.8,16.8,37.6,37.6,37.6c0.6,0,1.2,0,1.9-0.1c8.2-0.4,16-3.5,22.2-8.7
			c0.4,0.6,0.9,1.1,1.4,1.7c1.5,1.7,3.1,3.3,4.8,4.7c-8,6.9-18.1,10.8-28.6,11.2h-1.7C15.8,101.6-5,80.8-5,55.2
			c0-23.5,17.4-43.3,40.7-46.2c1.9-0.3,3.9-0.4,5.8-0.4h1.7c1.4,0.1,2.8,0.2,4.2,0.3c9,1.2,17.5,5,24.4,10.9
			c2.2,1.9,4.3,4.1,6.1,6.4C84.4,34.5,87.9,44.6,87.9,55.1z"/>
		<path id="Path_778" class="st7" d="M103.8,8.7h-1.9c-10.3,0-20.3,3.4-28.4,9.8c0.6,0.5,1.2,1,1.8,1.5c1.7,1.4,3.3,3,4.7,4.7
			c6.4-4.6,14-7.1,21.9-7.1c0.6,0,1.1,0,1.7,0.1c20.7,1,36.8,18.5,35.8,39.3c-0.9,19.4-16.4,34.9-35.8,35.8c-0.6,0-1.1,0.1-1.7,0.1
			c-7.9,0-15.5-2.5-21.9-7.1c-0.7-0.5-1.5-1.1-2.2-1.7c-1.6-1.3-3-2.8-4.4-4.3c-0.6-0.7-1.2-1.4-1.8-2.2c-9.8-13.3-9.8-31.4,0-44.6
			c-1.2-1.6-2.5-3.2-4-4.6c-0.7-0.7-1.4-1.3-2.1-1.9c-13.4,16.9-13.4,40.8,0,57.6c0.4,0.6,0.9,1.1,1.4,1.7c1.5,1.7,3.1,3.3,4.8,4.7
			c0.6,0.5,1.2,1,1.8,1.4c8.1,6.4,18.1,9.8,28.5,9.8h1.9c25.6-1.1,45.6-22.7,44.5-48.4C147.3,29.1,128,9.7,103.8,8.7L103.8,8.7z"/>
	</g>
</g>
</svg>
