<?xml version="1.0" encoding="utf-8"?>
<!-- Generator: Adobe Illustrator 24.1.3, SVG Export Plug-In . SVG Version: 6.00 Build 0)  -->
<svg version="1.1" id="Layer_1" xmlns="http://www.w3.org/2000/svg" xmlns:xlink="http://www.w3.org/1999/xlink" x="0px" y="0px"
	 viewBox="0 0 210 210" style="enable-background:new 0 0 210 210;" xml:space="preserve">
<style type="text/css">
	.st0{fill:#FFFFFF;}
	.st1{fill:#FFA799;}
	.st2{fill:#FFD4CC;}
</style>
<g id="non-hover-state" transform="translate(-15 0)">
	<circle id="ellipse" class="st0" cx="120" cy="105" r="105"/>
	<g id="icon" transform="translate(78 68)">
		<path id="Path_719" class="st1" d="M42.4,59.4L22,79.9H12l5-5l20.4-20.5L42.4,59.4z"/>
		<path id="Path_720" class="st2" d="M54.4,37.4l25.5,25.5l-12,12l-5,5L37.4,54.4L17,74.9l-5,5l-17-17l25.5-25.5L-5,12L12-5l5,5
			l20.4,20.5l5-5L62.9-5l17,17L54.4,37.4z"/>
		<path id="Path_721" class="st1" d="M64.4,37.4l25.5,25.5l-17,17h-10l5-5l12-12L54.4,37.4L79.9,12l-17-17h10l17,17L64.4,37.4z"/>
		<path id="Path_722" class="st1" d="M42.4,15.5l-5,5L17,0l-5-5h10L42.4,15.5z"/>
	</g>
</g>
</svg>
