<?xml version="1.0" encoding="utf-8"?>
<!-- Generator: Adobe Illustrator 24.3.0, SVG Export Plug-In . SVG Version: 6.00 Build 0)  -->
<svg version="1.1" id="Layer_1" xmlns="http://www.w3.org/2000/svg" xmlns:xlink="http://www.w3.org/1999/xlink" x="0px" y="0px"
	 viewBox="0 0 105 105" style="enable-background:new 0 0 105 105;" xml:space="preserve">
<style type="text/css">
	.st0{fill:#FFFFFF;}
	.st1{fill:none;}
	.st2{fill:#414199;}
	.st3{fill:#E5E5FF;}
	.st4{fill:#9999FF;}
	.st5{fill:#CCCCFF;}
	.st6{fill:#B3B3FF;}
</style>
<g id="ouest-active-state" transform="translate(-20 0)">
	<circle id="ellipse" class="st0" cx="72.5" cy="52.5" r="52.5"/>
	<g id="icon" transform="translate(30 10)">
		<circle id="Ellipse_241" class="st1" cx="45" cy="42" r="45"/>
		<path id="Path_674" class="st2" d="M21.5,42l2.5-2.5l-1.8-1.8l-2.5,2.5L18,42l1.8,1.8l2.5,2.5l1.8-1.8L21.5,42z"/>
		<rect id="Rectangle_761" x="31" y="63.2" class="st3" width="28" height="4"/>
		<path id="Path_675" class="st4" d="M60.9,67.8L45,63.2v-45l17.5,5v43L60.9,67.8z"/>
		<path id="Path_676" class="st4" d="M29,67.8l16-4.6v-45l-17.5,5v43L29,67.8z"/>
		<path id="Path_677" class="st5" d="M27.5,66.2v-45l17.5-5v45L27.5,66.2z"/>
		<path id="Path_678" class="st6" d="M62.5,66.2l-17.5-5v-45l17.5,5V66.2z"/>
		<path id="Path_679" class="st2" d="M31,61.7v-38l10.5-3v38L31,61.7z"/>
		<path id="Path_680" class="st2" d="M6.6,45.6c-0.6,0-1.1-0.1-1.6-0.4C4.5,45,4.1,44.5,3.9,44c-0.3-0.6-0.4-1.3-0.4-2
			c0-0.6,0.1-1.1,0.2-1.6c0.1-0.4,0.4-0.8,0.7-1.2c0.3-0.3,0.6-0.5,1-0.7c0.4-0.2,0.9-0.2,1.3-0.2c0.4,0,0.9,0.1,1.3,0.2
			c0.4,0.1,0.7,0.4,1,0.7c0.3,0.3,0.5,0.7,0.6,1.1c0.2,0.5,0.2,1,0.2,1.5c0,0.7-0.1,1.4-0.4,2c-0.3,0.5-0.7,1-1.2,1.3
			C7.9,45.5,7.2,45.6,6.6,45.6z M6.7,44.5c0.3,0,0.6-0.1,0.9-0.2c0.3-0.2,0.5-0.5,0.6-0.8c0.2-0.5,0.3-1,0.2-1.5
			c0-0.5-0.1-1-0.2-1.5c-0.1-0.3-0.3-0.6-0.6-0.8c-0.6-0.3-1.2-0.3-1.8,0c-0.3,0.2-0.5,0.5-0.6,0.8C5.1,41,5,41.5,5,42
			c0,0.5,0.1,1,0.2,1.4c0.1,0.3,0.3,0.6,0.6,0.8C6.1,44.5,6.4,44.5,6.7,44.5L6.7,44.5z"/>
	</g>
</g>
</svg>
