<?xml version="1.0" encoding="utf-8"?>
<!-- Generator: Adobe Illustrator 24.3.0, SVG Export Plug-In . SVG Version: 6.00 Build 0)  -->
<svg version="1.1" id="Layer_1" xmlns="http://www.w3.org/2000/svg" xmlns:xlink="http://www.w3.org/1999/xlink" x="0px" y="0px"
	 viewBox="0 0 105 105" style="enable-background:new 0 0 105 105;" xml:space="preserve">
<style type="text/css">
	.st0{fill:#FFFFFF;}
	.st1{fill:none;}
	.st2{fill:#808080;}
	.st3{fill:#FAFAFA;}
	.st4{fill:#B3B3B3;}
	.st5{fill:#CCCCCC;}
	.st6{fill:#E6E6E6;}
</style>
<g id="ouest-default-state" transform="translate(-20 0)">
	<circle id="ellipse" class="st0" cx="72.5" cy="52.5" r="52.5"/>
	<g id="icon" transform="translate(30 10)">
		<circle id="Ellipse_241" class="st1" cx="42" cy="41" r="45"/>
		<path id="Path_674" class="st2" d="M18.5,41l2.5-2.5l-1.8-1.8l-2.5,2.5L15,41l1.8,1.8l2.5,2.5l1.8-1.8L18.5,41z"/>
		<rect id="Rectangle_761" x="28" y="62.2" class="st3" width="28" height="4"/>
		<path id="Path_675" class="st4" d="M57.9,66.8L42,62.2v-45l17.5,5v43L57.9,66.8z"/>
		<path id="Path_676" class="st4" d="M26,66.8l16-4.6v-45l-17.5,5v43L26,66.8z"/>
		<path id="Path_677" class="st5" d="M24.5,65.2v-45l17.5-5v45L24.5,65.2z"/>
		<path id="Path_678" class="st6" d="M59.5,65.2l-17.5-5v-45l17.5,5V65.2z"/>
		<path id="Path_679" class="st2" d="M28,60.7v-38l10.5-3v38L28,60.7z"/>
		<path id="Path_680" class="st2" d="M3.6,44.6c-0.6,0-1.1-0.1-1.6-0.4C1.5,44,1.1,43.5,0.9,43c-0.3-0.6-0.4-1.3-0.4-2
			c0-0.6,0.1-1.1,0.2-1.6c0.1-0.4,0.4-0.8,0.7-1.2c0.3-0.3,0.6-0.5,1-0.7c0.4-0.2,0.9-0.2,1.3-0.2c0.4,0,0.9,0.1,1.3,0.2
			c0.4,0.1,0.7,0.4,1,0.7c0.3,0.3,0.5,0.7,0.6,1.1c0.2,0.5,0.2,1,0.2,1.5c0,0.7-0.1,1.4-0.4,2c-0.3,0.5-0.7,1-1.2,1.3
			C4.9,44.5,4.2,44.6,3.6,44.6z M3.7,43.5c0.3,0,0.6-0.1,0.9-0.2c0.3-0.2,0.5-0.5,0.6-0.8c0.2-0.5,0.3-1,0.2-1.5
			c0-0.5-0.1-1-0.2-1.5c-0.1-0.3-0.3-0.6-0.6-0.8c-0.6-0.3-1.2-0.3-1.8,0c-0.3,0.2-0.5,0.5-0.6,0.8C2.1,40,2,40.5,2,41
			c0,0.5,0.1,1,0.2,1.4c0.1,0.3,0.3,0.6,0.6,0.8C3.1,43.5,3.4,43.5,3.7,43.5L3.7,43.5z"/>
	</g>
</g>
</svg>
