<?xml version="1.0" encoding="utf-8"?>
<!-- Generator: Adobe Illustrator 24.1.3, SVG Export Plug-In . SVG Version: 6.00 Build 0)  -->
<svg version="1.1" id="Layer_1" xmlns="http://www.w3.org/2000/svg" xmlns:xlink="http://www.w3.org/1999/xlink" x="0px" y="0px"
	 viewBox="0 0 105 105" style="enable-background:new 0 0 105 105;" xml:space="preserve">
<style type="text/css">
	.st0{fill:#FFFFFF;}
	.st1{fill:none;}
	.st2{fill:#3333FF;}
	.st3{fill:#E5E5FF;}
	.st4{fill:#9999FF;}
	.st5{fill:#CCCCFF;}
	.st6{fill:#B3B3FF;}
</style>
<g id="ouest-active-state" transform="translate(-20 0)">
	<circle id="ellipse" class="st0" cx="72.5" cy="52.5" r="52.5"/>
	<g id="icon" transform="translate(30 10)">
		<circle id="Ellipse_241" class="st1" cx="42.5" cy="42.5" r="45"/>
		<path id="Path_674" class="st2" d="M19,42.5l2.5-2.5l-1.8-1.8l-2.5,2.5l-1.7,1.8l1.8,1.8l2.5,2.5l1.8-1.8L19,42.5z"/>
		<rect id="Rectangle_761" x="28.5" y="63.7" class="st3" width="28" height="4"/>
		<path id="Path_675" class="st4" d="M58.4,68.3l-15.9-4.6v-45l17.5,5v43L58.4,68.3z"/>
		<path id="Path_676" class="st4" d="M26.5,68.3l16-4.6v-45l-17.5,5v43L26.5,68.3z"/>
		<path id="Path_677" class="st5" d="M25,66.7v-45l17.5-5v45L25,66.7z"/>
		<path id="Path_678" class="st6" d="M60,66.7l-17.5-5v-45l17.5,5V66.7z"/>
		<path id="Path_679" class="st2" d="M28.5,62.2v-38l10.5-3v38L28.5,62.2z"/>
		<path id="Path_680" class="st2" d="M4.1,46.1c-0.6,0-1.1-0.1-1.6-0.4C2,45.5,1.6,45,1.4,44.5c-0.3-0.6-0.4-1.3-0.4-2
			c0-0.6,0.1-1.1,0.2-1.6c0.1-0.4,0.4-0.8,0.7-1.2c0.3-0.3,0.6-0.5,1-0.7s0.9-0.2,1.3-0.2c0.4,0,0.9,0.1,1.3,0.2
			c0.4,0.1,0.7,0.4,1,0.7s0.5,0.7,0.6,1.1c0.2,0.5,0.2,1,0.2,1.5c0,0.7-0.1,1.4-0.4,2c-0.3,0.5-0.7,1-1.2,1.3
			C5.4,46,4.7,46.1,4.1,46.1z M4.2,45c0.3,0,0.6-0.1,0.9-0.2c0.3-0.2,0.5-0.5,0.6-0.8c0.2-0.5,0.3-1,0.2-1.5c0-0.5-0.1-1-0.2-1.5
			c-0.1-0.3-0.3-0.6-0.6-0.8c-0.6-0.3-1.2-0.3-1.8,0C3,40.4,2.8,40.7,2.7,41c-0.1,0.5-0.2,1-0.2,1.5s0.1,1,0.2,1.4
			c0.1,0.3,0.3,0.6,0.6,0.8C3.6,45,3.9,45,4.2,45L4.2,45z"/>
	</g>
</g>
</svg>
