<?xml version="1.0" encoding="utf-8"?>
<!-- Generator: Adobe Illustrator 24.3.0, SVG Export Plug-In . SVG Version: 6.00 Build 0)  -->
<svg version="1.1" id="Layer_1" xmlns="http://www.w3.org/2000/svg" xmlns:xlink="http://www.w3.org/1999/xlink" x="0px" y="0px"
	 viewBox="0 0 104.9 105" style="enable-background:new 0 0 104.9 105;" xml:space="preserve">
<style type="text/css">
	.st0{fill:#FFFFFF;}
	.st1{fill:#FAFAFA;}
	.st2{fill:#E6E6E6;}
	.st3{fill:none;}
	.st4{fill:#CCCCCC;}
	.st5{clip-path:url(#SVGID_2_);fill:#FAFAFA;}
</style>
<g id="pompe-à-chaleur-default-state" transform="translate(-20 0)">
	<circle id="ellipse" class="st0" cx="72.5" cy="52.5" r="52.5"/>
	<g id="icon" transform="translate(40 33)">
		<rect id="Rectangle_252" x="-3" y="-3.5" class="st1" width="57" height="46"/>
		<rect id="Rectangle_253" x="54" y="-3.5" class="st2" width="14" height="46"/>
		<circle id="Ellipse_219" class="st2" cx="19.5" cy="20" r="17.5"/>
		<circle id="Ellipse_220" class="st3" cx="19.5" cy="20" r="17.5"/>
		<ellipse id="Ellipse_221" class="st3" cx="20.1" cy="19.9" rx="19" ry="19.2"/>
		<path id="Path_177" class="st4" d="M20.3,19.9c0-6.2,9.2-6.9,8.5-11.1C28.1,5,20.3,2.1,16.3,4.8C11.5,7.9,15,18.9,20.3,19.9z"/>
		<path id="Path_178" class="st4" d="M20.3,19.9C14.9,23,9.8,15.3,6.6,18c-3,2.5-1.6,10.8,2.7,13C14.4,33.6,22.1,25.1,20.3,19.9z"/>
		<path id="Path_179" class="st4" d="M20.3,19.9c5.3,3.1,1.3,11.5,5.2,12.9c3.6,1.4,10-4,9.7-8.9C34.9,18.2,23.8,15.8,20.3,19.9z"/>
		<circle id="Ellipse_222" class="st1" cx="20" cy="20.5" r="5"/>
		<g>
			<defs>
				<circle id="SVGID_1_" cx="19.5" cy="20" r="17.5"/>
			</defs>
			<clipPath id="SVGID_2_">
				<use xlink:href="#SVGID_1_"  style="overflow:visible;"/>
			</clipPath>
			<rect id="Rectangle_254" x="-1" y="19.5" class="st5" width="42" height="1"/>
			<path id="Path_180" class="st5" d="M5.2,34.1L34.1,4.8l1,1L6.2,35L5.2,34.1z"/>
			<rect id="Rectangle_256" x="20" y="-1.5" class="st5" width="1" height="42"/>
			<path id="Path_181" class="st5" d="M34.1,35L5.2,5.8l1-1L35,34.1L34.1,35z"/>
		</g>
		<rect id="Rectangle_258" x="57" y="2.5" class="st4" width="8" height="1"/>
		<rect id="Rectangle_259" x="57" y="6.5" class="st4" width="8" height="1"/>
		<rect id="Rectangle_260" x="57" y="9.5" class="st4" width="8" height="1"/>
		<rect id="Rectangle_261" x="57" y="14.5" class="st4" width="8" height="1"/>
		<rect id="Rectangle_262" x="57" y="36.5" class="st4" width="8" height="1"/>
		<rect id="Rectangle_263" x="57" y="31.5" class="st4" width="8" height="1"/>
		<rect id="Rectangle_264" x="57" y="28.5" class="st4" width="8" height="1"/>
		<rect id="Rectangle_265" x="57" y="24.5" class="st4" width="8" height="1"/>
	</g>
</g>
</svg>
