<?xml version="1.0" encoding="utf-8"?>
<!-- Generator: Adobe Illustrator 24.3.0, SVG Export Plug-In . SVG Version: 6.00 Build 0)  -->
<svg version="1.1" id="Layer_1" xmlns="http://www.w3.org/2000/svg" xmlns:xlink="http://www.w3.org/1999/xlink" x="0px" y="0px"
	 viewBox="0 0 105 105" style="enable-background:new 0 0 105 105;" xml:space="preserve">
<style type="text/css">
	.st0{fill:#FFFFFF;}
	.st1{fill:#E5E5FF;}
	.st2{fill:#CCCCFF;}
	.st3{fill:none;}
	.st4{fill:#414199;}
	.st5{clip-path:url(#SVGID_2_);fill:#E5E5FF;}
	.st6{clip-path:url(#SVGID_4_);fill:#E5E5FF;}
	.st7{clip-path:url(#SVGID_6_);fill:#E5E5FF;}
	.st8{clip-path:url(#SVGID_8_);fill:#E5E5FF;}
	.st9{fill:#B3B3FF;}
</style>
<circle id="ellipse" class="st0" cx="52.5" cy="52.5" r="52.5"/>
<g id="icon" transform="translate(40 33)">
	<rect id="Rectangle_252" x="-23" y="-3.5" class="st1" width="57" height="46"/>
	<rect id="Rectangle_253" x="34" y="-3.5" class="st2" width="14" height="46"/>
	<circle id="Ellipse_219" class="st2" cx="-0.5" cy="20" r="17.5"/>
	<circle id="Ellipse_220" class="st3" cx="-0.5" cy="20" r="17.5"/>
	<ellipse id="Ellipse_221" class="st3" cx="0.1" cy="19.9" rx="19" ry="19.2"/>
	<path id="Path_177" class="st4" d="M0.3,19.9c0-6.2,9.2-6.9,8.5-11.1C8.1,5,0.3,2.1-3.7,4.8C-8.5,7.9-5,18.9,0.3,19.9z"/>
	<path id="Path_178" class="st4" d="M0.3,19.9C-5,23-10.2,15.3-13.4,18c-3,2.5-1.6,10.8,2.7,13C-5.6,33.6,2.1,25.1,0.3,19.9z"/>
	<path id="Path_179" class="st4" d="M0.3,19.9C5.6,23,1.6,31.4,5.5,32.8c3.6,1.4,10-4,9.7-8.9C15,18.2,3.8,15.8,0.3,19.9z"/>
	<circle id="Ellipse_222" class="st1" cx="0" cy="20.5" r="5"/>
	<g>
		<g>
			<defs>
				<circle id="SVGID_1_" cx="-0.5" cy="20" r="17.5"/>
			</defs>
			<clipPath id="SVGID_2_">
				<use xlink:href="#SVGID_1_"  style="overflow:visible;"/>
			</clipPath>
			<rect id="Rectangle_254" x="-21" y="19.5" class="st5" width="42" height="1"/>
		</g>
		<g>
			<defs>
				<circle id="SVGID_3_" cx="-0.5" cy="20" r="17.5"/>
			</defs>
			<clipPath id="SVGID_4_">
				<use xlink:href="#SVGID_3_"  style="overflow:visible;"/>
			</clipPath>
			<path id="Path_180" class="st6" d="M-14.8,34.1L14.1,4.8l1,1L-13.8,35L-14.8,34.1z"/>
		</g>
		<g>
			<defs>
				<circle id="SVGID_5_" cx="-0.5" cy="20" r="17.5"/>
			</defs>
			<clipPath id="SVGID_6_">
				<use xlink:href="#SVGID_5_"  style="overflow:visible;"/>
			</clipPath>
			<rect id="Rectangle_256" y="-1.5" class="st7" width="1" height="42"/>
		</g>
		<g>
			<defs>
				<circle id="SVGID_7_" cx="-0.5" cy="20" r="17.5"/>
			</defs>
			<clipPath id="SVGID_8_">
				<use xlink:href="#SVGID_7_"  style="overflow:visible;"/>
			</clipPath>
			<path id="Path_181" class="st8" d="M14.1,35L-14.8,5.8l1-1L15.1,34L14.1,35z"/>
		</g>
	</g>
	<rect id="Rectangle_258" x="37" y="2.5" class="st9" width="8" height="1"/>
	<rect id="Rectangle_259" x="37" y="6.5" class="st9" width="8" height="1"/>
	<rect id="Rectangle_260" x="37" y="9.5" class="st9" width="8" height="1"/>
	<rect id="Rectangle_261" x="37" y="14.5" class="st9" width="8" height="1"/>
	<rect id="Rectangle_262" x="37" y="36.5" class="st9" width="8" height="1"/>
	<rect id="Rectangle_263" x="37" y="31.5" class="st9" width="8" height="1"/>
	<rect id="Rectangle_264" x="37" y="28.5" class="st9" width="8" height="1"/>
	<rect id="Rectangle_265" x="37" y="24.5" class="st9" width="8" height="1"/>
</g>
</svg>
