<?xml version="1.0" encoding="utf-8"?>
<!-- Generator: Adobe Illustrator 24.1.3, SVG Export Plug-In . SVG Version: 6.00 Build 0)  -->
<svg version="1.1" id="Layer_1" xmlns="http://www.w3.org/2000/svg" xmlns:xlink="http://www.w3.org/1999/xlink" x="0px" y="0px"
	 viewBox="0 0 105 105" style="enable-background:new 0 0 105 105;" xml:space="preserve">
<style type="text/css">
	.st0{fill:#FFFFFF;}
	.st1{fill:#E6E6FF;}
	.st2{fill:#CCCCFF;}
	.st3{fill:#3333FF;}
	.st4{clip-path:url(#SVGID_4_);fill:#E6E6FF;}
</style>
<circle id="ellipse" class="st0" cx="52.5" cy="52.5" r="52.5"/>
<g>
	<g>
		<ellipse id="Ellipse_221" class="st1" cx="52.5" cy="52.5" rx="32.3" ry="32.6"/>
		<circle id="Ellipse_219" class="st2" cx="52.5" cy="52.5" r="29.8"/>
	</g>
	<g>
		<path id="Path_177" class="st3" d="M52.5,52.6c0-10.5,15.6-11.7,14.5-18.9c-1.2-6.5-14.5-11.4-21.3-6.8
			C37.5,32.2,43.5,50.9,52.5,52.6z"/>
		<path id="Path_178" class="st3" d="M52.5,52.6c-9,5.3-17.9-7.8-23.3-3.2c-5.1,4.3-2.7,18.4,4.6,22.1
			C42.4,75.8,55.5,61.4,52.5,52.6z"/>
		<path id="Path_179" class="st3" d="M52.5,52.6c9,5.3,2.2,19.5,8.8,21.9c6.1,2.4,17-6.8,16.5-15.1C77.5,49.7,58.4,45.6,52.5,52.6z"
			/>
	</g>
	<g>
		<g>
			<defs>
				<ellipse id="SVGID_1_" cx="52.5" cy="52.5" rx="32.3" ry="32.6"/>
			</defs>
			<clipPath id="SVGID_2_">
				<use xlink:href="#SVGID_1_"  style="overflow:visible;"/>
			</clipPath>
		</g>
		<g>
			<defs>
				<ellipse id="SVGID_3_" cx="52.5" cy="52.5" rx="32.3" ry="32.6"/>
			</defs>
			<clipPath id="SVGID_4_">
				<use xlink:href="#SVGID_3_"  style="overflow:visible;"/>
			</clipPath>
			<circle id="Ellipse_222" class="st4" cx="52.5" cy="52.5" r="8.5"/>
		</g>
	</g>
</g>
</svg>
