<?xml version="1.0" encoding="utf-8"?>
<!-- Generator: Adobe Illustrator 24.3.0, SVG Export Plug-In . SVG Version: 6.00 Build 0)  -->
<svg version="1.1" id="Layer_1" xmlns="http://www.w3.org/2000/svg" xmlns:xlink="http://www.w3.org/1999/xlink" x="0px" y="0px"
	 viewBox="0 0 105 105" style="enable-background:new 0 0 105 105;" xml:space="preserve">
<style type="text/css">
	.st0{fill:#FFFFFF;}
	.st1{fill:#E5E5FF;}
	.st2{fill:#CCCCFF;}
	.st3{fill:none;}
	.st4{fill:#9E9EFF;}
	.st5{clip-path:url(#SVGID_2_);fill:#E5E5FF;}
	.st6{fill:#B3B3FF;}
</style>
<g id="pompe-à-chaleur-hover-state" transform="translate(-20 0)">
	<circle id="ellipse" class="st0" cx="72.5" cy="52.5" r="52.5"/>
	<g id="icon" transform="translate(40 33)">
		<rect id="Rectangle_252" x="-3" y="-4" class="st1" width="57" height="46"/>
		<rect id="Rectangle_253" x="54" y="-4" class="st2" width="14" height="46"/>
		<circle id="Ellipse_219" class="st2" cx="19.5" cy="19.5" r="17.5"/>
		<circle id="Ellipse_220" class="st3" cx="19.5" cy="19.5" r="17.5"/>
		<ellipse id="Ellipse_221" class="st3" cx="20.1" cy="19.4" rx="19" ry="19.2"/>
		<path id="Path_177" class="st4" d="M20.3,19.4c0-6.2,9.2-6.9,8.5-11.1c-0.6-3.8-8.4-6.8-12.5-4.1C11.5,7.4,15,18.4,20.3,19.4z"/>
		<path id="Path_178" class="st4" d="M20.3,19.4C15,22.5,9.8,14.8,6.6,17.5c-3,2.5-1.6,10.8,2.7,13C14.4,33.1,22.1,24.6,20.3,19.4z"
			/>
		<path id="Path_179" class="st4" d="M20.3,19.4c5.3,3.1,1.3,11.5,5.2,12.9c3.6,1.4,10-4,9.7-8.9C34.9,17.7,23.8,15.3,20.3,19.4z"/>
		<circle id="Ellipse_222" class="st1" cx="20" cy="20" r="5"/>
		<g>
			<defs>
				<circle id="SVGID_1_" cx="19.5" cy="19.5" r="17.5"/>
			</defs>
			<clipPath id="SVGID_2_">
				<use xlink:href="#SVGID_1_"  style="overflow:visible;"/>
			</clipPath>
			<rect id="Rectangle_254" x="-1" y="19" class="st5" width="42" height="1"/>
			<path id="Path_180" class="st5" d="M5.2,33.6L34.1,4.3l1,1L6.2,34.5L5.2,33.6z"/>
			<rect id="Rectangle_256" x="20" y="-2" class="st5" width="1" height="42"/>
			<path id="Path_181" class="st5" d="M34.1,34.5L5.2,5.3l1-1l28.9,29.2L34.1,34.5z"/>
		</g>
		<rect id="Rectangle_258" x="57" y="2" class="st6" width="8" height="1"/>
		<rect id="Rectangle_259" x="57" y="6" class="st6" width="8" height="1"/>
		<rect id="Rectangle_260" x="57" y="9" class="st6" width="8" height="1"/>
		<rect id="Rectangle_261" x="57" y="14" class="st6" width="8" height="1"/>
		<rect id="Rectangle_262" x="57" y="36" class="st6" width="8" height="1"/>
		<rect id="Rectangle_263" x="57" y="31" class="st6" width="8" height="1"/>
		<rect id="Rectangle_264" x="57" y="28" class="st6" width="8" height="1"/>
		<rect id="Rectangle_265" x="57" y="24" class="st6" width="8" height="1"/>
	</g>
</g>
</svg>
