<?xml version="1.0" encoding="utf-8"?>
<!-- Generator: Adobe Illustrator 24.3.0, SVG Export Plug-In . SVG Version: 6.00 Build 0)  -->
<svg version="1.1" id="Layer_1" xmlns="http://www.w3.org/2000/svg" xmlns:xlink="http://www.w3.org/1999/xlink" x="0px" y="0px"
	 viewBox="0 0 210 210" style="enable-background:new 0 0 210 210;" xml:space="preserve">
<style type="text/css">
	.st0{fill:#FFFFFF;}
	.st1{fill:#CCCCFF;}
	.st2{fill:#E4E4FE;}
	.st3{fill:#B3B3FF;}
	.st4{fill:#9999FF;}
	.st5{fill:#FFA799;}
</style>
<g id="pacsé-hover-state" transform="translate(-15 0)">
	<circle id="ellipse" class="st0" cx="120" cy="105" r="105"/>
	<g id="icon" transform="translate(81.856 45.359)">
		<path id="Path_936" class="st1" d="M81.3,15.2v108.3c-28.2-5-56.5,4.7-84.7,0.2v-127c22,3.5,44-1.6,66-1.7
			C68.8,1.2,75,7.9,81.3,15.2z"/>
		<path id="Path_937" class="st2" d="M79.7,14.9v108.3c-28.2-4.5-56.5,5.3-84.7,0.3V-3.5C17,0.4,39-4.7,61-5
			C67.2,1.2,73.5,7.7,79.7,14.9z"/>
		<path id="Path_938" class="st1" d="M71.2,12.2c-22.6-1.6-45.2,4.2-67.8,2.3v-2.8c22.6,1.9,45.2-3.8,67.8-2.3V12.2z"/>
		<path id="Path_939" class="st1" d="M67,23.3c-21.2-0.6-42.4,4.2-63.5,2.5V23c21.2,1.8,42.4-3.1,63.5-2.5V23.3z"/>
		<path id="Path_940" class="st1" d="M62.8,34.5c-19.8,0-39.5,4.2-59.3,2.6v-2.8c19.8,1.6,39.5-2.5,59.3-2.6V34.5z"/>
		<path id="Path_941" class="st1" d="M71.2,46.1c-22.6-1.6-45.2,4.2-67.8,2.3v-2.8c22.6,1.9,45.2-3.8,67.8-2.3V46.1z"/>
		<path id="Path_942" class="st1" d="M62.8,57.1c-19.8,0-39.5,4.2-59.3,2.6v-2.8c19.8,1.6,39.5-2.5,59.3-2.6V57.1z"/>
		<path id="Path_943" class="st1" d="M71.2,68.7C48.7,67.1,26.1,72.8,3.5,71v-2.8c22.6,1.9,45.2-3.8,67.8-2.3V68.7z"/>
		<path id="Path_944" class="st1" d="M41.6,80.8c-12.7,1.1-25.4,2.4-38.1,1.4v-2.8c12.7,1.1,25.4-0.3,38.1-1.4V80.8z"/>
		<path id="Path_945" class="st3" d="M79.7,14.9C73.5,14,67.2,13.6,61,13.7V-5C67.2,1.2,73.5,7.7,79.7,14.9z"/>
		<path id="Path_946" class="st4" d="M8,95.1c0.1-0.4,0.8-0.6,1.1-0.6c0.6,0,1.1,0.3,1.5,0.8c1,1.3,1.8,2.8,2.2,4.3
			c0.7,1.7,1.3,3.4,1.7,5.2c0.2,0.8,0.4,1.6,0.6,2.5c0.1,0.5,0.2,0.9,0.3,1.4c0.1,0.2,0.1,0.5,0.1,0.7c-0.1,0.2-0.1,0.3,0.1,0.3
			s0.2,0,0-0.2s-0.1-0.4-0.2-0.6c-0.7-2.9-0.4-6,0.8-8.7c0.6-1.3,1.7-2.4,3-1.2s0.9,3.2,0.8,4.7c-0.1,1.3,2.1,1.6,2.3,0.2
			c0-0.6,0.2-1.2,0.5-1.8c0.2-0.2,0.1-0.2,0.3-0.2s0.1,0.1,0.1-0.1c0,0.6,0.5,1.1,1.1,1.1c0.1,0,0.3,0,0.4-0.1
			c2.3-0.6,4.8-0.4,6.9,0.6c1.3,0.6,2.5-1.5,1.2-2.1c-2.8-1.2-5.8-1.5-8.7-0.7l1.5,1c0-1.2-1.1-2.2-2.3-2.2c-0.2,0-0.4,0-0.7,0.1
			c-1.7,0.4-2.3,2.2-2.5,3.7l2.3,0.2c0.2-2.1,0.2-4.3-1.1-5.9c-1.1-1.4-3-1.9-4.7-1.2c-1.7,0.8-2.5,2.8-3.1,4.4
			c-0.7,2-0.9,4.1-0.7,6.1c0.1,1.6,0.3,4.3,2.2,4.8c0.8,0.2,1.7-0.1,2.2-0.7c0.6-0.8,0.9-1.9,0.6-2.9c-0.7-4.3-2.1-8.6-4.1-12.5
			c-0.9-1.7-2.3-3.5-4.4-3.7C7.6,92,6,93.2,5.7,95c0,0,0,0,0,0C5.5,96.5,7.9,96.5,8,95.1L8,95.1z"/>
		<path id="Path_947" class="st5" d="M44.9,93.8c-1.7,0.9-3.3,2-4.9,3.1c-1.3,1.1-1.4,3,0.1,3.8c1.3,0.7,3.2-0.3,4.2,0.9
			s0.4,2.7-0.9,3.4c0.5,0.6,1,1.1,1.4,1.7c1.4-1.7,2.8-3.4,4.3-5.1c0.3-0.3,0.9-1.1,1.2-0.6s0.1,1.4,0.1,1.9c-0.1,1,1.4,1.4,2,0.7
			c1.6-1.8,4.2-1.7,6.4-1.8c3-0.1,6-0.2,9-0.3c0.6,0,1.2-0.5,1.2-1.1c0-0.6-0.5-1.2-1.1-1.2c0,0,0,0-0.1,0c-3.4,0-6.7,0.2-10.1,0.3
			c-2.5,0.1-5.2,0.5-6.9,2.6l2,0.7c0.3-2-0.5-4.9-3.1-4.2c-1.3,0.4-2.3,1.6-3.1,2.6l-3.4,4c-0.4,0.4-0.4,1.2,0,1.6
			c0.4,0.4,1,0.4,1.4,0.1c2.9-1.6,3.4-5.6,1-7.4c-0.6-0.4-1.2-0.7-1.9-0.8c-0.4,0-2.2,0.2-2.3,0l0,0c0.1-0.1,0.1-0.1,0.2-0.2
			c0.2-0.1,0.3-0.2,0.5-0.3l1.3-0.8l2.7-1.7c0.5-0.3,0.7-1,0.4-1.5C46.1,93.7,45.4,93.6,44.9,93.8L44.9,93.8L44.9,93.8z"/>
		<path id="Path_948" class="st4" d="M79.7,14.9l1.6,0.3C75,7.8,68.8,1.2,62.5-5H61C67.2,1.2,73.5,7.7,79.7,14.9z"/>
	</g>
</g>
</svg>
