<?xml version="1.0" encoding="utf-8"?>
<!-- Generator: Adobe Illustrator 24.3.0, SVG Export Plug-In . SVG Version: 6.00 Build 0)  -->
<svg version="1.1" id="Layer_1" xmlns="http://www.w3.org/2000/svg" xmlns:xlink="http://www.w3.org/1999/xlink" x="0px" y="0px"
	 viewBox="0 0 210 210" style="enable-background:new 0 0 210 210;" xml:space="preserve">
<style type="text/css">
	.st0{fill:#FFFFFF;}
	.st1{fill:#E5E5FF;}
	.st2{fill:#CCCCFF;}
	.st3{fill:#9E9EFF;}
	.st4{fill:#7E7ECC;}
	.st5{fill:#B3B3FF;}
	.st6{fill:#333333;}
</style>
<g id="poele-fioul-hover-state" transform="translate(-15 0)">
	<circle id="ellipse" class="st0" cx="120" cy="105" r="105"/>
	<g id="icon" transform="translate(65 50)">
		<rect id="Rectangle_153" x="-5" y="3.6" class="st1" width="102.9" height="102.9"/>
		<rect id="Rectangle_154" x="3.6" y="46.4" class="st2" width="85.7" height="51.4"/>
		<rect id="Rectangle_155" x="3.6" y="-5" class="st3" width="85.7" height="8.6"/>
		<rect id="Rectangle_156" x="3.6" y="106.4" class="st2" width="17.1" height="8.6"/>
		<rect id="Rectangle_157" x="72.1" y="106.4" class="st2" width="17.1" height="8.6"/>
		<rect id="Rectangle_158" x="97.9" y="3.6" class="st2" width="17.1" height="102.9"/>
		<rect id="Rectangle_159" x="89.3" y="-5" class="st4" width="17.1" height="8.6"/>
		<rect id="Rectangle_160" x="89.3" y="106.4" class="st5" width="8.6" height="8.6"/>
		<rect id="Rectangle_161" x="20.7" y="106.4" class="st5" width="8.6" height="8.6"/>
		<path id="Path_142" class="st6" d="M55.5,75.8c0,5-4,9-9,9s-9-4-9-9c0-5,4.5-7.2,9-16.2C50.9,68.6,55.5,70.8,55.5,75.8z"/>
	</g>
</g>
</svg>
