<?xml version="1.0" encoding="utf-8"?>
<!-- Generator: Adobe Illustrator 24.3.0, SVG Export Plug-In . SVG Version: 6.00 Build 0)  -->
<svg version="1.1" id="Layer_1" xmlns="http://www.w3.org/2000/svg" xmlns:xlink="http://www.w3.org/1999/xlink" x="0px" y="0px"
	 viewBox="0 0 210 210" style="enable-background:new 0 0 210 210;" xml:space="preserve">
<style type="text/css">
	.st0{fill:#FFFFFF;}
	.st1{fill:#E5E5FF;}
	.st2{fill:#CCCCFF;}
	.st3{fill:#414199;}
	.st4{fill:#FF5533;}
	.st5{fill:#1F1F4C;}
	.st6{fill:#B3B3FF;}
</style>
<g id="poele-gaz-active-state" transform="translate(-15 0)">
	<circle id="ellipse" class="st0" cx="120" cy="105" r="105"/>
	<g id="icon" transform="translate(65 50)">
		<rect id="Rectangle_189" x="-5" y="3.6" class="st1" width="102.9" height="102.9"/>
		<rect id="Rectangle_190" x="3.6" y="46.4" class="st2" width="85.7" height="51.4"/>
		<rect id="Rectangle_191" x="3.6" y="-5" class="st3" width="85.7" height="8.6"/>
		<rect id="Rectangle_192" x="3.6" y="106.4" class="st2" width="17.1" height="8.6"/>
		<rect id="Rectangle_193" x="72.1" y="106.4" class="st2" width="17.1" height="8.6"/>
		<path id="Path_146" class="st4" d="M48.3,58.6c0,0-11.8,10.6-11.8,18.3c0,5.2,2.6,8.4,6.4,9.6c-4.9-5.2-3.4-12.8,2.4-18
			c-0.7,4.4,2.1,9.8,2.1,9.8s0.5-3.5,2.4-4.4c0,3.2,5.7,7.1,0.2,12.5c3.7-1.1,6.3-4.1,6.3-9.5C56.3,70.8,48.3,63.7,48.3,58.6z"/>
		<rect id="Rectangle_194" x="97.9" y="3.6" class="st2" width="17.1" height="102.9"/>
		<rect id="Rectangle_195" x="89.3" y="-5" class="st5" width="17.1" height="8.6"/>
		<rect id="Rectangle_196" x="89.3" y="106.4" class="st6" width="8.6" height="8.6"/>
		<rect id="Rectangle_197" x="20.7" y="106.4" class="st6" width="8.6" height="8.6"/>
	</g>
</g>
</svg>
