<?xml version="1.0" encoding="utf-8"?>
<!-- Generator: Adobe Illustrator 24.1.3, SVG Export Plug-In . SVG Version: 6.00 Build 0)  -->
<svg version="1.1" id="Layer_1" xmlns="http://www.w3.org/2000/svg" xmlns:xlink="http://www.w3.org/1999/xlink" x="0px" y="0px"
	 viewBox="0 0 210 210" style="enable-background:new 0 0 210 210;" xml:space="preserve">
<style type="text/css">
	.st0{fill:#FFFFFF;}
	.st1{fill:#CCCCFF;}
	.st2{fill:#B3B3FF;}
	.st3{fill:#292966;}
	.st4{fill:#9999FF;}
	.st5{fill:#151533;}
	.st6{fill:#333333;}
</style>
<g id="poele-fioul-active-state" transform="translate(-15 0)">
	<circle id="ellipse" class="st0" cx="120" cy="105" r="105"/>
	<g>
		<rect id="Rectangle_189" x="60" y="53.6" class="st1" width="102.9" height="102.9"/>
		<rect id="Rectangle_190" x="68.6" y="96.4" class="st2" width="85.7" height="51.4"/>
		<rect id="Rectangle_191" x="68.6" y="45" class="st3" width="85.7" height="8.6"/>
		<rect id="Rectangle_192" x="68.6" y="156.4" class="st2" width="17.1" height="8.6"/>
		<rect id="Rectangle_193" x="137.1" y="156.4" class="st2" width="17.1" height="8.6"/>
		<rect id="Rectangle_194" x="162.9" y="53.6" class="st4" width="17.1" height="102.9"/>
		<rect id="Rectangle_195" x="154.3" y="45" class="st5" width="17.1" height="8.6"/>
		<rect id="Rectangle_196" x="154.3" y="156.4" class="st4" width="8.6" height="8.6"/>
		<rect id="Rectangle_197" x="85.7" y="156.4" class="st4" width="8.6" height="8.6"/>
	</g>
	<g id="icon" transform="translate(65 50)">
		<path id="Path_142" class="st6" d="M55.5,75.8c0,5-4,9-9,9s-9-4-9-9s4.5-7.2,9-16.2C50.9,68.6,55.5,70.8,55.5,75.8z"/>
	</g>
</g>
</svg>
