<?xml version="1.0" encoding="utf-8"?>
<!-- Generator: Adobe Illustrator 24.1.3, SVG Export Plug-In . SVG Version: 6.00 Build 0)  -->
<svg version="1.1" id="Layer_1" xmlns="http://www.w3.org/2000/svg" xmlns:xlink="http://www.w3.org/1999/xlink" x="0px" y="0px"
	 viewBox="0 0 210 210" style="enable-background:new 0 0 210 210;" xml:space="preserve">
<style type="text/css">
	.st0{fill:#FFFFFF;}
	.st1{fill:#FF5533;}
	.st2{fill:#FF7F66;}
	.st3{fill:#FF9280;}
	.st4{fill:#FFAA99;}
	.st5{fill:#B3B3FF;}
	.st6{fill:#9999FF;}
	.st7{fill:#CCCCFF;}
	.st8{fill:#E4E4FE;}
	.st9{fill:#292966;}
</style>
<g id="propriétaire-active-state" transform="translate(-15 0)">
	<circle id="ellipse" class="st0" cx="120" cy="105" r="105"/>
</g>
<g id="icon" transform="translate(56.021 44.939)">
	<path id="Path_726" class="st1" d="M69.9,10.4c15-3,29.7,6.7,32.7,21.7c2.3,11.1-2.5,22.5-12,28.7l14.7,55l-5.2,7.2l-8.1-3.6
		l-1.7-6.7l2.5-4.2l-4.3-2.5l2.4-4.3l-4.2-2.4l2.4-4.4l-4.2-2.3l2.4-4.4L83,85.9l-5.7-21.5C62,63.5,50.3,50.3,51.2,35
		C51.9,23.8,59.3,14.1,69.9,10.4L69.9,10.4z M75.4,37.7c0.6-0.2,1.1-0.4,1.6-0.7c3.3-1.9,4.4-6.2,2.5-9.5c-1.2-2.1-3.5-3.4-6-3.5
		c-0.6,0-1.2,0.1-1.7,0.2c-3.8,0.7-6.3,4.3-5.6,8.1c0.7,3.8,4.3,6.3,8.1,5.6C74.7,37.9,75,37.8,75.4,37.7L75.4,37.7z"/>
	<path id="Path_727" class="st2" d="M85,107l3.4-0.9l2.4-4.3l-3.3,0.9L85,107z"/>
	<path id="Path_728" class="st2" d="M86.8,113.7l3.4-0.9l2.5-4.2l-3.4,0.9L86.8,113.7z"/>
	<path id="Path_729" class="st2" d="M83.2,100.3l3.4-0.9l2.4-4.3L85.6,96L83.2,100.3z"/>
	<path id="Path_730" class="st2" d="M81.4,93.6l3.4-0.9l2.4-4.4l-3.4,0.9L81.4,93.6z"/>
	<path id="Path_731" class="st1" d="M88.6,120.3l10.2,4.5l3.4-0.9l-2-0.9l-8.1-3.6L88.6,120.3z"/>
	<path id="Path_732" class="st1" d="M85,107l4.3,2.5l3.4-0.9l-4.3-2.5L85,107z"/>
	<path id="Path_733" class="st1" d="M83.2,100.3l4.2,2.4l3.3-0.9l-4.2-2.4L83.2,100.3z"/>
	<path id="Path_734" class="st1" d="M81.4,93.6l4.2,2.4l3.4-0.9l-4.2-2.3L81.4,93.6z"/>
	<path id="Path_735" class="st1" d="M79.6,86.8l4.2,2.4l3.4-0.9L83,85.9L79.6,86.8z"/>
	
		<rect id="Rectangle_769_1_" x="87.6" y="113.1" transform="matrix(0.9659 -0.2589 0.2589 0.9659 -27.1255 27.1152)" class="st3" width="3.5" height="6.9"/>
	<path id="Path_736" class="st4" d="M69.9,10.4c0.5-0.2,1.1-0.3,1.7-0.5c14.8-4,30,4.8,34,19.6C108.7,41.1,104,53.4,94,60l14.7,55
		l-6.6,8.9l-2-0.9l-8.1-3.6l-1.7-6.7l2.5-4.2l-4.3-2.5l2.4-4.3l-4.2-2.4L89,95l-4.2-2.3l2.4-4.4L83,85.9l-5.7-21.5
		C62,63.5,50.3,50.3,51.2,35C51.8,23.8,59.3,14.1,69.9,10.4L69.9,10.4z M78.7,36.7c3.6-1.3,5.5-5.3,4.2-8.9
		c-1.2-3.2-4.4-5.1-7.8-4.5c-0.6,0.2-1.1,0.4-1.6,0.7c-3.3,1.9-4.4,6.2-2.5,9.5c1.2,2.1,3.5,3.4,6,3.5C77.6,37,78.2,36.9,78.7,36.7
		L78.7,36.7z"/>
	<path id="Path_737" class="st1" d="M48.6,44.8c-3.9-14.8,4.8-30,19.6-34c0.6-0.1,1.1-0.3,1.7-0.4C55.4,15.3,47.5,31,52.4,45.6
		C56,56.4,65.9,63.9,77.2,64.5l-3.4,0.9C61.9,64.7,51.7,56.4,48.6,44.8z"/>
	
		<rect id="Rectangle_770" x="76.7" y="64.5" transform="matrix(0.9659 -0.259 0.259 0.9659 -16.8994 22.8949)" class="st3" width="3.5" height="22.2"/>
	<path id="Path_738" class="st5" d="M44.5,21.8c-13.7-6.9-30.4-1.3-37.3,12.4c-5.1,10.2-3.5,22.5,4.2,31L-17,114.5l3.2,8.3l8.8-1.3
		l3.5-6l-1.3-4.7l4.8-1.3l-1.3-4.8l4.7-1.2l-1.3-4.7l4.7-1.2l-1.2-4.8l4.7-1.2l11.1-19.2c15,3.2,29.7-6.4,32.9-21.4
		C58.8,39.6,54.1,28.1,44.5,21.8z M32.2,46.7c-3.3-2-4.3-6.3-2.3-9.6c1.6-2.6,4.7-3.8,7.6-3.1c0.6,0.2,1.1,0.4,1.6,0.7
		c3.5,1.7,4.9,5.8,3.2,9.3s-5.8,4.9-9.3,3.2C32.7,47,32.4,46.9,32.2,46.7L32.2,46.7z"/>
	<path id="Path_739" class="st5" d="M5,111.1l-3-1.7l-1.3-4.8l3,1.7L5,111.1z"/>
	<path id="Path_740" class="st5" d="M1.5,117.2l-3-1.7l-1.3-4.7l3,1.7L1.5,117.2z"/>
	<path id="Path_741" class="st5" d="M8.4,105.1l-3-1.7l-1.2-4.8l3,1.7L8.4,105.1z"/>
	<path id="Path_742" class="st5" d="M11.9,99.2l-3-1.7l-1.2-4.8l3,1.7L11.9,99.2z"/>
	<path id="Path_743" class="st6" d="M-2,123.1l-11,1.7l-3-1.7l2.2-0.3l8.8-1.3L-2,123.1z"/>
	<path id="Path_744" class="st6" d="M5,111.1l-4.8,1.3l-3-1.7l4.8-1.3L5,111.1z"/>
	<path id="Path_745" class="st6" d="M8.4,105.1l-4.7,1.2l-3-1.7l4.7-1.2L8.4,105.1z"/>
	<path id="Path_746" class="st6" d="M11.9,99.2l-4.7,1.2l-3-1.7l4.7-1.2L11.9,99.2z"/>
	<path id="Path_747" class="st6" d="M15.4,93.1l-4.7,1.2l-3-1.7l4.7-1.2L15.4,93.1z"/>
	
		<rect id="Rectangle_771" x="-5.2" y="117.5" transform="matrix(0.5 -0.866 0.866 0.5 -104.1752 58.0946)" class="st7" width="6.9" height="3.5"/>
	<path id="Path_748" class="st8" d="M44.5,21.8c-0.5-0.3-1-0.6-1.5-0.9c-13.3-7.7-30.3-3.1-37.9,10.2c-6,10.4-4.6,23.4,3.3,32.4
		L-20,112.7l4,10.3l2.2-0.3l8.8-1.3l3.5-6l-1.3-4.7l4.8-1.3l-1.3-4.8l4.7-1.2l-1.3-4.7l4.7-1.2l-1.2-4.8l4.7-1.2l11.1-19.3
		c15,3.2,29.7-6.4,32.9-21.4C58.8,39.6,54.1,28.1,44.5,21.8z M29.2,44.9c-3.5-1.7-4.9-5.9-3.2-9.3c1.7-3.5,5.9-4.9,9.3-3.2
		c0.3,0.1,0.6,0.3,0.8,0.5c0.5,0.3,0.9,0.7,1.3,1.1c2.7,2.7,2.7,7.1,0,9.9c-1.7,1.7-4.3,2.4-6.7,1.8C30.2,45.4,29.7,45.2,29.2,44.9z
		"/>
	<path id="Path_749" class="st5" d="M56.2,60.5c7.7-13.3,3.1-30.2-10.1-37.9l0,0c-0.5-0.3-1-0.6-1.5-0.8
		c12.8,8.5,16.2,25.7,7.7,38.5C46,69.7,34.6,74.4,23.5,72.1l3,1.7C38.2,76.3,50.2,70.9,56.2,60.5z"/>
	
		<rect id="Rectangle_772" x="8.3" y="80.9" transform="matrix(0.5 -0.866 0.866 0.5 -61.8426 58.0903)" class="st7" width="22.2" height="3.5"/>
	<path id="Path_750" class="st9" d="M75.1,24.2c-1,8.8-7,16.3-15.4,19.2c0.2,1.4,0.2,2.8,0.2,4.2c5.6-1.6,10.5-5,13.9-9.7
		c0.3-0.4,0.6-0.8,0.9-1.2c2.1-3.1,3.5-6.6,4.1-10.2C77.9,25.3,76.6,24.5,75.1,24.2z M52.3-5c-13,0.1-24,9.5-26.2,22.3
		c-0.1,0.8-0.2,1.5-0.3,2.3s-0.1,1.5-0.1,2.3c0,4,0.9,7.9,2.7,11.5c0.5,1.1,1.1,2.1,1.7,3c1.9,2.9,4.4,5.5,7.3,7.4
		c0.5-0.5,0.9-1,1.2-1.5c0.4-0.6,0.6-1.3,0.8-2c-2.4-1.7-4.5-3.8-6-6.3c-0.4-0.7-0.8-1.4-1.2-2.1c-1.6-3.1-2.4-6.6-2.4-10
		c0-1,0-2,0.2-3c0.1-0.6,0.2-1.2,0.3-1.8C32.8,4.9,44.8-3,57.1-0.5c6.1,1.3,11.5,5,14.7,10.3C73.2,9.4,74.6,9.2,76,9
		C71.4,0.4,62.2-5.1,52.3-5z"/>
</g>
</svg>
