<?xml version="1.0" encoding="utf-8"?>
<!-- Generator: Adobe Illustrator 24.3.0, SVG Export Plug-In . SVG Version: 6.00 Build 0)  -->
<svg version="1.1" id="Layer_1" xmlns="http://www.w3.org/2000/svg" xmlns:xlink="http://www.w3.org/1999/xlink" x="0px" y="0px"
	 viewBox="0 0 209.9 210" style="enable-background:new 0 0 209.9 210;" xml:space="preserve">
<style type="text/css">
	.st0{fill:#FFFFFF;}
	.st1{fill:#FAFAFA;}
	.st2{fill:#E6E6E6;}
	.st3{fill:#CCCCCC;}
	.st4{clip-path:url(#SVGID_2_);fill:#CCCCCC;}
	.st5{clip-path:url(#SVGID_4_);fill:#CCCCCC;}
	.st6{clip-path:url(#SVGID_6_);fill:#CCCCCC;}
	.st7{clip-path:url(#SVGID_8_);fill:#CCCCCC;}
	.st8{clip-path:url(#SVGID_10_);fill:#CCCCCC;}
	.st9{clip-path:url(#SVGID_12_);fill:#CCCCCC;}
</style>
<g id="radiateur-gaz-default-state" transform="translate(-15 0)">
	<circle id="ellipse" class="st0" cx="120" cy="105" r="105"/>
	<g id="icon" transform="translate(55 62)">
		<rect id="Rectangle_198" x="-5" y="-5" class="st1" width="131.2" height="87.3"/>
		<rect id="Rectangle_199" x="126.2" y="-5" class="st2" width="8.8" height="87.3"/>
		<rect id="Rectangle_200" x="100" y="21.2" class="st1" width="26.2" height="34.9"/>
		<path id="Path_147" class="st3" d="M114.8,26.5c0,0-10.3,9.2-10.3,16c0,4.6,2.3,7.4,5.6,8.3c-4.3-4.5-3-11.2,2.1-15.7
			c-0.6,3.9,1.8,8.6,1.8,8.6s0.5-3,2.1-3.8c0,2.8,5,6.3,0.2,10.9c3.2-1,5.5-3.6,5.5-8.3C121.7,37.1,114.8,30.9,114.8,26.5z"/>
		<rect id="Rectangle_201" x="-5" y="82.3" class="st2" width="131.2" height="8.7"/>
		<rect id="Rectangle_202" x="126.2" y="82.3" class="st3" width="8.8" height="8.7"/>
		<rect id="Rectangle_203" x="3.7" y="3.7" class="st2" width="8.8" height="69.8"/>
		<g>
			<defs>
				<rect id="SVGID_1_" x="3.7" y="3.7" width="8.8" height="69.8"/>
			</defs>
			<clipPath id="SVGID_2_">
				<use xlink:href="#SVGID_1_"  style="overflow:visible;"/>
			</clipPath>
			<rect id="Rectangle_204" x="-2.1" y="3.7" class="st4" width="8.8" height="69.8"/>
		</g>
		<rect id="Rectangle_206" x="21.2" y="3.7" class="st2" width="8.8" height="69.8"/>
		<g>
			<defs>
				<rect id="SVGID_3_" x="21.2" y="3.7" width="8.8" height="69.8"/>
			</defs>
			<clipPath id="SVGID_4_">
				<use xlink:href="#SVGID_3_"  style="overflow:visible;"/>
			</clipPath>
			<rect id="Rectangle_207" x="15.4" y="3.7" class="st5" width="8.8" height="69.8"/>
		</g>
		<rect id="Rectangle_209" x="38.7" y="3.7" class="st2" width="8.8" height="69.8"/>
		<g>
			<defs>
				<rect id="SVGID_5_" x="38.7" y="3.7" width="8.8" height="69.8"/>
			</defs>
			<clipPath id="SVGID_6_">
				<use xlink:href="#SVGID_5_"  style="overflow:visible;"/>
			</clipPath>
			<rect id="Rectangle_210" x="32.9" y="3.7" class="st6" width="8.8" height="69.8"/>
		</g>
		<rect id="Rectangle_212" x="56.2" y="3.7" class="st2" width="8.8" height="69.8"/>
		<g>
			<defs>
				<rect id="SVGID_7_" x="56.2" y="3.7" width="8.8" height="69.8"/>
			</defs>
			<clipPath id="SVGID_8_">
				<use xlink:href="#SVGID_7_"  style="overflow:visible;"/>
			</clipPath>
			<rect id="Rectangle_213" x="50.4" y="3.7" class="st7" width="8.8" height="69.8"/>
		</g>
		<rect id="Rectangle_215" x="73.7" y="3.7" class="st2" width="8.8" height="69.8"/>
		<g>
			<defs>
				<rect id="SVGID_9_" x="73.7" y="3.7" width="8.8" height="69.8"/>
			</defs>
			<clipPath id="SVGID_10_">
				<use xlink:href="#SVGID_9_"  style="overflow:visible;"/>
			</clipPath>
			<rect id="Rectangle_216" x="67.9" y="3.7" class="st8" width="8.8" height="69.8"/>
		</g>
		<rect id="Rectangle_218" x="91.2" y="3.7" class="st2" width="8.8" height="69.8"/>
		<g>
			<defs>
				<rect id="SVGID_11_" x="91.2" y="3.7" width="8.8" height="69.8"/>
			</defs>
			<clipPath id="SVGID_12_">
				<use xlink:href="#SVGID_11_"  style="overflow:visible;"/>
			</clipPath>
			<rect id="Rectangle_219" x="85.4" y="3.7" class="st9" width="8.8" height="69.8"/>
		</g>
	</g>
</g>
</svg>
