<?xml version="1.0" encoding="utf-8"?>
<!-- Generator: Adobe Illustrator 24.1.3, SVG Export Plug-In . SVG Version: 6.00 Build 0)  -->
<svg version="1.1" id="Layer_1" xmlns="http://www.w3.org/2000/svg" xmlns:xlink="http://www.w3.org/1999/xlink" x="0px" y="0px"
	 viewBox="0 0 210 210" style="enable-background:new 0 0 210 210;" xml:space="preserve">
<style type="text/css">
	.st0{fill:#FFFFFF;}
	.st1{fill:#E5E5FF;}
	.st2{fill:#CCCCFF;}
	.st3{fill:#5F5F99;}
	.st4{fill:#7D7DCC;}
	.st5{clip-path:url(#SVGID_2_);fill:#B3B3FF;}
	.st6{clip-path:url(#SVGID_4_);fill:#B3B3FF;}
	.st7{clip-path:url(#SVGID_6_);fill:#B3B3FF;}
	.st8{clip-path:url(#SVGID_8_);fill:#B3B3FF;}
	.st9{clip-path:url(#SVGID_10_);fill:#B3B3FF;}
	.st10{clip-path:url(#SVGID_12_);fill:#B3B3FF;}
	.st11{fill-rule:evenodd;clip-rule:evenodd;fill:#FF7C66;}
</style>
<g id="radiateur-electricite-hover-state" transform="translate(-15 0)">
	<circle id="ellipse" class="st0" cx="120" cy="105" r="105"/>
	<g>
		<rect id="Rectangle_162" x="50" y="57" class="st1" width="132" height="88"/>
		<rect id="Rectangle_163" x="182" y="57" class="st2" width="8" height="88"/>
		<rect id="Rectangle_166" x="182" y="145" class="st3" width="8" height="8"/>
		<rect id="Rectangle_165" x="50" y="145" class="st4" width="132" height="8"/>
		<rect id="Rectangle_167" x="58" y="65" class="st2" width="9" height="71"/>
		<g>
			<g>
				<g>
					<defs>
						<rect id="SVGID_1_" x="58" y="65" width="9" height="71"/>
					</defs>
					<clipPath id="SVGID_2_">
						<use xlink:href="#SVGID_1_"  style="overflow:visible;"/>
					</clipPath>
					<rect id="Rectangle_168" x="53" y="65" class="st5" width="8" height="71"/>
				</g>
			</g>
		</g>
		<rect id="Rectangle_170" x="76" y="65" class="st2" width="9" height="71"/>
		<g>
			<g>
				<g>
					<defs>
						<rect id="SVGID_3_" x="76" y="65" width="9" height="71"/>
					</defs>
					<clipPath id="SVGID_4_">
						<use xlink:href="#SVGID_3_"  style="overflow:visible;"/>
					</clipPath>
					<rect id="Rectangle_171" x="70" y="65" class="st6" width="9" height="71"/>
				</g>
			</g>
		</g>
		<rect id="Rectangle_173" x="94" y="65" class="st2" width="8" height="71"/>
		<g>
			<g>
				<g>
					<defs>
						<rect id="SVGID_5_" x="94" y="65" width="8" height="71"/>
					</defs>
					<clipPath id="SVGID_6_">
						<use xlink:href="#SVGID_5_"  style="overflow:visible;"/>
					</clipPath>
					<rect id="Rectangle_174" x="88" y="65" class="st7" width="9" height="71"/>
				</g>
			</g>
		</g>
		<rect id="Rectangle_176" x="111" y="65" class="st2" width="9" height="71"/>
		<g>
			<g>
				<g>
					<defs>
						<rect id="SVGID_7_" x="111" y="65" width="9" height="71"/>
					</defs>
					<clipPath id="SVGID_8_">
						<use xlink:href="#SVGID_7_"  style="overflow:visible;"/>
					</clipPath>
					<rect id="Rectangle_177" x="105" y="65" class="st8" width="9" height="71"/>
				</g>
			</g>
		</g>
		<rect id="Rectangle_179" x="129" y="65" class="st2" width="9" height="71"/>
		<g>
			<g>
				<g>
					<defs>
						<rect id="SVGID_9_" x="129" y="65" width="9" height="71"/>
					</defs>
					<clipPath id="SVGID_10_">
						<use xlink:href="#SVGID_9_"  style="overflow:visible;"/>
					</clipPath>
					<rect id="Rectangle_180" x="123" y="65" class="st9" width="9" height="71"/>
				</g>
			</g>
		</g>
		<rect id="Rectangle_182" x="146" y="65" class="st2" width="9" height="71"/>
		<g>
			<g>
				<g>
					<defs>
						<rect id="SVGID_11_" x="146" y="65" width="9" height="71"/>
					</defs>
					<clipPath id="SVGID_12_">
						<use xlink:href="#SVGID_11_"  style="overflow:visible;"/>
					</clipPath>
					<rect id="Rectangle_183" x="141" y="65" class="st10" width="8" height="71"/>
				</g>
			</g>
		</g>
	</g>
	<g id="icon" transform="translate(55 57)">
		<path id="Path_154" class="st11" d="M119.2,41.6h-5l0.9-10.2L107,45.7h5.5l-1.4,10.2L119.2,41.6z"/>
	</g>
</g>
</svg>
