<?xml version="1.0" encoding="utf-8"?>
<!-- Generator: Adobe Illustrator 24.1.3, SVG Export Plug-In . SVG Version: 6.00 Build 0)  -->
<svg version="1.1" id="Layer_1" xmlns="http://www.w3.org/2000/svg" xmlns:xlink="http://www.w3.org/1999/xlink" x="0px" y="0px"
	 viewBox="0 0 106 105" style="enable-background:new 0 0 106 105;" xml:space="preserve">
<style type="text/css">
	.st0{fill:#FFFFFF;}
	.st1{fill:none;}
	.st2{fill:#9999FF;}
	.st3{fill:#E5E5FF;}
	.st4{fill:#CCCCFF;}
	.st5{fill:#B3B3FF;}
</style>
<g id="sud-ouest-hover-state" transform="translate(0 0)">
	<circle id="ellipse" class="st0" cx="53.5" cy="52.5" r="52.5"/>
	<g id="icon" transform="translate(10 10)">
		<circle id="Ellipse_244" class="st1" cx="43" cy="42.5" r="45"/>
		<path id="Path_696" class="st2" d="M25.2,57.9v-3.5h-2.5v6h6v-2.5H25.2z"/>
		
			<rect id="Rectangle_764" x="44.2" y="55.7" transform="matrix(0.7071 -0.7071 0.7071 0.7071 -23.7558 58.0514)" class="st3" width="28" height="4"/>
		<path id="Path_697" class="st2" d="M71.3,48.2l-14.5,8.1L25,24.5l15.9-8.8L71.3,46V48.2z"/>
		<path id="Path_698" class="st2" d="M48.7,70.8l8.1-14.5L25,24.5l-8.8,15.9l30.4,30.4H48.7z"/>
		<path id="Path_699" class="st4" d="M46.5,70.8L14.7,39l8.8-15.9l31.8,31.8L46.5,70.8z"/>
		<path id="Path_700" class="st5" d="M71.3,46l-15.9,8.8L23.6,23.1l15.9-8.8L71.3,46z"/>
		<path id="Path_701" class="st2" d="M45.8,65.1L19,38.3l5.3-9.5l26.9,26.9L45.8,65.1z"/>
		<path id="Path_702" class="st2" d="M41.9,78.6c0,0.2,0.1,0.4,0.2,0.5c0.1,0.1,0.3,0.2,0.5,0.3c0.2,0.1,0.4,0.2,0.7,0.3
			s0.5,0.2,0.8,0.3c0.2,0.1,0.5,0.2,0.7,0.4c0.2,0.2,0.4,0.4,0.5,0.6c0.1,0.3,0.2,0.6,0.2,0.9c0,0.4-0.1,0.9-0.4,1.2
			c-0.3,0.3-0.6,0.6-1,0.7c-0.5,0.2-1,0.2-1.4,0.2c-0.4,0-0.7,0-1.1-0.1c-0.4-0.1-0.7-0.2-1.1-0.3l0.1-1.9h0.8l0.2,1.2l-0.1-0.2
			c0.4,0.2,0.8,0.3,1.3,0.3c0.2,0,0.5,0,0.7-0.1s0.4-0.2,0.5-0.3c0.1-0.1,0.2-0.3,0.2-0.5s-0.1-0.4-0.2-0.5
			c-0.1-0.1-0.3-0.3-0.5-0.3c-0.2-0.1-0.5-0.2-0.7-0.2c-0.3-0.1-0.5-0.2-0.8-0.3c-0.3-0.1-0.5-0.2-0.7-0.4c-0.2-0.2-0.4-0.4-0.5-0.6
			c-0.3-0.7-0.2-1.4,0.2-2.1c0.2-0.3,0.6-0.5,0.9-0.7c0.4-0.2,0.9-0.2,1.3-0.2c0.4,0,0.7,0,1.1,0.1c0.4,0.1,0.8,0.2,1.1,0.3L45.2,79
			h-0.8l-0.2-1.1l0.2,0.2C44.2,78,44,78,43.9,77.9c-0.2,0-0.4-0.1-0.6-0.1c-0.2,0-0.4,0-0.6,0.1c-0.2,0-0.3,0.1-0.5,0.3
			C42,78.3,41.9,78.4,41.9,78.6z"/>
		<path id="Path_703" class="st2" d="M4.6,46.1C4,46.2,3.5,46,3,45.7S2.2,45,1.9,44.5c-0.3-0.6-0.4-1.3-0.4-2c0-0.6,0.1-1.1,0.2-1.6
			c0.1-0.4,0.4-0.8,0.7-1.2c0.3-0.3,0.6-0.5,1-0.7s0.9-0.2,1.3-0.2c0.4,0,0.9,0.1,1.3,0.2c0.4,0.1,0.7,0.4,1,0.7s0.5,0.7,0.6,1.1
			c0.2,0.5,0.2,1,0.2,1.5c0,0.7-0.1,1.4-0.4,2c-0.3,0.5-0.7,1-1.2,1.3C5.9,46,5.2,46.1,4.6,46.1z M4.7,45c0.3,0,0.6,0,0.9-0.2
			c0.3-0.2,0.5-0.5,0.6-0.8c0.2-0.5,0.3-1,0.2-1.5c0-0.5-0.1-1-0.2-1.5c-0.1-0.3-0.3-0.6-0.6-0.8c-0.6-0.3-1.2-0.3-1.8,0
			c-0.3,0.2-0.5,0.5-0.6,0.8C3.1,41.5,3,42,3,42.5s0.1,1,0.2,1.4c0.1,0.3,0.3,0.6,0.6,0.8C4.1,45,4.4,45,4.7,45L4.7,45z"/>
	</g>
</g>
</svg>
