<?xml version="1.0" encoding="utf-8"?>
<!-- Generator: Adobe Illustrator 24.1.3, SVG Export Plug-In . SVG Version: 6.00 Build 0)  -->
<svg version="1.1" id="Layer_1" xmlns="http://www.w3.org/2000/svg" xmlns:xlink="http://www.w3.org/1999/xlink" x="0px" y="0px"
	 viewBox="0 0 105 105" style="enable-background:new 0 0 105 105;" xml:space="preserve">
<style type="text/css">
	.st0{fill:#FFFFFF;}
	.st1{fill:none;}
	.st2{fill:#9999FF;}
	.st3{fill:#E5E5FF;}
	.st4{fill:#CCCCFF;}
	.st5{fill:#B3B3FF;}
</style>
<g id="sud-est-hover-state" transform="translate(0 0)">
	<circle id="ellipse" class="st0" cx="52.5" cy="52.5" r="52.5"/>
	<g id="icon" transform="translate(10 10)">
		<circle id="Ellipse_242" class="st1" cx="42.5" cy="42.5" r="45"/>
		<path id="Path_681" class="st2" d="M60.3,57.9v-3.5h2.5v6h-6v-2.5H60.3z"/>
		
			<rect id="Rectangle_762" x="25.3" y="43.7" transform="matrix(0.7071 -0.7071 0.7071 0.7071 -32.8102 36.2193)" class="st3" width="4" height="28"/>
		<path id="Path_682" class="st2" d="M14.2,48.2l14.5,8.1l31.8-31.9l-15.9-8.8L14.2,46V48.2z"/>
		<path id="Path_683" class="st2" d="M36.8,70.7l-8.1-14.5l31.8-31.8l8.8,15.9L39,70.7H36.8z"/>
		<path id="Path_684" class="st4" d="M39,70.7l31.8-31.8L62,23L30.1,54.8L39,70.7z"/>
		<path id="Path_685" class="st5" d="M14.2,46l15.9,8.8L61.9,23L46,14.2L14.2,46z"/>
		<path id="Path_686" class="st2" d="M39.7,65.1l26.8-26.9l-5.3-9.5L34.4,55.5L39.7,65.1z"/>
		<path id="Path_687" class="st2" d="M41.4,78.6c0,0.2,0.1,0.4,0.2,0.5c0.1,0.1,0.3,0.2,0.5,0.3c0.2,0.1,0.4,0.2,0.7,0.3
			s0.5,0.2,0.8,0.3c0.2,0.1,0.5,0.2,0.7,0.4c0.2,0.2,0.4,0.4,0.5,0.6c0.1,0.3,0.2,0.6,0.2,0.9c0,0.4-0.1,0.9-0.4,1.2
			c-0.3,0.3-0.6,0.6-1,0.7C43.1,84,42.7,84,42.2,84c-0.4,0-0.7,0-1.1-0.1c-0.4-0.1-0.7-0.2-1.1-0.3l0.1-1.9h0.8l0.2,1.2L41,82.7
			c0.4,0.2,0.8,0.3,1.3,0.3c0.2,0,0.5,0,0.7-0.1s0.4-0.2,0.5-0.3c0.1-0.1,0.2-0.3,0.2-0.5s-0.1-0.4-0.2-0.5
			c-0.1-0.1-0.3-0.3-0.5-0.3c-0.2-0.1-0.5-0.2-0.7-0.2c-0.3-0.1-0.5-0.2-0.8-0.3c-0.3-0.1-0.5-0.2-0.7-0.4c-0.2-0.2-0.4-0.4-0.5-0.6
			c-0.3-0.7-0.2-1.4,0.2-2.1c0.2-0.3,0.6-0.5,0.9-0.7c0.4-0.2,0.9-0.2,1.3-0.2c0.4,0,0.7,0,1.1,0.1c0.4,0.1,0.8,0.2,1.1,0.3L44.8,79
			H44l-0.2-1.1l0.2,0.2c-0.2-0.1-0.4-0.1-0.5-0.2c-0.2,0-0.4-0.1-0.6-0.1c-0.2,0-0.4,0-0.6,0.1c-0.2,0-0.3,0.1-0.5,0.3
			C41.5,78.2,41.4,78.4,41.4,78.6z"/>
		<path id="Path_688" class="st2" d="M83.2,44.1h0.9V46h-5.2v-0.7l0.9-0.3l-0.3,0.3v-5.6l0.2,0.3l-0.9-0.2v-0.7l2.1-0.1h3v1.8H83
			l-0.2-1l0.3,0.2h-2.4l0.2-0.2v2.4L80.7,42h2.4v1h-2.4l0.2-0.2v2.5l-0.2-0.2h2.5l-0.3,0.2L83.2,44.1z"/>
	</g>
</g>
</svg>
