<?xml version="1.0" encoding="utf-8"?>
<!-- Generator: Adobe Illustrator 24.3.0, SVG Export Plug-In . SVG Version: 6.00 Build 0)  -->
<svg version="1.1" id="Layer_1" xmlns="http://www.w3.org/2000/svg" xmlns:xlink="http://www.w3.org/1999/xlink" x="0px" y="0px"
	 viewBox="0 0 210 210" style="enable-background:new 0 0 210 210;" xml:space="preserve">
<style type="text/css">
	.st0{fill:#FFFFFF;}
	.st1{fill:#CCCCCC;}
	.st2{fill:#FAFAFA;}
	.st3{fill:#E6E6E6;}
	.st4{fill:#B3B3B3;}
</style>
<g id="terre-plein-default-state" transform="translate(-15 0)">
	<circle id="ellipse" class="st0" cx="120" cy="105" r="105"/>
	<g id="icon" transform="translate(59 36)">
		<rect id="Rectangle_303" x="92.7" y="52.1" class="st1" width="22.6" height="8.7"/>
		<rect id="Rectangle_304" x="6.1" y="52.1" class="st1" width="22.6" height="8.7"/>
		<path id="Path_206" class="st2" d="M12.9,52.4L60.7,4.6l47.8,47.9v67H12.9V52.4z"/>
		<path id="Path_207" class="st3" d="M121,55.2l-5.7,5.6l-6.7-6.7L60.7,6.3L6.1,60.9l-5.7-5.6L60.4-4.6L60.7-5L121,55.2z"/>
		<rect id="Rectangle_305" x="-5" y="119.4" class="st4" width="131.4" height="5.6"/>
		<path id="Path_208" class="st4" d="M60.7,108.2l4-4l2.8,2.8l-4,4l-2.8,2.8l-2.8-2.8l-4-4l2.8-2.8L60.7,108.2z"/>
	</g>
</g>
</svg>
