<?xml version="1.0" encoding="utf-8"?>
<!-- Generator: Adobe Illustrator 24.1.3, SVG Export Plug-In . SVG Version: 6.00 Build 0)  -->
<svg version="1.1" id="Layer_1" xmlns="http://www.w3.org/2000/svg" xmlns:xlink="http://www.w3.org/1999/xlink" x="0px" y="0px"
	 viewBox="0 0 210 210" style="enable-background:new 0 0 210 210;" xml:space="preserve">
<style type="text/css">
	.st0{fill:#FFFFFF;}
	.st1{fill:#5C5C99;}
	.st2{fill:#E6E6FF;}
	.st3{fill:#7A7ACC;}
	.st4{fill:#FFA799;}
</style>
<g id="terre-plein-hover-state" transform="translate(-15 0)">
	<circle id="ellipse" class="st0" cx="120" cy="105" r="105"/>
	<g id="icon" transform="translate(59 36)">
		<rect id="Rectangle_303" x="93" y="61.1" class="st1" width="22.6" height="8.7"/>
		<rect id="Rectangle_304" x="6.4" y="61.1" class="st1" width="22.6" height="8.7"/>
		<path id="Path_206" class="st2" d="M13.2,61.4L61,13.6l47.8,47.9v67H13.2V61.4z"/>
		<path id="Path_207" class="st3" d="M121.3,64.2l-5.7,5.6l-6.7-6.7L61,15.3L6.4,69.9l-5.6-5.7L60.7,4.4L61.1,4L121.3,64.2z"/>
		<rect id="Rectangle_305" x="-4.7" y="128.4" class="st4" width="131.4" height="5.6"/>
		<path id="Path_208" class="st4" d="M61,117.2l4-4l2.8,2.8l-4,4l-2.8,2.8l-2.8-2.8l-4-4l2.8-2.8L61,117.2z"/>
	</g>
</g>
</svg>
