<?xml version="1.0" encoding="utf-8"?>
<!-- Generator: Adobe Illustrator 24.1.3, SVG Export Plug-In . SVG Version: 6.00 Build 0)  -->
<svg version="1.1" id="Layer_1" xmlns="http://www.w3.org/2000/svg" xmlns:xlink="http://www.w3.org/1999/xlink" x="0px" y="0px"
	 viewBox="0 0 209.8 209.6" style="enable-background:new 0 0 209.8 209.6;" xml:space="preserve">
<style type="text/css">
	.st0{fill:#FFFFFF;}
	.st1{fill:#B3B3FF;}
	.st2{fill:#E5E5FF;}
	.st3{fill:#CCCCFF;}
	.st4{fill:#FF5533;}
</style>
<g id="terre-plein-active-state" transform="translate(-15 0)">
	<circle id="ellipse" class="st0" cx="119.9" cy="104.8" r="105"/>
	<g id="icon" transform="translate(59 36)">
		<rect id="Rectangle_303" x="92.6" y="51.9" class="st1" width="22.6" height="8.7"/>
		<rect id="Rectangle_304" x="6" y="51.9" class="st1" width="22.6" height="8.7"/>
		<path id="Path_206" class="st2" d="M12.8,52.2L60.6,4.4l47.8,47.9v67H12.8V52.2z"/>
		<path id="Path_207" class="st3" d="M120.9,55l-5.7,5.6l-6.7-6.7L60.6,6.1L6,60.7L0.4,55L60.3-4.8l0.4-0.4L120.9,55z"/>
		<rect id="Rectangle_305" x="-5.1" y="119.2" class="st4" width="131.4" height="5.6"/>
		<path id="Path_208" class="st4" d="M60.6,108l4-4l2.8,2.8l-4,4l-2.8,2.8l-2.8-2.8l-4-4l2.8-2.8L60.6,108z"/>
	</g>
</g>
</svg>
