<?xml version="1.0" encoding="utf-8"?>
<!-- Generator: Adobe Illustrator 24.1.3, SVG Export Plug-In . SVG Version: 6.00 Build 0)  -->
<svg version="1.1" id="Layer_1" xmlns="http://www.w3.org/2000/svg" xmlns:xlink="http://www.w3.org/1999/xlink" x="0px" y="0px"
	 viewBox="0 0 210 210" style="enable-background:new 0 0 210 210;" xml:space="preserve">
<style type="text/css">
	.st0{clip-path:url(#SVGID_2_);}
	.st1{fill:#FF5533;}
	.st2{fill:#E5482E;}
	.st3{fill:#CC4029;}
	.st4{clip-path:url(#SVGID_4_);}
	.st5{fill:none;}
	.st6{fill:none;stroke:#B23326;stroke-width:3.5;stroke-miterlimit:10;}
	.st7{clip-path:url(#SVGID_6_);}
	.st8{clip-path:url(#SVGID_8_);}
	.st9{clip-path:url(#SVGID_10_);}
	.st10{clip-path:url(#SVGID_12_);}
	.st11{clip-path:url(#SVGID_14_);}
	.st12{clip-path:url(#SVGID_16_);}
	.st13{clip-path:url(#SVGID_18_);}
	.st14{clip-path:url(#SVGID_20_);}
	.st15{clip-path:url(#SVGID_22_);}
	.st16{clip-path:url(#SVGID_24_);}
	.st17{clip-path:url(#SVGID_26_);}
</style>
<g>
	<g>
		<defs>
			<circle id="SVGID_1_" cx="105" cy="105" r="105"/>
		</defs>
		<clipPath id="SVGID_2_">
			<use xlink:href="#SVGID_1_"  style="overflow:visible;"/>
		</clipPath>
		<g class="st0">
			<polygon class="st1" points="104.4,-41.5 104.4,70.5 104.4,182.5 104.4,294.5 160.4,294.5 160.4,182.5 160.4,70.5 160.4,-41.5 
							"/>
			<polygon class="st1" points="27.4,-41.5 27.4,70.5 27.4,182.5 27.4,294.5 83.4,294.5 83.4,182.5 83.4,70.5 83.4,-41.5 			"/>
			<polygon class="st1" points="181.4,-41.5 181.4,70.5 181.4,182.5 237.4,182.5 237.4,70.5 237.4,-41.5 			"/>
			<polygon class="st1" points="-49.6,-41.5 -49.6,70.5 -49.6,182.5 6.4,182.5 6.4,70.5 6.4,-41.5 			"/>
			<polygon class="st2" points="167.4,-41.5 167.4,70.5 167.4,182.5 167.4,294.5 181.4,294.5 181.4,182.5 181.4,70.5 181.4,-41.5 
							"/>
			<polygon class="st3" points="160.4,-41.5 160.4,70.5 160.4,182.5 160.4,294.5 167.4,294.5 167.4,182.5 167.4,70.5 167.4,-41.5 
							"/>
			<polygon class="st2" points="90.4,-41.5 90.4,70.5 90.4,182.5 90.4,294.5 104.4,294.5 104.4,182.5 104.4,70.5 104.4,-41.5 			"/>
			<polygon class="st3" points="83.4,-41.5 83.4,70.5 83.4,182.5 83.4,294.5 90.4,294.5 90.4,182.5 90.4,70.5 90.4,-41.5 			"/>
			<polygon class="st2" points="13.4,-41.5 13.4,70.5 13.4,182.5 27.4,182.5 27.4,70.5 27.4,-41.5 			"/>
			<polygon class="st3" points="6.4,-41.5 6.4,70.5 6.4,182.5 13.4,182.5 13.4,70.5 13.4,-41.5 			"/>
		</g>
		<g class="st0">
			<g>
				<defs>
					<rect id="SVGID_3_" x="167.4" y="-41.5" width="77" height="112"/>
				</defs>
				<clipPath id="SVGID_4_">
					<use xlink:href="#SVGID_3_"  style="overflow:visible;"/>
				</clipPath>
				<g class="st4">
					<rect x="167.4" y="-41.5" class="st5" width="77" height="112"/>
					<g>
						<rect x="167.4" y="-41.5" class="st5" width="77" height="112"/>
						<g>
							<path class="st6" d="M240,66.8c1.2,1.4,2.7,2.5,4.4,3l0,0c0.5,0.2,1,0.3,1.6,0.5l0,0c0.2,0.1,0.4,0.1,0.6,0.1
								c0.1,0,0.1,0,0.1,0c0.1,0,0.2,0,0.4,0c0.2,0,0.5,0,0.7,0c5.8,0,10.5-4.7,10.5-10.5c0-15.4,12.5-28,28-28
								c15.4,0,28,12.6,28,28l0,0c0,4.6,2.9,8.5,7,9.9"/>
						</g>
						<g>
							<g>
								<rect x="237.4" y="-41.5" class="st3" width="7" height="112"/>
							</g>
							<path class="st6" d="M163,66.8c1.2,1.4,2.7,2.5,4.4,3l0,0c0.5,0.2,1.1,0.3,1.6,0.5l0,0c0.2,0.1,0.3,0.1,0.6,0.1h0.1
								c0.1,0,0.2,0,0.4,0c0.2,0,0.5,0,0.7,0c5.8,0,10.5-4.7,10.5-10.5c0-15.4,12.5-28,28-28s28,12.6,28,28l0,0c0,4.6,2.9,8.5,7,9.9
								"/>
						</g>
						<g>
							<path class="st6" d="M85.9,66.8c1.2,1.4,2.7,2.5,4.4,3l0,0c0.6,0.1,1.1,0.3,1.8,0.5l0,0c0.2,0.1,0.4,0.1,0.6,0.1h0.1
								c0.1,0,0.2,0,0.3,0c0.2,0,0.5,0,0.7,0c5.8,0,10.5-4.7,10.5-10.5c0-15.4,12.5-28,28-28c15.4,0,28,12.6,28,28l0,0
								c0,4.6,2.9,8.5,7,9.9"/>
						</g>
						<g>
							<path class="st6" d="M240-45.2c1.2,1.4,2.7,2.5,4.4,3l0,0c0.5,0.2,1,0.4,1.6,0.5l0,0c0.2,0.1,0.4,0.1,0.6,0.1
								c0.1,0,0.1,0,0.1,0c0.1,0,0.2,0,0.4,0c0.2,0,0.5,0,0.7,0c5.8,0,10.5-4.7,10.5-10.5c0-15.4,12.5-28,28-28
								c15.4,0,28,12.6,28,28l0,0c0,4.5,2.9,8.5,7,9.9"/>
						</g>
						<g>
							<path class="st6" d="M163-45.2c1.2,1.4,2.7,2.5,4.4,3l0,0c0.5,0.2,1.1,0.4,1.6,0.5l0,0c0.2,0.1,0.3,0.1,0.6,0.1h0.1
								c0.1,0,0.2,0,0.4,0c0.2,0,0.5,0,0.7,0c5.8,0,10.5-4.7,10.5-10.5c0-15.4,12.5-28,28-28s28,12.6,28,28l0,0c0,4.5,2.9,8.5,7,9.9
								"/>
						</g>
						<g>
							<path class="st6" d="M86-45.2c1.2,1.4,2.7,2.5,4.4,3l0,0c0.5,0.2,1.1,0.4,1.6,0.5l0,0c0.2,0.1,0.4,0.1,0.6,0.1h0.1
								c0.1,0,0.2,0,0.3,0c0.2,0,0.5,0,0.7,0c5.8,0,10.5-4.7,10.5-10.5c0-15.4,12.5-28,28-28c15.4,0,28,12.6,28,28l0,0
								c0,4.5,2.9,8.5,7,9.9"/>
						</g>
					</g>
				</g>
			</g>
		</g>
		<g class="st0">
			<g>
				<defs>
					<rect id="SVGID_5_" x="167.4" y="70.5" width="77" height="112"/>
				</defs>
				<clipPath id="SVGID_6_">
					<use xlink:href="#SVGID_5_"  style="overflow:visible;"/>
				</clipPath>
				<g class="st7">
					<rect x="167.4" y="70.5" class="st5" width="77" height="112"/>
					<g>
						<rect x="167.4" y="70.5" class="st5" width="77" height="112"/>
						<g>
							<path class="st6" d="M240,178.8c1.2,1.4,2.7,2.4,4.4,3l0,0c0.5,0.2,1,0.3,1.6,0.5l0,0c0.2,0.1,0.4,0.1,0.6,0.1
								c0.1,0,0.1,0,0.1,0c0.1,0,0.2,0,0.4,0c0.2,0,0.5,0,0.7,0c5.8,0,10.5-4.7,10.5-10.5c0-15.4,12.5-28,28-28
								c15.4,0,28,12.6,28,28l0,0c0,4.6,2.9,8.5,7,9.9"/>
						</g>
						<g>
							<g>
								<rect x="237.4" y="70.5" class="st3" width="7" height="112"/>
							</g>
							<path class="st6" d="M163,178.8c1.2,1.4,2.7,2.4,4.4,3l0,0c0.5,0.2,1.1,0.3,1.6,0.5l0,0c0.2,0.1,0.3,0.1,0.6,0.1h0.1
								c0.1,0,0.2,0,0.4,0c0.2,0,0.5,0,0.7,0c5.8,0,10.5-4.7,10.5-10.5c0-15.4,12.5-28,28-28s28,12.6,28,28l0,0c0,4.6,2.9,8.5,7,9.9
								"/>
						</g>
						<g>
							<path class="st6" d="M85.9,178.8c1.2,1.4,2.7,2.4,4.4,3l0,0c0.6,0.1,1.1,0.3,1.8,0.5l0,0c0.2,0.1,0.4,0.1,0.6,0.1h0.1
								c0.1,0,0.2,0,0.3,0c0.2,0,0.5,0,0.7,0c5.8,0,10.5-4.7,10.5-10.5c0-15.4,12.5-28,28-28c15.4,0,28,12.6,28,28l0,0
								c0,4.6,2.9,8.5,7,9.9"/>
						</g>
						<g>
							<path class="st6" d="M240,66.8c1.2,1.4,2.7,2.5,4.4,3l0,0c0.5,0.2,1,0.4,1.6,0.5l0,0c0.2,0.1,0.4,0.1,0.6,0.1
								c0.1,0,0.1,0,0.1,0c0.1,0,0.2,0,0.4,0c0.2,0,0.5,0,0.7,0c5.8,0,10.5-4.7,10.5-10.5c0-15.4,12.5-28,28-28
								c15.4,0,28,12.6,28,28l0,0c0,4.6,2.9,8.5,7,9.9"/>
						</g>
						<g>
							<path class="st6" d="M163,66.8c1.2,1.4,2.7,2.5,4.4,3l0,0c0.5,0.2,1.1,0.4,1.6,0.5l0,0c0.2,0.1,0.3,0.1,0.6,0.1h0.1
								c0.1,0,0.2,0,0.4,0c0.2,0,0.5,0,0.7,0c5.8,0,10.5-4.7,10.5-10.5c0-15.4,12.5-28,28-28s28,12.6,28,28l0,0c0,4.6,2.9,8.5,7,9.9
								"/>
						</g>
						<g>
							<path class="st6" d="M86,66.8c1.2,1.4,2.7,2.5,4.4,3l0,0c0.5,0.2,1.1,0.4,1.6,0.5l0,0c0.2,0.1,0.4,0.1,0.6,0.1h0.1
								c0.1,0,0.2,0,0.3,0c0.2,0,0.5,0,0.7,0c5.8,0,10.5-4.7,10.5-10.5c0-15.4,12.5-28,28-28c15.4,0,28,12.6,28,28l0,0
								c0,4.6,2.9,8.5,7,9.9"/>
						</g>
					</g>
				</g>
			</g>
		</g>
		<g class="st0">
			<g>
				<defs>
					<rect id="SVGID_7_" x="167.4" y="182.5" width="77" height="112"/>
				</defs>
				<clipPath id="SVGID_8_">
					<use xlink:href="#SVGID_7_"  style="overflow:visible;"/>
				</clipPath>
				<g class="st8">
					<rect x="167.4" y="182.5" class="st5" width="77" height="112"/>
					<g>
						<rect x="167.4" y="182.5" class="st5" width="77" height="112"/>
						<g>
							<path class="st6" d="M240,290.8c1.2,1.4,2.7,2.4,4.4,3l0,0c0.5,0.2,1,0.3,1.6,0.5l0,0c0.2,0.1,0.4,0.1,0.6,0.1
								c0.1,0,0.1,0,0.1,0c0.1,0,0.2,0,0.4,0c0.2,0,0.5,0,0.7,0c5.8,0,10.5-4.7,10.5-10.5c0-15.4,12.5-28,28-28
								c15.4,0,28,12.6,28,28l0,0c0,4.6,2.9,8.5,7,9.9"/>
						</g>
						<g>
							<g>
								<rect x="181.4" y="182.5" class="st1" width="56" height="112"/>
								<rect x="237.4" y="182.5" class="st3" width="7" height="112"/>
							</g>
							<path class="st6" d="M163,290.8c1.2,1.4,2.7,2.4,4.4,3l0,0c0.5,0.2,1.1,0.3,1.6,0.5l0,0c0.2,0.1,0.3,0.1,0.6,0.1h0.1
								c0.1,0,0.2,0,0.4,0c0.2,0,0.5,0,0.7,0c5.8,0,10.5-4.7,10.5-10.5c0-15.4,12.5-28,28-28s28,12.6,28,28l0,0c0,4.6,2.9,8.5,7,9.9
								"/>
						</g>
						<g>
							<path class="st6" d="M85.9,290.8c1.2,1.4,2.7,2.4,4.4,3l0,0c0.6,0.1,1.1,0.3,1.8,0.5l0,0c0.2,0.1,0.4,0.1,0.6,0.1h0.1
								c0.1,0,0.2,0,0.3,0c0.2,0,0.5,0,0.7,0c5.8,0,10.5-4.7,10.5-10.5c0-15.4,12.5-28,28-28c15.4,0,28,12.6,28,28l0,0
								c0,4.6,2.9,8.5,7,9.9"/>
						</g>
						<g>
							<path class="st6" d="M240,178.8c1.2,1.4,2.7,2.4,4.4,3l0,0c0.5,0.2,1,0.3,1.6,0.5l0,0c0.2,0.1,0.4,0.1,0.6,0.1
								c0.1,0,0.1,0,0.1,0c0.1,0,0.2,0,0.4,0c0.2,0,0.5,0,0.7,0c5.8,0,10.5-4.7,10.5-10.5c0-15.4,12.5-28,28-28
								c15.4,0,28,12.6,28,28l0,0c0,4.6,2.9,8.5,7,9.9"/>
						</g>
						<g>
							<path class="st6" d="M163,178.8c1.2,1.4,2.7,2.4,4.4,3l0,0c0.5,0.2,1.1,0.3,1.6,0.5l0,0c0.2,0.1,0.3,0.1,0.6,0.1h0.1
								c0.1,0,0.2,0,0.4,0c0.2,0,0.5,0,0.7,0c5.8,0,10.5-4.7,10.5-10.5c0-15.4,12.5-28,28-28s28,12.6,28,28l0,0c0,4.6,2.9,8.5,7,9.9
								"/>
						</g>
						<g>
							<path class="st6" d="M86,178.8c1.2,1.4,2.7,2.4,4.4,3l0,0c0.5,0.2,1.1,0.3,1.6,0.5l0,0c0.2,0.1,0.4,0.1,0.6,0.1h0.1
								c0.1,0,0.2,0,0.3,0c0.2,0,0.5,0,0.7,0c5.8,0,10.5-4.7,10.5-10.5c0-15.4,12.5-28,28-28c15.4,0,28,12.6,28,28l0,0
								c0,4.6,2.9,8.5,7,9.9"/>
						</g>
					</g>
				</g>
			</g>
		</g>
		<g class="st0">
			<g>
				<defs>
					<rect id="SVGID_9_" x="90.4" y="-41.5" width="77" height="112"/>
				</defs>
				<clipPath id="SVGID_10_">
					<use xlink:href="#SVGID_9_"  style="overflow:visible;"/>
				</clipPath>
				<g class="st9">
					<rect x="90.4" y="-41.5" class="st5" width="77" height="112"/>
					<g>
						<rect x="90.4" y="-41.5" class="st5" width="77" height="112"/>
						<g>
							<path class="st6" d="M163,66.8c1.2,1.4,2.7,2.5,4.4,3l0,0c0.5,0.2,1,0.3,1.6,0.5l0,0c0.2,0.1,0.4,0.1,0.6,0.1
								c0.1,0,0.1,0,0.1,0c0.1,0,0.2,0,0.4,0c0.2,0,0.5,0,0.7,0c5.8,0,10.5-4.7,10.5-10.5c0-15.4,12.5-28,28-28
								c15.4,0,28,12.6,28,28l0,0c0,4.6,2.9,8.5,7,9.9"/>
						</g>
						<g>
							<path class="st6" d="M86,66.8c1.2,1.4,2.7,2.5,4.4,3l0,0c0.5,0.2,1.1,0.3,1.6,0.5l0,0c0.2,0.1,0.4,0.1,0.6,0.1h0.1
								c0.1,0,0.2,0,0.4,0c0.2,0,0.5,0,0.7,0c5.8,0,10.5-4.7,10.5-10.5c0-15.4,12.5-28,28-28s28,12.6,28,28l0,0c0,4.6,2.9,8.5,7,9.9
								"/>
						</g>
						<g>
							<path class="st6" d="M8.9,66.8c1.2,1.4,2.7,2.5,4.4,3l0,0c0.6,0.1,1.1,0.3,1.8,0.5l0,0c0.2,0.1,0.4,0.1,0.6,0.1h0.1
								c0.1,0,0.2,0,0.4,0c0.2,0,0.5,0,0.7,0c5.8,0,10.5-4.7,10.5-10.5c0-15.4,12.5-28,28-28c15.4,0,28,12.6,28,28l0,0
								c0,4.6,2.9,8.5,7,9.9"/>
						</g>
						<g>
							<path class="st6" d="M163-45.2c1.2,1.4,2.7,2.5,4.4,3l0,0c0.5,0.2,1,0.4,1.6,0.5l0,0c0.2,0.1,0.4,0.1,0.6,0.1
								c0.1,0,0.1,0,0.1,0c0.1,0,0.2,0,0.4,0c0.2,0,0.5,0,0.7,0c5.8,0,10.5-4.7,10.5-10.5c0-15.4,12.5-28,28-28
								c15.4,0,28,12.6,28,28l0,0c0,4.5,2.9,8.5,7,9.9"/>
						</g>
						<g>
							<path class="st6" d="M86-45.2c1.2,1.4,2.7,2.5,4.4,3l0,0c0.5,0.2,1.1,0.4,1.6,0.5l0,0c0.2,0.1,0.4,0.1,0.6,0.1h0.1
								c0.1,0,0.2,0,0.4,0c0.2,0,0.5,0,0.7,0c5.8,0,10.5-4.7,10.5-10.5c0-15.4,12.5-28,28-28s28,12.6,28,28l0,0c0,4.5,2.9,8.5,7,9.9
								"/>
						</g>
						<g>
							<path class="st6" d="M9-45.2c1.2,1.4,2.7,2.5,4.4,3l0,0c0.5,0.2,1.1,0.4,1.6,0.5l0,0c0.2,0.1,0.4,0.1,0.6,0.1h0.1
								c0.1,0,0.2,0,0.4,0c0.2,0,0.5,0,0.7,0c5.8,0,10.5-4.7,10.5-10.5c0-15.4,12.5-28,28-28c15.4,0,28,12.6,28,28l0,0
								c0,4.5,2.9,8.5,7,9.9"/>
						</g>
					</g>
				</g>
			</g>
		</g>
		<g class="st0">
			<g>
				<defs>
					<rect id="SVGID_11_" x="90.4" y="70.5" width="77" height="112"/>
				</defs>
				<clipPath id="SVGID_12_">
					<use xlink:href="#SVGID_11_"  style="overflow:visible;"/>
				</clipPath>
				<g class="st10">
					<rect x="90.4" y="70.5" class="st5" width="77" height="112"/>
					<g>
						<rect x="90.4" y="70.5" class="st5" width="77" height="112"/>
						<g>
							<path class="st6" d="M163,178.8c1.2,1.4,2.7,2.4,4.4,3l0,0c0.5,0.2,1,0.3,1.6,0.5l0,0c0.2,0.1,0.4,0.1,0.6,0.1
								c0.1,0,0.1,0,0.1,0c0.1,0,0.2,0,0.4,0c0.2,0,0.5,0,0.7,0c5.8,0,10.5-4.7,10.5-10.5c0-15.4,12.5-28,28-28
								c15.4,0,28,12.6,28,28l0,0c0,4.6,2.9,8.5,7,9.9"/>
						</g>
						<g>
							<path class="st6" d="M86,178.8c1.2,1.4,2.7,2.4,4.4,3l0,0c0.5,0.2,1.1,0.3,1.6,0.5l0,0c0.2,0.1,0.4,0.1,0.6,0.1h0.1
								c0.1,0,0.2,0,0.4,0c0.2,0,0.5,0,0.7,0c5.8,0,10.5-4.7,10.5-10.5c0-15.4,12.5-28,28-28s28,12.6,28,28l0,0c0,4.6,2.9,8.5,7,9.9
								"/>
						</g>
						<g>
							<path class="st6" d="M8.9,178.8c1.2,1.4,2.7,2.4,4.4,3l0,0c0.6,0.1,1.1,0.3,1.8,0.5l0,0c0.2,0.1,0.4,0.1,0.6,0.1h0.1
								c0.1,0,0.2,0,0.4,0c0.2,0,0.5,0,0.7,0c5.8,0,10.5-4.7,10.5-10.5c0-15.4,12.5-28,28-28c15.4,0,28,12.6,28,28l0,0
								c0,4.6,2.9,8.5,7,9.9"/>
						</g>
						<g>
							<path class="st6" d="M163,66.8c1.2,1.4,2.7,2.5,4.4,3l0,0c0.5,0.2,1,0.4,1.6,0.5l0,0c0.2,0.1,0.4,0.1,0.6,0.1
								c0.1,0,0.1,0,0.1,0c0.1,0,0.2,0,0.4,0c0.2,0,0.5,0,0.7,0c5.8,0,10.5-4.7,10.5-10.5c0-15.4,12.5-28,28-28
								c15.4,0,28,12.6,28,28l0,0c0,4.6,2.9,8.5,7,9.9"/>
						</g>
						<g>
							<path class="st6" d="M86,66.8c1.2,1.4,2.7,2.5,4.4,3l0,0c0.5,0.2,1.1,0.4,1.6,0.5l0,0c0.2,0.1,0.4,0.1,0.6,0.1h0.1
								c0.1,0,0.2,0,0.4,0c0.2,0,0.5,0,0.7,0c5.8,0,10.5-4.7,10.5-10.5c0-15.4,12.5-28,28-28s28,12.6,28,28l0,0c0,4.6,2.9,8.5,7,9.9
								"/>
						</g>
						<g>
							<path class="st6" d="M9,66.8c1.2,1.4,2.7,2.5,4.4,3l0,0c0.5,0.2,1.1,0.4,1.6,0.5l0,0c0.2,0.1,0.4,0.1,0.6,0.1h0.1
								c0.1,0,0.2,0,0.4,0c0.2,0,0.5,0,0.7,0c5.8,0,10.5-4.7,10.5-10.5c0-15.4,12.5-28,28-28c15.4,0,28,12.6,28,28l0,0
								c0,4.6,2.9,8.5,7,9.9"/>
						</g>
					</g>
				</g>
			</g>
		</g>
		<g class="st0">
			<g>
				<defs>
					<rect id="SVGID_13_" x="90.4" y="182.5" width="77" height="112"/>
				</defs>
				<clipPath id="SVGID_14_">
					<use xlink:href="#SVGID_13_"  style="overflow:visible;"/>
				</clipPath>
				<g class="st11">
					<rect x="90.4" y="182.5" class="st5" width="77" height="112"/>
					<g>
						<rect x="90.4" y="182.5" class="st5" width="77" height="112"/>
						<g>
							<path class="st6" d="M163,290.8c1.2,1.4,2.7,2.4,4.4,3l0,0c0.5,0.2,1,0.3,1.6,0.5l0,0c0.2,0.1,0.4,0.1,0.6,0.1
								c0.1,0,0.1,0,0.1,0c0.1,0,0.2,0,0.4,0c0.2,0,0.5,0,0.7,0c5.8,0,10.5-4.7,10.5-10.5c0-15.4,12.5-28,28-28
								c15.4,0,28,12.6,28,28l0,0c0,4.6,2.9,8.5,7,9.9"/>
						</g>
						<g>
							<path class="st6" d="M86,290.8c1.2,1.4,2.7,2.4,4.4,3l0,0c0.5,0.2,1.1,0.3,1.6,0.5l0,0c0.2,0.1,0.4,0.1,0.6,0.1h0.1
								c0.1,0,0.2,0,0.4,0c0.2,0,0.5,0,0.7,0c5.8,0,10.5-4.7,10.5-10.5c0-15.4,12.5-28,28-28s28,12.6,28,28l0,0c0,4.6,2.9,8.5,7,9.9
								"/>
						</g>
						<g>
							<path class="st6" d="M8.9,290.8c1.2,1.4,2.7,2.4,4.4,3l0,0c0.6,0.1,1.1,0.3,1.8,0.5l0,0c0.2,0.1,0.4,0.1,0.6,0.1h0.1
								c0.1,0,0.2,0,0.4,0c0.2,0,0.5,0,0.7,0c5.8,0,10.5-4.7,10.5-10.5c0-15.4,12.5-28,28-28c15.4,0,28,12.6,28,28l0,0
								c0,4.6,2.9,8.5,7,9.9"/>
						</g>
						<g>
							<path class="st6" d="M163,178.8c1.2,1.4,2.7,2.4,4.4,3l0,0c0.5,0.2,1,0.3,1.6,0.5l0,0c0.2,0.1,0.4,0.1,0.6,0.1
								c0.1,0,0.1,0,0.1,0c0.1,0,0.2,0,0.4,0c0.2,0,0.5,0,0.7,0c5.8,0,10.5-4.7,10.5-10.5c0-15.4,12.5-28,28-28
								c15.4,0,28,12.6,28,28l0,0c0,4.6,2.9,8.5,7,9.9"/>
						</g>
						<g>
							<path class="st6" d="M86,178.8c1.2,1.4,2.7,2.4,4.4,3l0,0c0.5,0.2,1.1,0.3,1.6,0.5l0,0c0.2,0.1,0.4,0.1,0.6,0.1h0.1
								c0.1,0,0.2,0,0.4,0c0.2,0,0.5,0,0.7,0c5.8,0,10.5-4.7,10.5-10.5c0-15.4,12.5-28,28-28s28,12.6,28,28l0,0c0,4.6,2.9,8.5,7,9.9
								"/>
						</g>
						<g>
							<path class="st6" d="M9,178.8c1.2,1.4,2.7,2.4,4.4,3l0,0c0.5,0.2,1.1,0.3,1.6,0.5l0,0c0.2,0.1,0.4,0.1,0.6,0.1h0.1
								c0.1,0,0.2,0,0.4,0c0.2,0,0.5,0,0.7,0c5.8,0,10.5-4.7,10.5-10.5c0-15.4,12.5-28,28-28c15.4,0,28,12.6,28,28l0,0
								c0,4.6,2.9,8.5,7,9.9"/>
						</g>
					</g>
				</g>
			</g>
		</g>
		<g class="st0">
			<g>
				<defs>
					<rect id="SVGID_15_" x="13.4" y="-41.5" width="77" height="112"/>
				</defs>
				<clipPath id="SVGID_16_">
					<use xlink:href="#SVGID_15_"  style="overflow:visible;"/>
				</clipPath>
				<g class="st12">
					<rect x="13.4" y="-41.5" class="st5" width="77" height="112"/>
					<g>
						<rect x="13.4" y="-41.5" class="st5" width="77" height="112"/>
						<g>
							<path class="st6" d="M86,66.8c1.2,1.4,2.7,2.5,4.4,3l0,0c0.5,0.2,1,0.3,1.6,0.5l0,0c0.2,0.1,0.4,0.1,0.6,0.1
								c0.1,0,0.1,0,0.1,0c0.1,0,0.2,0,0.4,0c0.2,0,0.5,0,0.7,0c5.8,0,10.5-4.7,10.5-10.5c0-15.4,12.5-28,28-28
								c15.4,0,28,12.6,28,28l0,0c0,4.6,2.9,8.5,7,9.9"/>
						</g>
						<g>
							<path class="st6" d="M9,66.8c1.2,1.4,2.7,2.5,4.4,3l0,0c0.5,0.2,1.1,0.3,1.6,0.5l0,0c0.2,0.1,0.4,0.1,0.6,0.1h0.1
								c0.1,0,0.2,0,0.4,0c0.2,0,0.5,0,0.7,0c5.8,0,10.5-4.7,10.5-10.5c0-15.4,12.5-28,28-28s28,12.6,28,28l0,0c0,4.6,2.9,8.5,7,9.9
								"/>
						</g>
						<g>
							<path class="st6" d="M-68.1,66.8c1.2,1.4,2.7,2.5,4.4,3l0,0c0.6,0.1,1,0.3,1.8,0.5l0,0c0.2,0.1,0.3,0.1,0.6,0.1h0.1
								c0.1,0,0.2,0,0.4,0c0.2,0,0.5,0,0.7,0c5.8,0,10.5-4.7,10.5-10.5c0-15.4,12.5-28,28-28c15.4,0,28,12.6,28,28l0,0
								c0,4.6,2.9,8.5,7,9.9"/>
						</g>
						<g>
							<path class="st6" d="M86-45.2c1.2,1.4,2.7,2.5,4.4,3l0,0c0.5,0.2,1,0.4,1.6,0.5l0,0c0.2,0.1,0.4,0.1,0.6,0.1
								c0.1,0,0.1,0,0.1,0c0.1,0,0.2,0,0.4,0c0.2,0,0.5,0,0.7,0c5.8,0,10.5-4.7,10.5-10.5c0-15.4,12.5-28,28-28
								c15.4,0,28,12.6,28,28l0,0c0,4.5,2.9,8.5,7,9.9"/>
						</g>
						<g>
							<path class="st6" d="M9-45.2c1.2,1.4,2.7,2.5,4.4,3l0,0c0.5,0.2,1.1,0.4,1.6,0.5l0,0c0.2,0.1,0.4,0.1,0.6,0.1h0.1
								c0.1,0,0.2,0,0.4,0c0.2,0,0.5,0,0.7,0c5.8,0,10.5-4.7,10.5-10.5c0-15.4,12.5-28,28-28s28,12.6,28,28l0,0c0,4.5,2.9,8.5,7,9.9
								"/>
						</g>
						<g>
							<path class="st6" d="M-68-45.2c1.2,1.4,2.7,2.5,4.4,3l0,0c0.5,0.2,1,0.4,1.6,0.5l0,0c0.2,0.1,0.3,0.1,0.6,0.1h0.1
								c0.1,0,0.2,0,0.4,0c0.2,0,0.5,0,0.7,0c5.8,0,10.5-4.7,10.5-10.5c0-15.4,12.5-28,28-28c15.4,0,28,12.6,28,28l0,0
								c0,4.5,2.9,8.5,7,9.9"/>
						</g>
					</g>
				</g>
			</g>
		</g>
		<g class="st0">
			<g>
				<defs>
					<rect id="SVGID_17_" x="13.4" y="70.5" width="77" height="112"/>
				</defs>
				<clipPath id="SVGID_18_">
					<use xlink:href="#SVGID_17_"  style="overflow:visible;"/>
				</clipPath>
				<g class="st13">
					<rect x="13.4" y="70.5" class="st5" width="77" height="112"/>
					<g>
						<rect x="13.4" y="70.5" class="st5" width="77" height="112"/>
						<g>
							<path class="st6" d="M86,178.8c1.2,1.4,2.7,2.4,4.4,3l0,0c0.5,0.2,1,0.3,1.6,0.5l0,0c0.2,0.1,0.4,0.1,0.6,0.1
								c0.1,0,0.1,0,0.1,0c0.1,0,0.2,0,0.4,0c0.2,0,0.5,0,0.7,0c5.8,0,10.5-4.7,10.5-10.5c0-15.4,12.5-28,28-28
								c15.4,0,28,12.6,28,28l0,0c0,4.6,2.9,8.5,7,9.9"/>
						</g>
						<g>
							<path class="st6" d="M9,178.8c1.2,1.4,2.7,2.4,4.4,3l0,0c0.5,0.2,1.1,0.3,1.6,0.5l0,0c0.2,0.1,0.4,0.1,0.6,0.1h0.1
								c0.1,0,0.2,0,0.4,0c0.2,0,0.5,0,0.7,0c5.8,0,10.5-4.7,10.5-10.5c0-15.4,12.5-28,28-28s28,12.6,28,28l0,0c0,4.6,2.9,8.5,7,9.9
								"/>
						</g>
						<g>
							<path class="st6" d="M-68.1,178.8c1.2,1.4,2.7,2.4,4.4,3l0,0c0.6,0.1,1,0.3,1.8,0.5l0,0c0.2,0.1,0.3,0.1,0.6,0.1h0.1
								c0.1,0,0.2,0,0.4,0c0.2,0,0.5,0,0.7,0c5.8,0,10.5-4.7,10.5-10.5c0-15.4,12.5-28,28-28c15.4,0,28,12.6,28,28l0,0
								c0,4.6,2.9,8.5,7,9.9"/>
						</g>
						<g>
							<path class="st6" d="M86,66.8c1.2,1.4,2.7,2.5,4.4,3l0,0c0.5,0.2,1,0.4,1.6,0.5l0,0c0.2,0.1,0.4,0.1,0.6,0.1
								c0.1,0,0.1,0,0.1,0c0.1,0,0.2,0,0.4,0c0.2,0,0.5,0,0.7,0c5.8,0,10.5-4.7,10.5-10.5c0-15.4,12.5-28,28-28
								c15.4,0,28,12.6,28,28l0,0c0,4.6,2.9,8.5,7,9.9"/>
						</g>
						<g>
							<path class="st6" d="M9,66.8c1.2,1.4,2.7,2.5,4.4,3l0,0c0.5,0.2,1.1,0.4,1.6,0.5l0,0c0.2,0.1,0.4,0.1,0.6,0.1h0.1
								c0.1,0,0.2,0,0.4,0c0.2,0,0.5,0,0.7,0c5.8,0,10.5-4.7,10.5-10.5c0-15.4,12.5-28,28-28s28,12.6,28,28l0,0c0,4.6,2.9,8.5,7,9.9
								"/>
						</g>
						<g>
							<path class="st6" d="M-68,66.8c1.2,1.4,2.7,2.5,4.4,3l0,0c0.5,0.2,1,0.4,1.6,0.5l0,0c0.2,0.1,0.3,0.1,0.6,0.1h0.1
								c0.1,0,0.2,0,0.4,0c0.2,0,0.5,0,0.7,0c5.8,0,10.5-4.7,10.5-10.5c0-15.4,12.5-28,28-28c15.4,0,28,12.6,28,28l0,0
								c0,4.6,2.9,8.5,7,9.9"/>
						</g>
					</g>
				</g>
			</g>
		</g>
		<g class="st0">
			<g>
				<defs>
					<rect id="SVGID_19_" x="13.4" y="182.5" width="77" height="112"/>
				</defs>
				<clipPath id="SVGID_20_">
					<use xlink:href="#SVGID_19_"  style="overflow:visible;"/>
				</clipPath>
				<g class="st14">
					<rect x="13.4" y="182.5" class="st5" width="77" height="112"/>
					<g>
						<rect x="13.4" y="182.5" class="st5" width="77" height="112"/>
						<g>
							<path class="st6" d="M86,290.8c1.2,1.4,2.7,2.4,4.4,3l0,0c0.5,0.2,1,0.3,1.6,0.5l0,0c0.2,0.1,0.4,0.1,0.6,0.1
								c0.1,0,0.1,0,0.1,0c0.1,0,0.2,0,0.4,0c0.2,0,0.5,0,0.7,0c5.8,0,10.5-4.7,10.5-10.5c0-15.4,12.5-28,28-28
								c15.4,0,28,12.6,28,28l0,0c0,4.6,2.9,8.5,7,9.9"/>
						</g>
						<g>
							<g>
								<rect x="13.4" y="182.5" class="st2" width="14" height="112"/>
							</g>
							<path class="st6" d="M9,290.8c1.2,1.4,2.7,2.4,4.4,3l0,0c0.5,0.2,1.1,0.3,1.6,0.5l0,0c0.2,0.1,0.4,0.1,0.6,0.1h0.1
								c0.1,0,0.2,0,0.4,0c0.2,0,0.5,0,0.7,0c5.8,0,10.5-4.7,10.5-10.5c0-15.4,12.5-28,28-28s28,12.6,28,28l0,0c0,4.6,2.9,8.5,7,9.9
								"/>
						</g>
						<g>
							<path class="st6" d="M-68.1,290.8c1.2,1.4,2.7,2.4,4.4,3l0,0c0.6,0.1,1,0.3,1.8,0.5l0,0c0.2,0.1,0.3,0.1,0.6,0.1h0.1
								c0.1,0,0.2,0,0.4,0c0.2,0,0.5,0,0.7,0c5.8,0,10.5-4.7,10.5-10.5c0-15.4,12.5-28,28-28c15.4,0,28,12.6,28,28l0,0
								c0,4.6,2.9,8.5,7,9.9"/>
						</g>
						<g>
							<path class="st6" d="M86,178.8c1.2,1.4,2.7,2.4,4.4,3l0,0c0.5,0.2,1,0.3,1.6,0.5l0,0c0.2,0.1,0.4,0.1,0.6,0.1
								c0.1,0,0.1,0,0.1,0c0.1,0,0.2,0,0.4,0c0.2,0,0.5,0,0.7,0c5.8,0,10.5-4.7,10.5-10.5c0-15.4,12.5-28,28-28
								c15.4,0,28,12.6,28,28l0,0c0,4.6,2.9,8.5,7,9.9"/>
						</g>
						<g>
							<path class="st6" d="M9,178.8c1.2,1.4,2.7,2.4,4.4,3l0,0c0.5,0.2,1.1,0.3,1.6,0.5l0,0c0.2,0.1,0.4,0.1,0.6,0.1h0.1
								c0.1,0,0.2,0,0.4,0c0.2,0,0.5,0,0.7,0c5.8,0,10.5-4.7,10.5-10.5c0-15.4,12.5-28,28-28s28,12.6,28,28l0,0c0,4.6,2.9,8.5,7,9.9
								"/>
						</g>
						<g>
							<path class="st6" d="M-68,178.8c1.2,1.4,2.7,2.4,4.4,3l0,0c0.5,0.2,1,0.3,1.6,0.5l0,0c0.2,0.1,0.3,0.1,0.6,0.1h0.1
								c0.1,0,0.2,0,0.4,0c0.2,0,0.5,0,0.7,0c5.8,0,10.5-4.7,10.5-10.5c0-15.4,12.5-28,28-28c15.4,0,28,12.6,28,28l0,0
								c0,4.6,2.9,8.5,7,9.9"/>
						</g>
					</g>
				</g>
			</g>
		</g>
		<g class="st0">
			<g>
				<defs>
					<rect id="SVGID_21_" x="-63.6" y="-41.5" width="77" height="112"/>
				</defs>
				<clipPath id="SVGID_22_">
					<use xlink:href="#SVGID_21_"  style="overflow:visible;"/>
				</clipPath>
				<g class="st15">
					<rect x="-63.6" y="-41.5" class="st5" width="77" height="112"/>
					<g>
						<rect x="-63.6" y="-41.5" class="st5" width="77" height="112"/>
						<g>
							<path class="st6" d="M9,66.8c1.2,1.4,2.7,2.5,4.4,3l0,0c0.5,0.2,1,0.3,1.6,0.5l0,0c0.2,0.1,0.4,0.1,0.6,0.1
								c0.1,0,0.1,0,0.1,0c0.1,0,0.2,0,0.4,0c0.2,0,0.5,0,0.7,0c5.8,0,10.5-4.7,10.5-10.5c0-15.4,12.5-28,28-28
								c15.4,0,28,12.6,28,28l0,0c0,4.6,2.9,8.5,7,9.9"/>
						</g>
						<g>
							<g>
								<rect x="-63.6" y="-41.5" class="st2" width="14" height="112"/>
							</g>
							<path class="st6" d="M-68,66.8c1.2,1.4,2.7,2.5,4.4,3l0,0c0.5,0.2,1,0.3,1.6,0.5l0,0c0.2,0.1,0.4,0.1,0.6,0.1h0.1
								c0.1,0,0.2,0,0.4,0c0.2,0,0.5,0,0.7,0c5.8,0,10.5-4.7,10.5-10.5c0-15.4,12.5-28,28-28s28,12.6,28,28l0,0c0,4.6,2.9,8.5,7,9.9
								"/>
						</g>
						<g>
							<path class="st6" d="M-145.1,66.8c1.2,1.4,2.7,2.5,4.4,3l0,0c0.6,0.1,1,0.3,1.8,0.5l0,0c0.2,0.1,0.3,0.1,0.6,0.1h0.1
								c0.1,0,0.2,0,0.3,0c0.2,0,0.5,0,0.7,0c5.8,0,10.5-4.7,10.5-10.5c0-15.4,12.5-28,28-28c15.4,0,28,12.6,28,28l0,0
								c0,4.6,2.9,8.5,7,9.9"/>
						</g>
						<g>
							<path class="st6" d="M9-45.2c1.2,1.4,2.7,2.5,4.4,3l0,0c0.5,0.2,1,0.4,1.6,0.5l0,0c0.2,0.1,0.4,0.1,0.6,0.1
								c0.1,0,0.1,0,0.1,0c0.1,0,0.2,0,0.4,0c0.2,0,0.5,0,0.7,0c5.8,0,10.5-4.7,10.5-10.5c0-15.4,12.5-28,28-28
								c15.4,0,28,12.6,28,28l0,0c0,4.5,2.9,8.5,7,9.9"/>
						</g>
						<g>
							<path class="st6" d="M-68-45.2c1.2,1.4,2.7,2.5,4.4,3l0,0c0.5,0.2,1,0.4,1.6,0.5l0,0c0.2,0.1,0.4,0.1,0.6,0.1h0.1
								c0.1,0,0.2,0,0.4,0c0.2,0,0.5,0,0.7,0c5.8,0,10.5-4.7,10.5-10.5c0-15.4,12.5-28,28-28s28,12.6,28,28l0,0c0,4.5,2.9,8.5,7,9.9
								"/>
						</g>
						<g>
							<path class="st6" d="M-145-45.2c1.2,1.4,2.7,2.5,4.4,3l0,0c0.5,0.2,1,0.4,1.6,0.5l0,0c0.2,0.1,0.3,0.1,0.6,0.1h0.1
								c0.1,0,0.2,0,0.3,0c0.2,0,0.5,0,0.7,0c5.8,0,10.5-4.7,10.5-10.5c0-15.4,12.5-28,28-28c15.4,0,28,12.6,28,28l0,0
								c0,4.5,2.9,8.5,7,9.9"/>
						</g>
					</g>
				</g>
			</g>
		</g>
		<g class="st0">
			<g>
				<defs>
					<rect id="SVGID_23_" x="-63.6" y="70.5" width="77" height="112"/>
				</defs>
				<clipPath id="SVGID_24_">
					<use xlink:href="#SVGID_23_"  style="overflow:visible;"/>
				</clipPath>
				<g class="st16">
					<rect x="-63.6" y="70.5" class="st5" width="77" height="112"/>
					<g>
						<rect x="-63.6" y="70.5" class="st5" width="77" height="112"/>
						<g>
							<path class="st6" d="M9,178.8c1.2,1.4,2.7,2.4,4.4,3l0,0c0.5,0.2,1,0.3,1.6,0.5l0,0c0.2,0.1,0.4,0.1,0.6,0.1
								c0.1,0,0.1,0,0.1,0c0.1,0,0.2,0,0.4,0c0.2,0,0.5,0,0.7,0c5.8,0,10.5-4.7,10.5-10.5c0-15.4,12.5-28,28-28
								c15.4,0,28,12.6,28,28l0,0c0,4.6,2.9,8.5,7,9.9"/>
						</g>
						<g>
							<g>
								<rect x="-63.6" y="70.5" class="st2" width="14" height="112"/>
							</g>
							<path class="st6" d="M-68,178.8c1.2,1.4,2.7,2.4,4.4,3l0,0c0.5,0.2,1,0.3,1.6,0.5l0,0c0.2,0.1,0.4,0.1,0.6,0.1h0.1
								c0.1,0,0.2,0,0.4,0c0.2,0,0.5,0,0.7,0c5.8,0,10.5-4.7,10.5-10.5c0-15.4,12.5-28,28-28s28,12.6,28,28l0,0c0,4.6,2.9,8.5,7,9.9
								"/>
						</g>
						<g>
							<path class="st6" d="M-145.1,178.8c1.2,1.4,2.7,2.4,4.4,3l0,0c0.6,0.1,1,0.3,1.8,0.5l0,0c0.2,0.1,0.3,0.1,0.6,0.1h0.1
								c0.1,0,0.2,0,0.3,0c0.2,0,0.5,0,0.7,0c5.8,0,10.5-4.7,10.5-10.5c0-15.4,12.5-28,28-28c15.4,0,28,12.6,28,28l0,0
								c0,4.6,2.9,8.5,7,9.9"/>
						</g>
						<g>
							<path class="st6" d="M9,66.8c1.2,1.4,2.7,2.5,4.4,3l0,0c0.5,0.2,1,0.4,1.6,0.5l0,0c0.2,0.1,0.4,0.1,0.6,0.1
								c0.1,0,0.1,0,0.1,0c0.1,0,0.2,0,0.4,0c0.2,0,0.5,0,0.7,0c5.8,0,10.5-4.7,10.5-10.5c0-15.4,12.5-28,28-28
								c15.4,0,28,12.6,28,28l0,0c0,4.6,2.9,8.5,7,9.9"/>
						</g>
						<g>
							<path class="st6" d="M-68,66.8c1.2,1.4,2.7,2.5,4.4,3l0,0c0.5,0.2,1,0.4,1.6,0.5l0,0c0.2,0.1,0.4,0.1,0.6,0.1h0.1
								c0.1,0,0.2,0,0.4,0c0.2,0,0.5,0,0.7,0c5.8,0,10.5-4.7,10.5-10.5c0-15.4,12.5-28,28-28s28,12.6,28,28l0,0c0,4.6,2.9,8.5,7,9.9
								"/>
						</g>
						<g>
							<path class="st6" d="M-145,66.8c1.2,1.4,2.7,2.5,4.4,3l0,0c0.5,0.2,1,0.4,1.6,0.5l0,0c0.2,0.1,0.3,0.1,0.6,0.1h0.1
								c0.1,0,0.2,0,0.3,0c0.2,0,0.5,0,0.7,0c5.8,0,10.5-4.7,10.5-10.5c0-15.4,12.5-28,28-28c15.4,0,28,12.6,28,28l0,0
								c0,4.6,2.9,8.5,7,9.9"/>
						</g>
					</g>
				</g>
			</g>
		</g>
		<g class="st0">
			<g>
				<defs>
					<rect id="SVGID_25_" x="-63.6" y="182.5" width="77" height="112"/>
				</defs>
				<clipPath id="SVGID_26_">
					<use xlink:href="#SVGID_25_"  style="overflow:visible;"/>
				</clipPath>
				<g class="st17">
					<rect x="-63.6" y="182.5" class="st5" width="77" height="112"/>
					<g>
						<rect x="-63.6" y="182.5" class="st5" width="77" height="112"/>
						<g>
							<path class="st6" d="M9,290.8c1.2,1.4,2.7,2.4,4.4,3l0,0c0.5,0.2,1,0.3,1.6,0.5l0,0c0.2,0.1,0.4,0.1,0.6,0.1
								c0.1,0,0.1,0,0.1,0c0.1,0,0.2,0,0.4,0c0.2,0,0.5,0,0.7,0c5.8,0,10.5-4.7,10.5-10.5c0-15.4,12.5-28,28-28
								c15.4,0,28,12.6,28,28l0,0c0,4.6,2.9,8.5,7,9.9"/>
						</g>
						<g>
							<g>
								<rect x="-49.6" y="182.5" class="st1" width="56" height="112"/>
								<rect x="6.4" y="182.5" class="st3" width="7" height="112"/>
								<rect x="-63.6" y="182.5" class="st2" width="14" height="112"/>
							</g>
							<path class="st6" d="M-68,290.8c1.2,1.4,2.7,2.4,4.4,3l0,0c0.5,0.2,1,0.3,1.6,0.5l0,0c0.2,0.1,0.4,0.1,0.6,0.1h0.1
								c0.1,0,0.2,0,0.4,0c0.2,0,0.5,0,0.7,0c5.8,0,10.5-4.7,10.5-10.5c0-15.4,12.5-28,28-28s28,12.6,28,28l0,0c0,4.6,2.9,8.5,7,9.9
								"/>
						</g>
						<g>
							<path class="st6" d="M-145.1,290.8c1.2,1.4,2.7,2.4,4.4,3l0,0c0.6,0.1,1,0.3,1.8,0.5l0,0c0.2,0.1,0.3,0.1,0.6,0.1h0.1
								c0.1,0,0.2,0,0.3,0c0.2,0,0.5,0,0.7,0c5.8,0,10.5-4.7,10.5-10.5c0-15.4,12.5-28,28-28c15.4,0,28,12.6,28,28l0,0
								c0,4.6,2.9,8.5,7,9.9"/>
						</g>
						<g>
							<path class="st6" d="M9,178.8c1.2,1.4,2.7,2.4,4.4,3l0,0c0.5,0.2,1,0.3,1.6,0.5l0,0c0.2,0.1,0.4,0.1,0.6,0.1
								c0.1,0,0.1,0,0.1,0c0.1,0,0.2,0,0.4,0c0.2,0,0.5,0,0.7,0c5.8,0,10.5-4.7,10.5-10.5c0-15.4,12.5-28,28-28
								c15.4,0,28,12.6,28,28l0,0c0,4.6,2.9,8.5,7,9.9"/>
						</g>
						<g>
							<path class="st6" d="M-68,178.8c1.2,1.4,2.7,2.4,4.4,3l0,0c0.5,0.2,1,0.3,1.6,0.5l0,0c0.2,0.1,0.4,0.1,0.6,0.1h0.1
								c0.1,0,0.2,0,0.4,0c0.2,0,0.5,0,0.7,0c5.8,0,10.5-4.7,10.5-10.5c0-15.4,12.5-28,28-28s28,12.6,28,28l0,0c0,4.6,2.9,8.5,7,9.9
								"/>
						</g>
						<g>
							<path class="st6" d="M-145,178.8c1.2,1.4,2.7,2.4,4.4,3l0,0c0.5,0.2,1,0.3,1.6,0.5l0,0c0.2,0.1,0.3,0.1,0.6,0.1h0.1
								c0.1,0,0.2,0,0.3,0c0.2,0,0.5,0,0.7,0c5.8,0,10.5-4.7,10.5-10.5c0-15.4,12.5-28,28-28c15.4,0,28,12.6,28,28l0,0
								c0,4.6,2.9,8.5,7,9.9"/>
						</g>
					</g>
				</g>
			</g>
		</g>
	</g>
</g>
</svg>
