<?xml version="1.0" encoding="utf-8"?>
<!-- Generator: Adobe Illustrator 24.1.3, SVG Export Plug-In . SVG Version: 6.00 Build 0)  -->
<svg version="1.1" id="Layer_1" xmlns="http://www.w3.org/2000/svg" xmlns:xlink="http://www.w3.org/1999/xlink" x="0px" y="0px"
	 viewBox="0 0 210 210" style="enable-background:new 0 0 210 210;" xml:space="preserve">
<style type="text/css">
	.st0{clip-path:url(#SVGID_2_);}
	.st1{fill:#B2B2B2;}
	.st2{fill:#E6E6E6;}
	.st3{fill:#CCCCCC;}
	.st4{fill:none;stroke:#999999;stroke-width:3.5001;stroke-miterlimit:10;}
</style>
<g>
	<defs>
		<circle id="SVGID_1_" cx="105" cy="105" r="105"/>
	</defs>
	<clipPath id="SVGID_2_">
		<use xlink:href="#SVGID_1_"  style="overflow:visible;"/>
	</clipPath>
	<g class="st0">
		<g>
			<g>
				<g>
					<g>
						<g>
							<g>
								<g>
									<g>
										<g>
											<rect x="237.4" y="-41.5" class="st1" width="7" height="335.9"/>
										</g>
									</g>
								</g>
							</g>
						</g>
					</g>
				</g>
			</g>
			<g>
				<g>
					<g>
						<g>
							<g>
								<g>
									<g>
										<g>
											<rect x="160.4" y="-41.5" class="st1" width="7" height="335.9"/>
										</g>
									</g>
								</g>
							</g>
						</g>
					</g>
				</g>
			</g>
			<g>
				<g>
					<g>
						<g>
							<g>
								<g>
									<g>
										<g>
											<rect x="83.4" y="-41.5" class="st1" width="7" height="335.9"/>
										</g>
									</g>
								</g>
							</g>
						</g>
					</g>
				</g>
			</g>
			<g>
				<g>
					<g>
						<g>
							<g>
								<g>
									<g>
										<g>
											<rect x="6.4" y="-41.5" class="st1" width="7" height="335.9"/>
										</g>
									</g>
								</g>
							</g>
						</g>
					</g>
				</g>
			</g>
		</g>
		<g>
			<rect x="181.4" y="-41.5" class="st2" width="56" height="335.9"/>
			<rect x="104.4" y="-41.5" class="st2" width="56" height="335.9"/>
			<rect x="27.4" y="-41.5" class="st2" width="56" height="335.9"/>
			<rect x="-49.6" y="-41.5" class="st2" width="56" height="335.9"/>
		</g>
		<g>
			<rect x="167.4" y="-41.5" class="st3" width="14" height="335.9"/>
			<rect x="90.4" y="-41.5" class="st3" width="14" height="335.9"/>
			<rect x="13.4" y="-41.5" class="st3" width="14" height="335.9"/>
			<rect x="-63.6" y="-41.5" class="st3" width="14" height="335.9"/>
		</g>
		<g>
			<g>
				<path class="st4" d="M240-45.2c1.2,1.4,2.7,2.5,4.4,3l0,0c0.5,0.2,1,0.4,1.6,0.5l0,0c0.2,0.1,0.4,0.1,0.6,0.1c0.1,0,0.1,0,0.1,0
					c0.1,0,0.2,0,0.4,0s0.5,0,0.7,0c5.8,0,10.5-4.7,10.5-10.5c0-15.4,12.5-28,28-28c15.4,0,28,12.6,28,28l0,0c0,4.5,2.9,8.5,7,9.9"
					/>
			</g>
			<g>
				<path class="st4" d="M163-45.2c1.2,1.4,2.7,2.5,4.4,3l0,0c0.5,0.2,1.1,0.4,1.6,0.5l0,0c0.2,0.1,0.3,0.1,0.6,0.1h0.1
					c0.1,0,0.2,0,0.4,0s0.5,0,0.7,0c5.8,0,10.5-4.7,10.5-10.5c0-15.4,12.5-28,28-28s28,12.6,28,28l0,0c0,4.5,2.9,8.5,7,9.9"/>
			</g>
			<g>
				<path class="st4" d="M86-45.2c1.2,1.4,2.7,2.5,4.4,3l0,0c0.5,0.2,1.1,0.4,1.6,0.5l0,0c0.2,0.1,0.4,0.1,0.6,0.1h0.1
					c0.1,0,0.2,0,0.3,0c0.2,0,0.5,0,0.7,0c5.8,0,10.5-4.7,10.5-10.5c0-15.4,12.5-28,28-28c15.4,0,28,12.6,28,28l0,0
					c0,4.5,2.9,8.5,7,9.9"/>
			</g>
			<g>
				<path class="st4" d="M240,66.8c1.2,1.4,2.7,2.5,4.4,3l0,0c0.5,0.2,1,0.4,1.6,0.5l0,0c0.2,0.1,0.4,0.1,0.6,0.1c0.1,0,0.1,0,0.1,0
					c0.1,0,0.2,0,0.4,0s0.5,0,0.7,0c5.8,0,10.5-4.7,10.5-10.5c0-15.4,12.5-28,28-28c15.4,0,28,12.6,28,28l0,0c0,4.6,2.9,8.5,7,9.9"
					/>
			</g>
			<g>
				<path class="st4" d="M240,290.8c1.2,1.4,2.7,2.4,4.4,3l0,0c0.5,0.2,1,0.3,1.6,0.5l0,0c0.2,0.1,0.4,0.1,0.6,0.1
					c0.1,0,0.1,0,0.1,0c0.1,0,0.2,0,0.4,0s0.5,0,0.7,0c5.8,0,10.5-4.7,10.5-10.5c0-15.4,12.5-28,28-28c15.4,0,28,12.6,28,28l0,0
					c0,4.6,2.9,8.5,7,9.9"/>
			</g>
			<g>
				<path class="st4" d="M240,178.8c1.2,1.4,2.7,2.4,4.4,3l0,0c0.5,0.2,1,0.3,1.6,0.5l0,0c0.2,0.1,0.4,0.1,0.6,0.1
					c0.1,0,0.1,0,0.1,0c0.1,0,0.2,0,0.4,0s0.5,0,0.7,0c5.8,0,10.5-4.7,10.5-10.5c0-15.4,12.5-28,28-28c15.4,0,28,12.6,28,28l0,0
					c0,4.6,2.9,8.5,7,9.9"/>
			</g>
			<g>
				<path class="st4" d="M163-45.2c1.2,1.4,2.7,2.5,4.4,3l0,0c0.5,0.2,1,0.4,1.6,0.5l0,0c0.2,0.1,0.4,0.1,0.6,0.1c0.1,0,0.1,0,0.1,0
					c0.1,0,0.2,0,0.4,0s0.5,0,0.7,0c5.8,0,10.5-4.7,10.5-10.5c0-15.4,12.5-28,28-28c15.4,0,28,12.6,28,28l0,0c0,4.5,2.9,8.5,7,9.9"
					/>
			</g>
			<g>
				<path class="st4" d="M86-45.2c1.2,1.4,2.7,2.5,4.4,3l0,0c0.5,0.2,1.1,0.4,1.6,0.5l0,0c0.2,0.1,0.4,0.1,0.6,0.1h0.1
					c0.1,0,0.2,0,0.4,0c0.2,0,0.5,0,0.7,0c5.8,0,10.5-4.7,10.5-10.5c0-15.4,12.5-28,28-28s28,12.6,28,28l0,0c0,4.5,2.9,8.5,7,9.9"/>
			</g>
			<g>
				<path class="st4" d="M9-45.2c1.2,1.4,2.7,2.5,4.4,3l0,0c0.5,0.2,1.1,0.4,1.6,0.5l0,0c0.2,0.1,0.4,0.1,0.6,0.1h0.1
					c0.1,0,0.2,0,0.4,0c0.2,0,0.5,0,0.7,0c5.8,0,10.5-4.7,10.5-10.5c0-15.4,12.5-28,28-28c15.4,0,28,12.6,28,28l0,0
					c0,4.5,2.9,8.5,7,9.9"/>
			</g>
			<g>
				<path class="st4" d="M163,66.8c1.2,1.4,2.7,2.5,4.4,3l0,0c0.5,0.2,1,0.4,1.6,0.5l0,0c0.2,0.1,0.4,0.1,0.6,0.1c0.1,0,0.1,0,0.1,0
					c0.1,0,0.2,0,0.4,0s0.5,0,0.7,0c5.8,0,10.5-4.7,10.5-10.5c0-15.4,12.5-28,28-28c15.4,0,28,12.6,28,28l0,0c0,4.6,2.9,8.5,7,9.9"
					/>
			</g>
			<g>
				<path class="st4" d="M163,290.8c1.2,1.4,2.7,2.4,4.4,3l0,0c0.5,0.2,1,0.3,1.6,0.5l0,0c0.2,0.1,0.4,0.1,0.6,0.1
					c0.1,0,0.1,0,0.1,0c0.1,0,0.2,0,0.4,0s0.5,0,0.7,0c5.8,0,10.5-4.7,10.5-10.5c0-15.4,12.5-28,28-28c15.4,0,28,12.6,28,28l0,0
					c0,4.6,2.9,8.5,7,9.9"/>
			</g>
			<g>
				<path class="st4" d="M163,178.8c1.2,1.4,2.7,2.4,4.4,3l0,0c0.5,0.2,1,0.3,1.6,0.5l0,0c0.2,0.1,0.4,0.1,0.6,0.1
					c0.1,0,0.1,0,0.1,0c0.1,0,0.2,0,0.4,0s0.5,0,0.7,0c5.8,0,10.5-4.7,10.5-10.5c0-15.4,12.5-28,28-28c15.4,0,28,12.6,28,28l0,0
					c0,4.6,2.9,8.5,7,9.9"/>
			</g>
			<g>
				<path class="st4" d="M86-45.2c1.2,1.4,2.7,2.5,4.4,3l0,0c0.5,0.2,1,0.4,1.6,0.5l0,0c0.2,0.1,0.4,0.1,0.6,0.1c0.1,0,0.1,0,0.1,0
					c0.1,0,0.2,0,0.4,0c0.2,0,0.5,0,0.7,0c5.8,0,10.5-4.7,10.5-10.5c0-15.4,12.5-28,28-28c15.4,0,28,12.6,28,28l0,0
					c0,4.5,2.9,8.5,7,9.9"/>
			</g>
			<g>
				<path class="st4" d="M9-45.2c1.2,1.4,2.7,2.5,4.4,3l0,0c0.5,0.2,1.1,0.4,1.6,0.5l0,0c0.2,0.1,0.4,0.1,0.6,0.1h0.1
					c0.1,0,0.2,0,0.4,0c0.2,0,0.5,0,0.7,0c5.8,0,10.5-4.7,10.5-10.5c0-15.4,12.5-28,28-28s28,12.6,28,28l0,0c0,4.5,2.9,8.5,7,9.9"/>
			</g>
			<g>
				<path class="st4" d="M-68-45.2c1.2,1.4,2.7,2.5,4.4,3l0,0c0.5,0.2,1,0.4,1.6,0.5l0,0c0.2,0.1,0.3,0.1,0.6,0.1h0.1
					c0.1,0,0.2,0,0.4,0s0.5,0,0.7,0c5.8,0,10.5-4.7,10.5-10.5c0-15.4,12.5-28,28-28c15.4,0,28,12.6,28,28l0,0c0,4.5,2.9,8.5,7,9.9"
					/>
			</g>
			<g>
				<path class="st4" d="M86,66.8c1.2,1.4,2.7,2.5,4.4,3l0,0c0.5,0.2,1,0.4,1.6,0.5l0,0c0.2,0.1,0.4,0.1,0.6,0.1c0.1,0,0.1,0,0.1,0
					c0.1,0,0.2,0,0.4,0c0.2,0,0.5,0,0.7,0c5.8,0,10.5-4.7,10.5-10.5c0-15.4,12.5-28,28-28c15.4,0,28,12.6,28,28l0,0
					c0,4.6,2.9,8.5,7,9.9"/>
			</g>
			<g>
				<path class="st4" d="M86,290.8c1.2,1.4,2.7,2.4,4.4,3l0,0c0.5,0.2,1,0.3,1.6,0.5l0,0c0.2,0.1,0.4,0.1,0.6,0.1c0.1,0,0.1,0,0.1,0
					c0.1,0,0.2,0,0.4,0c0.2,0,0.5,0,0.7,0c5.8,0,10.5-4.7,10.5-10.5c0-15.4,12.5-28,28-28c15.4,0,28,12.6,28,28l0,0
					c0,4.6,2.9,8.5,7,9.9"/>
			</g>
			<g>
				<path class="st4" d="M86,178.8c1.2,1.4,2.7,2.4,4.4,3l0,0c0.5,0.2,1,0.3,1.6,0.5l0,0c0.2,0.1,0.4,0.1,0.6,0.1c0.1,0,0.1,0,0.1,0
					c0.1,0,0.2,0,0.4,0c0.2,0,0.5,0,0.7,0c5.8,0,10.5-4.7,10.5-10.5c0-15.4,12.5-28,28-28c15.4,0,28,12.6,28,28l0,0
					c0,4.6,2.9,8.5,7,9.9"/>
			</g>
			<g>
				<path class="st4" d="M9-45.2c1.2,1.4,2.7,2.5,4.4,3l0,0c0.5,0.2,1,0.4,1.6,0.5l0,0c0.2,0.1,0.4,0.1,0.6,0.1c0.1,0,0.1,0,0.1,0
					c0.1,0,0.2,0,0.4,0c0.2,0,0.5,0,0.7,0c5.8,0,10.5-4.7,10.5-10.5c0-15.4,12.5-28,28-28c15.4,0,28,12.6,28,28l0,0
					c0,4.5,2.9,8.5,7,9.9"/>
			</g>
			<g>
				<path class="st4" d="M-68-45.2c1.2,1.4,2.7,2.5,4.4,3l0,0c0.5,0.2,1,0.4,1.6,0.5l0,0c0.2,0.1,0.4,0.1,0.6,0.1h0.1
					c0.1,0,0.2,0,0.4,0s0.5,0,0.7,0c5.8,0,10.5-4.7,10.5-10.5c0-15.4,12.5-28,28-28s28,12.6,28,28l0,0c0,4.5,2.9,8.5,7,9.9"/>
			</g>
			<g>
				<path class="st4" d="M-145-45.2c1.2,1.4,2.7,2.5,4.4,3l0,0c0.5,0.2,1,0.4,1.6,0.5l0,0c0.2,0.1,0.3,0.1,0.6,0.1h0.1
					c0.1,0,0.2,0,0.3,0c0.2,0,0.5,0,0.7,0c5.8,0,10.5-4.7,10.5-10.5c0-15.4,12.5-28,28-28c15.4,0,28,12.6,28,28l0,0
					c0,4.5,2.9,8.5,7,9.9"/>
			</g>
			<g>
				<path class="st4" d="M9,66.8c1.2,1.4,2.7,2.5,4.4,3l0,0c0.5,0.2,1,0.4,1.6,0.5l0,0c0.2,0.1,0.4,0.1,0.6,0.1c0.1,0,0.1,0,0.1,0
					c0.1,0,0.2,0,0.4,0c0.2,0,0.5,0,0.7,0c5.8,0,10.5-4.7,10.5-10.5c0-15.4,12.5-28,28-28c15.4,0,28,12.6,28,28l0,0
					c0,4.6,2.9,8.5,7,9.9"/>
			</g>
			<g>
				<path class="st4" d="M-68,66.8c1.2,1.4,2.7,2.5,4.4,3l0,0c0.5,0.2,1,0.4,1.6,0.5l0,0c0.2,0.1,0.4,0.1,0.6,0.1h0.1
					c0.1,0,0.2,0,0.4,0s0.5,0,0.7,0c5.8,0,10.5-4.7,10.5-10.5c0-15.4,12.5-28,28-28s28,12.6,28,28l0,0c0,4.6,2.9,8.5,7,9.9"/>
			</g>
			<g>
				<path class="st4" d="M-145,66.8c1.2,1.4,2.7,2.5,4.4,3l0,0c0.5,0.2,1,0.4,1.6,0.5l0,0c0.2,0.1,0.3,0.1,0.6,0.1h0.1
					c0.1,0,0.2,0,0.3,0c0.2,0,0.5,0,0.7,0c5.8,0,10.5-4.7,10.5-10.5c0-15.4,12.5-28,28-28c15.4,0,28,12.6,28,28l0,0
					c0,4.6,2.9,8.5,7,9.9"/>
			</g>
			<g>
				<path class="st4" d="M9,290.8c1.2,1.4,2.7,2.4,4.4,3l0,0c0.5,0.2,1,0.3,1.6,0.5l0,0c0.2,0.1,0.4,0.1,0.6,0.1c0.1,0,0.1,0,0.1,0
					c0.1,0,0.2,0,0.4,0c0.2,0,0.5,0,0.7,0c5.8,0,10.5-4.7,10.5-10.5c0-15.4,12.5-28,28-28c15.4,0,28,12.6,28,28l0,0
					c0,4.6,2.9,8.5,7,9.9"/>
			</g>
			<path class="st4" d="M-68,290.8c1.2,1.4,2.7,2.4,4.4,3l0,0c0.5,0.2,1,0.3,1.6,0.5l0,0c0.2,0.1,0.4,0.1,0.6,0.1h0.1
				c0.1,0,0.2,0,0.4,0s0.5,0,0.7,0c5.8,0,10.5-4.7,10.5-10.5c0-15.4,12.5-28,28-28s28,12.6,28,28l0,0c0,4.6,2.9,8.5,7,9.9"/>
			<g>
				<path class="st4" d="M-145.1,290.8c1.2,1.4,2.7,2.4,4.4,3l0,0c0.6,0.1,1,0.3,1.8,0.5l0,0c0.2,0.1,0.3,0.1,0.6,0.1h0.1
					c0.1,0,0.2,0,0.3,0c0.2,0,0.5,0,0.7,0c5.8,0,10.5-4.7,10.5-10.5c0-15.4,12.5-28,28-28c15.4,0,28,12.6,28,28l0,0
					c0,4.6,2.9,8.5,7,9.9"/>
			</g>
			<g>
				<path class="st4" d="M9,178.8c1.2,1.4,2.7,2.4,4.4,3l0,0c0.5,0.2,1,0.3,1.6,0.5l0,0c0.2,0.1,0.4,0.1,0.6,0.1c0.1,0,0.1,0,0.1,0
					c0.1,0,0.2,0,0.4,0c0.2,0,0.5,0,0.7,0c5.8,0,10.5-4.7,10.5-10.5c0-15.4,12.5-28,28-28c15.4,0,28,12.6,28,28l0,0
					c0,4.6,2.9,8.5,7,9.9"/>
			</g>
			<g>
				<path class="st4" d="M-68,178.8c1.2,1.4,2.7,2.4,4.4,3l0,0c0.5,0.2,1,0.3,1.6,0.5l0,0c0.2,0.1,0.4,0.1,0.6,0.1h0.1
					c0.1,0,0.2,0,0.4,0s0.5,0,0.7,0c5.8,0,10.5-4.7,10.5-10.5c0-15.4,12.5-28,28-28s28,12.6,28,28l0,0c0,4.6,2.9,8.5,7,9.9"/>
			</g>
			<g>
				<path class="st4" d="M-145,178.8c1.2,1.4,2.7,2.4,4.4,3l0,0c0.5,0.2,1,0.3,1.6,0.5l0,0c0.2,0.1,0.3,0.1,0.6,0.1h0.1
					c0.1,0,0.2,0,0.3,0c0.2,0,0.5,0,0.7,0c5.8,0,10.5-4.7,10.5-10.5c0-15.4,12.5-28,28-28c15.4,0,28,12.6,28,28l0,0
					c0,4.6,2.9,8.5,7,9.9"/>
			</g>
		</g>
	</g>
</g>
</svg>
