<?xml version="1.0" encoding="utf-8"?>
<!-- Generator: Adobe Illustrator 24.1.3, SVG Export Plug-In . SVG Version: 6.00 Build 0)  -->
<svg version="1.1" xmlns="http://www.w3.org/2000/svg" xmlns:xlink="http://www.w3.org/1999/xlink" x="0px" y="0px"
	 viewBox="0 0 255 200" style="enable-background:new 0 0 255 200;" xml:space="preserve">
<style type="text/css">
	.st0{fill:#CCCCFF;}
	.st1{fill:#A3A3FF;}
</style>
<g id="_x5E_-pattern-variations">
</g>
<g id="_x5E_-original-pattern">
	<polyline class="st0" points="509.9,399.5 -255,399.5 -255,-200 509.9,-200 	"/>
	<polygon class="st1" points="127.6,204.8 152.3,229.6 170,211.9 145.3,187.2 127.6,169.5 109.9,187.2 85.2,211.9 102.9,229.6 	"/>
	<polygon class="st1" points="42.7,171.5 67.5,196.3 85.2,178.6 60.4,153.8 42.7,136.2 25.1,153.8 0.3,178.6 18,196.3 	"/>
	<polygon class="st1" points="212.5,138.2 237.2,162.9 254.9,145.2 230.1,120.5 212.5,102.8 194.8,120.5 170,145.2 187.7,162.9 	"/>
	<polygon class="st1" points="127.6,104.8 152.3,129.6 170,111.9 145.3,87.2 127.6,69.5 109.9,87.2 85.2,111.9 102.9,129.6 	"/>
	<polygon class="st1" points="42.7,71.5 67.5,96.3 85.2,78.6 60.4,53.8 42.7,36.2 25.1,53.8 0.3,78.6 18,96.3 	"/>
	<polygon class="st1" points="212.5,38.2 237.2,62.9 254.9,45.2 230.1,20.5 212.5,2.8 194.8,20.5 170,45.2 187.7,62.9 	"/>
	<polygon class="st1" points="127.6,4.8 152.3,29.6 170,11.9 145.3,-12.8 127.6,-30.5 109.9,-12.8 85.2,11.9 102.9,29.6 	"/>
	<polygon class="st1" points="42.7,-28.5 67.5,-3.7 85.2,-21.4 60.4,-46.2 42.7,-63.8 25.1,-46.2 0.3,-21.4 18,-3.7 	"/>
	<polygon class="st1" points="212.5,-61.8 237.2,-37.1 254.9,-54.8 230.1,-79.5 212.5,-97.2 194.8,-79.5 170,-54.8 187.7,-37.1 	"/>
	<polygon class="st1" points="127.6,-95.2 152.3,-70.4 170,-88.1 145.3,-112.8 127.6,-130.5 109.9,-112.8 85.2,-88.1 102.9,-70.4 	
		"/>
	<polygon class="st1" points="42.7,-128.5 67.5,-103.7 85.2,-121.4 60.4,-146.2 42.7,-163.8 25.1,-146.2 0.3,-121.4 18,-103.7 	"/>
	<polygon class="st1" points="212.5,-161.8 237.2,-137.1 254.9,-154.8 230.1,-179.5 212.5,-197.2 194.8,-179.5 170,-154.8 
		187.7,-137.1 	"/>
	<polygon class="st1" points="127.6,-195.2 152.3,-170.4 170,-188.1 145.3,-212.8 127.6,-230.5 109.9,-212.8 85.2,-188.1 
		102.9,-170.4 	"/>
	<polygon class="st1" points="382.6,4.8 407.3,29.6 425,11.9 400.3,-12.8 382.6,-30.5 364.9,-12.8 340.2,11.9 357.9,29.6 	"/>
	<polygon class="st1" points="297.7,-28.5 322.5,-3.7 340.2,-21.4 315.4,-46.2 297.7,-63.8 280.1,-46.2 255.3,-21.4 273,-3.7 	"/>
	<polygon class="st1" points="467.5,-61.8 492.2,-37.1 509.9,-54.8 485.1,-79.5 467.5,-97.2 449.8,-79.5 425,-54.8 442.7,-37.1 	"/>
	<polygon class="st1" points="382.6,-95.2 407.3,-70.4 425,-88.1 400.3,-112.8 382.6,-130.5 364.9,-112.8 340.2,-88.1 357.9,-70.4 	
		"/>
	<polygon class="st1" points="297.7,-128.5 322.5,-103.7 340.2,-121.4 315.4,-146.2 297.7,-163.8 280.1,-146.2 255.3,-121.4 
		273,-103.7 	"/>
	<polygon class="st1" points="467.5,-161.8 492.2,-137.1 509.9,-154.8 485.1,-179.5 467.5,-197.2 449.8,-179.5 425,-154.8 
		442.7,-137.1 	"/>
	<polygon class="st1" points="382.6,-195.2 407.3,-170.4 425,-188.1 400.3,-212.8 382.6,-230.5 364.9,-212.8 340.2,-188.1 
		357.9,-170.4 	"/>
	<polygon class="st1" points="382.6,204.8 407.3,229.6 425,211.9 400.3,187.2 382.6,169.5 364.9,187.2 340.2,211.9 357.9,229.6 	"/>
	<polygon class="st1" points="297.7,171.5 322.5,196.3 340.2,178.6 315.4,153.8 297.7,136.2 280.1,153.8 255.3,178.6 273,196.3 	"/>
	<polygon class="st1" points="467.5,138.2 492.2,162.9 509.9,145.2 485.1,120.5 467.5,102.8 449.8,120.5 425,145.2 442.7,162.9 	"/>
	<polygon class="st1" points="382.6,104.8 407.3,129.6 425,111.9 400.3,87.2 382.6,69.5 364.9,87.2 340.2,111.9 357.9,129.6 	"/>
	<polygon class="st1" points="297.7,71.5 322.5,96.3 340.2,78.6 315.4,53.8 297.7,36.2 280.1,53.8 255.3,78.6 273,96.3 	"/>
	<polygon class="st1" points="467.5,38.2 492.2,62.9 509.9,45.2 485.1,20.5 467.5,2.8 449.8,20.5 425,45.2 442.7,62.9 	"/>
	<polygon class="st1" points="382.6,404.8 407.3,429.6 425,411.9 400.3,387.2 382.6,369.5 364.9,387.2 340.2,411.9 357.9,429.6 	"/>
	<polygon class="st1" points="297.7,371.5 322.5,396.3 340.2,378.6 315.4,353.8 297.7,336.2 280.1,353.8 255.3,378.6 273,396.3 	"/>
	<polygon class="st1" points="467.5,338.2 492.2,362.9 509.9,345.2 485.1,320.5 467.5,302.8 449.8,320.5 425,345.2 442.7,362.9 	"/>
	<polygon class="st1" points="382.6,304.8 407.3,329.6 425,311.9 400.3,287.2 382.6,269.5 364.9,287.2 340.2,311.9 357.9,329.6 	"/>
	<polygon class="st1" points="297.7,271.5 322.5,296.3 340.2,278.6 315.4,253.8 297.7,236.2 280.1,253.8 255.3,278.6 273,296.3 	"/>
	<polygon class="st1" points="467.5,238.2 492.2,262.9 509.9,245.2 485.1,220.5 467.5,202.8 449.8,220.5 425,245.2 442.7,262.9 	"/>
	<polygon class="st1" points="127.6,404.8 152.3,429.6 170,411.9 145.3,387.2 127.6,369.5 109.9,387.2 85.2,411.9 102.9,429.6 	"/>
	<polygon class="st1" points="42.7,371.5 67.5,396.3 85.2,378.6 60.4,353.8 42.7,336.2 25.1,353.8 0.3,378.6 18,396.3 	"/>
	<polygon class="st1" points="212.5,338.2 237.2,362.9 254.9,345.2 230.1,320.5 212.5,302.8 194.8,320.5 170,345.2 187.7,362.9 	"/>
	<polygon class="st1" points="127.6,304.8 152.3,329.6 170,311.9 145.3,287.2 127.6,269.5 109.9,287.2 85.2,311.9 102.9,329.6 	"/>
	<polygon class="st1" points="42.7,271.5 67.5,296.3 85.2,278.6 60.4,253.8 42.7,236.2 25.1,253.8 0.3,278.6 18,296.3 	"/>
	<polygon class="st1" points="212.5,238.2 237.2,262.9 254.9,245.2 230.1,220.5 212.5,202.8 194.8,220.5 170,245.2 187.7,262.9 	"/>
	<polygon class="st1" points="-127.4,404.8 -102.7,429.6 -85,411.9 -109.7,387.2 -127.4,369.5 -145.1,387.2 -169.8,411.9 
		-152.1,429.6 	"/>
	<polygon class="st1" points="-212.3,371.5 -187.5,396.3 -169.8,378.6 -194.6,353.8 -212.3,336.2 -229.9,353.8 -254.7,378.6 
		-237,396.3 	"/>
	<polygon class="st1" points="-42.5,338.2 -17.8,362.9 -0.1,345.2 -24.9,320.5 -42.5,302.8 -60.2,320.5 -85,345.2 -67.3,362.9 	"/>
	<polygon class="st1" points="-127.4,304.8 -102.7,329.6 -85,311.9 -109.7,287.2 -127.4,269.5 -145.1,287.2 -169.8,311.9 
		-152.1,329.6 	"/>
	<polygon class="st1" points="-212.3,271.5 -187.5,296.3 -169.8,278.6 -194.6,253.8 -212.3,236.2 -229.9,253.8 -254.7,278.6 
		-237,296.3 	"/>
	<polygon class="st1" points="-42.5,238.2 -17.8,262.9 -0.1,245.2 -24.9,220.5 -42.5,202.8 -60.2,220.5 -85,245.2 -67.3,262.9 	"/>
	<polygon class="st1" points="-127.4,204.8 -102.7,229.6 -85,211.9 -109.7,187.2 -127.4,169.5 -145.1,187.2 -169.8,211.9 
		-152.1,229.6 	"/>
	<polygon class="st1" points="-212.3,171.5 -187.5,196.3 -169.8,178.6 -194.6,153.8 -212.3,136.2 -229.9,153.8 -254.7,178.6 
		-237,196.3 	"/>
	<polygon class="st1" points="-42.5,138.2 -17.8,162.9 -0.1,145.2 -24.9,120.5 -42.5,102.8 -60.2,120.5 -85,145.2 -67.3,162.9 	"/>
	<polygon class="st1" points="-127.4,104.8 -102.7,129.6 -85,111.9 -109.7,87.2 -127.4,69.5 -145.1,87.2 -169.8,111.9 -152.1,129.6 
			"/>
	<polygon class="st1" points="-212.3,71.5 -187.5,96.3 -169.8,78.6 -194.6,53.8 -212.3,36.2 -229.9,53.8 -254.7,78.6 -237,96.3 	"/>
	<polygon class="st1" points="-42.5,38.2 -17.8,62.9 -0.1,45.2 -24.9,20.5 -42.5,2.8 -60.2,20.5 -85,45.2 -67.3,62.9 	"/>
	<polygon class="st1" points="-127.4,4.8 -102.7,29.6 -85,11.9 -109.7,-12.8 -127.4,-30.5 -145.1,-12.8 -169.8,11.9 -152.1,29.6 	
		"/>
	<polygon class="st1" points="-212.3,-28.5 -187.5,-3.7 -169.8,-21.4 -194.6,-46.2 -212.3,-63.8 -229.9,-46.2 -254.7,-21.4 
		-237,-3.7 	"/>
	<polygon class="st1" points="-42.5,-61.8 -17.8,-37.1 -0.1,-54.8 -24.9,-79.5 -42.5,-97.2 -60.2,-79.5 -85,-54.8 -67.3,-37.1 	"/>
	<polygon class="st1" points="-127.4,-95.2 -102.7,-70.4 -85,-88.1 -109.7,-112.8 -127.4,-130.5 -145.1,-112.8 -169.8,-88.1 
		-152.1,-70.4 	"/>
	<polygon class="st1" points="-212.3,-128.5 -187.5,-103.7 -169.8,-121.4 -194.6,-146.2 -212.3,-163.8 -229.9,-146.2 -254.7,-121.4 
		-237,-103.7 	"/>
	<polygon class="st1" points="-42.5,-161.8 -17.8,-137.1 -0.1,-154.8 -24.9,-179.5 -42.5,-197.2 -60.2,-179.5 -85,-154.8 
		-67.3,-137.1 	"/>
	<polygon class="st1" points="-127.4,-195.2 -102.7,-170.4 -85,-188.1 -109.7,-212.8 -127.4,-230.5 -145.1,-212.8 -169.8,-188.1 
		-152.1,-170.4 	"/>
</g>
</svg>
