<?xml version="1.0" encoding="utf-8"?>
<!-- Generator: Adobe Illustrator 24.3.0, SVG Export Plug-In . SVG Version: 6.00 Build 0)  -->
<svg version="1.1" xmlns="http://www.w3.org/2000/svg" xmlns:xlink="http://www.w3.org/1999/xlink" x="0px" y="0px"
	 viewBox="0 0 252 300" style="enable-background:new 0 0 252 300;" xml:space="preserve">
<style type="text/css">
	.st0{fill:#E5E5FF;}
	.st1{opacity:0.1;fill:#3333FF;}
</style>
<g id="Layer_1">
	<g id="Layer_1_1_">
	</g>
</g>
<g id="Pattern_Editing_Mode">
	<rect x="-74" y="-50" class="st0" width="400" height="400"/>
	<g>
		<polygon class="st1" points="42,55.3 66.5,79.8 84,62.3 59.5,37.7 42,20.2 24.5,37.7 0,62.3 17.5,79.8 		"/>
		<polygon class="st1" points="126,88.6 150.5,113.1 168,95.6 143.5,71.1 126,53.6 108.5,71.1 84,95.6 101.5,113.1 		"/>
		<polygon class="st1" points="126,-11.4 150.5,13.1 168,-4.4 143.5,-28.9 126,-46.4 108.5,-28.9 84,-4.4 101.5,13.1 		"/>
		<polygon class="st1" points="210,121.9 234.5,146.4 252,128.9 227.5,104.4 210,86.9 192.5,104.4 168,128.9 185.5,146.4 		"/>
		<polygon class="st1" points="210,21.9 234.5,46.4 252,28.9 227.5,4.4 210,-13.1 192.5,4.4 168,28.9 185.5,46.4 		"/>
		<polygon class="st1" points="42,155.2 66.5,179.8 84,162.2 59.5,137.8 42,120.2 24.5,137.8 0,162.2 17.5,179.8 		"/>
		<polygon class="st1" points="126,188.6 150.5,213.1 168,195.6 143.5,171.1 126,153.6 108.5,171.1 84,195.6 101.5,213.1 		"/>
		<polygon class="st1" points="210,221.9 234.5,246.4 252,228.9 227.5,204.4 210,186.9 192.5,204.4 168,228.9 185.5,246.4 		"/>
		<polygon class="st1" points="42,255.2 66.5,279.8 84,262.2 59.5,237.8 42,220.2 24.5,237.8 0,262.2 17.5,279.8 		"/>
		<polygon class="st1" points="126,288.6 150.5,313.1 168,295.6 143.5,271.1 126,253.6 108.5,271.1 84,295.6 101.5,313.1 		"/>
		<polygon class="st1" points="210,321.9 234.5,346.4 252,328.9 227.5,304.4 210,286.9 192.5,304.4 168,328.9 185.5,346.4 		"/>
	</g>
</g>
</svg>
