<?xml version="1.0" encoding="utf-8"?>
<!-- Generator: Adobe Illustrator 24.3.0, SVG Export Plug-In . SVG Version: 6.00 Build 0)  -->
<svg version="1.1" xmlns="http://www.w3.org/2000/svg" xmlns:xlink="http://www.w3.org/1999/xlink" x="0px" y="0px"
	 viewBox="0 0 300 300" style="enable-background:new 0 0 300 300;" xml:space="preserve">
<style type="text/css">
	.st0{fill:#3333FF;}
	.st1{opacity:0.2;fill:#292966;}
</style>
<g id="Layer_1">
	<g id="Layer_1_1_">
	</g>
</g>
<g id="Pattern_Editing_Mode">
	<rect x="-50" y="-50" class="st0" width="400" height="400"/>
	<g>
		<rect x="37.8" y="-8.5" transform="matrix(-0.7071 0.7071 -0.7071 -0.7071 120.7107 50)" class="st1" width="24.4" height="117"/>
		
			<rect x="137.8" y="24.8" transform="matrix(-0.7071 0.7071 -0.7071 -0.7071 314.9915 36.1928)" class="st1" width="24.4" height="117"/>
		
			<rect x="137.8" y="-75.2" transform="matrix(-0.7071 0.7071 -0.7071 -0.7071 244.2809 -134.5179)" class="st1" width="24.4" height="117"/>
		
			<rect x="237.8" y="58.1" transform="matrix(-0.7071 0.7071 -0.7071 -0.7071 509.2724 22.3856)" class="st1" width="24.4" height="117"/>
		
			<rect x="237.8" y="-41.9" transform="matrix(-0.7071 0.7071 -0.7071 -0.7071 438.5618 -148.325)" class="st1" width="24.4" height="117"/>
		
			<rect x="37.8" y="91.5" transform="matrix(-0.7071 0.7071 -0.7071 -0.7071 191.4214 220.7107)" class="st1" width="24.4" height="117"/>
		
			<rect x="137.8" y="124.8" transform="matrix(-0.7071 0.7071 -0.7071 -0.7071 385.7022 206.9035)" class="st1" width="24.4" height="117"/>
		
			<rect x="237.8" y="158.1" transform="matrix(-0.7071 0.7071 -0.7071 -0.7071 579.9831 193.0963)" class="st1" width="24.4" height="117"/>
		
			<rect x="37.8" y="191.5" transform="matrix(-0.7071 0.7071 -0.7071 -0.7071 262.132 391.4214)" class="st1" width="24.4" height="117"/>
		
			<rect x="137.8" y="224.8" transform="matrix(-0.7071 0.7071 -0.7071 -0.7071 456.4129 377.6142)" class="st1" width="24.4" height="117"/>
		
			<rect x="237.8" y="258.1" transform="matrix(-0.7071 0.7071 -0.7071 -0.7071 650.6938 363.807)" class="st1" width="24.4" height="117"/>
	</g>
</g>
</svg>
