<?xml version="1.0" encoding="utf-8"?>
<!-- Generator: Adobe Illustrator 24.3.0, SVG Export Plug-In . SVG Version: 6.00 Build 0)  -->
<svg version="1.1" xmlns="http://www.w3.org/2000/svg" xmlns:xlink="http://www.w3.org/1999/xlink" x="0px" y="0px"
	 viewBox="0 0 252 330" style="enable-background:new 0 0 252 330;" xml:space="preserve">
<style type="text/css">
	.st0{fill:#E5E5FF;}
	.st1{opacity:0.1;fill:#3333FF;}
</style>
<g id="Layer_1">
	<g id="Layer_1_1_">
	</g>
	<path class="st0" d="M-73.8-35h399.6c0.1,0,0.2,0.1,0.2,0.2v399.6c0,0.1-0.1,0.2-0.2,0.2H-73.8c-0.1,0-0.2-0.1-0.2-0.2V-34.8
		C-74-34.9-73.9-35-73.8-35z"/>
	<g>
		<path class="st1" d="M77,165c0,19.3-15.7,35-35,35S7,184.3,7,165s15.7-35,35-35S77,145.7,77,165z M52,165c0-5.5-4.5-10-10-10
			s-10,4.5-10,10s4.5,10,10,10S52,170.5,52,165z"/>
		<path class="st1" d="M77,55c0,19.3-15.7,35-35,35S7,74.3,7,55s15.7-35,35-35S77,35.7,77,55z M52,55c0-5.5-4.5-10-10-10
			s-10,4.5-10,10s4.5,10,10,10S52,60.5,52,55z"/>
		<path class="st1" d="M77,275c0,19.3-15.7,35-35,35S7,294.3,7,275s15.7-35,35-35S77,255.7,77,275z M52,275c0-5.5-4.5-10-10-10
			s-10,4.5-10,10s4.5,10,10,10S52,280.5,52,275z"/>
		<path class="st1" d="M161-18.3c0,19.3-15.7,35-35,35S91,1,91-18.3s15.7-35,35-35S161-37.7,161-18.3z M136-18.3c0-5.5-4.5-10-10-10
			s-10,4.5-10,10s4.5,10,10,10S136-12.8,136-18.3z"/>
		<path class="st1" d="M161,201.7c0,19.3-15.7,35-35,35s-35-15.7-35-35s15.7-35,35-35S161,182.3,161,201.7z M136,201.7
			c0-5.5-4.5-10-10-10s-10,4.5-10,10s4.5,10,10,10S136,207.2,136,201.7z"/>
		<path class="st1" d="M161,91.7c0,19.3-15.7,35-35,35s-35-15.7-35-35s15.7-35,35-35S161,72.3,161,91.7z M136,91.7
			c0-5.5-4.5-10-10-10s-10,4.5-10,10s4.5,10,10,10S136,97.2,136,91.7z"/>
		<path class="st1" d="M161,311.7c0,19.3-15.7,35-35,35s-35-15.7-35-35s15.7-35,35-35S161,292.3,161,311.7z M136,311.7
			c0-5.5-4.5-10-10-10s-10,4.5-10,10s4.5,10,10,10S136,317.2,136,311.7z"/>
		<path class="st1" d="M245,18.3c0,19.3-15.7,35-35,35s-35-15.7-35-35s15.7-35,35-35S245-1,245,18.3z M220,18.3c0-5.5-4.5-10-10-10
			s-10,4.5-10,10s4.5,10,10,10S220,23.9,220,18.3z"/>
		<path class="st1" d="M245,238.3c0,19.3-15.7,35-35,35s-35-15.7-35-35s15.7-35,35-35S245,219,245,238.3z M220,238.3
			c0-5.5-4.5-10-10-10s-10,4.5-10,10s4.5,10,10,10S220,243.9,220,238.3z"/>
		<path class="st1" d="M245,128.3c0,19.3-15.7,35-35,35s-35-15.7-35-35s15.7-35,35-35S245,109,245,128.3z M220,128.3
			c0-5.5-4.5-10-10-10s-10,4.5-10,10s4.5,10,10,10S220,133.9,220,128.3z"/>
		<path class="st1" d="M245,348.3c0,19.3-15.7,35-35,35s-35-15.7-35-35s15.7-35,35-35S245,329,245,348.3z M220,348.3
			c0-5.5-4.5-10-10-10s-10,4.5-10,10s4.5,10,10,10S220,353.9,220,348.3z"/>
	</g>
</g>
<g id="Pattern_Editing_Mode">
</g>
</svg>
