<?xml version="1.0" encoding="utf-8"?>
<!-- Generator: Adobe Illustrator 24.3.0, SVG Export Plug-In . SVG Version: 6.00 Build 0)  -->
<svg version="1.1" xmlns="http://www.w3.org/2000/svg" xmlns:xlink="http://www.w3.org/1999/xlink" x="0px" y="0px"
	 viewBox="0 0 330 252" style="enable-background:new 0 0 330 252;" xml:space="preserve">
<style type="text/css">
	.st0{fill:#FFEAE5;}
	.st1{opacity:0.1;}
	.st2{fill:#FF5533;}
</style>
<g id="Layer_1">
	<g id="Layer_1_1_">
	</g>
</g>
<g id="Pattern_Editing_Mode">
	<rect x="-35" y="-74" class="st0" width="400" height="400"/>
	<g>
		<g class="st1">
			<g>
				<circle class="st2" cx="29.8" cy="42" r="17.7"/>
				<circle class="st2" cx="80.2" cy="42" r="17.7"/>
			</g>
		</g>
		<g class="st1">
			<g>
				<circle class="st2" cx="139.8" cy="70" r="17.7"/>
				<circle class="st2" cx="190.2" cy="70" r="17.7"/>
			</g>
		</g>
		<g class="st1">
			<g>
				<circle class="st2" cx="139.8" cy="-14" r="17.7"/>
				<circle class="st2" cx="190.2" cy="-14" r="17.7"/>
			</g>
		</g>
		<g class="st1">
			<g>
				<circle class="st2" cx="249.8" cy="98" r="17.7"/>
				<circle class="st2" cx="300.2" cy="98" r="17.7"/>
			</g>
		</g>
		<g class="st1">
			<g>
				<circle class="st2" cx="249.8" cy="14" r="17.7"/>
				<circle class="st2" cx="300.2" cy="14" r="17.7"/>
			</g>
		</g>
		<g class="st1">
			<g>
				<circle class="st2" cx="29.8" cy="126" r="17.7"/>
				<circle class="st2" cx="80.2" cy="126" r="17.7"/>
			</g>
		</g>
		<g class="st1">
			<g>
				<circle class="st2" cx="139.8" cy="154" r="17.7"/>
				<circle class="st2" cx="190.2" cy="154" r="17.7"/>
			</g>
		</g>
		<g class="st1">
			<g>
				<circle class="st2" cx="249.8" cy="182" r="17.7"/>
				<circle class="st2" cx="300.2" cy="182" r="17.7"/>
			</g>
		</g>
		<g class="st1">
			<g>
				<circle class="st2" cx="29.8" cy="210" r="17.7"/>
				<circle class="st2" cx="80.2" cy="210" r="17.7"/>
			</g>
		</g>
		<g class="st1">
			<g>
				<circle class="st2" cx="139.8" cy="238" r="17.7"/>
				<circle class="st2" cx="190.2" cy="238" r="17.7"/>
			</g>
		</g>
		<g class="st1">
			<g>
				<circle class="st2" cx="249.8" cy="266" r="17.7"/>
				<circle class="st2" cx="300.2" cy="266" r="17.7"/>
			</g>
		</g>
	</g>
</g>
</svg>
