<?xml version="1.0" encoding="utf-8"?>
<!-- Generator: Adobe Illustrator 24.3.0, SVG Export Plug-In . SVG Version: 6.00 Build 0)  -->
<svg version="1.1" xmlns="http://www.w3.org/2000/svg" xmlns:xlink="http://www.w3.org/1999/xlink" x="0px" y="0px"
	 viewBox="0 0 330 252" style="enable-background:new 0 0 330 252;" xml:space="preserve">
<style type="text/css">
	.st0{fill:#E5E5FF;}
	.st1{opacity:0.1;}
	.st2{fill:#3333FF;}
	.st3{fill:#FF5533;}
	.st4{opacity:0.2;fill:#663329;}
	.st5{fill:#FFEAE5;}
	.st6{opacity:0.1;fill:#FF5533;}
	.st7{fill:#F2F2F2;}
	.st8{opacity:0.1;fill:#333333;}
	.st9{fill:#333333;}
	.st10{opacity:5.000000e-02;fill:#F2F2F2;}
	.st11{fill:#292966;}
	.st12{opacity:0.1;fill:#3333FF;}
	.st13{opacity:0.2;fill:#292966;}
</style>
<g id="Layer_1">
	<g id="Layer_1_1_">
	</g>
</g>
<g id="Pattern_Editing_Mode">
	<rect x="-35" y="-74" class="st0" width="400" height="400"/>
	<g>
		<g class="st1">
			<g>
				<circle class="st2" cx="29.8" cy="42" r="17.7"/>
				<circle class="st2" cx="80.2" cy="42" r="17.7"/>
			</g>
		</g>
		<g class="st1">
			<g>
				<circle class="st2" cx="139.8" cy="70" r="17.7"/>
				<circle class="st2" cx="190.2" cy="70" r="17.7"/>
			</g>
		</g>
		<g class="st1">
			<g>
				<circle class="st2" cx="139.8" cy="-14" r="17.7"/>
				<circle class="st2" cx="190.2" cy="-14" r="17.7"/>
			</g>
		</g>
		<g class="st1">
			<g>
				<circle class="st2" cx="249.8" cy="98" r="17.7"/>
				<circle class="st2" cx="300.2" cy="98" r="17.7"/>
			</g>
		</g>
		<g class="st1">
			<g>
				<circle class="st2" cx="249.8" cy="14" r="17.7"/>
				<circle class="st2" cx="300.2" cy="14" r="17.7"/>
			</g>
		</g>
		<g class="st1">
			<g>
				<circle class="st2" cx="29.8" cy="126" r="17.7"/>
				<circle class="st2" cx="80.2" cy="126" r="17.7"/>
			</g>
		</g>
		<g class="st1">
			<g>
				<circle class="st2" cx="139.8" cy="154" r="17.7"/>
				<circle class="st2" cx="190.2" cy="154" r="17.7"/>
			</g>
		</g>
		<g class="st1">
			<g>
				<circle class="st2" cx="249.8" cy="182" r="17.7"/>
				<circle class="st2" cx="300.2" cy="182" r="17.7"/>
			</g>
		</g>
		<g class="st1">
			<g>
				<circle class="st2" cx="29.8" cy="210" r="17.7"/>
				<circle class="st2" cx="80.2" cy="210" r="17.7"/>
			</g>
		</g>
		<g class="st1">
			<g>
				<circle class="st2" cx="139.8" cy="238" r="17.7"/>
				<circle class="st2" cx="190.2" cy="238" r="17.7"/>
			</g>
		</g>
		<g class="st1">
			<g>
				<circle class="st2" cx="249.8" cy="266" r="17.7"/>
				<circle class="st2" cx="300.2" cy="266" r="17.7"/>
			</g>
		</g>
	</g>
	<path class="st3" d="M-51.1-262.5h83.6c0.1,0,0.2,0.1,0.2,0.2v109.6c0,0.1-0.1,0.2-0.2,0.2h-83.6c-0.1,0-0.2-0.1-0.2-0.2v-109.6
		C-51.2-262.4-51.2-262.5-51.1-262.5z"/>
	<path class="st4" d="M25.8-207.5c0,19.3-15.7,35-35,35s-35-15.7-35-35s15.7-35,35-35S25.8-226.8,25.8-207.5z M0.8-207.5
		c0-5.5-4.5-10-10-10s-10,4.5-10,10s4.5,10,10,10S0.8-202,0.8-207.5z"/>
	<path class="st5" d="M48.9-262.5h83.6c0.1,0,0.2,0.1,0.2,0.2v109.6c0,0.1-0.1,0.2-0.2,0.2H48.9c-0.1,0-0.2-0.1-0.2-0.2v-109.6
		C48.8-262.4,48.8-262.5,48.9-262.5z"/>
	<path class="st6" d="M125.8-207.5c0,19.3-15.7,35-35,35s-35-15.7-35-35s15.7-35,35-35S125.8-226.8,125.8-207.5z M100.8-207.5
		c0-5.5-4.5-10-10-10s-10,4.5-10,10s4.5,10,10,10S100.8-202,100.8-207.5z"/>
	<path class="st7" d="M148.9-262.5h83.6c0.1,0,0.2,0.1,0.2,0.2v109.6c0,0.1-0.1,0.2-0.2,0.2h-83.6c-0.1,0-0.2-0.1-0.2-0.2v-109.6
		C148.8-262.4,148.8-262.5,148.9-262.5z"/>
	<path class="st8" d="M225.8-207.5c0,19.3-15.7,35-35,35s-35-15.7-35-35s15.7-35,35-35S225.8-226.8,225.8-207.5z M200.8-207.5
		c0-5.5-4.5-10-10-10s-10,4.5-10,10s4.5,10,10,10S200.8-202,200.8-207.5z"/>
	<path class="st9" d="M248.9-262.5h83.6c0.1,0,0.2,0.1,0.2,0.2v109.6c0,0.1-0.1,0.2-0.2,0.2h-83.6c-0.1,0-0.2-0.1-0.2-0.2v-109.6
		C248.8-262.4,248.8-262.5,248.9-262.5z"/>
	<path class="st10" d="M325.8-207.5c0,19.3-15.7,35-35,35s-35-15.7-35-35s15.7-35,35-35S325.8-226.8,325.8-207.5z M300.8-207.5
		c0-5.5-4.5-10-10-10s-10,4.5-10,10s4.5,10,10,10S300.8-202,300.8-207.5z"/>
	<path class="st11" d="M-251.1-262.5h83.6c0.1,0,0.2,0.1,0.2,0.2v109.6c0,0.1-0.1,0.2-0.2,0.2h-83.6c-0.1,0-0.2-0.1-0.2-0.2v-109.6
		C-251.2-262.4-251.2-262.5-251.1-262.5z"/>
	<path class="st12" d="M-174.2-207.5c0,19.3-15.7,35-35,35s-35-15.7-35-35s15.7-35,35-35S-174.2-226.8-174.2-207.5z M-199.2-207.5
		c0-5.5-4.5-10-10-10s-10,4.5-10,10s4.5,10,10,10S-199.2-202-199.2-207.5z"/>
	<path class="st0" d="M-151.1-262.5h83.6c0.1,0,0.2,0.1,0.2,0.2v109.6c0,0.1-0.1,0.2-0.2,0.2h-83.6c-0.1,0-0.2-0.1-0.2-0.2v-109.6
		C-151.2-262.4-151.2-262.5-151.1-262.5z"/>
	<path class="st12" d="M-74.2-207.5c0,19.3-15.7,35-35,35s-35-15.7-35-35s15.7-35,35-35S-74.2-226.8-74.2-207.5z M-99.2-207.5
		c0-5.5-4.5-10-10-10s-10,4.5-10,10s4.5,10,10,10S-99.2-202-99.2-207.5z"/>
	<path class="st2" d="M-351.1-262.5h83.6c0.1,0,0.2,0.1,0.2,0.2v109.6c0,0.1-0.1,0.2-0.2,0.2h-83.6c-0.1,0-0.2-0.1-0.2-0.2v-109.6
		C-351.2-262.4-351.2-262.5-351.1-262.5z"/>
	<path class="st13" d="M-274.2-207.5c0,19.3-15.7,35-35,35s-35-15.7-35-35s15.7-35,35-35S-274.2-226.8-274.2-207.5z M-299.2-207.5
		c0-5.5-4.5-10-10-10s-10,4.5-10,10s4.5,10,10,10S-299.2-202-299.2-207.5z"/>
</g>
</svg>
