<?xml version="1.0" encoding="utf-8"?>
<!-- Generator: Adobe Illustrator 24.3.0, SVG Export Plug-In . SVG Version: 6.00 Build 0)  -->
<svg version="1.1" id="Layer_1" xmlns="http://www.w3.org/2000/svg" xmlns:xlink="http://www.w3.org/1999/xlink" x="0px" y="0px"
	 viewBox="0 0 600 600" style="enable-background:new 0 0 600 600;" xml:space="preserve">
<style type="text/css">
	.st0{fill:#8282FE;}
	.st1{fill:#FF7F66;}
</style>
<g id="Layer_1-2">
	<g>
		<g>
			
				<rect x="378.5" y="8.3" transform="matrix(0.7071 -0.7071 0.7071 0.7071 87.2104 282.2186)" class="st0" width="11.5" height="55"/>
			<rect x="49.1" y="130.1" transform="matrix(0.891 -0.454 0.454 0.891 -53.3107 49.5727)" class="st0" width="55" height="11.5"/>
			
				<rect x="70.9" y="431.8" transform="matrix(0.9877 -0.1564 0.1564 0.9877 -70.9122 17.6363)" class="st0" width="11.5" height="55"/>
			
				<rect x="378.5" y="531.8" transform="matrix(0.1564 -0.9877 0.9877 0.1564 -228.2673 851.3572)" class="st0" width="11.5" height="55"/>
			
				<rect x="546.9" y="291.8" transform="matrix(0.454 -0.891 0.891 0.454 48.5039 674.2946)" class="st0" width="55" height="11.5"/>
			<rect x="294.2" y="56.2" transform="matrix(0.454 -0.891 0.891 0.454 93.4977 308.9305)" class="st0" width="9.2" height="44"/>
			
				<rect x="67.4" y="225.7" transform="matrix(0.7071 -0.7071 0.7071 0.7071 -136.6599 130.6907)" class="st0" width="44" height="9.2"/>
			
				<rect x="164.8" y="454.4" transform="matrix(0.891 -0.454 0.454 0.891 -197.8444 128.8418)" class="st0" width="9.2" height="44"/>
			
				<rect x="406.2" y="471.9" transform="matrix(0.9877 -0.1564 0.1564 0.9877 -69.262 72.8551)" class="st0" width="44" height="9.2"/>
			
				<rect x="486.2" y="225.7" transform="matrix(0.1564 -0.9877 0.9877 0.1564 201.2159 696.224)" class="st0" width="44" height="9.2"/>
			
				<rect x="241.3" y="113.6" transform="matrix(0.1564 -0.9877 0.9877 0.1564 77.1247 352.6327)" class="st0" width="7.3" height="35.2"/>
			
				<rect x="105.7" y="295" transform="matrix(0.454 -0.891 0.891 0.454 -198.7923 272.9426)" class="st0" width="35.2" height="7.3"/>
			
				<rect x="241.3" y="448.6" transform="matrix(0.7071 -0.7071 0.7071 0.7071 -257.8868 309.7832)" class="st0" width="7.3" height="35.2"/>
			
				<rect x="424.3" y="398.5" transform="matrix(0.891 -0.454 0.454 0.891 -134.429 244.4645)" class="st0" width="35.2" height="7.3"/>
			
				<rect x="436.5" y="178.6" transform="matrix(0.9872 -0.1595 0.1595 0.9872 -25.6774 72.746)" class="st0" width="7.4" height="35.3"/>
			
				<rect x="202.8" y="181.3" transform="matrix(0.9877 -0.1564 0.1564 0.9877 -26.1431 36.1949)" class="st0" width="28.2" height="5.9"/>
			
				<rect x="150.7" y="340.2" transform="matrix(0.1595 -0.9872 0.9872 0.1595 -200.1631 451.1058)" class="st0" width="28.3" height="5.9"/>
			
				<rect x="296.8" y="425" transform="matrix(0.454 -0.891 0.891 0.454 -227.5989 506.7729)" class="st0" width="5.9" height="28.2"/>
			
				<rect x="419.6" y="338.8" transform="matrix(0.7071 -0.7071 0.7071 0.7071 -114.6064 406.7678)" class="st0" width="28.2" height="5.9"/>
			
				<rect x="379.6" y="170.1" transform="matrix(0.891 -0.454 0.454 0.891 -41.9296 193.7339)" class="st0" width="5.9" height="28.2"/>
			
				<rect x="196.8" y="229.4" transform="matrix(0.891 -0.454 0.454 0.891 -82.5139 119.7331)" class="st0" width="22.5" height="4.7"/>
			
				<rect x="205.8" y="353" transform="matrix(0.9877 -0.1564 0.1564 0.9877 -54.4168 37.0392)" class="st0" width="4.7" height="22.5"/>
			
				<rect x="333.9" y="394.5" transform="matrix(0.1595 -0.9872 0.9872 0.1595 -118.0415 673.0531)" class="st0" width="4.7" height="22.6"/>
			
				<rect x="400.7" y="295.6" transform="matrix(0.454 -0.891 0.891 0.454 -40.5212 529.8074)" class="st0" width="22.5" height="4.7"/>
			
				<rect x="331.8" y="179.5" transform="matrix(0.7071 -0.7071 0.7071 0.7071 -37.0248 292.1406)" class="st0" width="4.7" height="22.5"/>
			
				<rect x="204.3" y="268.5" transform="matrix(0.7071 -0.7071 0.7071 0.7071 -128.7233 230.0761)" class="st0" width="18" height="3.8"/>
			
				<rect x="244.2" y="362.2" transform="matrix(0.891 -0.454 0.454 0.891 -141.714 152.2025)" class="st0" width="3.8" height="18"/>
			
				<rect x="343.1" y="369.4" transform="matrix(0.9877 -0.1564 0.1564 0.9877 -53.74 59.6559)" class="st0" width="18" height="3.8"/>
			
				<rect x="375.9" y="268.5" transform="matrix(0.1564 -0.9877 0.9877 0.1564 57.5938 608.2706)" class="st0" width="18" height="3.8"/>
			
				<rect x="297.3" y="199.1" transform="matrix(0.454 -0.891 0.891 0.454 -22.1028 380.1649)" class="st0" width="3.8" height="18"/>
			<rect x="220" y="296.9" transform="matrix(0.454 -0.891 0.891 0.454 -141.8177 365.4166)" class="st0" width="14.4" height="3"/>
			
				<rect x="275.6" y="359.8" transform="matrix(0.7071 -0.7071 0.7071 0.7071 -178.3726 303.4326)" class="st0" width="3" height="14.4"/>
			
				<rect x="350.5" y="339.3" transform="matrix(0.891 -0.454 0.454 0.891 -115.7414 199.5591)" class="st0" width="14.4" height="3"/>
			
				<rect x="356.2" y="248.8" transform="matrix(0.9877 -0.1564 0.1564 0.9877 -35.6464 59.117)" class="st0" width="3" height="14.4"/>
			
				<rect x="274.1" y="222.4" transform="matrix(0.1595 -0.9872 0.9872 0.1595 4.9027 465.0357)" class="st0" width="3" height="14.5"/>
			
				<rect x="238.8" y="314.9" transform="matrix(0.1564 -0.9877 0.9877 0.1564 -105.8261 508.2133)" class="st0" width="11.5" height="2.4"/>
			
				<rect x="298.3" y="350.2" transform="matrix(0.454 -0.891 0.891 0.454 -153.6107 461.1906)" class="st0" width="2.4" height="11.5"/>
			
				<rect x="348.6" y="314.9" transform="matrix(0.7071 -0.7071 0.7071 0.7071 -119.6906 343.154)" class="st0" width="11.5" height="2.4"/>
			
				<rect x="332.2" y="245.8" transform="matrix(0.891 -0.454 0.454 0.891 -77.8512 178.783)" class="st0" width="2.4" height="11.5"/>
			
				<rect x="259.8" y="250.3" transform="matrix(0.9877 -0.1564 0.1564 0.9877 -36.0783 44.6407)" class="st0" width="11.5" height="2.4"/>
		</g>
		<g>
			<circle class="st0" cx="287.7" cy="22.4" r="8.1"/>
			<circle class="st0" cx="449.4" cy="74.9" r="8.1"/>
			<circle class="st0" cx="33.9" cy="223.5" r="8.1"/>
			<circle class="st0" cx="133.9" cy="85.9" r="8.1"/>
			<circle class="st0" cx="146.8" cy="527" r="8.1"/>
			<circle class="st0" cx="46.8" cy="389.4" r="8.1"/>
			<circle class="st0" cx="470.3" cy="513.4" r="8.1"/>
			<circle class="st0" cx="308.6" cy="566" r="8.1"/>
			<circle class="st0" cx="557.4" cy="201.6" r="8.1"/>
			<circle class="st0" cx="557.4" cy="371.6" r="8.1"/>
			<circle class="st0" cx="222" cy="91.8" r="6.5"/>
			<circle class="st0" cx="358.1" cy="91.8" r="6.5"/>
			<circle class="st0" cx="78.7" cy="307.6" r="6.5"/>
			<circle class="st0" cx="120.7" cy="178.2" r="6.5"/>
			<circle class="st0" cx="239.6" cy="510.6" r="6.5"/>
			<circle class="st0" cx="129.5" cy="430.6" r="6.5"/>
			
				<ellipse transform="matrix(0.1602 -0.9871 0.9871 0.1602 -9.7657 829.0843)" class="st0" cx="482.4" cy="420.3" rx="6.5" ry="6.5"/>
			<circle class="st0" cx="372.3" cy="500.3" r="6.5"/>
			<circle class="st0" cx="471.5" cy="161.5" r="6.5"/>
			<circle class="st0" cx="513.5" cy="290.9" r="6.5"/>
			<circle class="st0" cx="189.9" cy="160.5" r="5.2"/>
			<circle class="st0" cx="293.4" cy="126.9" r="5.2"/>
			<circle class="st0" cx="134.2" cy="360.1" r="5.2"/>
			<circle class="st0" cx="134.2" cy="251.3" r="5.2"/>
			<circle class="st0" cx="306.8" cy="474.8" r="5.2"/>
			<circle class="st0" cx="203.3" cy="441.2" r="5.2"/>
			<circle class="st0" cx="469.2" cy="346.1" r="5.2"/>
			<circle class="st0" cx="405.2" cy="434.1" r="5.2"/>
			<circle class="st0" cx="397" cy="151.8" r="5.2"/>
			<circle class="st0" cx="461" cy="239.9" r="5.2"/>
			<circle class="st0" cx="182.2" cy="220.1" r="4.2"/>
			<circle class="st0" cx="252.7" cy="169" r="4.2"/>
			<circle class="st0" cx="189.2" cy="385.8" r="4.2"/>
			<circle class="st0" cx="162.3" cy="303" r="4.2"/>
			<circle class="st0" cx="348.9" cy="430.4" r="4.2"/>
			<circle class="st0" cx="261.8" cy="430.4" r="4.2"/>
			<circle class="st0" cx="440.6" cy="292.3" r="4.2"/>
			<circle class="st0" cx="413.7" cy="375.1" r="4.2"/>
			<circle class="st0" cx="337.6" cy="162.3" r="4.2"/>
			<circle class="st0" cx="408.1" cy="213.5" r="4.2"/>
			<circle class="st0" cx="190.6" cy="267.6" r="3.3"/>
			<circle class="st0" cx="231.6" cy="211.3" r="3.3"/>
			<circle class="st0" cx="236.9" cy="391.9" r="3.3"/>
			<circle class="st0" cx="195.9" cy="335.6" r="3.3"/>
			<circle class="st0" cx="369.4" cy="386.4" r="3.3"/>
			<circle class="st0" cx="303.1" cy="407.9" r="3.3"/>
			<circle class="st0" cx="405" cy="258.6" r="3.3"/>
			<circle class="st0" cx="405" cy="328.3" r="3.3"/>
			<circle class="st0" cx="294.6" cy="185.2" r="3.3"/>
			<circle class="st0" cx="360.8" cy="206.8" r="3.3"/>
			<circle class="st0" cx="209" cy="302.1" r="2.7"/>
			<circle class="st0" cx="226.2" cy="249.1" r="2.7"/>
			<circle class="st0" cx="274.9" cy="385.2" r="2.7"/>
			<circle class="st0" cx="229.8" cy="352.5" r="2.7"/>
			<circle class="st0" cx="374.3" cy="348.2" r="2.7"/>
			<circle class="st0" cx="329.2" cy="381" r="2.7"/>
			<circle class="st0" cx="369.9" cy="242.2" r="2.7"/>
			<circle class="st0" cx="387.1" cy="295.2" r="2.7"/>
			<circle class="st0" cx="267.7" cy="213.7" r="2.7"/>
			<circle class="st0" cx="323.4" cy="213.7" r="2.7"/>
			<circle class="st0" cx="231.7" cy="323.6" r="2.1"/>
			<circle class="st0" cx="231.7" cy="279" r="2.1"/>
			<circle class="st0" cx="302.4" cy="370.6" r="2.1"/>
			<circle class="st0" cx="260" cy="356.8" r="2.1"/>
			<circle class="st0" cx="368.9" cy="317.8" r="2.1"/>
			<circle class="st0" cx="342.7" cy="353.9" r="2.1"/>
			<circle class="st0" cx="339.3" cy="238.3" r="2.1"/>
			<circle class="st0" cx="365.6" cy="274.4" r="2.1"/>
			<circle class="st0" cx="254.5" cy="241.8" r="2.1"/>
			<circle class="st0" cx="296.9" cy="228.1" r="2.1"/>
			<circle class="st0" cx="254.2" cy="334.1" r="1.7"/>
			<circle class="st0" cx="243.2" cy="300.2" r="1.7"/>
			<circle class="st0" cx="319.6" cy="352.4" r="1.7"/>
			<circle class="st0" cx="284" cy="352.4" r="1.7"/>
			<circle class="st0" cx="357.2" cy="295.8" r="1.7"/>
			<circle class="st0" cx="346.2" cy="329.7" r="1.7"/>
			<circle class="st0" cx="315" cy="242.6" r="1.7"/>
			<circle class="st0" cx="343.9" cy="263.5" r="1.7"/>
			<circle class="st0" cx="251.4" cy="266.3" r="1.7"/>
			<circle class="st0" cx="280.2" cy="245.3" r="1.7"/>
			<g>
				<g>
					<circle class="st0" cx="310.8" cy="22.4" r="8.1"/>
					<circle class="st0" cx="472.5" cy="74.9" r="8.1"/>
					<circle class="st0" cx="41.1" cy="201.6" r="8.1"/>
					<circle class="st0" cx="141" cy="63.9" r="8.1"/>
					<circle class="st0" cx="128.1" cy="513.4" r="8.1"/>
					<circle class="st0" cx="28.2" cy="375.8" r="8.1"/>
					<circle class="st0" cx="451.6" cy="527" r="8.1"/>
					<circle class="st0" cx="289.9" cy="579.6" r="8.1"/>
					<circle class="st0" cx="564.5" cy="223.5" r="8.1"/>
					<circle class="st0" cx="564.5" cy="393.6" r="8.1"/>
					<circle class="st0" cx="239.6" cy="86.1" r="6.5"/>
					<circle class="st0" cx="375.6" cy="86.1" r="6.5"/>
					<circle class="st0" cx="78.7" cy="289.1" r="6.5"/>
					<circle class="st0" cx="120.7" cy="159.7" r="6.5"/>
					<circle class="st0" cx="222" cy="504.9" r="6.5"/>
					<circle class="st0" cx="111.9" cy="424.9" r="6.5"/>
					<circle class="st0" cx="471.5" cy="435.2" r="6.5"/>
					<circle class="st0" cx="361.4" cy="515.2" r="6.5"/>
					
						<ellipse transform="matrix(0.3827 -0.9239 0.9239 0.3827 134.7837 554.5367)" class="st0" cx="482.4" cy="176.4" rx="6.5" ry="6.5"/>
					<circle class="st0" cx="524.4" cy="305.8" r="6.5"/>
					<circle class="st0" cx="201.9" cy="151.8" r="5.2"/>
					<circle class="st0" cx="305.4" cy="118.2" r="5.2"/>
					<circle class="st0" cx="129.6" cy="346.1" r="5.2"/>
					<circle class="st0" cx="129.6" cy="237.2" r="5.2"/>
					<circle class="st0" cx="292" cy="474.8" r="5.2"/>
					<circle class="st0" cx="188.5" cy="441.2" r="5.2"/>
					<circle class="st0" cx="464.7" cy="360.1" r="5.2"/>
					<circle class="st0" cx="400.7" cy="448.2" r="5.2"/>
					<circle class="st0" cx="408.9" cy="160.5" r="5.2"/>
					<circle class="st0" cx="472.9" cy="248.6" r="5.2"/>
					<circle class="st0" cx="189.2" cy="210.6" r="4.2"/>
					<circle class="st0" cx="259.6" cy="159.4" r="4.2"/>
					<circle class="st0" cx="182.2" cy="376.2" r="4.2"/>
					<circle class="st0" cx="155.3" cy="293.4" r="4.2"/>
					<circle class="st0" cx="337.6" cy="434" r="4.2"/>
					<circle class="st0" cx="250.5" cy="434" r="4.2"/>
					<circle class="st0" cx="440.6" cy="304.1" r="4.2"/>
					<circle class="st0" cx="413.7" cy="386.9" r="4.2"/>
					<circle class="st0" cx="348.9" cy="166" r="4.2"/>
					<circle class="st0" cx="419.3" cy="217.2" r="4.2"/>
					<circle class="st0" cx="193.6" cy="258.6" r="3.3"/>
					<circle class="st0" cx="234.5" cy="202.3" r="3.3"/>
					<circle class="st0" cx="229.2" cy="386.4" r="3.3"/>
					<circle class="st0" cx="188.3" cy="330" r="3.3"/>
					<circle class="st0" cx="361.7" cy="391.9" r="3.3"/>
					<circle class="st0" cx="295.5" cy="413.5" r="3.3"/>
					<circle class="st0" cx="408" cy="267.6" r="3.3"/>
					<circle class="st0" cx="408" cy="337.3" r="3.3"/>
					<circle class="st0" cx="304" cy="185.2" r="3.3"/>
					<circle class="st0" cx="370.3" cy="206.8" r="3.3"/>
					<circle class="st0" cx="209" cy="294.5" r="2.7"/>
					<circle class="st0" cx="226.2" cy="241.5" r="2.7"/>
					<circle class="st0" cx="267.7" cy="382.9" r="2.7"/>
					<circle class="st0" cx="222.6" cy="350.1" r="2.7"/>
					<circle class="st0" cx="369.9" cy="354.4" r="2.7"/>
					<circle class="st0" cx="324.8" cy="387.1" r="2.7"/>
					<circle class="st0" cx="374.3" cy="248.3" r="2.7"/>
					<circle class="st0" cx="391.5" cy="301.4" r="2.7"/>
					<circle class="st0" cx="274.9" cy="211.4" r="2.7"/>
					<circle class="st0" cx="330.6" cy="211.4" r="2.7"/>
					<circle class="st0" cx="229.8" cy="317.8" r="2.1"/>
					<circle class="st0" cx="229.8" cy="273.3" r="2.1"/>
					<circle class="st0" cx="296.4" cy="370.6" r="2.1"/>
					<circle class="st0" cx="254" cy="356.8" r="2.1"/>
					<circle class="st0" cx="367.1" cy="323.6" r="2.1"/>
					<circle class="st0" cx="340.9" cy="359.7" r="2.1"/>
					<circle class="st0" cx="344.2" cy="241.8" r="2.1"/>
					<circle class="st0" cx="370.4" cy="277.9" r="2.1"/>
					<circle class="st0" cx="259.4" cy="238.3" r="2.1"/>
					<circle class="st0" cx="301.8" cy="224.5" r="2.1"/>
					<circle class="st0" cx="251.4" cy="330.2" r="1.7"/>
					<circle class="st0" cx="240.4" cy="296.3" r="1.7"/>
					<circle class="st0" cx="315" cy="353.9" r="1.7"/>
					<circle class="st0" cx="279.4" cy="353.9" r="1.7"/>
					<circle class="st0" cx="357.2" cy="300.6" r="1.7"/>
					<circle class="st0" cx="346.2" cy="334.6" r="1.7"/>
					<circle class="st0" cx="319.6" cy="244.1" r="1.7"/>
					<circle class="st0" cx="348.5" cy="265" r="1.7"/>
					<circle class="st0" cx="254.2" cy="262.3" r="1.7"/>
					<circle class="st0" cx="283.1" cy="241.4" r="1.7"/>
				</g>
				<g>
					<circle class="st0" cx="310.8" cy="22.4" r="8.1"/>
					<circle class="st0" cx="472.5" cy="74.9" r="8.1"/>
					<circle class="st0" cx="41.1" cy="201.6" r="8.1"/>
					<circle class="st0" cx="141" cy="63.9" r="8.1"/>
					<circle class="st0" cx="128.1" cy="513.4" r="8.1"/>
					<circle class="st0" cx="28.2" cy="375.8" r="8.1"/>
					<circle class="st0" cx="451.6" cy="527" r="8.1"/>
					<circle class="st0" cx="289.9" cy="579.6" r="8.1"/>
					<circle class="st0" cx="564.5" cy="223.5" r="8.1"/>
					<circle class="st0" cx="564.5" cy="393.6" r="8.1"/>
					<circle class="st0" cx="239.6" cy="86.1" r="6.5"/>
					<circle class="st0" cx="375.6" cy="86.1" r="6.5"/>
					<circle class="st0" cx="78.7" cy="289.1" r="6.5"/>
					<circle class="st0" cx="120.7" cy="159.7" r="6.5"/>
					<circle class="st0" cx="222" cy="504.9" r="6.5"/>
					<circle class="st0" cx="111.9" cy="424.9" r="6.5"/>
					<circle class="st0" cx="471.5" cy="435.2" r="6.5"/>
					<circle class="st0" cx="361.4" cy="515.2" r="6.5"/>
					
						<ellipse transform="matrix(0.3827 -0.9239 0.9239 0.3827 134.7837 554.5367)" class="st0" cx="482.4" cy="176.4" rx="6.5" ry="6.5"/>
					<circle class="st0" cx="524.4" cy="305.8" r="6.5"/>
					<circle class="st0" cx="201.9" cy="151.8" r="5.2"/>
					<circle class="st0" cx="305.4" cy="118.2" r="5.2"/>
					<circle class="st0" cx="129.6" cy="346.1" r="5.2"/>
					<circle class="st0" cx="129.6" cy="237.2" r="5.2"/>
					<circle class="st0" cx="292" cy="474.8" r="5.2"/>
					<circle class="st0" cx="188.5" cy="441.2" r="5.2"/>
					<circle class="st0" cx="464.7" cy="360.1" r="5.2"/>
					<circle class="st0" cx="400.7" cy="448.2" r="5.2"/>
					<circle class="st0" cx="408.9" cy="160.5" r="5.2"/>
					<circle class="st0" cx="472.9" cy="248.6" r="5.2"/>
					<circle class="st0" cx="189.2" cy="210.6" r="4.2"/>
					<circle class="st0" cx="259.6" cy="159.4" r="4.2"/>
					<circle class="st0" cx="182.2" cy="376.2" r="4.2"/>
					<circle class="st0" cx="155.3" cy="293.4" r="4.2"/>
					<circle class="st0" cx="337.6" cy="434" r="4.2"/>
					<circle class="st0" cx="250.5" cy="434" r="4.2"/>
					<circle class="st0" cx="440.6" cy="304.1" r="4.2"/>
					<circle class="st0" cx="413.7" cy="386.9" r="4.2"/>
					<circle class="st0" cx="348.9" cy="166" r="4.2"/>
					<circle class="st0" cx="419.3" cy="217.2" r="4.2"/>
					<circle class="st0" cx="193.6" cy="258.6" r="3.3"/>
					<circle class="st0" cx="234.5" cy="202.3" r="3.3"/>
					<circle class="st0" cx="229.2" cy="386.4" r="3.3"/>
					<circle class="st0" cx="188.3" cy="330" r="3.3"/>
					<circle class="st0" cx="361.7" cy="391.9" r="3.3"/>
					<circle class="st0" cx="295.5" cy="413.5" r="3.3"/>
					<circle class="st0" cx="408" cy="267.6" r="3.3"/>
					<circle class="st0" cx="408" cy="337.3" r="3.3"/>
					<circle class="st0" cx="304" cy="185.2" r="3.3"/>
					<circle class="st0" cx="370.3" cy="206.8" r="3.3"/>
					<circle class="st0" cx="209" cy="294.5" r="2.7"/>
					<circle class="st0" cx="226.2" cy="241.5" r="2.7"/>
					<circle class="st0" cx="267.7" cy="382.9" r="2.7"/>
					<circle class="st0" cx="222.6" cy="350.1" r="2.7"/>
					<circle class="st0" cx="369.9" cy="354.4" r="2.7"/>
					<circle class="st0" cx="324.8" cy="387.1" r="2.7"/>
					<circle class="st0" cx="374.3" cy="248.3" r="2.7"/>
					<circle class="st0" cx="391.5" cy="301.4" r="2.7"/>
					<circle class="st0" cx="274.9" cy="211.4" r="2.7"/>
					<circle class="st0" cx="330.6" cy="211.4" r="2.7"/>
					<circle class="st0" cx="229.8" cy="317.8" r="2.1"/>
					<circle class="st0" cx="229.8" cy="273.3" r="2.1"/>
					<circle class="st0" cx="296.4" cy="370.6" r="2.1"/>
					<circle class="st0" cx="254" cy="356.8" r="2.1"/>
					<circle class="st0" cx="367.1" cy="323.6" r="2.1"/>
					<circle class="st0" cx="340.9" cy="359.7" r="2.1"/>
					<circle class="st0" cx="344.2" cy="241.8" r="2.1"/>
					<circle class="st0" cx="370.4" cy="277.9" r="2.1"/>
					<circle class="st0" cx="259.4" cy="238.3" r="2.1"/>
					<circle class="st0" cx="301.8" cy="224.5" r="2.1"/>
					<circle class="st0" cx="251.4" cy="330.2" r="1.7"/>
					<circle class="st0" cx="240.4" cy="296.3" r="1.7"/>
					<circle class="st0" cx="315" cy="353.9" r="1.7"/>
					<circle class="st0" cx="279.4" cy="353.9" r="1.7"/>
					<circle class="st0" cx="357.2" cy="300.6" r="1.7"/>
					<circle class="st0" cx="346.2" cy="334.6" r="1.7"/>
					<circle class="st0" cx="319.6" cy="244.1" r="1.7"/>
					<circle class="st0" cx="348.5" cy="265" r="1.7"/>
					<circle class="st0" cx="254.2" cy="262.3" r="1.7"/>
					<circle class="st0" cx="283.1" cy="241.4" r="1.7"/>
				</g>
			</g>
		</g>
		<g>
			<g>
				<path class="st0" d="M214.2,19.8c-8.9,0-16.1,7.2-16.1,16.1s7.2,16.1,16.1,16.1s16.1-7.2,16.1-16.1c0,0,0,0,0,0
					C230.2,27,223.1,19.8,214.2,19.8C214.2,19.8,214.2,19.8,214.2,19.8z M214.2,40.4c-2.5,0-4.6-2.1-4.6-4.6c0-2.5,2.1-4.6,4.6-4.6
					c2.5,0,4.6,2.1,4.6,4.6C218.8,38.4,216.7,40.4,214.2,40.4C214.2,40.4,214.2,40.4,214.2,40.4L214.2,40.4z"/>
				<path class="st0" d="M8.8,292.6c-2.7,8.4,1.9,17.5,10.3,20.2c8.4,2.7,17.5-1.9,20.2-10.3c2.7-8.4-1.9-17.5-10.3-20.2
					C20.6,279.6,11.5,284.2,8.8,292.6z M28.4,299c-0.8,2.4-3.4,3.7-5.8,2.9c-2.4-0.8-3.7-3.4-2.9-5.8c0.8-2.4,3.4-3.7,5.8-2.9
					c0,0,0,0,0,0C27.9,294,29.2,296.6,28.4,299L28.4,299z"/>
				<path class="st0" d="M204.8,572.3c7.2,5.2,17.2,3.6,22.4-3.6c5.2-7.2,3.6-17.2-3.6-22.4c-7.2-5.2-17.2-3.6-22.4,3.6
					C196,557,197.6,567.1,204.8,572.3z M216.9,555.6c2,1.5,2.5,4.4,1,6.4s-4.4,2.5-6.4,1c-2-1.5-2.5-4.4-1-6.4
					C212,554.6,214.8,554.1,216.9,555.6C216.9,555.6,216.9,555.6,216.9,555.6z"/>
				<path class="st0" d="M531.3,472.3c7.2-5.2,8.8-15.2,3.6-22.4c-5.2-7.2-15.2-8.8-22.4-3.6c-7.2,5.2-8.8,15.2-3.6,22.4
					C514.1,475.9,524.1,477.5,531.3,472.3C531.3,472.3,531.3,472.3,531.3,472.3z M519.2,455.6c2.1-1.5,4.9-1,6.4,1
					c1.5,2.1,1,4.9-1,6.4c-2,1.5-4.9,1-6.4-1C516.7,460,517.1,457.1,519.2,455.6C519.2,455.6,519.2,455.6,519.2,455.6z"/>
				<path class="st0" d="M537.2,130.9c-2.7-8.4-11.8-13-20.2-10.3c-8.4,2.7-13,11.8-10.3,20.2c2.7,8.4,11.8,13,20.2,10.3
					C535.3,148.3,539.9,139.3,537.2,130.9z M517.5,137.2c-0.8-2.4,0.5-5,2.9-5.8s5,0.5,5.8,2.9c0.8,2.4-0.5,5-2.9,5.8c0,0,0,0,0,0
					C520.9,141,518.3,139.6,517.5,137.2C517.5,137.2,517.5,137.2,517.5,137.2z"/>
				<path class="st0" d="M165.4,108c-6.7,2.2-10.4,9.4-8.2,16.2c2.2,6.7,9.4,10.4,16.2,8.2c6.7-2.2,10.4-9.4,8.2-16.2
					C179.4,109.5,172.2,105.8,165.4,108C165.4,108,165.4,108,165.4,108z M170.5,123.8c-1.9,0.6-4-0.4-4.6-2.3
					c-0.6-1.9,0.4-4,2.3-4.6c1.9-0.6,4,0.4,4.6,2.3c0,0,0,0,0,0C173.5,121.1,172.5,123.1,170.5,123.8
					C170.5,123.7,170.5,123.7,170.5,123.8z"/>
				<path class="st0" d="M76.6,366.4c0,7.1,5.8,12.8,12.8,12.8s12.8-5.8,12.8-12.8s-5.8-12.8-12.8-12.8S76.6,359.3,76.6,366.4
					L76.6,366.4z M93.1,366.4c0,2-1.6,3.7-3.7,3.7c-2,0-3.7-1.6-3.7-3.7c0-2,1.6-3.7,3.7-3.7c0,0,0,0,0,0
					C91.5,362.7,93.1,364.4,93.1,366.4L93.1,366.4z"/>
				<path class="st0" d="M294.8,530.7c6.7,2.2,14-1.5,16.2-8.2s-1.5-14-8.2-16.2c-6.7-2.2-14,1.5-16.2,8.2c0,0,0,0,0,0
					C284.4,521.3,288.1,528.5,294.8,530.7z M299.9,515c1.9,0.6,3,2.7,2.4,4.6c-0.6,1.9-2.7,3-4.6,2.4c-1.9-0.6-3-2.7-2.4-4.6
					c0,0,0,0,0,0C296,515.4,298,514.4,299.9,515z"/>
				<path class="st0" d="M518.6,373.9c4.2-5.7,2.9-13.8-2.8-17.9c-5.7-4.2-13.8-2.9-17.9,2.8c-4.2,5.7-2.9,13.8,2.8,17.9
					c0,0,0,0,0,0C506.4,380.9,514.4,379.7,518.6,373.9z M505.2,364.2c1.2-1.6,3.5-2,5.1-0.8c1.6,1.2,2,3.5,0.8,5.1
					c-1.2,1.6-3.5,2-5.1,0.8C504.4,368.2,504,365.9,505.2,364.2z"/>
				<path class="st0" d="M438.6,112.7c-4.2-5.7-12.2-7-17.9-2.8c-5.7,4.2-7,12.2-2.8,17.9s12.2,7,17.9,2.8c0,0,0,0,0,0
					C441.5,126.4,442.8,118.4,438.6,112.7z M425.2,122.4c-1.2-1.6-0.8-3.9,0.8-5.1c1.6-1.2,3.9-0.8,5.1,0.8c1.2,1.6,0.8,3.9-0.8,5.1
					C428.7,124.4,426.4,124,425.2,122.4z"/>
				<path class="st0" d="M150.9,186.8c-4.6,3.3-5.7,9.8-2.3,14.4c3.3,4.6,9.8,5.7,14.4,2.3c4.6-3.3,5.7-9.8,2.3-14.4c0,0,0,0,0-0.1
					C161.9,184.5,155.5,183.5,150.9,186.8z M158.7,197.5c-1.3,1-3.1,0.7-4.1-0.6c-1-1.3-0.7-3.1,0.6-4.1c1.3-1,3.1-0.7,4.1,0.6
					c0,0,0,0,0,0C160.3,194.7,160,196.6,158.7,197.5C158.7,197.5,158.7,197.5,158.7,197.5L158.7,197.5z"/>
				<path class="st0" d="M147.2,405.4c1.7,5.4,7.6,8.4,13,6.7s8.4-7.6,6.7-13s-7.6-8.4-13-6.7c0,0-0.1,0-0.1,0
					C148.4,394.2,145.5,400,147.2,405.4z M159.8,401.3c0.5,1.5-0.3,3.2-1.9,3.7c-1.5,0.5-3.2-0.3-3.7-1.9c-0.5-1.5,0.3-3.2,1.9-3.7
					C157.6,398.9,159.2,399.8,159.8,401.3L159.8,401.3z"/>
				<path class="st0" d="M353.9,476.5c5.7,0,10.3-4.6,10.3-10.3c0-5.7-4.6-10.3-10.3-10.3s-10.3,4.6-10.3,10.3
					C343.5,471.8,348.2,476.5,353.9,476.5L353.9,476.5z M353.9,463.2c1.6,0,2.9,1.3,3,2.9c0,1.6-1.3,2.9-2.9,3c-1.6,0-2.9-1.3-3-2.9
					c0,0,0,0,0,0C350.9,464.6,352.2,463.2,353.9,463.2L353.9,463.2z"/>
				<path class="st0" d="M485.3,301.9c1.8-5.4-1.1-11.2-6.5-13c-5.4-1.8-11.2,1.1-13,6.5c-1.8,5.4,1.1,11.2,6.5,13c0,0,0.1,0,0.1,0
					C477.8,310.2,483.6,307.3,485.3,301.9C485.3,301.9,485.3,301.9,485.3,301.9z M472.8,297.8c0.5-1.5,2.2-2.4,3.7-1.9
					c1.5,0.5,2.4,2.2,1.9,3.7c-0.5,1.5-2.2,2.4-3.7,1.9C473.1,301,472.3,299.3,472.8,297.8L472.8,297.8z"/>
				<path class="st0" d="M359.9,122.9c-4.6-3.4-11-2.4-14.4,2.2c-3.4,4.6-2.4,11,2.2,14.4c4.6,3.4,11,2.4,14.4-2.2c0,0,0,0,0.1-0.1
					C365.5,132.6,364.5,126.2,359.9,122.9z M352.1,133.5c-1.3-1-1.6-2.8-0.7-4.1c1-1.3,2.8-1.6,4.1-0.7c1.3,1,1.6,2.8,0.7,4.1
					c0,0,0,0,0,0C355.3,134.2,353.4,134.5,352.1,133.5L352.1,133.5z"/>
				<path class="st0" d="M159,249.8c-2.7,3.7-1.9,8.8,1.8,11.5c3.7,2.7,8.8,1.9,11.5-1.8c2.7-3.7,1.9-8.8-1.8-11.5
					C166.9,245.3,161.7,246.1,159,249.8C159,249.8,159,249.8,159,249.8z M167.6,256c-0.8,1-2.2,1.3-3.3,0.5c-1-0.8-1.3-2.2-0.5-3.3
					c0.8-1,2.2-1.3,3.3-0.5C168.1,253.5,168.4,255,167.6,256C167.6,256,167.6,256,167.6,256z"/>
				<path class="st0" d="M210.2,417c2.7,3.7,7.8,4.5,11.5,1.8c3.7-2.7,4.5-7.8,1.8-11.5s-7.8-4.5-11.5-1.8
					C208.4,408.2,207.6,413.3,210.2,417z M218.8,410.8c0.8,1,0.5,2.5-0.5,3.3c-1,0.8-2.5,0.5-3.3-0.5c-0.8-1-0.5-2.5,0.5-3.3
					c0,0,0,0,0,0C216.5,409.5,218,409.8,218.8,410.8z"/>
				<path class="st0" d="M385.1,420c4.3-1.4,6.7-6,5.3-10.4c-1.4-4.3-6-6.7-10.4-5.3c-4.3,1.4-6.7,6-5.3,10.3
					C376.1,419,380.7,421.4,385.1,420z M381.8,410c1.2-0.4,2.6,0.3,3,1.5s-0.3,2.6-1.5,3c-1.2,0.4-2.6-0.3-3-1.5c0,0,0,0,0,0
					C379.9,411.7,380.6,410.3,381.8,410L381.8,410z"/>
				<path class="st0" d="M441.9,254.6c0-4.5-3.7-8.2-8.2-8.2c-4.5,0-8.2,3.7-8.2,8.2c0,4.5,3.7,8.2,8.2,8.2c0,0,0,0,0,0
					C438.2,262.9,441.9,259.2,441.9,254.6z M431.4,254.6c0-1.3,1-2.4,2.3-2.4c1.3,0,2.4,1,2.4,2.3c0,1.3-1,2.4-2.3,2.4c0,0,0,0,0,0
					C432.4,257,431.4,255.9,431.4,254.6L431.4,254.6z"/>
				<path class="st0" d="M302.2,149.5c-4.3-1.4-8.9,1-10.4,5.3c-1.4,4.3,1,8.9,5.3,10.4c4.3,1.4,8.9-1,10.4-5.3c0,0,0,0,0,0
					C308.9,155.5,306.5,150.9,302.2,149.5z M299,159.5c-1.2-0.4-1.9-1.7-1.5-3c0.4-1.2,1.7-1.9,3-1.5c1.2,0.4,1.9,1.7,1.5,3
					c0,0,0,0,0,0C301.5,159.2,300.2,159.9,299,159.5z"/>
				<path class="st0" d="M180.3,295.9c-1.1,3.4,0.8,7.1,4.2,8.3c3.4,1.1,7.1-0.8,8.3-4.2c1.1-3.4-0.8-7.1-4.2-8.3
					C185.2,290.6,181.5,292.5,180.3,295.9C180.3,295.9,180.3,295.9,180.3,295.9z M188.4,298.6c-0.3,1-1.4,1.5-2.4,1.2
					c-1-0.3-1.5-1.4-1.2-2.4c0.3-1,1.4-1.5,2.4-1.2C188.1,296.5,188.7,297.6,188.4,298.6C188.4,298.6,188.4,298.6,188.4,298.6
					L188.4,298.6z"/>
				<path class="st0" d="M260.6,410.5c2.9,2.1,7,1.5,9.2-1.5c2.1-2.9,1.5-7-1.5-9.2c-2.9-2.1-7-1.5-9.2,1.5
					C257,404.2,257.7,408.4,260.6,410.5C260.6,410.5,260.6,410.5,260.6,410.5z M265.6,403.7c0.8,0.6,1,1.8,0.4,2.6
					c-0.6,0.8-1.8,1-2.6,0.4c-0.8-0.6-1-1.8-0.4-2.6C263.6,403.2,264.7,403.1,265.6,403.7L265.6,403.7z"/>
				<path class="st0" d="M394.4,369.5c2.9-2.1,3.6-6.2,1.4-9.2c-2.1-2.9-6.2-3.6-9.2-1.4c-2.9,2.1-3.6,6.2-1.4,9.1
					C387.3,371,391.4,371.7,394.4,369.5C394.3,369.6,394.4,369.5,394.4,369.5z M389.4,362.7c0.8-0.6,2-0.4,2.6,0.4s0.4,2-0.4,2.6
					c-0.8,0.6-2,0.4-2.6-0.4C388.4,364.5,388.5,363.3,389.4,362.7C389.4,362.7,389.4,362.7,389.4,362.7L389.4,362.7z"/>
				<path class="st0" d="M396.8,229.7c-1.1-3.4-4.8-5.3-8.3-4.2c-3.4,1.1-5.3,4.8-4.2,8.3c1.1,3.4,4.8,5.3,8.3,4.2
					C396,236.9,397.9,233.2,396.8,229.7C396.8,229.7,396.8,229.7,396.8,229.7z M388.7,232.3c-0.3-1,0.2-2,1.2-2.4
					c1-0.3,2,0.2,2.4,1.2c0.3,1-0.2,2-1.2,2.4C390.1,233.8,389,233.3,388.7,232.3C388.7,232.3,388.7,232.3,388.7,232.3L388.7,232.3z
					"/>
				<path class="st0" d="M264.5,184.2c-3.6,0-6.6,2.9-6.6,6.6s2.9,6.6,6.6,6.6c3.6,0,6.6-2.9,6.6-6.6S268.1,184.2,264.5,184.2z
					 M264.5,192.6c-1,0-1.9-0.8-1.9-1.9s0.8-1.9,1.9-1.9s1.9,0.8,1.9,1.9C266.4,191.8,265.5,192.6,264.5,192.6
					C264.5,192.6,264.5,192.6,264.5,192.6L264.5,192.6z"/>
				<path class="st0" d="M208.1,326.2c0,2.9,2.4,5.3,5.3,5.3c2.9,0,5.3-2.4,5.3-5.3c0-2.9-2.4-5.3-5.3-5.3h0
					C210.5,320.9,208.1,323.3,208.1,326.2z M214.9,326.2c0,0.8-0.7,1.5-1.5,1.5c-0.8,0-1.5-0.7-1.5-1.5c0-0.8,0.7-1.5,1.5-1.5
					C214.2,324.7,214.9,325.3,214.9,326.2L214.9,326.2z"/>
				<path class="st0" d="M297.5,393.5c2.8,0.9,5.7-0.6,6.6-3.4c0.9-2.8-0.6-5.7-3.4-6.6c-2.8-0.9-5.7,0.6-6.6,3.4
					C293.2,389.6,294.7,392.6,297.5,393.5C297.5,393.5,297.5,393.5,297.5,393.5z M299.6,387c0.8,0.3,1.2,1.1,1,1.9s-1.1,1.2-1.9,1
					c-0.8-0.3-1.2-1.1-1-1.9c0,0,0,0,0,0C298,387.2,298.8,386.8,299.6,387L299.6,387z"/>
				<path class="st0" d="M389.1,329.2c1.7-2.3,1.2-5.6-1.2-7.3c-2.3-1.7-5.6-1.2-7.3,1.2s-1.2,5.6,1.2,7.3c0,0,0,0,0,0
					C384.2,332.1,387.4,331.6,389.1,329.2C389.1,329.3,389.1,329.3,389.1,329.2z M383.7,325.3c0.5-0.7,1.4-0.8,2.1-0.3
					c0.7,0.5,0.8,1.4,0.3,2.1c-0.5,0.7-1.4,0.8-2.1,0.3C383.3,326.9,383.2,326,383.7,325.3z"/>
				<path class="st0" d="M356.4,222.2c-1.7-2.4-5-2.9-7.3-1.2c-2.4,1.7-2.9,5-1.2,7.3c1.7,2.4,5,2.9,7.3,1.2c0,0,0,0,0,0
					C357.6,227.9,358.1,224.6,356.4,222.2z M350.9,226.2c-0.5-0.7-0.4-1.6,0.3-2.1c0.7-0.5,1.6-0.4,2.1,0.3c0.5,0.7,0.4,1.6-0.3,2.1
					c0,0,0,0,0,0C352.3,227,351.4,226.9,350.9,226.2C350.9,226.2,350.9,226.2,350.9,226.2z"/>
				<path class="st0" d="M244.5,220.3c-2.8,0.9-4.3,3.9-3.4,6.6c0.9,2.8,3.9,4.3,6.6,3.4c2.8-0.9,4.3-3.9,3.4-6.6
					C250.2,220.9,247.3,219.4,244.5,220.3C244.5,220.3,244.5,220.3,244.5,220.3z M246.6,226.7c-0.8,0.3-1.6-0.1-1.9-0.9
					s0.1-1.6,0.9-1.9c0.8-0.3,1.6,0.1,1.9,0.9c0,0,0,0,0,0C247.8,225.7,247.3,226.5,246.6,226.7L246.6,226.7z"/>
				<path class="st0" d="M237,342.1c0.7,2.2,3.1,3.4,5.3,2.7c2.2-0.7,3.4-3.1,2.7-5.3c-0.7-2.2-3.1-3.4-5.3-2.7
					C237.5,337.5,236.3,339.9,237,342.1C237,342.1,237,342.1,237,342.1z M242.2,340.5c0.2,0.6-0.1,1.3-0.8,1.5
					c-0.6,0.2-1.3-0.1-1.5-0.8c-0.2-0.6,0.1-1.3,0.8-1.5C241.3,339.5,242,339.8,242.2,340.5C242.2,340.4,242.2,340.5,242.2,340.5z"
					/>
				<path class="st0" d="M321.7,371.2c2.3,0,4.2-1.9,4.2-4.2c0-2.3-1.9-4.2-4.2-4.2c-2.3,0-4.2,1.9-4.2,4.2c0,0,0,0,0,0
					C317.5,369.4,319.4,371.2,321.7,371.2z M321.7,365.8c0.7,0,1.2,0.5,1.2,1.2c0,0.7-0.5,1.2-1.2,1.2s-1.2-0.5-1.2-1.2c0,0,0,0,0,0
					C320.5,366.4,321,365.8,321.7,365.8C321.7,365.8,321.7,365.8,321.7,365.8L321.7,365.8z"/>
				<path class="st0" d="M375.5,299.7c0.7-2.2-0.5-4.6-2.7-5.3c-2.2-0.7-4.6,0.5-5.3,2.7c-0.7,2.2,0.5,4.6,2.7,5.3c0,0,0,0,0,0
					C372.4,303.1,374.8,301.9,375.5,299.7C375.5,299.7,375.5,299.7,375.5,299.7z M370.4,298.1c0.2-0.6,0.9-1,1.5-0.8
					c0.6,0.2,1,0.9,0.8,1.5c-0.2,0.6-0.9,1-1.5,0.8c0,0,0,0,0,0C370.5,299.4,370.2,298.7,370.4,298.1z"/>
				<path class="st0" d="M324.2,226.4c-1.9-1.4-4.5-0.9-5.9,0.9c-1.4,1.9-0.9,4.5,0.9,5.9c1.9,1.4,4.5,0.9,5.9-0.9c0,0,0,0,0,0
					C326.5,230.4,326,227.8,324.2,226.4z M321,230.8c-0.5-0.4-0.7-1.1-0.3-1.7c0,0,0,0,0,0c0.3-0.6,1.1-0.8,1.7-0.4
					c0.6,0.3,0.8,1.1,0.4,1.7c0,0.1-0.1,0.1-0.1,0.2C322.3,231.1,321.5,231.2,321,230.8C321,230.8,321,230.8,321,230.8z"/>
				<path class="st0" d="M238.5,252.6c-1.9,1.4-2.3,4-0.9,5.9s4,2.3,5.9,0.9c1.9-1.4,2.3-4,0.9-5.9c0,0,0,0,0,0
					C243.1,251.7,240.4,251.3,238.5,252.6C238.6,252.6,238.6,252.6,238.5,252.6z M241.7,257c-0.5,0.4-1.3,0.3-1.7-0.3
					s-0.3-1.3,0.3-1.7c0.5-0.4,1.3-0.3,1.7,0.3C242.4,255.8,242.3,256.6,241.7,257C241.7,257,241.7,257,241.7,257z"/>
				<path class="st0" d="M262.8,346.9c1.1,1.5,3.2,1.8,4.7,0.8c1.5-1.1,1.8-3.2,0.8-4.7c-1.1-1.5-3.2-1.8-4.7-0.8c0,0,0,0,0,0
					C262.1,343.3,261.8,345.4,262.8,346.9z M266.3,344.3c0.3,0.4,0.2,1-0.2,1.3c-0.4,0.3-1,0.2-1.3-0.2c-0.3-0.4-0.2-1,0.2-1.3
					c0,0,0,0,0,0C265.4,343.8,266,343.9,266.3,344.3C266.3,344.3,266.3,344.3,266.3,344.3L266.3,344.3z"/>
				<path class="st0" d="M334.5,348.1c1.8-0.6,2.7-2.5,2.2-4.2c-0.6-1.8-2.5-2.7-4.2-2.2s-2.7,2.5-2.2,4.2c0,0,0,0,0,0
					C330.8,347.7,332.7,348.7,334.5,348.1z M333.1,344c0.5-0.2,1,0.1,1.2,0.6c0.2,0.5-0.1,1-0.6,1.2c-0.5,0.2-1-0.1-1.2-0.6
					C332.3,344.7,332.6,344.2,333.1,344z"/>
				<path class="st0" d="M357.8,280.4c0-1.9-1.5-3.4-3.4-3.4c-1.9,0-3.4,1.5-3.4,3.4c0,1.9,1.5,3.4,3.4,3.4l0,0
					C356.2,283.8,357.8,282.2,357.8,280.4z M353.4,280.4c0-0.5,0.4-0.9,0.9-0.9s0.9,0.4,0.9,0.9s-0.4,0.9-0.9,0.9
					S353.4,280.9,353.4,280.4z"/>
				<path class="st0" d="M300.5,237.3c-1.8-0.6-3.7,0.4-4.2,2.2s0.4,3.7,2.2,4.2c1.8,0.6,3.7-0.4,4.2-2.2c0,0,0,0,0,0
					C303.3,239.8,302.3,237.9,300.5,237.3z M299.2,241.4c-0.5-0.2-0.7-0.7-0.6-1.2c0.2-0.5,0.7-0.7,1.2-0.6c0.5,0.2,0.7,0.7,0.6,1.2
					C300.3,241.3,299.7,241.6,299.2,241.4C299.2,241.4,299.2,241.4,299.2,241.4L299.2,241.4z"/>
				<path class="st0" d="M241.9,278.4c-1.1,1.5-0.8,3.6,0.7,4.7c1.5,1.1,3.6,0.8,4.7-0.7c1.1-1.5,0.8-3.6-0.7-4.7c0,0,0,0,0,0
					C245.1,276.6,243,276.9,241.9,278.4z M245.4,281c-0.3,0.4-0.9,0.5-1.3,0.2c-0.4-0.3-0.5-0.9-0.2-1.3c0.3-0.4,0.9-0.5,1.3-0.2
					C245.6,279.9,245.7,280.5,245.4,281C245.4,280.9,245.4,280.9,245.4,281L245.4,281z"/>
			</g>
			<g>
				<path class="st0" d="M214.2,19.8c-8.9,0-16.1,7.2-16.1,16.1s7.2,16.1,16.1,16.1s16.1-7.2,16.1-16.1c0,0,0,0,0,0
					C230.2,27,223.1,19.8,214.2,19.8C214.2,19.8,214.2,19.8,214.2,19.8z M214.2,40.4c-2.5,0-4.6-2.1-4.6-4.6c0-2.5,2.1-4.6,4.6-4.6
					c2.5,0,4.6,2.1,4.6,4.6C218.8,38.4,216.7,40.4,214.2,40.4C214.2,40.4,214.2,40.4,214.2,40.4L214.2,40.4z"/>
				<path class="st0" d="M8.8,292.6c-2.7,8.4,1.9,17.5,10.3,20.2c8.4,2.7,17.5-1.9,20.2-10.3c2.7-8.4-1.9-17.5-10.3-20.2
					C20.6,279.6,11.5,284.2,8.8,292.6z M28.4,299c-0.8,2.4-3.4,3.7-5.8,2.9c-2.4-0.8-3.7-3.4-2.9-5.8c0.8-2.4,3.4-3.7,5.8-2.9
					c0,0,0,0,0,0C27.9,294,29.2,296.6,28.4,299L28.4,299z"/>
				<path class="st0" d="M204.8,572.3c7.2,5.2,17.2,3.6,22.4-3.6c5.2-7.2,3.6-17.2-3.6-22.4c-7.2-5.2-17.2-3.6-22.4,3.6
					C196,557,197.6,567.1,204.8,572.3z M216.9,555.6c2,1.5,2.5,4.4,1,6.4s-4.4,2.5-6.4,1c-2-1.5-2.5-4.4-1-6.4
					C212,554.6,214.8,554.1,216.9,555.6C216.9,555.6,216.9,555.6,216.9,555.6z"/>
				<path class="st0" d="M531.3,472.3c7.2-5.2,8.8-15.2,3.6-22.4c-5.2-7.2-15.2-8.8-22.4-3.6c-7.2,5.2-8.8,15.2-3.6,22.4
					C514.1,475.9,524.1,477.5,531.3,472.3C531.3,472.3,531.3,472.3,531.3,472.3z M519.2,455.6c2.1-1.5,4.9-1,6.4,1
					c1.5,2.1,1,4.9-1,6.4c-2,1.5-4.9,1-6.4-1C516.7,460,517.1,457.1,519.2,455.6C519.2,455.6,519.2,455.6,519.2,455.6z"/>
				<path class="st0" d="M537.2,130.9c-2.7-8.4-11.8-13-20.2-10.3c-8.4,2.7-13,11.8-10.3,20.2c2.7,8.4,11.8,13,20.2,10.3
					C535.3,148.3,539.9,139.3,537.2,130.9z M517.5,137.2c-0.8-2.4,0.5-5,2.9-5.8s5,0.5,5.8,2.9c0.8,2.4-0.5,5-2.9,5.8c0,0,0,0,0,0
					C520.9,141,518.3,139.6,517.5,137.2C517.5,137.2,517.5,137.2,517.5,137.2z"/>
				<path class="st0" d="M165.4,108c-6.7,2.2-10.4,9.4-8.2,16.2c2.2,6.7,9.4,10.4,16.2,8.2c6.7-2.2,10.4-9.4,8.2-16.2
					C179.4,109.5,172.2,105.8,165.4,108C165.4,108,165.4,108,165.4,108z M170.5,123.8c-1.9,0.6-4-0.4-4.6-2.3
					c-0.6-1.9,0.4-4,2.3-4.6c1.9-0.6,4,0.4,4.6,2.3c0,0,0,0,0,0C173.5,121.1,172.5,123.1,170.5,123.8
					C170.5,123.7,170.5,123.7,170.5,123.8z"/>
				<path class="st0" d="M76.6,366.4c0,7.1,5.8,12.8,12.8,12.8s12.8-5.8,12.8-12.8s-5.8-12.8-12.8-12.8S76.6,359.3,76.6,366.4
					L76.6,366.4z M93.1,366.4c0,2-1.6,3.7-3.7,3.7c-2,0-3.7-1.6-3.7-3.7c0-2,1.6-3.7,3.7-3.7c0,0,0,0,0,0
					C91.5,362.7,93.1,364.4,93.1,366.4L93.1,366.4z"/>
				<path class="st0" d="M294.8,530.7c6.7,2.2,14-1.5,16.2-8.2s-1.5-14-8.2-16.2c-6.7-2.2-14,1.5-16.2,8.2c0,0,0,0,0,0
					C284.4,521.3,288.1,528.5,294.8,530.7z M299.9,515c1.9,0.6,3,2.7,2.4,4.6c-0.6,1.9-2.7,3-4.6,2.4c-1.9-0.6-3-2.7-2.4-4.6
					c0,0,0,0,0,0C296,515.4,298,514.4,299.9,515z"/>
				<path class="st0" d="M518.6,373.9c4.2-5.7,2.9-13.8-2.8-17.9c-5.7-4.2-13.8-2.9-17.9,2.8c-4.2,5.7-2.9,13.8,2.8,17.9
					c0,0,0,0,0,0C506.4,380.9,514.4,379.7,518.6,373.9z M505.2,364.2c1.2-1.6,3.5-2,5.1-0.8c1.6,1.2,2,3.5,0.8,5.1
					c-1.2,1.6-3.5,2-5.1,0.8C504.4,368.2,504,365.9,505.2,364.2z"/>
				<path class="st0" d="M438.6,112.7c-4.2-5.7-12.2-7-17.9-2.8c-5.7,4.2-7,12.2-2.8,17.9s12.2,7,17.9,2.8c0,0,0,0,0,0
					C441.5,126.4,442.8,118.4,438.6,112.7z M425.2,122.4c-1.2-1.6-0.8-3.9,0.8-5.1c1.6-1.2,3.9-0.8,5.1,0.8c1.2,1.6,0.8,3.9-0.8,5.1
					C428.7,124.4,426.4,124,425.2,122.4z"/>
				<path class="st0" d="M150.9,186.8c-4.6,3.3-5.7,9.8-2.3,14.4c3.3,4.6,9.8,5.7,14.4,2.3c4.6-3.3,5.7-9.8,2.3-14.4c0,0,0,0,0-0.1
					C161.9,184.5,155.5,183.5,150.9,186.8z M158.7,197.5c-1.3,1-3.1,0.7-4.1-0.6c-1-1.3-0.7-3.1,0.6-4.1c1.3-1,3.1-0.7,4.1,0.6
					c0,0,0,0,0,0C160.3,194.7,160,196.6,158.7,197.5C158.7,197.5,158.7,197.5,158.7,197.5L158.7,197.5z"/>
				<path class="st0" d="M147.2,405.4c1.7,5.4,7.6,8.4,13,6.7s8.4-7.6,6.7-13s-7.6-8.4-13-6.7c0,0-0.1,0-0.1,0
					C148.4,394.2,145.5,400,147.2,405.4z M159.8,401.3c0.5,1.5-0.3,3.2-1.9,3.7c-1.5,0.5-3.2-0.3-3.7-1.9c-0.5-1.5,0.3-3.2,1.9-3.7
					C157.6,398.9,159.2,399.8,159.8,401.3L159.8,401.3z"/>
				<path class="st0" d="M353.9,476.5c5.7,0,10.3-4.6,10.3-10.3c0-5.7-4.6-10.3-10.3-10.3s-10.3,4.6-10.3,10.3
					C343.5,471.8,348.2,476.5,353.9,476.5L353.9,476.5z M353.9,463.2c1.6,0,2.9,1.3,3,2.9c0,1.6-1.3,2.9-2.9,3c-1.6,0-2.9-1.3-3-2.9
					c0,0,0,0,0,0C350.9,464.6,352.2,463.2,353.9,463.2L353.9,463.2z"/>
				<path class="st0" d="M485.3,301.9c1.8-5.4-1.1-11.2-6.5-13c-5.4-1.8-11.2,1.1-13,6.5c-1.8,5.4,1.1,11.2,6.5,13c0,0,0.1,0,0.1,0
					C477.8,310.2,483.6,307.3,485.3,301.9C485.3,301.9,485.3,301.9,485.3,301.9z M472.8,297.8c0.5-1.5,2.2-2.4,3.7-1.9
					c1.5,0.5,2.4,2.2,1.9,3.7c-0.5,1.5-2.2,2.4-3.7,1.9C473.1,301,472.3,299.3,472.8,297.8L472.8,297.8z"/>
				<path class="st0" d="M359.9,122.9c-4.6-3.4-11-2.4-14.4,2.2c-3.4,4.6-2.4,11,2.2,14.4c4.6,3.4,11,2.4,14.4-2.2c0,0,0,0,0.1-0.1
					C365.5,132.6,364.5,126.2,359.9,122.9z M352.1,133.5c-1.3-1-1.6-2.8-0.7-4.1c1-1.3,2.8-1.6,4.1-0.7c1.3,1,1.6,2.8,0.7,4.1
					c0,0,0,0,0,0C355.3,134.2,353.4,134.5,352.1,133.5L352.1,133.5z"/>
				<path class="st0" d="M159,249.8c-2.7,3.7-1.9,8.8,1.8,11.5c3.7,2.7,8.8,1.9,11.5-1.8c2.7-3.7,1.9-8.8-1.8-11.5
					C166.9,245.3,161.7,246.1,159,249.8C159,249.8,159,249.8,159,249.8z M167.6,256c-0.8,1-2.2,1.3-3.3,0.5c-1-0.8-1.3-2.2-0.5-3.3
					c0.8-1,2.2-1.3,3.3-0.5C168.1,253.5,168.4,255,167.6,256C167.6,256,167.6,256,167.6,256z"/>
				<path class="st0" d="M210.2,417c2.7,3.7,7.8,4.5,11.5,1.8c3.7-2.7,4.5-7.8,1.8-11.5s-7.8-4.5-11.5-1.8
					C208.4,408.2,207.6,413.3,210.2,417z M218.8,410.8c0.8,1,0.5,2.5-0.5,3.3c-1,0.8-2.5,0.5-3.3-0.5c-0.8-1-0.5-2.5,0.5-3.3
					c0,0,0,0,0,0C216.5,409.5,218,409.8,218.8,410.8z"/>
				<path class="st0" d="M385.1,420c4.3-1.4,6.7-6,5.3-10.4c-1.4-4.3-6-6.7-10.4-5.3c-4.3,1.4-6.7,6-5.3,10.3
					C376.1,419,380.7,421.4,385.1,420z M381.8,410c1.2-0.4,2.6,0.3,3,1.5s-0.3,2.6-1.5,3c-1.2,0.4-2.6-0.3-3-1.5c0,0,0,0,0,0
					C379.9,411.7,380.6,410.3,381.8,410L381.8,410z"/>
				<path class="st0" d="M441.9,254.6c0-4.5-3.7-8.2-8.2-8.2c-4.5,0-8.2,3.7-8.2,8.2c0,4.5,3.7,8.2,8.2,8.2c0,0,0,0,0,0
					C438.2,262.9,441.9,259.2,441.9,254.6z M431.4,254.6c0-1.3,1-2.4,2.3-2.4c1.3,0,2.4,1,2.4,2.3c0,1.3-1,2.4-2.3,2.4c0,0,0,0,0,0
					C432.4,257,431.4,255.9,431.4,254.6L431.4,254.6z"/>
				<path class="st0" d="M302.2,149.5c-4.3-1.4-8.9,1-10.4,5.3c-1.4,4.3,1,8.9,5.3,10.4c4.3,1.4,8.9-1,10.4-5.3c0,0,0,0,0,0
					C308.9,155.5,306.5,150.9,302.2,149.5z M299,159.5c-1.2-0.4-1.9-1.7-1.5-3c0.4-1.2,1.7-1.9,3-1.5c1.2,0.4,1.9,1.7,1.5,3
					c0,0,0,0,0,0C301.5,159.2,300.2,159.9,299,159.5z"/>
				<path class="st0" d="M180.3,295.9c-1.1,3.4,0.8,7.1,4.2,8.3c3.4,1.1,7.1-0.8,8.3-4.2c1.1-3.4-0.8-7.1-4.2-8.3
					C185.2,290.6,181.5,292.5,180.3,295.9C180.3,295.9,180.3,295.9,180.3,295.9z M188.4,298.6c-0.3,1-1.4,1.5-2.4,1.2
					c-1-0.3-1.5-1.4-1.2-2.4c0.3-1,1.4-1.5,2.4-1.2C188.1,296.5,188.7,297.6,188.4,298.6C188.4,298.6,188.4,298.6,188.4,298.6
					L188.4,298.6z"/>
				<path class="st0" d="M260.6,410.5c2.9,2.1,7,1.5,9.2-1.5c2.1-2.9,1.5-7-1.5-9.2c-2.9-2.1-7-1.5-9.2,1.5
					C257,404.2,257.7,408.4,260.6,410.5C260.6,410.5,260.6,410.5,260.6,410.5z M265.6,403.7c0.8,0.6,1,1.8,0.4,2.6
					c-0.6,0.8-1.8,1-2.6,0.4c-0.8-0.6-1-1.8-0.4-2.6C263.6,403.2,264.7,403.1,265.6,403.7L265.6,403.7z"/>
				<path class="st0" d="M394.4,369.5c2.9-2.1,3.6-6.2,1.4-9.2c-2.1-2.9-6.2-3.6-9.2-1.4c-2.9,2.1-3.6,6.2-1.4,9.1
					C387.3,371,391.4,371.7,394.4,369.5C394.3,369.6,394.4,369.5,394.4,369.5z M389.4,362.7c0.8-0.6,2-0.4,2.6,0.4s0.4,2-0.4,2.6
					c-0.8,0.6-2,0.4-2.6-0.4C388.4,364.5,388.5,363.3,389.4,362.7C389.4,362.7,389.4,362.7,389.4,362.7L389.4,362.7z"/>
				<path class="st0" d="M396.8,229.7c-1.1-3.4-4.8-5.3-8.3-4.2c-3.4,1.1-5.3,4.8-4.2,8.3c1.1,3.4,4.8,5.3,8.3,4.2
					C396,236.9,397.9,233.2,396.8,229.7C396.8,229.7,396.8,229.7,396.8,229.7z M388.7,232.3c-0.3-1,0.2-2,1.2-2.4
					c1-0.3,2,0.2,2.4,1.2c0.3,1-0.2,2-1.2,2.4C390.1,233.8,389,233.3,388.7,232.3C388.7,232.3,388.7,232.3,388.7,232.3L388.7,232.3z
					"/>
				<path class="st0" d="M264.5,184.2c-3.6,0-6.6,2.9-6.6,6.6s2.9,6.6,6.6,6.6c3.6,0,6.6-2.9,6.6-6.6S268.1,184.2,264.5,184.2z
					 M264.5,192.6c-1,0-1.9-0.8-1.9-1.9s0.8-1.9,1.9-1.9s1.9,0.8,1.9,1.9C266.4,191.8,265.5,192.6,264.5,192.6
					C264.5,192.6,264.5,192.6,264.5,192.6L264.5,192.6z"/>
				<path class="st0" d="M208.1,326.2c0,2.9,2.4,5.3,5.3,5.3c2.9,0,5.3-2.4,5.3-5.3c0-2.9-2.4-5.3-5.3-5.3h0
					C210.5,320.9,208.1,323.3,208.1,326.2z M214.9,326.2c0,0.8-0.7,1.5-1.5,1.5c-0.8,0-1.5-0.7-1.5-1.5c0-0.8,0.7-1.5,1.5-1.5
					C214.2,324.7,214.9,325.3,214.9,326.2L214.9,326.2z"/>
				<path class="st0" d="M297.5,393.5c2.8,0.9,5.7-0.6,6.6-3.4c0.9-2.8-0.6-5.7-3.4-6.6c-2.8-0.9-5.7,0.6-6.6,3.4
					C293.2,389.6,294.7,392.6,297.5,393.5C297.5,393.5,297.5,393.5,297.5,393.5z M299.6,387c0.8,0.3,1.2,1.1,1,1.9s-1.1,1.2-1.9,1
					c-0.8-0.3-1.2-1.1-1-1.9c0,0,0,0,0,0C298,387.2,298.8,386.8,299.6,387L299.6,387z"/>
				<path class="st0" d="M389.1,329.2c1.7-2.3,1.2-5.6-1.2-7.3c-2.3-1.7-5.6-1.2-7.3,1.2s-1.2,5.6,1.2,7.3c0,0,0,0,0,0
					C384.2,332.1,387.4,331.6,389.1,329.2C389.1,329.3,389.1,329.3,389.1,329.2z M383.7,325.3c0.5-0.7,1.4-0.8,2.1-0.3
					c0.7,0.5,0.8,1.4,0.3,2.1c-0.5,0.7-1.4,0.8-2.1,0.3C383.3,326.9,383.2,326,383.7,325.3z"/>
				<path class="st0" d="M356.4,222.2c-1.7-2.4-5-2.9-7.3-1.2c-2.4,1.7-2.9,5-1.2,7.3c1.7,2.4,5,2.9,7.3,1.2c0,0,0,0,0,0
					C357.6,227.9,358.1,224.6,356.4,222.2z M350.9,226.2c-0.5-0.7-0.4-1.6,0.3-2.1c0.7-0.5,1.6-0.4,2.1,0.3c0.5,0.7,0.4,1.6-0.3,2.1
					c0,0,0,0,0,0C352.3,227,351.4,226.9,350.9,226.2C350.9,226.2,350.9,226.2,350.9,226.2z"/>
				<path class="st0" d="M244.5,220.3c-2.8,0.9-4.3,3.9-3.4,6.6c0.9,2.8,3.9,4.3,6.6,3.4c2.8-0.9,4.3-3.9,3.4-6.6
					C250.2,220.9,247.3,219.4,244.5,220.3C244.5,220.3,244.5,220.3,244.5,220.3z M246.6,226.7c-0.8,0.3-1.6-0.1-1.9-0.9
					s0.1-1.6,0.9-1.9c0.8-0.3,1.6,0.1,1.9,0.9c0,0,0,0,0,0C247.8,225.7,247.3,226.5,246.6,226.7L246.6,226.7z"/>
				<path class="st0" d="M237,342.1c0.7,2.2,3.1,3.4,5.3,2.7c2.2-0.7,3.4-3.1,2.7-5.3c-0.7-2.2-3.1-3.4-5.3-2.7
					C237.5,337.5,236.3,339.9,237,342.1C237,342.1,237,342.1,237,342.1z M242.2,340.5c0.2,0.6-0.1,1.3-0.8,1.5
					c-0.6,0.2-1.3-0.1-1.5-0.8c-0.2-0.6,0.1-1.3,0.8-1.5C241.3,339.5,242,339.8,242.2,340.5C242.2,340.4,242.2,340.5,242.2,340.5z"
					/>
				<path class="st0" d="M321.7,371.2c2.3,0,4.2-1.9,4.2-4.2c0-2.3-1.9-4.2-4.2-4.2c-2.3,0-4.2,1.9-4.2,4.2c0,0,0,0,0,0
					C317.5,369.4,319.4,371.2,321.7,371.2z M321.7,365.8c0.7,0,1.2,0.5,1.2,1.2c0,0.7-0.5,1.2-1.2,1.2s-1.2-0.5-1.2-1.2c0,0,0,0,0,0
					C320.5,366.4,321,365.8,321.7,365.8C321.7,365.8,321.7,365.8,321.7,365.8L321.7,365.8z"/>
				<path class="st0" d="M375.5,299.7c0.7-2.2-0.5-4.6-2.7-5.3c-2.2-0.7-4.6,0.5-5.3,2.7c-0.7,2.2,0.5,4.6,2.7,5.3c0,0,0,0,0,0
					C372.4,303.1,374.8,301.9,375.5,299.7C375.5,299.7,375.5,299.7,375.5,299.7z M370.4,298.1c0.2-0.6,0.9-1,1.5-0.8
					c0.6,0.2,1,0.9,0.8,1.5c-0.2,0.6-0.9,1-1.5,0.8c0,0,0,0,0,0C370.5,299.4,370.2,298.7,370.4,298.1z"/>
				<path class="st0" d="M324.2,226.4c-1.9-1.4-4.5-0.9-5.9,0.9c-1.4,1.9-0.9,4.5,0.9,5.9c1.9,1.4,4.5,0.9,5.9-0.9c0,0,0,0,0,0
					C326.5,230.4,326,227.8,324.2,226.4z M321,230.8c-0.5-0.4-0.7-1.1-0.3-1.7c0,0,0,0,0,0c0.3-0.6,1.1-0.8,1.7-0.4
					c0.6,0.3,0.8,1.1,0.4,1.7c0,0.1-0.1,0.1-0.1,0.2C322.3,231.1,321.5,231.2,321,230.8C321,230.8,321,230.8,321,230.8z"/>
				<path class="st0" d="M238.5,252.6c-1.9,1.4-2.3,4-0.9,5.9s4,2.3,5.9,0.9c1.9-1.4,2.3-4,0.9-5.9c0,0,0,0,0,0
					C243.1,251.7,240.4,251.3,238.5,252.6C238.6,252.6,238.6,252.6,238.5,252.6z M241.7,257c-0.5,0.4-1.3,0.3-1.7-0.3
					s-0.3-1.3,0.3-1.7c0.5-0.4,1.3-0.3,1.7,0.3C242.4,255.8,242.3,256.6,241.7,257C241.7,257,241.7,257,241.7,257z"/>
				<path class="st0" d="M262.8,346.9c1.1,1.5,3.2,1.8,4.7,0.8c1.5-1.1,1.8-3.2,0.8-4.7c-1.1-1.5-3.2-1.8-4.7-0.8c0,0,0,0,0,0
					C262.1,343.3,261.8,345.4,262.8,346.9z M266.3,344.3c0.3,0.4,0.2,1-0.2,1.3c-0.4,0.3-1,0.2-1.3-0.2c-0.3-0.4-0.2-1,0.2-1.3
					c0,0,0,0,0,0C265.4,343.8,266,343.9,266.3,344.3C266.3,344.3,266.3,344.3,266.3,344.3L266.3,344.3z"/>
				<path class="st0" d="M334.5,348.1c1.8-0.6,2.7-2.5,2.2-4.2c-0.6-1.8-2.5-2.7-4.2-2.2s-2.7,2.5-2.2,4.2c0,0,0,0,0,0
					C330.8,347.7,332.7,348.7,334.5,348.1z M333.1,344c0.5-0.2,1,0.1,1.2,0.6c0.2,0.5-0.1,1-0.6,1.2c-0.5,0.2-1-0.1-1.2-0.6
					C332.3,344.7,332.6,344.2,333.1,344z"/>
				<path class="st0" d="M357.8,280.4c0-1.9-1.5-3.4-3.4-3.4c-1.9,0-3.4,1.5-3.4,3.4c0,1.9,1.5,3.4,3.4,3.4l0,0
					C356.2,283.8,357.8,282.2,357.8,280.4z M353.4,280.4c0-0.5,0.4-0.9,0.9-0.9s0.9,0.4,0.9,0.9s-0.4,0.9-0.9,0.9
					S353.4,280.9,353.4,280.4z"/>
				<path class="st0" d="M300.5,237.3c-1.8-0.6-3.7,0.4-4.2,2.2s0.4,3.7,2.2,4.2c1.8,0.6,3.7-0.4,4.2-2.2c0,0,0,0,0,0
					C303.3,239.8,302.3,237.9,300.5,237.3z M299.2,241.4c-0.5-0.2-0.7-0.7-0.6-1.2c0.2-0.5,0.7-0.7,1.2-0.6c0.5,0.2,0.7,0.7,0.6,1.2
					C300.3,241.3,299.7,241.6,299.2,241.4C299.2,241.4,299.2,241.4,299.2,241.4L299.2,241.4z"/>
				<path class="st0" d="M241.9,278.4c-1.1,1.5-0.8,3.6,0.7,4.7c1.5,1.1,3.6,0.8,4.7-0.7c1.1-1.5,0.8-3.6-0.7-4.7c0,0,0,0,0,0
					C245.1,276.6,243,276.9,241.9,278.4z M245.4,281c-0.3,0.4-0.9,0.5-1.3,0.2c-0.4-0.3-0.5-0.9-0.2-1.3c0.3-0.4,0.9-0.5,1.3-0.2
					C245.6,279.9,245.7,280.5,245.4,281C245.4,280.9,245.4,280.9,245.4,281L245.4,281z"/>
			</g>
		</g>
	</g>
	<g>
		<g>
			
				<rect x="378.5" y="8.3" transform="matrix(0.7071 -0.7071 0.7071 0.7071 87.2104 282.2186)" class="st0" width="11.5" height="55"/>
			<rect x="49.1" y="130.1" transform="matrix(0.891 -0.454 0.454 0.891 -53.3107 49.5727)" class="st0" width="55" height="11.5"/>
			
				<rect x="70.9" y="431.8" transform="matrix(0.9877 -0.1564 0.1564 0.9877 -70.9122 17.6363)" class="st0" width="11.5" height="55"/>
			
				<rect x="378.5" y="531.8" transform="matrix(0.1564 -0.9877 0.9877 0.1564 -228.2673 851.3572)" class="st0" width="11.5" height="55"/>
			
				<rect x="546.9" y="291.8" transform="matrix(0.454 -0.891 0.891 0.454 48.5039 674.2946)" class="st0" width="55" height="11.5"/>
			<rect x="294.2" y="56.2" transform="matrix(0.454 -0.891 0.891 0.454 93.4977 308.9305)" class="st0" width="9.2" height="44"/>
			
				<rect x="67.4" y="225.7" transform="matrix(0.7071 -0.7071 0.7071 0.7071 -136.6599 130.6907)" class="st0" width="44" height="9.2"/>
			
				<rect x="164.8" y="454.4" transform="matrix(0.891 -0.454 0.454 0.891 -197.8444 128.8418)" class="st0" width="9.2" height="44"/>
			
				<rect x="406.2" y="471.9" transform="matrix(0.9877 -0.1564 0.1564 0.9877 -69.262 72.8551)" class="st0" width="44" height="9.2"/>
			
				<rect x="486.2" y="225.7" transform="matrix(0.1564 -0.9877 0.9877 0.1564 201.2159 696.224)" class="st0" width="44" height="9.2"/>
			
				<rect x="241.3" y="113.6" transform="matrix(0.1564 -0.9877 0.9877 0.1564 77.1247 352.6327)" class="st0" width="7.3" height="35.2"/>
			
				<rect x="105.7" y="295" transform="matrix(0.454 -0.891 0.891 0.454 -198.7923 272.9426)" class="st0" width="35.2" height="7.3"/>
			
				<rect x="241.3" y="448.6" transform="matrix(0.7071 -0.7071 0.7071 0.7071 -257.8868 309.7832)" class="st0" width="7.3" height="35.2"/>
			
				<rect x="424.3" y="398.5" transform="matrix(0.891 -0.454 0.454 0.891 -134.429 244.4645)" class="st0" width="35.2" height="7.3"/>
			
				<rect x="436.5" y="178.6" transform="matrix(0.9872 -0.1595 0.1595 0.9872 -25.6774 72.746)" class="st0" width="7.4" height="35.3"/>
			
				<rect x="202.8" y="181.3" transform="matrix(0.9877 -0.1564 0.1564 0.9877 -26.1431 36.1949)" class="st0" width="28.2" height="5.9"/>
			
				<rect x="150.7" y="340.2" transform="matrix(0.1595 -0.9872 0.9872 0.1595 -200.1631 451.1058)" class="st0" width="28.3" height="5.9"/>
			
				<rect x="296.8" y="425" transform="matrix(0.454 -0.891 0.891 0.454 -227.5989 506.7729)" class="st0" width="5.9" height="28.2"/>
			
				<rect x="419.6" y="338.8" transform="matrix(0.7071 -0.7071 0.7071 0.7071 -114.6064 406.7678)" class="st0" width="28.2" height="5.9"/>
			
				<rect x="379.6" y="170.1" transform="matrix(0.891 -0.454 0.454 0.891 -41.9296 193.7339)" class="st0" width="5.9" height="28.2"/>
			
				<rect x="196.8" y="229.4" transform="matrix(0.891 -0.454 0.454 0.891 -82.5139 119.7331)" class="st0" width="22.5" height="4.7"/>
			
				<rect x="205.8" y="353" transform="matrix(0.9877 -0.1564 0.1564 0.9877 -54.4168 37.0392)" class="st0" width="4.7" height="22.5"/>
			
				<rect x="333.9" y="394.5" transform="matrix(0.1595 -0.9872 0.9872 0.1595 -118.0415 673.0531)" class="st0" width="4.7" height="22.6"/>
			
				<rect x="400.7" y="295.6" transform="matrix(0.454 -0.891 0.891 0.454 -40.5212 529.8074)" class="st0" width="22.5" height="4.7"/>
			
				<rect x="331.8" y="179.5" transform="matrix(0.7071 -0.7071 0.7071 0.7071 -37.0248 292.1406)" class="st0" width="4.7" height="22.5"/>
			
				<rect x="204.3" y="268.5" transform="matrix(0.7071 -0.7071 0.7071 0.7071 -128.7233 230.0761)" class="st0" width="18" height="3.8"/>
			
				<rect x="244.2" y="362.2" transform="matrix(0.891 -0.454 0.454 0.891 -141.714 152.2025)" class="st0" width="3.8" height="18"/>
			
				<rect x="343.1" y="369.4" transform="matrix(0.9877 -0.1564 0.1564 0.9877 -53.74 59.6559)" class="st0" width="18" height="3.8"/>
			
				<rect x="375.9" y="268.5" transform="matrix(0.1564 -0.9877 0.9877 0.1564 57.5938 608.2706)" class="st0" width="18" height="3.8"/>
			
				<rect x="297.3" y="199.1" transform="matrix(0.454 -0.891 0.891 0.454 -22.1028 380.1649)" class="st0" width="3.8" height="18"/>
			<rect x="220" y="296.9" transform="matrix(0.454 -0.891 0.891 0.454 -141.8177 365.4166)" class="st0" width="14.4" height="3"/>
			
				<rect x="275.6" y="359.8" transform="matrix(0.7071 -0.7071 0.7071 0.7071 -178.3726 303.4326)" class="st0" width="3" height="14.4"/>
			
				<rect x="350.5" y="339.3" transform="matrix(0.891 -0.454 0.454 0.891 -115.7414 199.5591)" class="st0" width="14.4" height="3"/>
			
				<rect x="356.2" y="248.8" transform="matrix(0.9877 -0.1564 0.1564 0.9877 -35.6464 59.117)" class="st0" width="3" height="14.4"/>
			
				<rect x="274.1" y="222.4" transform="matrix(0.1595 -0.9872 0.9872 0.1595 4.9027 465.0357)" class="st0" width="3" height="14.5"/>
			
				<rect x="238.8" y="314.9" transform="matrix(0.1564 -0.9877 0.9877 0.1564 -105.8261 508.2133)" class="st0" width="11.5" height="2.4"/>
			
				<rect x="298.3" y="350.2" transform="matrix(0.454 -0.891 0.891 0.454 -153.6107 461.1906)" class="st0" width="2.4" height="11.5"/>
			
				<rect x="348.6" y="314.9" transform="matrix(0.7071 -0.7071 0.7071 0.7071 -119.6906 343.154)" class="st0" width="11.5" height="2.4"/>
			
				<rect x="332.2" y="245.8" transform="matrix(0.891 -0.454 0.454 0.891 -77.8512 178.783)" class="st0" width="2.4" height="11.5"/>
			
				<rect x="259.8" y="250.3" transform="matrix(0.9877 -0.1564 0.1564 0.9877 -36.0783 44.6407)" class="st0" width="11.5" height="2.4"/>
		</g>
		<g>
			<circle class="st0" cx="287.7" cy="22.4" r="8.1"/>
			<circle class="st0" cx="449.4" cy="74.9" r="8.1"/>
			<circle class="st0" cx="33.9" cy="223.5" r="8.1"/>
			<circle class="st0" cx="133.9" cy="85.9" r="8.1"/>
			<circle class="st0" cx="146.8" cy="527" r="8.1"/>
			<circle class="st0" cx="46.8" cy="389.4" r="8.1"/>
			<circle class="st0" cx="470.3" cy="513.4" r="8.1"/>
			<circle class="st0" cx="308.6" cy="566" r="8.1"/>
			<circle class="st0" cx="557.4" cy="201.6" r="8.1"/>
			<circle class="st0" cx="557.4" cy="371.6" r="8.1"/>
			<circle class="st0" cx="222" cy="91.8" r="6.5"/>
			<circle class="st0" cx="358.1" cy="91.8" r="6.5"/>
			<circle class="st0" cx="78.7" cy="307.6" r="6.5"/>
			<circle class="st0" cx="120.7" cy="178.2" r="6.5"/>
			<circle class="st0" cx="239.6" cy="510.6" r="6.5"/>
			<circle class="st0" cx="129.5" cy="430.6" r="6.5"/>
			
				<ellipse transform="matrix(0.1602 -0.9871 0.9871 0.1602 -9.7657 829.0843)" class="st0" cx="482.4" cy="420.3" rx="6.5" ry="6.5"/>
			<circle class="st0" cx="372.3" cy="500.3" r="6.5"/>
			<circle class="st0" cx="471.5" cy="161.5" r="6.5"/>
			<circle class="st0" cx="513.5" cy="290.9" r="6.5"/>
			<circle class="st0" cx="189.9" cy="160.5" r="5.2"/>
			<circle class="st0" cx="293.4" cy="126.9" r="5.2"/>
			<circle class="st0" cx="134.2" cy="360.1" r="5.2"/>
			<circle class="st0" cx="134.2" cy="251.3" r="5.2"/>
			<circle class="st0" cx="306.8" cy="474.8" r="5.2"/>
			<circle class="st0" cx="203.3" cy="441.2" r="5.2"/>
			<circle class="st0" cx="469.2" cy="346.1" r="5.2"/>
			<circle class="st0" cx="405.2" cy="434.1" r="5.2"/>
			<circle class="st0" cx="397" cy="151.8" r="5.2"/>
			<circle class="st0" cx="461" cy="239.9" r="5.2"/>
			<circle class="st0" cx="182.2" cy="220.1" r="4.2"/>
			<circle class="st0" cx="252.7" cy="169" r="4.2"/>
			<circle class="st0" cx="189.2" cy="385.8" r="4.2"/>
			<circle class="st0" cx="162.3" cy="303" r="4.2"/>
			<circle class="st0" cx="348.9" cy="430.4" r="4.2"/>
			<circle class="st0" cx="261.8" cy="430.4" r="4.2"/>
			<circle class="st0" cx="440.6" cy="292.3" r="4.2"/>
			<circle class="st0" cx="413.7" cy="375.1" r="4.2"/>
			<circle class="st0" cx="337.6" cy="162.3" r="4.2"/>
			<circle class="st0" cx="408.1" cy="213.5" r="4.2"/>
			<circle class="st0" cx="190.6" cy="267.6" r="3.3"/>
			<circle class="st0" cx="231.6" cy="211.3" r="3.3"/>
			<circle class="st0" cx="236.9" cy="391.9" r="3.3"/>
			<circle class="st0" cx="195.9" cy="335.6" r="3.3"/>
			<circle class="st0" cx="369.4" cy="386.4" r="3.3"/>
			<circle class="st0" cx="303.1" cy="407.9" r="3.3"/>
			<circle class="st0" cx="405" cy="258.6" r="3.3"/>
			<circle class="st0" cx="405" cy="328.3" r="3.3"/>
			<circle class="st0" cx="294.6" cy="185.2" r="3.3"/>
			<circle class="st0" cx="360.8" cy="206.8" r="3.3"/>
			<circle class="st0" cx="209" cy="302.1" r="2.7"/>
			<circle class="st0" cx="226.2" cy="249.1" r="2.7"/>
			<circle class="st0" cx="274.9" cy="385.2" r="2.7"/>
			<circle class="st0" cx="229.8" cy="352.5" r="2.7"/>
			<circle class="st0" cx="374.3" cy="348.2" r="2.7"/>
			<circle class="st0" cx="329.2" cy="381" r="2.7"/>
			<circle class="st0" cx="369.9" cy="242.2" r="2.7"/>
			<circle class="st0" cx="387.1" cy="295.2" r="2.7"/>
			<circle class="st0" cx="267.7" cy="213.7" r="2.7"/>
			<circle class="st0" cx="323.4" cy="213.7" r="2.7"/>
			<circle class="st0" cx="231.7" cy="323.6" r="2.1"/>
			<circle class="st0" cx="231.7" cy="279" r="2.1"/>
			<circle class="st0" cx="302.4" cy="370.6" r="2.1"/>
			<circle class="st0" cx="260" cy="356.8" r="2.1"/>
			<circle class="st0" cx="368.9" cy="317.8" r="2.1"/>
			<circle class="st0" cx="342.7" cy="353.9" r="2.1"/>
			<circle class="st0" cx="339.3" cy="238.3" r="2.1"/>
			<circle class="st0" cx="365.6" cy="274.4" r="2.1"/>
			<circle class="st0" cx="254.5" cy="241.8" r="2.1"/>
			<circle class="st0" cx="296.9" cy="228.1" r="2.1"/>
			<circle class="st0" cx="254.2" cy="334.1" r="1.7"/>
			<circle class="st0" cx="243.2" cy="300.2" r="1.7"/>
			<circle class="st0" cx="319.6" cy="352.4" r="1.7"/>
			<circle class="st0" cx="284" cy="352.4" r="1.7"/>
			<circle class="st0" cx="357.2" cy="295.8" r="1.7"/>
			<circle class="st0" cx="346.2" cy="329.7" r="1.7"/>
			<circle class="st0" cx="315" cy="242.6" r="1.7"/>
			<circle class="st0" cx="343.9" cy="263.5" r="1.7"/>
			<circle class="st0" cx="251.4" cy="266.3" r="1.7"/>
			<circle class="st0" cx="280.2" cy="245.3" r="1.7"/>
			<g>
				<g>
					<circle class="st1" cx="310.8" cy="22.4" r="8.1"/>
					<circle class="st1" cx="472.5" cy="74.9" r="8.1"/>
					<circle class="st1" cx="41.1" cy="201.6" r="8.1"/>
					<circle class="st1" cx="141" cy="63.9" r="8.1"/>
					<circle class="st1" cx="128.1" cy="513.4" r="8.1"/>
					<circle class="st1" cx="28.2" cy="375.8" r="8.1"/>
					<circle class="st1" cx="451.6" cy="527" r="8.1"/>
					<circle class="st1" cx="289.9" cy="579.6" r="8.1"/>
					<circle class="st1" cx="564.5" cy="223.5" r="8.1"/>
					<circle class="st1" cx="564.5" cy="393.6" r="8.1"/>
					<circle class="st1" cx="239.6" cy="86.1" r="6.5"/>
					<circle class="st1" cx="375.6" cy="86.1" r="6.5"/>
					<circle class="st1" cx="78.7" cy="289.1" r="6.5"/>
					<circle class="st1" cx="120.7" cy="159.7" r="6.5"/>
					<circle class="st1" cx="222" cy="504.9" r="6.5"/>
					<circle class="st1" cx="111.9" cy="424.9" r="6.5"/>
					<circle class="st1" cx="471.5" cy="435.2" r="6.5"/>
					<circle class="st1" cx="361.4" cy="515.2" r="6.5"/>
					
						<ellipse transform="matrix(0.3827 -0.9239 0.9239 0.3827 134.7837 554.5367)" class="st1" cx="482.4" cy="176.4" rx="6.5" ry="6.5"/>
					<circle class="st1" cx="524.4" cy="305.8" r="6.5"/>
					<circle class="st1" cx="201.9" cy="151.8" r="5.2"/>
					<circle class="st1" cx="305.4" cy="118.2" r="5.2"/>
					<circle class="st1" cx="129.6" cy="346.1" r="5.2"/>
					<circle class="st1" cx="129.6" cy="237.2" r="5.2"/>
					<circle class="st1" cx="292" cy="474.8" r="5.2"/>
					<circle class="st1" cx="188.5" cy="441.2" r="5.2"/>
					<circle class="st1" cx="464.7" cy="360.1" r="5.2"/>
					<circle class="st1" cx="400.7" cy="448.2" r="5.2"/>
					<circle class="st1" cx="408.9" cy="160.5" r="5.2"/>
					<circle class="st1" cx="472.9" cy="248.6" r="5.2"/>
					<circle class="st1" cx="189.2" cy="210.6" r="4.2"/>
					<circle class="st1" cx="259.6" cy="159.4" r="4.2"/>
					<circle class="st1" cx="182.2" cy="376.2" r="4.2"/>
					<circle class="st1" cx="155.3" cy="293.4" r="4.2"/>
					<circle class="st1" cx="337.6" cy="434" r="4.2"/>
					<circle class="st1" cx="250.5" cy="434" r="4.2"/>
					<circle class="st1" cx="440.6" cy="304.1" r="4.2"/>
					<circle class="st1" cx="413.7" cy="386.9" r="4.2"/>
					<circle class="st1" cx="348.9" cy="166" r="4.2"/>
					<circle class="st1" cx="419.3" cy="217.2" r="4.2"/>
					<circle class="st1" cx="193.6" cy="258.6" r="3.3"/>
					<circle class="st1" cx="234.5" cy="202.3" r="3.3"/>
					<circle class="st1" cx="229.2" cy="386.4" r="3.3"/>
					<circle class="st1" cx="188.3" cy="330" r="3.3"/>
					<circle class="st1" cx="361.7" cy="391.9" r="3.3"/>
					<circle class="st1" cx="295.5" cy="413.5" r="3.3"/>
					<circle class="st1" cx="408" cy="267.6" r="3.3"/>
					<circle class="st1" cx="408" cy="337.3" r="3.3"/>
					<circle class="st1" cx="304" cy="185.2" r="3.3"/>
					<circle class="st1" cx="370.3" cy="206.8" r="3.3"/>
					<circle class="st1" cx="209" cy="294.5" r="2.7"/>
					<circle class="st1" cx="226.2" cy="241.5" r="2.7"/>
					<circle class="st1" cx="267.7" cy="382.9" r="2.7"/>
					<circle class="st1" cx="222.6" cy="350.1" r="2.7"/>
					<circle class="st1" cx="369.9" cy="354.4" r="2.7"/>
					<circle class="st1" cx="324.8" cy="387.1" r="2.7"/>
					<circle class="st1" cx="374.3" cy="248.3" r="2.7"/>
					<circle class="st1" cx="391.5" cy="301.4" r="2.7"/>
					<circle class="st1" cx="274.9" cy="211.4" r="2.7"/>
					<circle class="st1" cx="330.6" cy="211.4" r="2.7"/>
					<circle class="st1" cx="229.8" cy="317.8" r="2.1"/>
					<circle class="st1" cx="229.8" cy="273.3" r="2.1"/>
					<circle class="st1" cx="296.4" cy="370.6" r="2.1"/>
					<circle class="st1" cx="254" cy="356.8" r="2.1"/>
					<circle class="st1" cx="367.1" cy="323.6" r="2.1"/>
					<circle class="st1" cx="340.9" cy="359.7" r="2.1"/>
					<circle class="st1" cx="344.2" cy="241.8" r="2.1"/>
					<circle class="st1" cx="370.4" cy="277.9" r="2.1"/>
					<circle class="st1" cx="259.4" cy="238.3" r="2.1"/>
					<circle class="st1" cx="301.8" cy="224.5" r="2.1"/>
					<circle class="st1" cx="251.4" cy="330.2" r="1.7"/>
					<circle class="st1" cx="240.4" cy="296.3" r="1.7"/>
					<circle class="st1" cx="315" cy="353.9" r="1.7"/>
					<circle class="st1" cx="279.4" cy="353.9" r="1.7"/>
					<circle class="st1" cx="357.2" cy="300.6" r="1.7"/>
					<circle class="st1" cx="346.2" cy="334.6" r="1.7"/>
					<circle class="st1" cx="319.6" cy="244.1" r="1.7"/>
					<circle class="st1" cx="348.5" cy="265" r="1.7"/>
					<circle class="st1" cx="254.2" cy="262.3" r="1.7"/>
					<circle class="st1" cx="283.1" cy="241.4" r="1.7"/>
				</g>
				<g>
					<circle class="st1" cx="310.8" cy="22.4" r="8.1"/>
					<circle class="st1" cx="472.5" cy="74.9" r="8.1"/>
					<circle class="st1" cx="41.1" cy="201.6" r="8.1"/>
					<circle class="st1" cx="141" cy="63.9" r="8.1"/>
					<circle class="st1" cx="128.1" cy="513.4" r="8.1"/>
					<circle class="st1" cx="28.2" cy="375.8" r="8.1"/>
					<circle class="st1" cx="451.6" cy="527" r="8.1"/>
					<circle class="st1" cx="289.9" cy="579.6" r="8.1"/>
					<circle class="st1" cx="564.5" cy="223.5" r="8.1"/>
					<circle class="st1" cx="564.5" cy="393.6" r="8.1"/>
					<circle class="st1" cx="239.6" cy="86.1" r="6.5"/>
					<circle class="st1" cx="375.6" cy="86.1" r="6.5"/>
					<circle class="st1" cx="78.7" cy="289.1" r="6.5"/>
					<circle class="st1" cx="120.7" cy="159.7" r="6.5"/>
					<circle class="st1" cx="222" cy="504.9" r="6.5"/>
					<circle class="st1" cx="111.9" cy="424.9" r="6.5"/>
					<circle class="st1" cx="471.5" cy="435.2" r="6.5"/>
					<circle class="st1" cx="361.4" cy="515.2" r="6.5"/>
					
						<ellipse transform="matrix(0.3827 -0.9239 0.9239 0.3827 134.7837 554.5367)" class="st1" cx="482.4" cy="176.4" rx="6.5" ry="6.5"/>
					<circle class="st1" cx="524.4" cy="305.8" r="6.5"/>
					<circle class="st1" cx="201.9" cy="151.8" r="5.2"/>
					<circle class="st1" cx="305.4" cy="118.2" r="5.2"/>
					<circle class="st1" cx="129.6" cy="346.1" r="5.2"/>
					<circle class="st1" cx="129.6" cy="237.2" r="5.2"/>
					<circle class="st1" cx="292" cy="474.8" r="5.2"/>
					<circle class="st1" cx="188.5" cy="441.2" r="5.2"/>
					<circle class="st1" cx="464.7" cy="360.1" r="5.2"/>
					<circle class="st1" cx="400.7" cy="448.2" r="5.2"/>
					<circle class="st1" cx="408.9" cy="160.5" r="5.2"/>
					<circle class="st1" cx="472.9" cy="248.6" r="5.2"/>
					<circle class="st1" cx="189.2" cy="210.6" r="4.2"/>
					<circle class="st1" cx="259.6" cy="159.4" r="4.2"/>
					<circle class="st1" cx="182.2" cy="376.2" r="4.2"/>
					<circle class="st1" cx="155.3" cy="293.4" r="4.2"/>
					<circle class="st1" cx="337.6" cy="434" r="4.2"/>
					<circle class="st1" cx="250.5" cy="434" r="4.2"/>
					<circle class="st1" cx="440.6" cy="304.1" r="4.2"/>
					<circle class="st1" cx="413.7" cy="386.9" r="4.2"/>
					<circle class="st1" cx="348.9" cy="166" r="4.2"/>
					<circle class="st1" cx="419.3" cy="217.2" r="4.2"/>
					<circle class="st1" cx="193.6" cy="258.6" r="3.3"/>
					<circle class="st1" cx="234.5" cy="202.3" r="3.3"/>
					<circle class="st1" cx="229.2" cy="386.4" r="3.3"/>
					<circle class="st1" cx="188.3" cy="330" r="3.3"/>
					<circle class="st1" cx="361.7" cy="391.9" r="3.3"/>
					<circle class="st1" cx="295.5" cy="413.5" r="3.3"/>
					<circle class="st1" cx="408" cy="267.6" r="3.3"/>
					<circle class="st1" cx="408" cy="337.3" r="3.3"/>
					<circle class="st1" cx="304" cy="185.2" r="3.3"/>
					<circle class="st1" cx="370.3" cy="206.8" r="3.3"/>
					<circle class="st1" cx="209" cy="294.5" r="2.7"/>
					<circle class="st1" cx="226.2" cy="241.5" r="2.7"/>
					<circle class="st1" cx="267.7" cy="382.9" r="2.7"/>
					<circle class="st1" cx="222.6" cy="350.1" r="2.7"/>
					<circle class="st1" cx="369.9" cy="354.4" r="2.7"/>
					<circle class="st1" cx="324.8" cy="387.1" r="2.7"/>
					<circle class="st1" cx="374.3" cy="248.3" r="2.7"/>
					<circle class="st1" cx="391.5" cy="301.4" r="2.7"/>
					<circle class="st1" cx="274.9" cy="211.4" r="2.7"/>
					<circle class="st1" cx="330.6" cy="211.4" r="2.7"/>
					<circle class="st1" cx="229.8" cy="317.8" r="2.1"/>
					<circle class="st1" cx="229.8" cy="273.3" r="2.1"/>
					<circle class="st1" cx="296.4" cy="370.6" r="2.1"/>
					<circle class="st1" cx="254" cy="356.8" r="2.1"/>
					<circle class="st1" cx="367.1" cy="323.6" r="2.1"/>
					<circle class="st1" cx="340.9" cy="359.7" r="2.1"/>
					<circle class="st1" cx="344.2" cy="241.8" r="2.1"/>
					<circle class="st1" cx="370.4" cy="277.9" r="2.1"/>
					<circle class="st1" cx="259.4" cy="238.3" r="2.1"/>
					<circle class="st1" cx="301.8" cy="224.5" r="2.1"/>
					<circle class="st1" cx="251.4" cy="330.2" r="1.7"/>
					<circle class="st1" cx="240.4" cy="296.3" r="1.7"/>
					<circle class="st1" cx="315" cy="353.9" r="1.7"/>
					<circle class="st1" cx="279.4" cy="353.9" r="1.7"/>
					<circle class="st1" cx="357.2" cy="300.6" r="1.7"/>
					<circle class="st1" cx="346.2" cy="334.6" r="1.7"/>
					<circle class="st1" cx="319.6" cy="244.1" r="1.7"/>
					<circle class="st1" cx="348.5" cy="265" r="1.7"/>
					<circle class="st1" cx="254.2" cy="262.3" r="1.7"/>
					<circle class="st1" cx="283.1" cy="241.4" r="1.7"/>
				</g>
			</g>
		</g>
		<g>
			<g>
				<path class="st1" d="M214.2,19.8c-8.9,0-16.1,7.2-16.1,16.1s7.2,16.1,16.1,16.1s16.1-7.2,16.1-16.1c0,0,0,0,0,0
					C230.2,27,223.1,19.8,214.2,19.8C214.2,19.8,214.2,19.8,214.2,19.8z M214.2,40.4c-2.5,0-4.6-2.1-4.6-4.6c0-2.5,2.1-4.6,4.6-4.6
					c2.5,0,4.6,2.1,4.6,4.6C218.8,38.4,216.7,40.4,214.2,40.4C214.2,40.4,214.2,40.4,214.2,40.4L214.2,40.4z"/>
				<path class="st1" d="M8.8,292.6c-2.7,8.4,1.9,17.5,10.3,20.2c8.4,2.7,17.5-1.9,20.2-10.3c2.7-8.4-1.9-17.5-10.3-20.2
					C20.6,279.6,11.5,284.2,8.8,292.6z M28.4,299c-0.8,2.4-3.4,3.7-5.8,2.9c-2.4-0.8-3.7-3.4-2.9-5.8c0.8-2.4,3.4-3.7,5.8-2.9
					c0,0,0,0,0,0C27.9,294,29.2,296.6,28.4,299L28.4,299z"/>
				<path class="st1" d="M204.8,572.3c7.2,5.2,17.2,3.6,22.4-3.6c5.2-7.2,3.6-17.2-3.6-22.4c-7.2-5.2-17.2-3.6-22.4,3.6
					C196,557,197.6,567.1,204.8,572.3z M216.9,555.6c2,1.5,2.5,4.4,1,6.4s-4.4,2.5-6.4,1c-2-1.5-2.5-4.4-1-6.4
					C212,554.6,214.8,554.1,216.9,555.6C216.9,555.6,216.9,555.6,216.9,555.6z"/>
				<path class="st1" d="M531.3,472.3c7.2-5.2,8.8-15.2,3.6-22.4c-5.2-7.2-15.2-8.8-22.4-3.6c-7.2,5.2-8.8,15.2-3.6,22.4
					C514.1,475.9,524.1,477.5,531.3,472.3C531.3,472.3,531.3,472.3,531.3,472.3z M519.2,455.6c2.1-1.5,4.9-1,6.4,1
					c1.5,2.1,1,4.9-1,6.4c-2,1.5-4.9,1-6.4-1C516.7,460,517.1,457.1,519.2,455.6C519.2,455.6,519.2,455.6,519.2,455.6z"/>
				<path class="st1" d="M537.2,130.9c-2.7-8.4-11.8-13-20.2-10.3c-8.4,2.7-13,11.8-10.3,20.2c2.7,8.4,11.8,13,20.2,10.3
					C535.3,148.3,539.9,139.3,537.2,130.9z M517.5,137.2c-0.8-2.4,0.5-5,2.9-5.8s5,0.5,5.8,2.9c0.8,2.4-0.5,5-2.9,5.8c0,0,0,0,0,0
					C520.9,141,518.3,139.6,517.5,137.2C517.5,137.2,517.5,137.2,517.5,137.2z"/>
				<path class="st1" d="M165.4,108c-6.7,2.2-10.4,9.4-8.2,16.2c2.2,6.7,9.4,10.4,16.2,8.2c6.7-2.2,10.4-9.4,8.2-16.2
					C179.4,109.5,172.2,105.8,165.4,108C165.4,108,165.4,108,165.4,108z M170.5,123.8c-1.9,0.6-4-0.4-4.6-2.3
					c-0.6-1.9,0.4-4,2.3-4.6c1.9-0.6,4,0.4,4.6,2.3c0,0,0,0,0,0C173.5,121.1,172.5,123.1,170.5,123.8
					C170.5,123.7,170.5,123.7,170.5,123.8z"/>
				<path class="st1" d="M76.6,366.4c0,7.1,5.8,12.8,12.8,12.8s12.8-5.8,12.8-12.8s-5.8-12.8-12.8-12.8S76.6,359.3,76.6,366.4
					L76.6,366.4z M93.1,366.4c0,2-1.6,3.7-3.7,3.7c-2,0-3.7-1.6-3.7-3.7c0-2,1.6-3.7,3.7-3.7c0,0,0,0,0,0
					C91.5,362.7,93.1,364.4,93.1,366.4L93.1,366.4z"/>
				<path class="st1" d="M294.8,530.7c6.7,2.2,14-1.5,16.2-8.2s-1.5-14-8.2-16.2c-6.7-2.2-14,1.5-16.2,8.2c0,0,0,0,0,0
					C284.4,521.3,288.1,528.5,294.8,530.7z M299.9,515c1.9,0.6,3,2.7,2.4,4.6c-0.6,1.9-2.7,3-4.6,2.4c-1.9-0.6-3-2.7-2.4-4.6
					c0,0,0,0,0,0C296,515.4,298,514.4,299.9,515z"/>
				<path class="st1" d="M518.6,373.9c4.2-5.7,2.9-13.8-2.8-17.9c-5.7-4.2-13.8-2.9-17.9,2.8c-4.2,5.7-2.9,13.8,2.8,17.9
					c0,0,0,0,0,0C506.4,380.9,514.4,379.7,518.6,373.9z M505.2,364.2c1.2-1.6,3.5-2,5.1-0.8c1.6,1.2,2,3.5,0.8,5.1
					c-1.2,1.6-3.5,2-5.1,0.8C504.4,368.2,504,365.9,505.2,364.2z"/>
				<path class="st1" d="M438.6,112.7c-4.2-5.7-12.2-7-17.9-2.8c-5.7,4.2-7,12.2-2.8,17.9s12.2,7,17.9,2.8c0,0,0,0,0,0
					C441.5,126.4,442.8,118.4,438.6,112.7z M425.2,122.4c-1.2-1.6-0.8-3.9,0.8-5.1c1.6-1.2,3.9-0.8,5.1,0.8c1.2,1.6,0.8,3.9-0.8,5.1
					C428.7,124.4,426.4,124,425.2,122.4z"/>
				<path class="st1" d="M150.9,186.8c-4.6,3.3-5.7,9.8-2.3,14.4c3.3,4.6,9.8,5.7,14.4,2.3c4.6-3.3,5.7-9.8,2.3-14.4c0,0,0,0,0-0.1
					C161.9,184.5,155.5,183.5,150.9,186.8z M158.7,197.5c-1.3,1-3.1,0.7-4.1-0.6c-1-1.3-0.7-3.1,0.6-4.1c1.3-1,3.1-0.7,4.1,0.6
					c0,0,0,0,0,0C160.3,194.7,160,196.6,158.7,197.5C158.7,197.5,158.7,197.5,158.7,197.5L158.7,197.5z"/>
				<path class="st1" d="M147.2,405.4c1.7,5.4,7.6,8.4,13,6.7s8.4-7.6,6.7-13s-7.6-8.4-13-6.7c0,0-0.1,0-0.1,0
					C148.4,394.2,145.5,400,147.2,405.4z M159.8,401.3c0.5,1.5-0.3,3.2-1.9,3.7c-1.5,0.5-3.2-0.3-3.7-1.9c-0.5-1.5,0.3-3.2,1.9-3.7
					C157.6,398.9,159.2,399.8,159.8,401.3L159.8,401.3z"/>
				<path class="st1" d="M353.9,476.5c5.7,0,10.3-4.6,10.3-10.3c0-5.7-4.6-10.3-10.3-10.3s-10.3,4.6-10.3,10.3
					C343.5,471.8,348.2,476.5,353.9,476.5L353.9,476.5z M353.9,463.2c1.6,0,2.9,1.3,3,2.9c0,1.6-1.3,2.9-2.9,3c-1.6,0-2.9-1.3-3-2.9
					c0,0,0,0,0,0C350.9,464.6,352.2,463.2,353.9,463.2L353.9,463.2z"/>
				<path class="st1" d="M485.3,301.9c1.8-5.4-1.1-11.2-6.5-13c-5.4-1.8-11.2,1.1-13,6.5c-1.8,5.4,1.1,11.2,6.5,13c0,0,0.1,0,0.1,0
					C477.8,310.2,483.6,307.3,485.3,301.9C485.3,301.9,485.3,301.9,485.3,301.9z M472.8,297.8c0.5-1.5,2.2-2.4,3.7-1.9
					c1.5,0.5,2.4,2.2,1.9,3.7c-0.5,1.5-2.2,2.4-3.7,1.9C473.1,301,472.3,299.3,472.8,297.8L472.8,297.8z"/>
				<path class="st1" d="M359.9,122.9c-4.6-3.4-11-2.4-14.4,2.2c-3.4,4.6-2.4,11,2.2,14.4c4.6,3.4,11,2.4,14.4-2.2c0,0,0,0,0.1-0.1
					C365.5,132.6,364.5,126.2,359.9,122.9z M352.1,133.5c-1.3-1-1.6-2.8-0.7-4.1c1-1.3,2.8-1.6,4.1-0.7c1.3,1,1.6,2.8,0.7,4.1
					c0,0,0,0,0,0C355.3,134.2,353.4,134.5,352.1,133.5L352.1,133.5z"/>
				<path class="st1" d="M159,249.8c-2.7,3.7-1.9,8.8,1.8,11.5c3.7,2.7,8.8,1.9,11.5-1.8c2.7-3.7,1.9-8.8-1.8-11.5
					C166.9,245.3,161.7,246.1,159,249.8C159,249.8,159,249.8,159,249.8z M167.6,256c-0.8,1-2.2,1.3-3.3,0.5c-1-0.8-1.3-2.2-0.5-3.3
					c0.8-1,2.2-1.3,3.3-0.5C168.1,253.5,168.4,255,167.6,256C167.6,256,167.6,256,167.6,256z"/>
				<path class="st1" d="M210.2,417c2.7,3.7,7.8,4.5,11.5,1.8c3.7-2.7,4.5-7.8,1.8-11.5s-7.8-4.5-11.5-1.8
					C208.4,408.2,207.6,413.3,210.2,417z M218.8,410.8c0.8,1,0.5,2.5-0.5,3.3c-1,0.8-2.5,0.5-3.3-0.5c-0.8-1-0.5-2.5,0.5-3.3
					c0,0,0,0,0,0C216.5,409.5,218,409.8,218.8,410.8z"/>
				<path class="st1" d="M385.1,420c4.3-1.4,6.7-6,5.3-10.4c-1.4-4.3-6-6.7-10.4-5.3c-4.3,1.4-6.7,6-5.3,10.3
					C376.1,419,380.7,421.4,385.1,420z M381.8,410c1.2-0.4,2.6,0.3,3,1.5s-0.3,2.6-1.5,3c-1.2,0.4-2.6-0.3-3-1.5c0,0,0,0,0,0
					C379.9,411.7,380.6,410.3,381.8,410L381.8,410z"/>
				<path class="st1" d="M441.9,254.6c0-4.5-3.7-8.2-8.2-8.2c-4.5,0-8.2,3.7-8.2,8.2c0,4.5,3.7,8.2,8.2,8.2c0,0,0,0,0,0
					C438.2,262.9,441.9,259.2,441.9,254.6z M431.4,254.6c0-1.3,1-2.4,2.3-2.4c1.3,0,2.4,1,2.4,2.3c0,1.3-1,2.4-2.3,2.4c0,0,0,0,0,0
					C432.4,257,431.4,255.9,431.4,254.6L431.4,254.6z"/>
				<path class="st1" d="M302.2,149.5c-4.3-1.4-8.9,1-10.4,5.3c-1.4,4.3,1,8.9,5.3,10.4c4.3,1.4,8.9-1,10.4-5.3c0,0,0,0,0,0
					C308.9,155.5,306.5,150.9,302.2,149.5z M299,159.5c-1.2-0.4-1.9-1.7-1.5-3c0.4-1.2,1.7-1.9,3-1.5c1.2,0.4,1.9,1.7,1.5,3
					c0,0,0,0,0,0C301.5,159.2,300.2,159.9,299,159.5z"/>
				<path class="st1" d="M180.3,295.9c-1.1,3.4,0.8,7.1,4.2,8.3c3.4,1.1,7.1-0.8,8.3-4.2c1.1-3.4-0.8-7.1-4.2-8.3
					C185.2,290.6,181.5,292.5,180.3,295.9C180.3,295.9,180.3,295.9,180.3,295.9z M188.4,298.6c-0.3,1-1.4,1.5-2.4,1.2
					c-1-0.3-1.5-1.4-1.2-2.4c0.3-1,1.4-1.5,2.4-1.2C188.1,296.5,188.7,297.6,188.4,298.6C188.4,298.6,188.4,298.6,188.4,298.6
					L188.4,298.6z"/>
				<path class="st1" d="M260.6,410.5c2.9,2.1,7,1.5,9.2-1.5c2.1-2.9,1.5-7-1.5-9.2c-2.9-2.1-7-1.5-9.2,1.5
					C257,404.2,257.7,408.4,260.6,410.5C260.6,410.5,260.6,410.5,260.6,410.5z M265.6,403.7c0.8,0.6,1,1.8,0.4,2.6
					c-0.6,0.8-1.8,1-2.6,0.4c-0.8-0.6-1-1.8-0.4-2.6C263.6,403.2,264.7,403.1,265.6,403.7L265.6,403.7z"/>
				<path class="st1" d="M394.4,369.5c2.9-2.1,3.6-6.2,1.4-9.2c-2.1-2.9-6.2-3.6-9.2-1.4c-2.9,2.1-3.6,6.2-1.4,9.1
					C387.3,371,391.4,371.7,394.4,369.5C394.3,369.6,394.4,369.5,394.4,369.5z M389.4,362.7c0.8-0.6,2-0.4,2.6,0.4s0.4,2-0.4,2.6
					c-0.8,0.6-2,0.4-2.6-0.4C388.4,364.5,388.5,363.3,389.4,362.7C389.4,362.7,389.4,362.7,389.4,362.7L389.4,362.7z"/>
				<path class="st1" d="M396.8,229.7c-1.1-3.4-4.8-5.3-8.3-4.2c-3.4,1.1-5.3,4.8-4.2,8.3c1.1,3.4,4.8,5.3,8.3,4.2
					C396,236.9,397.9,233.2,396.8,229.7C396.8,229.7,396.8,229.7,396.8,229.7z M388.7,232.3c-0.3-1,0.2-2,1.2-2.4
					c1-0.3,2,0.2,2.4,1.2c0.3,1-0.2,2-1.2,2.4C390.1,233.8,389,233.3,388.7,232.3C388.7,232.3,388.7,232.3,388.7,232.3L388.7,232.3z
					"/>
				<path class="st1" d="M264.5,184.2c-3.6,0-6.6,2.9-6.6,6.6s2.9,6.6,6.6,6.6c3.6,0,6.6-2.9,6.6-6.6S268.1,184.2,264.5,184.2z
					 M264.5,192.6c-1,0-1.9-0.8-1.9-1.9s0.8-1.9,1.9-1.9s1.9,0.8,1.9,1.9C266.4,191.8,265.5,192.6,264.5,192.6
					C264.5,192.6,264.5,192.6,264.5,192.6L264.5,192.6z"/>
				<path class="st1" d="M208.1,326.2c0,2.9,2.4,5.3,5.3,5.3c2.9,0,5.3-2.4,5.3-5.3c0-2.9-2.4-5.3-5.3-5.3h0
					C210.5,320.9,208.1,323.3,208.1,326.2z M214.9,326.2c0,0.8-0.7,1.5-1.5,1.5c-0.8,0-1.5-0.7-1.5-1.5c0-0.8,0.7-1.5,1.5-1.5
					C214.2,324.7,214.9,325.3,214.9,326.2L214.9,326.2z"/>
				<path class="st1" d="M297.5,393.5c2.8,0.9,5.7-0.6,6.6-3.4c0.9-2.8-0.6-5.7-3.4-6.6c-2.8-0.9-5.7,0.6-6.6,3.4
					C293.2,389.6,294.7,392.6,297.5,393.5C297.5,393.5,297.5,393.5,297.5,393.5z M299.6,387c0.8,0.3,1.2,1.1,1,1.9s-1.1,1.2-1.9,1
					c-0.8-0.3-1.2-1.1-1-1.9c0,0,0,0,0,0C298,387.2,298.8,386.8,299.6,387L299.6,387z"/>
				<path class="st1" d="M389.1,329.2c1.7-2.3,1.2-5.6-1.2-7.3c-2.3-1.7-5.6-1.2-7.3,1.2s-1.2,5.6,1.2,7.3c0,0,0,0,0,0
					C384.2,332.1,387.4,331.6,389.1,329.2C389.1,329.3,389.1,329.3,389.1,329.2z M383.7,325.3c0.5-0.7,1.4-0.8,2.1-0.3
					c0.7,0.5,0.8,1.4,0.3,2.1c-0.5,0.7-1.4,0.8-2.1,0.3C383.3,326.9,383.2,326,383.7,325.3z"/>
				<path class="st1" d="M356.4,222.2c-1.7-2.4-5-2.9-7.3-1.2c-2.4,1.7-2.9,5-1.2,7.3c1.7,2.4,5,2.9,7.3,1.2c0,0,0,0,0,0
					C357.6,227.9,358.1,224.6,356.4,222.2z M350.9,226.2c-0.5-0.7-0.4-1.6,0.3-2.1c0.7-0.5,1.6-0.4,2.1,0.3c0.5,0.7,0.4,1.6-0.3,2.1
					c0,0,0,0,0,0C352.3,227,351.4,226.9,350.9,226.2C350.9,226.2,350.9,226.2,350.9,226.2z"/>
				<path class="st1" d="M244.5,220.3c-2.8,0.9-4.3,3.9-3.4,6.6c0.9,2.8,3.9,4.3,6.6,3.4c2.8-0.9,4.3-3.9,3.4-6.6
					C250.2,220.9,247.3,219.4,244.5,220.3C244.5,220.3,244.5,220.3,244.5,220.3z M246.6,226.7c-0.8,0.3-1.6-0.1-1.9-0.9
					s0.1-1.6,0.9-1.9c0.8-0.3,1.6,0.1,1.9,0.9c0,0,0,0,0,0C247.8,225.7,247.3,226.5,246.6,226.7L246.6,226.7z"/>
				<path class="st1" d="M237,342.1c0.7,2.2,3.1,3.4,5.3,2.7c2.2-0.7,3.4-3.1,2.7-5.3c-0.7-2.2-3.1-3.4-5.3-2.7
					C237.5,337.5,236.3,339.9,237,342.1C237,342.1,237,342.1,237,342.1z M242.2,340.5c0.2,0.6-0.1,1.3-0.8,1.5
					c-0.6,0.2-1.3-0.1-1.5-0.8c-0.2-0.6,0.1-1.3,0.8-1.5C241.3,339.5,242,339.8,242.2,340.5C242.2,340.4,242.2,340.5,242.2,340.5z"
					/>
				<path class="st1" d="M321.7,371.2c2.3,0,4.2-1.9,4.2-4.2c0-2.3-1.9-4.2-4.2-4.2c-2.3,0-4.2,1.9-4.2,4.2c0,0,0,0,0,0
					C317.5,369.4,319.4,371.2,321.7,371.2z M321.7,365.8c0.7,0,1.2,0.5,1.2,1.2c0,0.7-0.5,1.2-1.2,1.2s-1.2-0.5-1.2-1.2c0,0,0,0,0,0
					C320.5,366.4,321,365.8,321.7,365.8C321.7,365.8,321.7,365.8,321.7,365.8L321.7,365.8z"/>
				<path class="st1" d="M375.5,299.7c0.7-2.2-0.5-4.6-2.7-5.3c-2.2-0.7-4.6,0.5-5.3,2.7c-0.7,2.2,0.5,4.6,2.7,5.3c0,0,0,0,0,0
					C372.4,303.1,374.8,301.9,375.5,299.7C375.5,299.7,375.5,299.7,375.5,299.7z M370.4,298.1c0.2-0.6,0.9-1,1.5-0.8
					c0.6,0.2,1,0.9,0.8,1.5c-0.2,0.6-0.9,1-1.5,0.8c0,0,0,0,0,0C370.5,299.4,370.2,298.7,370.4,298.1z"/>
				<path class="st1" d="M324.2,226.4c-1.9-1.4-4.5-0.9-5.9,0.9c-1.4,1.9-0.9,4.5,0.9,5.9c1.9,1.4,4.5,0.9,5.9-0.9c0,0,0,0,0,0
					C326.5,230.4,326,227.8,324.2,226.4z M321,230.8c-0.5-0.4-0.7-1.1-0.3-1.7c0,0,0,0,0,0c0.3-0.6,1.1-0.8,1.7-0.4
					c0.6,0.3,0.8,1.1,0.4,1.7c0,0.1-0.1,0.1-0.1,0.2C322.3,231.1,321.5,231.2,321,230.8C321,230.8,321,230.8,321,230.8z"/>
				<path class="st1" d="M238.5,252.6c-1.9,1.4-2.3,4-0.9,5.9s4,2.3,5.9,0.9c1.9-1.4,2.3-4,0.9-5.9c0,0,0,0,0,0
					C243.1,251.7,240.4,251.3,238.5,252.6C238.6,252.6,238.6,252.6,238.5,252.6z M241.7,257c-0.5,0.4-1.3,0.3-1.7-0.3
					s-0.3-1.3,0.3-1.7c0.5-0.4,1.3-0.3,1.7,0.3C242.4,255.8,242.3,256.6,241.7,257C241.7,257,241.7,257,241.7,257z"/>
				<path class="st1" d="M262.8,346.9c1.1,1.5,3.2,1.8,4.7,0.8c1.5-1.1,1.8-3.2,0.8-4.7c-1.1-1.5-3.2-1.8-4.7-0.8c0,0,0,0,0,0
					C262.1,343.3,261.8,345.4,262.8,346.9z M266.3,344.3c0.3,0.4,0.2,1-0.2,1.3c-0.4,0.3-1,0.2-1.3-0.2c-0.3-0.4-0.2-1,0.2-1.3
					c0,0,0,0,0,0C265.4,343.8,266,343.9,266.3,344.3C266.3,344.3,266.3,344.3,266.3,344.3L266.3,344.3z"/>
				<path class="st1" d="M334.5,348.1c1.8-0.6,2.7-2.5,2.2-4.2c-0.6-1.8-2.5-2.7-4.2-2.2s-2.7,2.5-2.2,4.2c0,0,0,0,0,0
					C330.8,347.7,332.7,348.7,334.5,348.1z M333.1,344c0.5-0.2,1,0.1,1.2,0.6c0.2,0.5-0.1,1-0.6,1.2c-0.5,0.2-1-0.1-1.2-0.6
					C332.3,344.7,332.6,344.2,333.1,344z"/>
				<path class="st1" d="M357.8,280.4c0-1.9-1.5-3.4-3.4-3.4c-1.9,0-3.4,1.5-3.4,3.4c0,1.9,1.5,3.4,3.4,3.4l0,0
					C356.2,283.8,357.8,282.2,357.8,280.4z M353.4,280.4c0-0.5,0.4-0.9,0.9-0.9s0.9,0.4,0.9,0.9s-0.4,0.9-0.9,0.9
					S353.4,280.9,353.4,280.4z"/>
				<path class="st1" d="M300.5,237.3c-1.8-0.6-3.7,0.4-4.2,2.2s0.4,3.7,2.2,4.2c1.8,0.6,3.7-0.4,4.2-2.2c0,0,0,0,0,0
					C303.3,239.8,302.3,237.9,300.5,237.3z M299.2,241.4c-0.5-0.2-0.7-0.7-0.6-1.2c0.2-0.5,0.7-0.7,1.2-0.6c0.5,0.2,0.7,0.7,0.6,1.2
					C300.3,241.3,299.7,241.6,299.2,241.4C299.2,241.4,299.2,241.4,299.2,241.4L299.2,241.4z"/>
				<path class="st1" d="M241.9,278.4c-1.1,1.5-0.8,3.6,0.7,4.7c1.5,1.1,3.6,0.8,4.7-0.7c1.1-1.5,0.8-3.6-0.7-4.7c0,0,0,0,0,0
					C245.1,276.6,243,276.9,241.9,278.4z M245.4,281c-0.3,0.4-0.9,0.5-1.3,0.2c-0.4-0.3-0.5-0.9-0.2-1.3c0.3-0.4,0.9-0.5,1.3-0.2
					C245.6,279.9,245.7,280.5,245.4,281C245.4,280.9,245.4,280.9,245.4,281L245.4,281z"/>
			</g>
			<g>
				<path class="st1" d="M214.2,19.8c-8.9,0-16.1,7.2-16.1,16.1s7.2,16.1,16.1,16.1s16.1-7.2,16.1-16.1c0,0,0,0,0,0
					C230.2,27,223.1,19.8,214.2,19.8C214.2,19.8,214.2,19.8,214.2,19.8z M214.2,40.4c-2.5,0-4.6-2.1-4.6-4.6c0-2.5,2.1-4.6,4.6-4.6
					c2.5,0,4.6,2.1,4.6,4.6C218.8,38.4,216.7,40.4,214.2,40.4C214.2,40.4,214.2,40.4,214.2,40.4L214.2,40.4z"/>
				<path class="st1" d="M8.8,292.6c-2.7,8.4,1.9,17.5,10.3,20.2c8.4,2.7,17.5-1.9,20.2-10.3c2.7-8.4-1.9-17.5-10.3-20.2
					C20.6,279.6,11.5,284.2,8.8,292.6z M28.4,299c-0.8,2.4-3.4,3.7-5.8,2.9c-2.4-0.8-3.7-3.4-2.9-5.8c0.8-2.4,3.4-3.7,5.8-2.9
					c0,0,0,0,0,0C27.9,294,29.2,296.6,28.4,299L28.4,299z"/>
				<path class="st1" d="M204.8,572.3c7.2,5.2,17.2,3.6,22.4-3.6c5.2-7.2,3.6-17.2-3.6-22.4c-7.2-5.2-17.2-3.6-22.4,3.6
					C196,557,197.6,567.1,204.8,572.3z M216.9,555.6c2,1.5,2.5,4.4,1,6.4s-4.4,2.5-6.4,1c-2-1.5-2.5-4.4-1-6.4
					C212,554.6,214.8,554.1,216.9,555.6C216.9,555.6,216.9,555.6,216.9,555.6z"/>
				<path class="st1" d="M531.3,472.3c7.2-5.2,8.8-15.2,3.6-22.4c-5.2-7.2-15.2-8.8-22.4-3.6c-7.2,5.2-8.8,15.2-3.6,22.4
					C514.1,475.9,524.1,477.5,531.3,472.3C531.3,472.3,531.3,472.3,531.3,472.3z M519.2,455.6c2.1-1.5,4.9-1,6.4,1
					c1.5,2.1,1,4.9-1,6.4c-2,1.5-4.9,1-6.4-1C516.7,460,517.1,457.1,519.2,455.6C519.2,455.6,519.2,455.6,519.2,455.6z"/>
				<path class="st1" d="M537.2,130.9c-2.7-8.4-11.8-13-20.2-10.3c-8.4,2.7-13,11.8-10.3,20.2c2.7,8.4,11.8,13,20.2,10.3
					C535.3,148.3,539.9,139.3,537.2,130.9z M517.5,137.2c-0.8-2.4,0.5-5,2.9-5.8s5,0.5,5.8,2.9c0.8,2.4-0.5,5-2.9,5.8c0,0,0,0,0,0
					C520.9,141,518.3,139.6,517.5,137.2C517.5,137.2,517.5,137.2,517.5,137.2z"/>
				<path class="st1" d="M165.4,108c-6.7,2.2-10.4,9.4-8.2,16.2c2.2,6.7,9.4,10.4,16.2,8.2c6.7-2.2,10.4-9.4,8.2-16.2
					C179.4,109.5,172.2,105.8,165.4,108C165.4,108,165.4,108,165.4,108z M170.5,123.8c-1.9,0.6-4-0.4-4.6-2.3
					c-0.6-1.9,0.4-4,2.3-4.6c1.9-0.6,4,0.4,4.6,2.3c0,0,0,0,0,0C173.5,121.1,172.5,123.1,170.5,123.8
					C170.5,123.7,170.5,123.7,170.5,123.8z"/>
				<path class="st1" d="M76.6,366.4c0,7.1,5.8,12.8,12.8,12.8s12.8-5.8,12.8-12.8s-5.8-12.8-12.8-12.8S76.6,359.3,76.6,366.4
					L76.6,366.4z M93.1,366.4c0,2-1.6,3.7-3.7,3.7c-2,0-3.7-1.6-3.7-3.7c0-2,1.6-3.7,3.7-3.7c0,0,0,0,0,0
					C91.5,362.7,93.1,364.4,93.1,366.4L93.1,366.4z"/>
				<path class="st1" d="M294.8,530.7c6.7,2.2,14-1.5,16.2-8.2s-1.5-14-8.2-16.2c-6.7-2.2-14,1.5-16.2,8.2c0,0,0,0,0,0
					C284.4,521.3,288.1,528.5,294.8,530.7z M299.9,515c1.9,0.6,3,2.7,2.4,4.6c-0.6,1.9-2.7,3-4.6,2.4c-1.9-0.6-3-2.7-2.4-4.6
					c0,0,0,0,0,0C296,515.4,298,514.4,299.9,515z"/>
				<path class="st1" d="M518.6,373.9c4.2-5.7,2.9-13.8-2.8-17.9c-5.7-4.2-13.8-2.9-17.9,2.8c-4.2,5.7-2.9,13.8,2.8,17.9
					c0,0,0,0,0,0C506.4,380.9,514.4,379.7,518.6,373.9z M505.2,364.2c1.2-1.6,3.5-2,5.1-0.8c1.6,1.2,2,3.5,0.8,5.1
					c-1.2,1.6-3.5,2-5.1,0.8C504.4,368.2,504,365.9,505.2,364.2z"/>
				<path class="st1" d="M438.6,112.7c-4.2-5.7-12.2-7-17.9-2.8c-5.7,4.2-7,12.2-2.8,17.9s12.2,7,17.9,2.8c0,0,0,0,0,0
					C441.5,126.4,442.8,118.4,438.6,112.7z M425.2,122.4c-1.2-1.6-0.8-3.9,0.8-5.1c1.6-1.2,3.9-0.8,5.1,0.8c1.2,1.6,0.8,3.9-0.8,5.1
					C428.7,124.4,426.4,124,425.2,122.4z"/>
				<path class="st1" d="M150.9,186.8c-4.6,3.3-5.7,9.8-2.3,14.4c3.3,4.6,9.8,5.7,14.4,2.3c4.6-3.3,5.7-9.8,2.3-14.4c0,0,0,0,0-0.1
					C161.9,184.5,155.5,183.5,150.9,186.8z M158.7,197.5c-1.3,1-3.1,0.7-4.1-0.6c-1-1.3-0.7-3.1,0.6-4.1c1.3-1,3.1-0.7,4.1,0.6
					c0,0,0,0,0,0C160.3,194.7,160,196.6,158.7,197.5C158.7,197.5,158.7,197.5,158.7,197.5L158.7,197.5z"/>
				<path class="st1" d="M147.2,405.4c1.7,5.4,7.6,8.4,13,6.7s8.4-7.6,6.7-13s-7.6-8.4-13-6.7c0,0-0.1,0-0.1,0
					C148.4,394.2,145.5,400,147.2,405.4z M159.8,401.3c0.5,1.5-0.3,3.2-1.9,3.7c-1.5,0.5-3.2-0.3-3.7-1.9c-0.5-1.5,0.3-3.2,1.9-3.7
					C157.6,398.9,159.2,399.8,159.8,401.3L159.8,401.3z"/>
				<path class="st1" d="M353.9,476.5c5.7,0,10.3-4.6,10.3-10.3c0-5.7-4.6-10.3-10.3-10.3s-10.3,4.6-10.3,10.3
					C343.5,471.8,348.2,476.5,353.9,476.5L353.9,476.5z M353.9,463.2c1.6,0,2.9,1.3,3,2.9c0,1.6-1.3,2.9-2.9,3c-1.6,0-2.9-1.3-3-2.9
					c0,0,0,0,0,0C350.9,464.6,352.2,463.2,353.9,463.2L353.9,463.2z"/>
				<path class="st1" d="M485.3,301.9c1.8-5.4-1.1-11.2-6.5-13c-5.4-1.8-11.2,1.1-13,6.5c-1.8,5.4,1.1,11.2,6.5,13c0,0,0.1,0,0.1,0
					C477.8,310.2,483.6,307.3,485.3,301.9C485.3,301.9,485.3,301.9,485.3,301.9z M472.8,297.8c0.5-1.5,2.2-2.4,3.7-1.9
					c1.5,0.5,2.4,2.2,1.9,3.7c-0.5,1.5-2.2,2.4-3.7,1.9C473.1,301,472.3,299.3,472.8,297.8L472.8,297.8z"/>
				<path class="st1" d="M359.9,122.9c-4.6-3.4-11-2.4-14.4,2.2c-3.4,4.6-2.4,11,2.2,14.4c4.6,3.4,11,2.4,14.4-2.2c0,0,0,0,0.1-0.1
					C365.5,132.6,364.5,126.2,359.9,122.9z M352.1,133.5c-1.3-1-1.6-2.8-0.7-4.1c1-1.3,2.8-1.6,4.1-0.7c1.3,1,1.6,2.8,0.7,4.1
					c0,0,0,0,0,0C355.3,134.2,353.4,134.5,352.1,133.5L352.1,133.5z"/>
				<path class="st1" d="M159,249.8c-2.7,3.7-1.9,8.8,1.8,11.5c3.7,2.7,8.8,1.9,11.5-1.8c2.7-3.7,1.9-8.8-1.8-11.5
					C166.9,245.3,161.7,246.1,159,249.8C159,249.8,159,249.8,159,249.8z M167.6,256c-0.8,1-2.2,1.3-3.3,0.5c-1-0.8-1.3-2.2-0.5-3.3
					c0.8-1,2.2-1.3,3.3-0.5C168.1,253.5,168.4,255,167.6,256C167.6,256,167.6,256,167.6,256z"/>
				<path class="st1" d="M210.2,417c2.7,3.7,7.8,4.5,11.5,1.8c3.7-2.7,4.5-7.8,1.8-11.5s-7.8-4.5-11.5-1.8
					C208.4,408.2,207.6,413.3,210.2,417z M218.8,410.8c0.8,1,0.5,2.5-0.5,3.3c-1,0.8-2.5,0.5-3.3-0.5c-0.8-1-0.5-2.5,0.5-3.3
					c0,0,0,0,0,0C216.5,409.5,218,409.8,218.8,410.8z"/>
				<path class="st1" d="M385.1,420c4.3-1.4,6.7-6,5.3-10.4c-1.4-4.3-6-6.7-10.4-5.3c-4.3,1.4-6.7,6-5.3,10.3
					C376.1,419,380.7,421.4,385.1,420z M381.8,410c1.2-0.4,2.6,0.3,3,1.5s-0.3,2.6-1.5,3c-1.2,0.4-2.6-0.3-3-1.5c0,0,0,0,0,0
					C379.9,411.7,380.6,410.3,381.8,410L381.8,410z"/>
				<path class="st1" d="M441.9,254.6c0-4.5-3.7-8.2-8.2-8.2c-4.5,0-8.2,3.7-8.2,8.2c0,4.5,3.7,8.2,8.2,8.2c0,0,0,0,0,0
					C438.2,262.9,441.9,259.2,441.9,254.6z M431.4,254.6c0-1.3,1-2.4,2.3-2.4c1.3,0,2.4,1,2.4,2.3c0,1.3-1,2.4-2.3,2.4c0,0,0,0,0,0
					C432.4,257,431.4,255.9,431.4,254.6L431.4,254.6z"/>
				<path class="st1" d="M302.2,149.5c-4.3-1.4-8.9,1-10.4,5.3c-1.4,4.3,1,8.9,5.3,10.4c4.3,1.4,8.9-1,10.4-5.3c0,0,0,0,0,0
					C308.9,155.5,306.5,150.9,302.2,149.5z M299,159.5c-1.2-0.4-1.9-1.7-1.5-3c0.4-1.2,1.7-1.9,3-1.5c1.2,0.4,1.9,1.7,1.5,3
					c0,0,0,0,0,0C301.5,159.2,300.2,159.9,299,159.5z"/>
				<path class="st1" d="M180.3,295.9c-1.1,3.4,0.8,7.1,4.2,8.3c3.4,1.1,7.1-0.8,8.3-4.2c1.1-3.4-0.8-7.1-4.2-8.3
					C185.2,290.6,181.5,292.5,180.3,295.9C180.3,295.9,180.3,295.9,180.3,295.9z M188.4,298.6c-0.3,1-1.4,1.5-2.4,1.2
					c-1-0.3-1.5-1.4-1.2-2.4c0.3-1,1.4-1.5,2.4-1.2C188.1,296.5,188.7,297.6,188.4,298.6C188.4,298.6,188.4,298.6,188.4,298.6
					L188.4,298.6z"/>
				<path class="st1" d="M260.6,410.5c2.9,2.1,7,1.5,9.2-1.5c2.1-2.9,1.5-7-1.5-9.2c-2.9-2.1-7-1.5-9.2,1.5
					C257,404.2,257.7,408.4,260.6,410.5C260.6,410.5,260.6,410.5,260.6,410.5z M265.6,403.7c0.8,0.6,1,1.8,0.4,2.6
					c-0.6,0.8-1.8,1-2.6,0.4c-0.8-0.6-1-1.8-0.4-2.6C263.6,403.2,264.7,403.1,265.6,403.7L265.6,403.7z"/>
				<path class="st1" d="M394.4,369.5c2.9-2.1,3.6-6.2,1.4-9.2c-2.1-2.9-6.2-3.6-9.2-1.4c-2.9,2.1-3.6,6.2-1.4,9.1
					C387.3,371,391.4,371.7,394.4,369.5C394.3,369.6,394.4,369.5,394.4,369.5z M389.4,362.7c0.8-0.6,2-0.4,2.6,0.4s0.4,2-0.4,2.6
					c-0.8,0.6-2,0.4-2.6-0.4C388.4,364.5,388.5,363.3,389.4,362.7C389.4,362.7,389.4,362.7,389.4,362.7L389.4,362.7z"/>
				<path class="st1" d="M396.8,229.7c-1.1-3.4-4.8-5.3-8.3-4.2c-3.4,1.1-5.3,4.8-4.2,8.3c1.1,3.4,4.8,5.3,8.3,4.2
					C396,236.9,397.9,233.2,396.8,229.7C396.8,229.7,396.8,229.7,396.8,229.7z M388.7,232.3c-0.3-1,0.2-2,1.2-2.4
					c1-0.3,2,0.2,2.4,1.2c0.3,1-0.2,2-1.2,2.4C390.1,233.8,389,233.3,388.7,232.3C388.7,232.3,388.7,232.3,388.7,232.3L388.7,232.3z
					"/>
				<path class="st1" d="M264.5,184.2c-3.6,0-6.6,2.9-6.6,6.6s2.9,6.6,6.6,6.6c3.6,0,6.6-2.9,6.6-6.6S268.1,184.2,264.5,184.2z
					 M264.5,192.6c-1,0-1.9-0.8-1.9-1.9s0.8-1.9,1.9-1.9s1.9,0.8,1.9,1.9C266.4,191.8,265.5,192.6,264.5,192.6
					C264.5,192.6,264.5,192.6,264.5,192.6L264.5,192.6z"/>
				<path class="st1" d="M208.1,326.2c0,2.9,2.4,5.3,5.3,5.3c2.9,0,5.3-2.4,5.3-5.3c0-2.9-2.4-5.3-5.3-5.3h0
					C210.5,320.9,208.1,323.3,208.1,326.2z M214.9,326.2c0,0.8-0.7,1.5-1.5,1.5c-0.8,0-1.5-0.7-1.5-1.5c0-0.8,0.7-1.5,1.5-1.5
					C214.2,324.7,214.9,325.3,214.9,326.2L214.9,326.2z"/>
				<path class="st1" d="M297.5,393.5c2.8,0.9,5.7-0.6,6.6-3.4c0.9-2.8-0.6-5.7-3.4-6.6c-2.8-0.9-5.7,0.6-6.6,3.4
					C293.2,389.6,294.7,392.6,297.5,393.5C297.5,393.5,297.5,393.5,297.5,393.5z M299.6,387c0.8,0.3,1.2,1.1,1,1.9s-1.1,1.2-1.9,1
					c-0.8-0.3-1.2-1.1-1-1.9c0,0,0,0,0,0C298,387.2,298.8,386.8,299.6,387L299.6,387z"/>
				<path class="st1" d="M389.1,329.2c1.7-2.3,1.2-5.6-1.2-7.3c-2.3-1.7-5.6-1.2-7.3,1.2s-1.2,5.6,1.2,7.3c0,0,0,0,0,0
					C384.2,332.1,387.4,331.6,389.1,329.2C389.1,329.3,389.1,329.3,389.1,329.2z M383.7,325.3c0.5-0.7,1.4-0.8,2.1-0.3
					c0.7,0.5,0.8,1.4,0.3,2.1c-0.5,0.7-1.4,0.8-2.1,0.3C383.3,326.9,383.2,326,383.7,325.3z"/>
				<path class="st1" d="M356.4,222.2c-1.7-2.4-5-2.9-7.3-1.2c-2.4,1.7-2.9,5-1.2,7.3c1.7,2.4,5,2.9,7.3,1.2c0,0,0,0,0,0
					C357.6,227.9,358.1,224.6,356.4,222.2z M350.9,226.2c-0.5-0.7-0.4-1.6,0.3-2.1c0.7-0.5,1.6-0.4,2.1,0.3c0.5,0.7,0.4,1.6-0.3,2.1
					c0,0,0,0,0,0C352.3,227,351.4,226.9,350.9,226.2C350.9,226.2,350.9,226.2,350.9,226.2z"/>
				<path class="st1" d="M244.5,220.3c-2.8,0.9-4.3,3.9-3.4,6.6c0.9,2.8,3.9,4.3,6.6,3.4c2.8-0.9,4.3-3.9,3.4-6.6
					C250.2,220.9,247.3,219.4,244.5,220.3C244.5,220.3,244.5,220.3,244.5,220.3z M246.6,226.7c-0.8,0.3-1.6-0.1-1.9-0.9
					s0.1-1.6,0.9-1.9c0.8-0.3,1.6,0.1,1.9,0.9c0,0,0,0,0,0C247.8,225.7,247.3,226.5,246.6,226.7L246.6,226.7z"/>
				<path class="st1" d="M237,342.1c0.7,2.2,3.1,3.4,5.3,2.7c2.2-0.7,3.4-3.1,2.7-5.3c-0.7-2.2-3.1-3.4-5.3-2.7
					C237.5,337.5,236.3,339.9,237,342.1C237,342.1,237,342.1,237,342.1z M242.2,340.5c0.2,0.6-0.1,1.3-0.8,1.5
					c-0.6,0.2-1.3-0.1-1.5-0.8c-0.2-0.6,0.1-1.3,0.8-1.5C241.3,339.5,242,339.8,242.2,340.5C242.2,340.4,242.2,340.5,242.2,340.5z"
					/>
				<path class="st1" d="M321.7,371.2c2.3,0,4.2-1.9,4.2-4.2c0-2.3-1.9-4.2-4.2-4.2c-2.3,0-4.2,1.9-4.2,4.2c0,0,0,0,0,0
					C317.5,369.4,319.4,371.2,321.7,371.2z M321.7,365.8c0.7,0,1.2,0.5,1.2,1.2c0,0.7-0.5,1.2-1.2,1.2s-1.2-0.5-1.2-1.2c0,0,0,0,0,0
					C320.5,366.4,321,365.8,321.7,365.8C321.7,365.8,321.7,365.8,321.7,365.8L321.7,365.8z"/>
				<path class="st1" d="M375.5,299.7c0.7-2.2-0.5-4.6-2.7-5.3c-2.2-0.7-4.6,0.5-5.3,2.7c-0.7,2.2,0.5,4.6,2.7,5.3c0,0,0,0,0,0
					C372.4,303.1,374.8,301.9,375.5,299.7C375.5,299.7,375.5,299.7,375.5,299.7z M370.4,298.1c0.2-0.6,0.9-1,1.5-0.8
					c0.6,0.2,1,0.9,0.8,1.5c-0.2,0.6-0.9,1-1.5,0.8c0,0,0,0,0,0C370.5,299.4,370.2,298.7,370.4,298.1z"/>
				<path class="st1" d="M324.2,226.4c-1.9-1.4-4.5-0.9-5.9,0.9c-1.4,1.9-0.9,4.5,0.9,5.9c1.9,1.4,4.5,0.9,5.9-0.9c0,0,0,0,0,0
					C326.5,230.4,326,227.8,324.2,226.4z M321,230.8c-0.5-0.4-0.7-1.1-0.3-1.7c0,0,0,0,0,0c0.3-0.6,1.1-0.8,1.7-0.4
					c0.6,0.3,0.8,1.1,0.4,1.7c0,0.1-0.1,0.1-0.1,0.2C322.3,231.1,321.5,231.2,321,230.8C321,230.8,321,230.8,321,230.8z"/>
				<path class="st1" d="M238.5,252.6c-1.9,1.4-2.3,4-0.9,5.9s4,2.3,5.9,0.9c1.9-1.4,2.3-4,0.9-5.9c0,0,0,0,0,0
					C243.1,251.7,240.4,251.3,238.5,252.6C238.6,252.6,238.6,252.6,238.5,252.6z M241.7,257c-0.5,0.4-1.3,0.3-1.7-0.3
					s-0.3-1.3,0.3-1.7c0.5-0.4,1.3-0.3,1.7,0.3C242.4,255.8,242.3,256.6,241.7,257C241.7,257,241.7,257,241.7,257z"/>
				<path class="st1" d="M262.8,346.9c1.1,1.5,3.2,1.8,4.7,0.8c1.5-1.1,1.8-3.2,0.8-4.7c-1.1-1.5-3.2-1.8-4.7-0.8c0,0,0,0,0,0
					C262.1,343.3,261.8,345.4,262.8,346.9z M266.3,344.3c0.3,0.4,0.2,1-0.2,1.3c-0.4,0.3-1,0.2-1.3-0.2c-0.3-0.4-0.2-1,0.2-1.3
					c0,0,0,0,0,0C265.4,343.8,266,343.9,266.3,344.3C266.3,344.3,266.3,344.3,266.3,344.3L266.3,344.3z"/>
				<path class="st1" d="M334.5,348.1c1.8-0.6,2.7-2.5,2.2-4.2c-0.6-1.8-2.5-2.7-4.2-2.2s-2.7,2.5-2.2,4.2c0,0,0,0,0,0
					C330.8,347.7,332.7,348.7,334.5,348.1z M333.1,344c0.5-0.2,1,0.1,1.2,0.6c0.2,0.5-0.1,1-0.6,1.2c-0.5,0.2-1-0.1-1.2-0.6
					C332.3,344.7,332.6,344.2,333.1,344z"/>
				<path class="st1" d="M357.8,280.4c0-1.9-1.5-3.4-3.4-3.4c-1.9,0-3.4,1.5-3.4,3.4c0,1.9,1.5,3.4,3.4,3.4l0,0
					C356.2,283.8,357.8,282.2,357.8,280.4z M353.4,280.4c0-0.5,0.4-0.9,0.9-0.9s0.9,0.4,0.9,0.9s-0.4,0.9-0.9,0.9
					S353.4,280.9,353.4,280.4z"/>
				<path class="st1" d="M300.5,237.3c-1.8-0.6-3.7,0.4-4.2,2.2s0.4,3.7,2.2,4.2c1.8,0.6,3.7-0.4,4.2-2.2c0,0,0,0,0,0
					C303.3,239.8,302.3,237.9,300.5,237.3z M299.2,241.4c-0.5-0.2-0.7-0.7-0.6-1.2c0.2-0.5,0.7-0.7,1.2-0.6c0.5,0.2,0.7,0.7,0.6,1.2
					C300.3,241.3,299.7,241.6,299.2,241.4C299.2,241.4,299.2,241.4,299.2,241.4L299.2,241.4z"/>
				<path class="st1" d="M241.9,278.4c-1.1,1.5-0.8,3.6,0.7,4.7c1.5,1.1,3.6,0.8,4.7-0.7c1.1-1.5,0.8-3.6-0.7-4.7c0,0,0,0,0,0
					C245.1,276.6,243,276.9,241.9,278.4z M245.4,281c-0.3,0.4-0.9,0.5-1.3,0.2c-0.4-0.3-0.5-0.9-0.2-1.3c0.3-0.4,0.9-0.5,1.3-0.2
					C245.6,279.9,245.7,280.5,245.4,281C245.4,280.9,245.4,280.9,245.4,281L245.4,281z"/>
			</g>
		</g>
	</g>
</g>
</svg>
