<svg xmlns="http://www.w3.org/2000/svg" xmlns:xlink="http://www.w3.org/1999/xlink" width="200.002" height="170.024" viewBox="0 0 200.002 170.024">
  <defs>
    <clipPath id="clip-path">
      <path id="Path_980" data-name="Path 980" d="M168.087,159.878V150.15h-22.7v9.728H143.76a13,13,0,0,0,25.949,0Z" transform="translate(-143.76 -150.15)" fill="#ffddd9"/>
    </clipPath>
    <clipPath id="clip-path-2">
      <rect id="Rectangle_1218" data-name="Rectangle 1218" width="11.677" height="14.05" transform="matrix(0.94, 0.342, -0.342, 0.94, 4.805, 0)" fill="#ffddd9"/>
    </clipPath>
    <clipPath id="clip-path-3">
      <rect id="Rectangle_1221" data-name="Rectangle 1221" width="18.348" height="14.05" transform="matrix(-0.94, 0.342, -0.342, -0.94, 22.047, 13.203)" fill="#ffddd9"/>
    </clipPath>
    <clipPath id="clip-path-4">
      <ellipse id="Ellipse_260" data-name="Ellipse 260" cx="7.494" cy="13.694" rx="7.494" ry="13.694" fill="#ff7f66"/>
    </clipPath>
    <clipPath id="clip-path-5">
      <ellipse id="Ellipse_264" data-name="Ellipse 264" cx="7.494" cy="15.716" rx="7.494" ry="15.716" fill="#ff7f66"/>
    </clipPath>
    <clipPath id="clip-path-6">
      <ellipse id="Ellipse_267" data-name="Ellipse 267" cx="28.461" cy="13.319" rx="28.461" ry="13.319" fill="#ff7f66"/>
    </clipPath>
  </defs>
  <g id="confort-illustration" transform="translate(0.002 0.024)">
    <path id="Path_54" data-name="Path 54" d="M200,100a99.63,99.63,0,0,1-28.6,70H28.6A100,100,0,1,1,200,100Z" fill="#fff"/>
    <circle id="Ellipse_256" data-name="Ellipse 256" cx="8.11" cy="8.11" r="8.11" transform="translate(17.404 91.381)" fill="#b3b3ff"/>
    <path id="Path_974" data-name="Path 974" d="M55.134,133.212h0L31.6,119.624l25.535-9.295L51.592,95.09,9.716,110.329l1.353,3.716a8.89,8.89,0,0,1-.655,7.5L8.44,124.971l38.593,22.281h0a8.106,8.106,0,0,0,8.106-14.041Z" transform="translate(13.025 -18.457)" fill="#e4e4fe"/>
    <circle id="Ellipse_257" data-name="Ellipse 257" cx="8.11" cy="8.11" r="8.11" transform="translate(165.523 91.381)" fill="#b3b3ff"/>
    <path id="Path_975" data-name="Path 975" d="M275.679,114.045l1.353-3.716L235.156,95.09l-5.545,15.239,25.535,9.295L231.805,133.1a8.262,8.262,0,0,0-3.735,9.983,8.11,8.11,0,0,0,11.648,4.173l38.593-22.286-1.973-3.422A8.909,8.909,0,0,1,275.679,114.045Z" transform="translate(-100.625 -18.457)" fill="#e4e4fe"/>
    <path id="Path_976" data-name="Path 976" d="M163.8,227.967H92.451l-3.841-39.2,8.106-14.045,15.2-1.887h32.432l15.2,1.887,8.11,14.045Z" transform="translate(-28.557 -59.967)" fill="#e4e4fe"/>
    <path id="Path_977" data-name="Path 977" d="M137,170.36a16.216,16.216,0,1,0,32.432,0Z" transform="translate(-53.652 -57.497)" fill="#b3b3ff"/>
    <path id="Path_978" data-name="Path 978" d="M168.087,159.878V150.15h-22.7v9.728H143.76a13,13,0,0,0,25.949,0Z" transform="translate(-57.16 -47.015)" fill="#ffddd9"/>
    <g id="Group_253" data-name="Group 253" transform="translate(86.602 103.135)" clip-path="url(#clip-path)">
      <path id="Path_979" data-name="Path 979" d="M22.695,0h0A22.7,22.7,0,0,1,45.4,22.7V60.672a4.192,4.192,0,0,1-4.192,4.192H4.192A4.192,4.192,0,0,1,0,60.672V22.7A22.7,22.7,0,0,1,22.7,0Z" transform="translate(35.672 8.645) rotate(180)" fill="#ffd4cc"/>
    </g>
    <rect id="Rectangle_1217" data-name="Rectangle 1217" width="11.677" height="14.05" transform="matrix(0.94, 0.342, -0.342, 0.94, 124.029, 72.809)" fill="#ffddd9"/>
    <g id="Group_254" data-name="Group 254" transform="translate(119.225 72.809)" clip-path="url(#clip-path-2)">
      <path id="Path_981" data-name="Path 981" d="M145.451,93.667A23.475,23.475,0,0,1,122,70.221V32.253a4.953,4.953,0,0,1,4.943-4.943h37.015a4.943,4.943,0,0,1,4.934,4.943V53.634h.52a6.873,6.873,0,0,1,0,13.742h-.52v2.888A23.47,23.47,0,0,1,145.451,93.667Z" transform="translate(-165.098 -56.111)" fill="#ffd4cc"/>
    </g>
    <rect id="Rectangle_1219" data-name="Rectangle 1219" width="3.244" height="16.216" transform="matrix(-0.94, -0.342, 0.342, -0.94, 132.035, 92.981)" fill="#b3b3ff"/>
    <rect id="Rectangle_1220" data-name="Rectangle 1220" width="18.348" height="14.05" transform="matrix(-0.94, 0.342, -0.342, -0.94, 86.098, 83.763)" fill="#ffddd9"/>
    <g id="Group_255" data-name="Group 255" transform="translate(64.051 70.56)" clip-path="url(#clip-path-3)">
      <path id="Path_982" data-name="Path 982" d="M138.122,93.667a23.475,23.475,0,0,1-23.451-23.446v-9.2c-3.918-1.179-6.8-7.109-6.8-14.223s2.888-13.039,6.8-14.219v-.322a4.953,4.953,0,0,1,4.943-4.943h37.015a4.943,4.943,0,0,1,4.934,4.943V70.221A23.47,23.47,0,0,1,138.122,93.667Z" transform="translate(-102.596 -53.862)" fill="#ffd4cc"/>
    </g>
    <rect id="Rectangle_1222" data-name="Rectangle 1222" width="3.244" height="16.216" transform="matrix(0.94, -0.342, 0.342, 0.94, 61.564, 77.738)" fill="#b3b3ff"/>
    <ellipse id="Ellipse_258" data-name="Ellipse 258" cx="7.494" cy="13.694" rx="7.494" ry="13.694" transform="translate(70.066 49.799)" fill="#ff7f66"/>
    <g id="Group_256" data-name="Group 256" transform="translate(70.066 49.799)" clip-path="url(#clip-path-4)">
      <ellipse id="Ellipse_259" data-name="Ellipse 259" cx="7.494" cy="13.694" rx="7.494" ry="13.694" transform="translate(1.622 0)" fill="#ff9783"/>
    </g>
    <path id="Path_983" data-name="Path 983" d="M22.695.014h0A22.7,22.7,0,0,1,45.4,22.7V60.672a4.192,4.192,0,0,1-4.192,4.192H4.192A4.192,4.192,0,0,1,0,60.672V22.7A22.7,22.7,0,0,1,22.7,0Z" transform="translate(122.271 109.633) rotate(180)" fill="#ffeae5"/>
    <circle id="Ellipse_261" data-name="Ellipse 261" cx="6.127" cy="6.127" r="6.127" transform="translate(117.41 71.059)" fill="#ffeae5"/>
    <path id="Path_984" data-name="Path 984" d="M220.5,96.045a2.652,2.652,0,0,0,0-5.295" transform="translate(-96.963 -16.206)" fill="none" stroke="#ffa099" stroke-linecap="round" stroke-miterlimit="10" stroke-width="2.25"/>
    <path id="Path_985" data-name="Path 985" d="M165.315,128.22c-4.784,3.153-9.285,2.975-13.545,0" transform="translate(-61.314 -35.64)" fill="none" stroke="#ffa099" stroke-linecap="round" stroke-miterlimit="10" stroke-width="2.25"/>
    <path id="Path_986" data-name="Path 986" d="M143.68,83.81c2.8-2.233,5.478-2.479,8-.034l-1.03,13.164a3.095,3.095,0,0,0,3.081,3.369h.274a4.1,4.1,0,0,0,3.629-3.634" transform="translate(-57.119 -11.687)" fill="none" stroke="#ffa099" stroke-linecap="round" stroke-linejoin="round" stroke-width="2.25"/>
    <path id="Path_987" data-name="Path 987" d="M170.44,83.811c2.806-2.243,5.5-2.479,8.038,0" transform="translate(-70.998 -11.688)" fill="none" stroke="#ffa099" stroke-linecap="round" stroke-miterlimit="10" stroke-width="2.25"/>
    <path id="Path_988" data-name="Path 988" d="M175.2,88.931c1.208-.963,2.363-1.064,3.451,0" transform="translate(-73.467 -14.868)" fill="none" stroke="#595959" stroke-linecap="round" stroke-miterlimit="10" stroke-width="3.09"/>
    <ellipse id="Ellipse_262" data-name="Ellipse 262" cx="7.494" cy="15.716" rx="7.494" ry="15.716" transform="translate(116.25 45.756)" fill="#ff7f66"/>
    <g id="Group_257" data-name="Group 257" transform="translate(116.25 45.756)" clip-path="url(#clip-path-5)">
      <ellipse id="Ellipse_263" data-name="Ellipse 263" cx="7.494" cy="15.716" rx="7.494" ry="15.716" transform="translate(1.622 -0.539)" fill="#ff9783"/>
    </g>
    <ellipse id="Ellipse_265" data-name="Ellipse 265" cx="28.461" cy="13.319" rx="28.461" ry="13.319" transform="translate(66.566 30.863)" fill="#ff7f66"/>
    <g id="Group_258" data-name="Group 258" transform="translate(66.566 30.863)" clip-path="url(#clip-path-6)">
      <ellipse id="Ellipse_266" data-name="Ellipse 266" cx="28.461" cy="13.319" rx="28.461" ry="13.319" transform="translate(1.704 -1.189)" fill="#ff9783"/>
    </g>
    <path id="Path_989" data-name="Path 989" d="M148.45,88.931c1.2-.963,2.363-1.064,3.451,0" transform="translate(-59.592 -14.868)" fill="none" stroke="#595959" stroke-linecap="round" stroke-miterlimit="10" stroke-width="3.09"/>
    <rect id="bottom-border" width="200" height="5" transform="translate(-0.002 165)" fill="#33f"/>
  </g>
</svg>
