<svg xmlns="http://www.w3.org/2000/svg" xmlns:xlink="http://www.w3.org/1999/xlink" width="200.002" height="170.322" viewBox="0 0 200.002 170.322">
  <defs>
    <clipPath id="clip-path">
      <path id="Path_565" data-name="Path 565" d="M9504.013,1741.86v83.208h0c0,3,16.972,5.435,37.906,5.435s37.906-2.434,37.906-5.435V1741.86Z" transform="translate(-9504.013 -1741.86)" fill="#e5e5ff"/>
    </clipPath>
    <clipPath id="clip-path-2">
      <path id="Path_568" data-name="Path 568" d="M9553.682,1893.912v3.453c0,1.1-6.183,1.981-13.816,1.981s-13.826-.885-13.826-1.981v-3.453c0-1.089,6.19-1.981,13.826-1.981S9553.682,1892.823,9553.682,1893.912Z" transform="translate(-9526.039 -1891.931)" fill="#b3b3ff"/>
    </clipPath>
    <clipPath id="clip-path-3">
      <path id="Path_571" data-name="Path 571" d="M9549.465,1884.482v3.453c0,1.1-6.184,1.981-13.819,1.981s-13.825-.884-13.825-1.981v-3.453c0-1.089,6.19-1.981,13.825-1.981S9549.465,1883.393,9549.465,1884.482Z" transform="translate(-9521.82 -1882.501)" fill="#b3b3ff"/>
    </clipPath>
    <clipPath id="clip-path-4">
      <path id="Path_574" data-name="Path 574" d="M9556.5,1875.051v3.453c0,1.1-6.185,1.981-13.818,1.981s-13.827-.884-13.827-1.981v-3.453c0-1.09,6.193-1.981,13.827-1.981S9556.5,1873.961,9556.5,1875.051Z" transform="translate(-9528.852 -1873.07)" fill="#b3b3ff"/>
    </clipPath>
    <clipPath id="clip-path-5">
      <path id="Path_577" data-name="Path 577" d="M9553.682,1865.621v3.453c0,1.1-6.183,1.981-13.816,1.981s-13.826-.885-13.826-1.981v-3.453c0-1.089,6.19-1.981,13.826-1.981S9553.682,1864.531,9553.682,1865.621Z" transform="translate(-9526.039 -1863.64)" fill="#b3b3ff"/>
    </clipPath>
    <clipPath id="clip-path-6">
      <path id="Path_580" data-name="Path 580" d="M9543.838,1856.19v3.453c0,1.1-6.184,1.981-13.819,1.981s-13.825-.884-13.825-1.981v-3.453c0-1.09,6.192-1.981,13.825-1.981S9543.838,1855.1,9543.838,1856.19Z" transform="translate(-9516.193 -1854.209)" fill="#b3b3ff"/>
    </clipPath>
    <clipPath id="clip-path-7">
      <path id="Path_583" data-name="Path 583" d="M9631.044,1859.9l2.573,2.3c.817.731-2.644,5.931-7.731,11.623s-9.875,9.718-10.692,8.988l-2.575-2.3c-.812-.726,2.65-5.936,7.738-11.628S9630.23,1859.172,9631.044,1859.9Z" transform="translate(-9612.5 -1859.814)" fill="#b3b3ff"/>
    </clipPath>
    <clipPath id="clip-path-8">
      <path id="Path_586" data-name="Path 586" d="M9614.416,1865.453l2.269,2.6c.722.827-3.359,5.557-9.116,10.573s-11,8.418-11.722,7.591l-2.271-2.6c-.715-.822,3.365-5.562,9.122-10.578S9613.7,1864.632,9614.416,1865.453Z" transform="translate(-9593.495 -1865.33)" fill="#b3b3ff"/>
    </clipPath>
    <clipPath id="clip-path-9">
      <path id="Path_589" data-name="Path 589" d="M9579.868,1728.3v3.881c0,3.268-18.468,5.915-41.251,5.915s-41.249-2.647-41.249-5.915V1728.3c0-3.268,18.466-5.915,41.249-5.915S9579.868,1725.034,9579.868,1728.3Z" transform="translate(-9497.368 -1722.387)" fill="#e5e5ff"/>
    </clipPath>
    <clipPath id="clip-path-10">
      <path id="Path_593" data-name="Path 593" d="M9579.532,1734.158H9551.89l2.328-1.941h22.987Z" transform="translate(-9551.89 -1732.217)" fill="#ccf"/>
    </clipPath>
  </defs>
  <g id="économie-illustration" transform="translate(0.002 0.024)">
    <path id="Path_64" data-name="Path 64" d="M200,100a99.63,99.63,0,0,1-28.6,70H28.6A100,100,0,1,1,200,100Z" fill="#fff"/>
    <path id="Path_564" data-name="Path 564" d="M9504.013,1741.86v83.208h0c0,3,16.972,5.435,37.906,5.435s37.906-2.434,37.906-5.435V1741.86Z" transform="translate(-9442.369 -1660.204)" fill="#e5e5ff"/>
    <g id="Group_402" data-name="Group 402" transform="translate(61.645 81.656)" clip-path="url(#clip-path)">
      <ellipse id="Ellipse_21" data-name="Ellipse 21" cx="37.906" cy="5.435" rx="37.906" ry="5.435" transform="translate(0 77.772)" fill="#ccf"/>
    </g>
    <path id="Path_566" data-name="Path 566" d="M9553.682,1893.912v3.453c0,1.1-6.183,1.981-13.816,1.981s-13.826-.885-13.826-1.981v-3.453c0-1.089,6.19-1.981,13.826-1.981S9553.682,1892.823,9553.682,1893.912Z" transform="translate(-9453.314 -1734.78)" fill="#b3b3ff"/>
    <g id="Group_404" data-name="Group 404" transform="translate(72.725 157.151)" clip-path="url(#clip-path-2)">
      <path id="Path_567" data-name="Path 567" d="M9553.684,1895.869v3.453c0,1.1-6.185,1.981-13.818,1.981s-13.826-.885-13.826-1.981v-3.453c0,.743,2.844,1.387,7.063,1.726,2,.162,4.308.255,6.763.255s4.769-.093,6.765-.255C9550.84,1897.256,9553.684,1896.612,9553.684,1895.869Z" transform="translate(-9526.039 -1893.888)" fill="#99f"/>
    </g>
    <path id="Path_569" data-name="Path 569" d="M9549.465,1884.482v3.453c0,1.1-6.184,1.981-13.819,1.981s-13.825-.884-13.825-1.981v-3.453c0-1.089,6.19-1.981,13.825-1.981S9549.465,1883.393,9549.465,1884.482Z" transform="translate(-9451.219 -1730.094)" fill="#b3b3ff"/>
    <g id="Group_406" data-name="Group 406" transform="translate(70.602 152.407)" clip-path="url(#clip-path-3)">
      <path id="Path_570" data-name="Path 570" d="M9549.465,1886.439v3.452c0,1.1-6.186,1.982-13.82,1.982s-13.825-.884-13.825-1.982v-3.452c0,.743,2.845,1.386,7.061,1.726,2,.162,4.311.255,6.765.255s4.77-.092,6.764-.255C9546.619,1887.826,9549.465,1887.182,9549.465,1886.439Z" transform="translate(-9521.819 -1884.458)" fill="#99f"/>
    </g>
    <path id="Path_572" data-name="Path 572" d="M9556.5,1875.051v3.453c0,1.1-6.185,1.981-13.818,1.981s-13.827-.884-13.827-1.981v-3.453c0-1.09,6.193-1.981,13.827-1.981S9556.5,1873.961,9556.5,1875.051Z" transform="translate(-9454.713 -1725.408)" fill="#b3b3ff"/>
    <g id="Group_408" data-name="Group 408" transform="translate(74.139 147.662)" clip-path="url(#clip-path-4)">
      <path id="Path_573" data-name="Path 573" d="M9556.5,1877.008v3.453c0,1.1-6.185,1.981-13.818,1.981s-13.827-.884-13.827-1.981v-3.453c0,.743,2.846,1.387,7.063,1.726,2,.163,4.31.255,6.765.255s4.769-.092,6.763-.255C9553.654,1878.395,9556.5,1877.752,9556.5,1877.008Z" transform="translate(-9528.852 -1875.027)" fill="#99f"/>
    </g>
    <path id="Path_575" data-name="Path 575" d="M9553.682,1865.621v3.453c0,1.1-6.183,1.981-13.816,1.981s-13.826-.885-13.826-1.981v-3.453c0-1.089,6.19-1.981,13.826-1.981S9553.682,1864.531,9553.682,1865.621Z" transform="translate(-9453.314 -1720.722)" fill="#b3b3ff"/>
    <g id="Group_410" data-name="Group 410" transform="translate(72.725 142.919)" clip-path="url(#clip-path-5)">
      <path id="Path_576" data-name="Path 576" d="M9553.684,1867.578v3.453c0,1.1-6.185,1.981-13.818,1.981s-13.826-.884-13.826-1.981v-3.453c0,.743,2.844,1.387,7.063,1.726,2,.163,4.308.255,6.763.255s4.769-.092,6.765-.255C9550.84,1868.965,9553.684,1868.321,9553.684,1867.578Z" transform="translate(-9526.039 -1865.597)" fill="#99f"/>
    </g>
    <path id="Path_578" data-name="Path 578" d="M9543.838,1856.19v3.453c0,1.1-6.184,1.981-13.819,1.981s-13.825-.884-13.825-1.981v-3.453c0-1.09,6.192-1.981,13.825-1.981S9543.838,1855.1,9543.838,1856.19Z" transform="translate(-9448.422 -1716.035)" fill="#b3b3ff"/>
    <g id="Group_412" data-name="Group 412" transform="translate(67.771 138.174)" clip-path="url(#clip-path-6)">
      <path id="Path_579" data-name="Path 579" d="M9543.838,1858.147v3.453c0,1.1-6.184,1.981-13.819,1.981s-13.825-.884-13.825-1.981v-3.453c0,.743,2.846,1.387,7.062,1.726,2,.163,4.31.255,6.764.255s4.769-.092,6.765-.255C9541,1859.534,9543.838,1858.89,9543.838,1858.147Z" transform="translate(-9516.193 -1856.166)" fill="#99f"/>
    </g>
    <path id="Path_581" data-name="Path 581" d="M9631.044,1859.9l2.573,2.3c.817.731-2.644,5.931-7.731,11.623s-9.875,9.718-10.692,8.988l-2.575-2.3c-.812-.726,2.65-5.936,7.738-11.628S9630.23,1859.172,9631.044,1859.9Z" transform="translate(-9496.281 -1718.82)" fill="#b3b3ff"/>
    <g id="Group_414" data-name="Group 414" transform="translate(116.219 140.994)" clip-path="url(#clip-path-7)">
      <path id="Path_582" data-name="Path 582" d="M9631.16,1859.982l2.573,2.3c.818.731-2.645,5.932-7.732,11.623s-9.874,9.718-10.692,8.987l-2.572-2.3c.553.495,2.929-1.2,5.991-4.115,1.456-1.384,3.063-3.042,4.7-4.873s3.108-3.617,4.317-5.213C9630.3,1863.027,9631.713,1860.477,9631.16,1859.982Z" transform="translate(-9612.618 -1859.897)" fill="#99f"/>
    </g>
    <path id="Path_584" data-name="Path 584" d="M9614.416,1865.453l2.269,2.6c.722.827-3.359,5.557-9.116,10.573s-11,8.418-11.722,7.591l-2.271-2.6c-.715-.822,3.365-5.562,9.122-10.578S9613.7,1864.632,9614.416,1865.453Z" transform="translate(-9486.838 -1721.562)" fill="#b3b3ff"/>
    <g id="Group_416" data-name="Group 416" transform="translate(106.658 143.769)" clip-path="url(#clip-path-8)">
      <path id="Path_585" data-name="Path 585" d="M9614.5,1865.574l2.268,2.6c.723.827-3.357,5.557-9.115,10.574s-11,8.418-11.724,7.591l-2.269-2.6c.489.561,3.056-.823,6.458-3.339,1.616-1.193,3.416-2.639,5.267-4.252s3.534-3.2,4.93-4.637C9613.264,1868.489,9614.985,1866.135,9614.5,1865.574Z" transform="translate(-9593.574 -1865.451)" fill="#99f"/>
    </g>
    <path id="Path_587" data-name="Path 587" d="M9579.868,1728.3v3.881c0,3.268-18.468,5.915-41.251,5.915s-41.249-2.647-41.249-5.915V1728.3c0-3.268,18.466-5.915,41.249-5.915S9579.868,1725.034,9579.868,1728.3Z" transform="translate(-9439.068 -1650.527)" fill="#e5e5ff"/>
    <g id="Group_418" data-name="Group 418" transform="translate(58.301 71.86)" clip-path="url(#clip-path-9)">
      <path id="Path_588" data-name="Path 588" d="M9579.868,1734.146v3.881c0,3.268-18.468,5.916-41.251,5.916s-41.249-2.648-41.249-5.916v-3.881c0,.675.8,1.335,2.274,1.941,5.6,2.313,20.936,3.974,38.975,3.974s33.372-1.661,38.975-3.974C9579.067,1735.481,9579.868,1734.821,9579.868,1734.146Z" transform="translate(-9497.368 -1728.23)" fill="#ccf"/>
    </g>
    <path id="Path_590" data-name="Path 590" d="M9579.532,1734.158H9551.89l2.328-1.941h22.987Z" transform="translate(-9466.162 -1655.412)" fill="#ccf"/>
    <g id="Group_421" data-name="Group 421" transform="translate(85.729 76.805)" clip-path="url(#clip-path-10)">
      <g id="Group_420" data-name="Group 420" transform="translate(-0.002)">
        <path id="Path_591" data-name="Path 591" d="M9554.213,1732.217v1.941h-2.329Z" transform="translate(-9551.884 -1732.217)" fill="#b3b3ff"/>
        <path id="Path_592" data-name="Path 592" d="M9604.547,1734.158h-2.329v-1.941Z" transform="translate(-9576.897 -1732.217)" fill="#b3b3ff"/>
      </g>
    </g>
    <circle id="Ellipse_22" data-name="Ellipse 22" cx="16.435" cy="16.435" r="16.435" transform="translate(83.119 27.069)" fill="#ffd7cf"/>
    <path id="Path_66" data-name="Path 66" d="M9574.906,1663.035a3.482,3.482,0,0,0,1.357-1.46h3.2a6.205,6.205,0,0,1-2.445,3.333,7.549,7.549,0,0,1-8.314-.1,6.667,6.667,0,0,1-2.518-3.453h-1.7v-1.66h1.377v-1.48h-1.377v-1.661h1.721a6.619,6.619,0,0,1,2.516-3.453,7.57,7.57,0,0,1,8.295-.08,6.291,6.291,0,0,1,2.445,3.331h-3.2a3.483,3.483,0,0,0-1.357-1.459,4.028,4.028,0,0,0-2.014-.483,4.2,4.2,0,0,0-2.174.554,3.816,3.816,0,0,0-1.471,1.591h3.846v1.661h-4.338v1.48h4.348v1.66h-3.865a3.777,3.777,0,0,0,1.48,1.6,4.091,4.091,0,0,0,2.184.583A3.853,3.853,0,0,0,9574.906,1663.035Z" transform="translate(-9472.422 -1615.459)" fill="#ff7f66"/>
    <g id="Ellipse_23" data-name="Ellipse 23" transform="translate(83.119 27.069)" fill="none" stroke="#ff9783" stroke-miterlimit="10" stroke-width="3.669">
      <circle cx="16.435" cy="16.435" r="16.435" stroke="none"/>
      <circle cx="16.435" cy="16.435" r="14.6" fill="none"/>
    </g>
    <rect id="Rectangle_87" data-name="Rectangle 87" width="200" height="5" transform="translate(0 165)" fill="#33f"/>
  </g>
</svg>
