<?xml version="1.0" encoding="utf-8"?>
<!-- Generator: Adobe Illustrator 24.3.0, SVG Export Plug-In . SVG Version: 6.00 Build 0)  -->
<svg version="1.1" xmlns="http://www.w3.org/2000/svg" xmlns:xlink="http://www.w3.org/1999/xlink" x="0px" y="0px"
	 viewBox="0 0 295.1 196.7" style="enable-background:new 0 0 295.1 196.7;" xml:space="preserve">
<style type="text/css">
	.st0{fill:#0F0F4D;}
	.st1{fill:#CCCCFF;}
	.st2{fill:#1F1F4C;}
	.st3{fill:#292966;}
	.st4{fill:#E5E5FF;}
	.st5{fill:#414199;}
	.st6{fill:#3333FF;}
</style>
<g id="maison">
	<rect id="Rectangle_118" x="9.2" y="93.3" class="st0" width="36.9" height="14.3"/>
	<path id="Path_98" class="st1" d="M118.6,87.3l78.1-78.1l78.1,78.1v109.4H118.6V87.3z"/>
	<path id="Path_99" class="st2" d="M295.1,98.4l-9.2,9.2h-98.4l9.2-9.2H295.1z"/>
	<path id="Path_100" class="st3" d="M295.1,98.4h-98.4L98.4,0h98.4L295.1,98.4z"/>
	<path id="Path_101" class="st4" d="M20.2,87.3L98.4,9.2l78.1,78.1v109.4H20.2V87.3z"/>
	<path id="Path_102" class="st5" d="M196.8,98.4l-9.2,9.2l-11-11L98.4,18.4L20.2,96.6l-11,11L0,98.4L97.8,0.6L98.4,0L196.8,98.4z"/>
	<path class="st1" d="M117.9,140.7v56H78.8v-56c0-10.8,8.7-19.5,19.5-19.5c1.1,0,2.2,0.1,3.3,0.3C110.9,123,117.9,131.1,117.9,140.7
		z"/>
	<path class="st1" d="M117.9,140.7v56H78.8v-56c0-10.8,8.7-19.5,19.5-19.5S117.9,130,117.9,140.7z"/>
	<g id="Group_135" transform="translate(78.845 121.211)">
		<path class="st5" d="M39.1,19.5v56H6.5v-56c0-9.7,7-17.7,16.3-19.3C32,1.8,39.1,9.9,39.1,19.5z"/>
	</g>
</g>
<g id="logo">
	<polygon id="chapeau" class="st6" points="98.4,93.1 108.2,103 115.3,95.9 105.4,86.1 98.4,79 91.3,86.1 81.5,95.9 88.5,103 	"/>
</g>
<g id="Layer_1">
</g>
</svg>
