<svg id="maison" xmlns="http://www.w3.org/2000/svg" xmlns:xlink="http://www.w3.org/1999/xlink" width="295.128" height="196.747" viewBox="0 0 295.128 196.747">
  <defs>
    <clipPath id="clip-path">
      <path id="Path_105" data-name="Path 105" d="M99.611,112.605v56H60.54v-56a19.535,19.535,0,0,1,39.071,0Z" transform="translate(-60.54 -93.07)" fill="#ccf"/>
    </clipPath>
  </defs>
  <rect id="Rectangle_118" data-name="Rectangle 118" width="36.883" height="14.274" transform="translate(9.221 93.301)" fill="#0f0f4d"/>
  <path id="Path_98" data-name="Path 98" d="M91.08,85.212,169.222,7.07l78.141,78.142v109.4H91.08Z" transform="translate(27.539 2.138)" fill="#e5e5ff"/>
  <path id="Path_99" data-name="Path 99" d="M251.588,75.53l-9.208,9.208H144l9.221-9.208Z" transform="translate(43.54 22.837)" fill="#1f1f4c"/>
  <path id="Path_100" data-name="Path 100" d="M272.287,98.367H173.92L75.54,0h98.38Z" transform="translate(22.84)" fill="#292966"/>
  <path id="Path_101" data-name="Path 101" d="M15.54,85.212,93.682,7.07l78.142,78.142v109.4H15.54Z" transform="translate(4.699 2.138)" fill="#fff"/>
  <path id="Path_102" data-name="Path 102" d="M196.76,98.367l-9.221,9.208L176.522,96.557,98.38,18.415,20.239,96.557,9.221,107.575,0,98.367,97.794.586,98.38,0Z" fill="#414199"/>
  <path id="Path_103" data-name="Path 103" d="M99.611,112.605v56H60.54v-56a19.535,19.535,0,0,1,39.071,0Z" transform="translate(18.305 28.141)" fill="#ccf"/>
  <g id="Group_135" data-name="Group 135" transform="translate(78.845 121.211)" clip-path="url(#clip-path)">
    <path id="Path_104" data-name="Path 104" d="M104.611,112.605v62.513H65.54V112.605a19.535,19.535,0,0,1,39.071,0Z" transform="translate(-59.028 -93.07)" fill="#414199"/>
  </g>
</svg>
