<svg xmlns="http://www.w3.org/2000/svg" width="200" height="105.023" viewBox="0 0 200 105.023">
  <g id="newsletter-illustration" transform="translate(-583 -4495)">
    <rect id="Rectangle_113" data-name="Rectangle 113" width="200" height="5" transform="translate(583 4595.023)" fill="#33f"/>
    <g id="Group_126" data-name="Group 126" transform="translate(33 -84)">
      <g id="Group_127" data-name="Group 127" transform="translate(578 4579)">
        <g id="Rectangle_114" data-name="Rectangle 114" fill="#fff" stroke="#ccf" stroke-width="3">
          <rect width="128" height="64" stroke="none"/>
          <rect x="1.5" y="1.5" width="125" height="61" fill="none"/>
        </g>
        <path id="Path_109" data-name="Path 109" d="M1530,17.256,1594,0h0V4.142L1530,21.4ZM1466,4.141V0l64,17.256V21.4h0Z" transform="translate(-1466 16.583)" fill="#ccf"/>
        <g id="Group_126-2" data-name="Group 126" transform="translate(44 10.4)">
          <path id="Path_1" data-name="Path 1" d="M724.484,106.825a3.794,3.794,0,1,0,3.794,3.794h0A3.794,3.794,0,0,0,724.484,106.825Zm0,6.007a2.213,2.213,0,1,1,2.213-2.213h0A2.213,2.213,0,0,1,724.484,112.832Z" transform="translate(-688.606 -102.413)" fill="#333"/>
          <path id="Path_2" data-name="Path 2" d="M698.682,112.833a2.213,2.213,0,1,1,1.565-3.778l1.117-1.117a3.794,3.794,0,1,0,0,5.365h0l-1.117-1.118A2.207,2.207,0,0,1,698.682,112.833Z" transform="translate(-670.544 -102.415)" fill="#333"/>
          <path id="Path_3" data-name="Path 3" d="M671.267,108.554a3.794,3.794,0,1,0,.611,2.065H670.3a2.213,2.213,0,0,1-3.116,2.021Zm-4.748.5a2.214,2.214,0,0,1,2.468-.456l-2.924,2.924A2.215,2.215,0,0,1,666.519,109.054Z" transform="translate(-649.127 -102.413)" fill="#333"/>
          <path id="Path_4" data-name="Path 4" d="M627.339,110.618v3.794h-1.581v-3.794a2.213,2.213,0,0,0-4.426,0v3.794h-1.581v-3.794a2.213,2.213,0,0,0-4.426,0v3.794h-1.581v-3.794a6.956,6.956,0,0,1,13.594,0Z" transform="translate(-613.744 -102.412)" fill="#333"/>
          <path id="Path_5" data-name="Path 5" d="M670.677,94.355l1.565,1.565,1.118-1.118-1.565-1.565-1.118-1.118-1.118,1.118L667.994,94.8l1.118,1.118Z" transform="translate(-651.719 -92.12)" fill="#33f"/>
        </g>
      </g>
      <g id="Group_129" data-name="Group 129" transform="translate(586 4587)">
        <g id="Rectangle_114-2" data-name="Rectangle 114" fill="#fff" stroke="#ccf" stroke-width="3">
          <rect width="128" height="64" stroke="none"/>
          <rect x="1.5" y="1.5" width="125" height="61" fill="none"/>
        </g>
        <path id="Path_108" data-name="Path 108" d="M1530,17.256,1594,0h0V4.142L1530,21.4ZM1466,4.141V0l64,17.256V21.4h0Z" transform="translate(-1466 16.583)" fill="#ccf"/>
        <g id="Group_126-3" data-name="Group 126" transform="translate(44 10.4)">
          <path id="Path_1-2" data-name="Path 1" d="M724.484,106.825a3.794,3.794,0,1,0,3.794,3.794h0A3.794,3.794,0,0,0,724.484,106.825Zm0,6.007a2.213,2.213,0,1,1,2.213-2.213h0A2.213,2.213,0,0,1,724.484,112.832Z" transform="translate(-688.606 -102.413)" fill="#333"/>
          <path id="Path_2-2" data-name="Path 2" d="M698.682,112.833a2.213,2.213,0,1,1,1.565-3.778l1.117-1.117a3.794,3.794,0,1,0,0,5.365h0l-1.117-1.118A2.207,2.207,0,0,1,698.682,112.833Z" transform="translate(-670.544 -102.415)" fill="#333"/>
          <path id="Path_3-2" data-name="Path 3" d="M671.267,108.554a3.794,3.794,0,1,0,.611,2.065H670.3a2.213,2.213,0,0,1-3.116,2.021Zm-4.748.5a2.214,2.214,0,0,1,2.468-.456l-2.924,2.924A2.215,2.215,0,0,1,666.519,109.054Z" transform="translate(-649.127 -102.413)" fill="#333"/>
          <path id="Path_4-2" data-name="Path 4" d="M627.339,110.618v3.794h-1.581v-3.794a2.213,2.213,0,0,0-4.426,0v3.794h-1.581v-3.794a2.213,2.213,0,0,0-4.426,0v3.794h-1.581v-3.794a6.956,6.956,0,0,1,13.594,0Z" transform="translate(-613.744 -102.412)" fill="#333"/>
          <path id="Path_5-2" data-name="Path 5" d="M670.677,94.355l1.565,1.565,1.118-1.118-1.565-1.565-1.118-1.118-1.118,1.118L667.994,94.8l1.118,1.118Z" transform="translate(-651.719 -92.12)" fill="#33f"/>
        </g>
      </g>
      <g id="Group_130" data-name="Group 130" transform="translate(594 4595)">
        <g id="Rectangle_114-3" data-name="Rectangle 114" fill="#fff" stroke="#33f" stroke-width="3">
          <rect width="128" height="64" stroke="none"/>
          <rect x="1.5" y="1.5" width="125" height="61" fill="none"/>
        </g>
        <path id="Path_108-2" data-name="Path 108" d="M1530,17.256,1594,0h0V4.142L1530,21.4ZM1466,4.141V0l64,17.256V21.4h0Z" transform="translate(-1466 16.583)" fill="#33f"/>
        <g id="Group_126-4" data-name="Group 126" transform="translate(42.687 8)">
          <path id="Path_3-3" data-name="Path 3" d="M675.22,109.533a5.944,5.944,0,1,0,.958,3.235H673.7a3.467,3.467,0,0,1-4.882,3.166Zm-7.438.783a3.468,3.468,0,0,1,3.867-.714l-4.581,4.581A3.47,3.47,0,0,1,667.782,110.317Z" transform="translate(-649.127 -99.913)" fill="#333"/>
          <path id="Path_5-3" data-name="Path 5" d="M672.2,95.622l2.451,2.452,1.751-1.751-2.452-2.452L672.2,92.119l-1.751,1.751-2.452,2.452,1.751,1.751Z" transform="translate(-651.089 -92.12)" fill="#33f"/>
        </g>
      </g>
    </g>
  </g>
</svg>
