<svg xmlns="http://www.w3.org/2000/svg" viewBox="0 0 640 640"><defs><style>.cls-1{fill:none;}.cls-2{fill:#ccf;}</style></defs><g id="Layer_2" data-name="Layer 2"><g id="Layer_1-2" data-name="Layer 1"><rect class="cls-1" width="640" height="640"/><rect class="cls-2" x="403.77" y="8.88" width="12.23" height="58.71" transform="translate(726.76 -224.57) rotate(135)"/><circle class="cls-2" cx="306.86" cy="23.86" r="8.65"/><circle class="cls-2" cx="331.49" cy="23.86" r="8.65"/><circle class="cls-2" cx="479.4" cy="79.93" r="8.65"/><circle class="cls-2" cx="504.04" cy="79.93" r="8.65"/><path class="cls-2" d="M228.46,21.11a17.13,17.13,0,1,0,17.13,17.12A17.12,17.12,0,0,0,228.46,21.11Zm0,22a4.89,4.89,0,1,1,4.9-4.89A4.89,4.89,0,0,1,228.46,43.12Z"/><rect class="cls-2" x="75.58" y="115.51" width="12.23" height="58.71" transform="translate(173.68 6.31) rotate(63)"/><circle class="cls-2" cx="36.19" cy="238.42" r="8.65"/><circle class="cls-2" cx="43.8" cy="214.99" r="8.65"/><circle class="cls-2" cx="142.83" cy="91.64" r="8.65"/><circle class="cls-2" cx="150.44" cy="68.21" r="8.65"/><path class="cls-2" d="M9.34,312.12a17.12,17.12,0,1,0,21.58-11A17.13,17.13,0,0,0,9.34,312.12Zm20.94,6.8a4.89,4.89,0,1,1-3.14-6.16A4.89,4.89,0,0,1,30.28,318.92Z"/><rect class="cls-2" x="75.58" y="460.6" width="12.23" height="58.71" transform="translate(-75.64 18.81) rotate(-9)"/><circle class="cls-2" cx="156.6" cy="562.14" r="8.65"/><circle class="cls-2" cx="136.67" cy="547.66" r="8.65"/><circle class="cls-2" cx="49.96" cy="415.36" r="8.65"/><circle class="cls-2" cx="30.03" cy="400.88" r="8.65"/><path class="cls-2" d="M218.4,610.45a17.12,17.12,0,1,0-3.79-23.92A17.13,17.13,0,0,0,218.4,610.45Zm12.94-17.82a4.89,4.89,0,1,1-6.83,1.09A4.89,4.89,0,0,1,231.34,592.63Z"/><rect class="cls-2" x="403.77" y="567.24" width="12.23" height="58.71" transform="translate(-243.48 908.11) rotate(-81)"/><circle class="cls-2" cx="501.68" cy="547.66" r="8.65"/><circle class="cls-2" cx="481.75" cy="562.14" r="8.65"/><circle class="cls-2" cx="329.14" cy="603.72" r="8.65"/><circle class="cls-2" cx="309.21" cy="618.2" r="8.65"/><path class="cls-2" d="M566.73,503.81A17.12,17.12,0,1,0,542.81,500,17.12,17.12,0,0,0,566.73,503.81ZM553.79,486a4.89,4.89,0,1,1-1.09,6.83A4.88,4.88,0,0,1,553.79,486Z"/><rect class="cls-2" x="606.61" y="288.06" width="12.23" height="58.71" transform="translate(1014.56 878.4) rotate(-153)"/><circle class="cls-2" cx="594.55" cy="214.99" r="8.65"/><circle class="cls-2" cx="602.16" cy="238.42" r="8.65"/><circle class="cls-2" cx="594.55" cy="396.41" r="8.65"/><circle class="cls-2" cx="602.16" cy="419.84" r="8.65"/><path class="cls-2" d="M573,139.58a17.12,17.12,0,1,0-11,21.57A17.13,17.13,0,0,0,573,139.58ZM552,146.38a4.89,4.89,0,1,1,6.16,3.14A4.88,4.88,0,0,1,552,146.38Z"/><rect class="cls-2" x="313.84" y="59.91" width="9.78" height="46.97" transform="translate(537.74 -162.74) rotate(117)"/><circle class="cls-2" cx="236.79" cy="97.94" r="6.92"/><circle class="cls-2" cx="255.54" cy="91.84" r="6.92"/><circle class="cls-2" cx="381.93" cy="97.94" r="6.92"/><circle class="cls-2" cx="400.67" cy="91.84" r="6.92"/><path class="cls-2" d="M176.47,115.22A13.69,13.69,0,1,0,193.73,124,13.69,13.69,0,0,0,176.47,115.22ZM181.91,132a3.92,3.92,0,1,1,2.51-4.93A3.91,3.91,0,0,1,181.91,132Z"/><rect class="cls-2" x="90.5" y="222.18" width="9.78" height="46.97" transform="translate(201.65 4.5) rotate(45)"/><circle class="cls-2" cx="83.9" cy="328.09" r="6.92"/><circle class="cls-2" cx="83.9" cy="308.38" r="6.92"/><circle class="cls-2" cx="128.75" cy="190.05" r="6.92"/><circle class="cls-2" cx="128.75" cy="170.35" r="6.92"/><path class="cls-2" d="M81.69,390.8a13.7,13.7,0,1,0,13.7-13.7A13.7,13.7,0,0,0,81.69,390.8Zm17.61,0a3.92,3.92,0,1,1-3.91-3.91A3.91,3.91,0,0,1,99.3,390.8Z"/><rect class="cls-2" x="175.81" y="484.74" width="9.78" height="46.97" transform="translate(-211.03 137.43) rotate(-27)"/><circle class="cls-2" cx="255.54" cy="544.62" r="6.92"/><circle class="cls-2" cx="236.79" cy="538.53" r="6.92"/><circle class="cls-2" cx="138.12" cy="459.31" r="6.92"/><circle class="cls-2" cx="119.37" cy="453.22" r="6.92"/><path class="cls-2" d="M314.5,566.1a13.7,13.7,0,1,0-8.79-17.26A13.7,13.7,0,0,0,314.5,566.1Zm5.44-16.75a3.92,3.92,0,1,1-4.93,2.51A3.92,3.92,0,0,1,319.94,549.35Z"/><rect class="cls-2" x="451.88" y="484.74" width="9.78" height="46.97" transform="translate(26.26 1038.87) rotate(-99)"/><circle class="cls-2" cx="514.51" cy="448.3" r="6.92"/><circle class="cls-2" cx="502.93" cy="464.24" r="6.92"/><circle class="cls-2" cx="397.09" cy="533.61" r="6.92"/><circle class="cls-2" cx="385.51" cy="549.55" r="6.92"/><path class="cls-2" d="M553.16,398.86a13.7,13.7,0,1,0-19.13,3A13.7,13.7,0,0,0,553.16,398.86ZM538.91,388.5a3.91,3.91,0,1,1,.87,5.47A3.92,3.92,0,0,1,538.91,388.5Z"/><rect class="cls-2" x="537.19" y="222.18" width="9.78" height="46.97" transform="translate(1039.05 573.11) rotate(-171)"/><circle class="cls-2" cx="502.93" cy="172.23" r="6.92"/><circle class="cls-2" cx="514.51" cy="188.17" r="6.92"/><circle class="cls-2" cx="547.78" cy="310.26" r="6.92"/><circle class="cls-2" cx="559.36" cy="326.21" r="6.92"/><path class="cls-2" d="M467.85,120.19a13.7,13.7,0,1,0-3,19.14A13.7,13.7,0,0,0,467.85,120.19ZM453.6,130.55a3.91,3.91,0,1,1,5.47.86A3.92,3.92,0,0,1,453.6,130.55Z"/><rect class="cls-2" x="257.42" y="121.13" width="7.83" height="37.57" transform="translate(440.41 -96.32) rotate(99)"/><circle class="cls-2" cx="202.59" cy="171.23" r="5.54"/><circle class="cls-2" cx="215.34" cy="161.96" r="5.54"/><circle class="cls-2" cx="313.01" cy="135.35" r="5.54"/><circle class="cls-2" cx="325.77" cy="126.08" r="5.54"/><path class="cls-2" d="M161,199.3a11,11,0,1,0,15.31,2.42A11,11,0,0,0,161,199.3Zm8.28,11.39a3.13,3.13,0,1,1,.69-4.37A3.12,3.12,0,0,1,169.24,210.69Z"/><rect class="cls-2" x="127.61" y="299.8" width="7.83" height="37.57" transform="translate(158.97 -24.99) rotate(27)"/><circle class="cls-2" cx="143.15" cy="384.14" r="5.54"/><circle class="cls-2" cx="138.28" cy="369.15" r="5.54"/><circle class="cls-2" cx="143.15" cy="268.03" r="5.54"/><circle class="cls-2" cx="138.28" cy="253.04" r="5.54"/><path class="cls-2" d="M157,432.4a11,11,0,1,0,7-13.81A11,11,0,0,0,157,432.4Zm13.4-4.35a3.13,3.13,0,1,1-3.95-2A3.13,3.13,0,0,1,170.38,428.05Z"/><rect class="cls-2" x="257.42" y="478.48" width="7.83" height="37.57" transform="translate(-275.08 330.44) rotate(-45)"/><circle class="cls-2" cx="327.28" cy="506.46" r="5.54"/><circle class="cls-2" cx="311.51" cy="506.46" r="5.54"/><circle class="cls-2" cx="216.85" cy="470.58" r="5.54"/><circle class="cls-2" cx="201.08" cy="470.58" r="5.54"/><path class="cls-2" d="M377.45,508.22a11,11,0,1,0-11-11A11,11,0,0,0,377.45,508.22Zm0-14.09a3.14,3.14,0,1,1-3.13,3.13A3.13,3.13,0,0,1,377.45,494.13Z"/><rect class="cls-2" x="467.47" y="410.23" width="7.83" height="37.57" transform="translate(303.13 1043.79) rotate(-117)"/><circle class="cls-2" cx="500.5" cy="369.15" r="5.54"/><circle class="cls-2" cx="495.63" cy="384.14" r="5.54"/><circle class="cls-2" cx="432.26" cy="463.08" r="5.54"/><circle class="cls-2" cx="427.38" cy="478.08" r="5.54"/><path class="cls-2" d="M517.68,322a11,11,0,1,0-13.8,7A10.94,10.94,0,0,0,517.68,322Zm-13.4-4.36a3.13,3.13,0,1,1,2,3.95A3.15,3.15,0,0,1,504.28,317.62Z"/><rect class="cls-2" x="467.47" y="189.37" width="7.83" height="37.57" transform="matrix(-0.99, 0.16, -0.16, -0.99, 969.52, 340.02)"/><circle class="cls-2" cx="423.44" cy="161.96" r="5.54"/><circle class="cls-2" cx="436.2" cy="171.23" r="5.54"/><circle class="cls-2" cx="491.69" cy="255.9" r="5.54"/><circle class="cls-2" cx="504.45" cy="265.17" r="5.54"/><path class="cls-2" d="M383.89,131.05a11,11,0,1,0,2.42,15.3A11,11,0,0,0,383.89,131.05Zm-8.28,11.4a3.13,3.13,0,1,1,4.37-.7A3.15,3.15,0,0,1,375.61,142.45Z"/><rect class="cls-2" x="228.2" y="181.44" width="6.26" height="30.06" transform="translate(389.2 -62.75) rotate(81)"/><circle class="cls-2" cx="194.38" cy="234.82" r="4.43"/><circle class="cls-2" cx="201.79" cy="224.62" r="4.43"/><circle class="cls-2" cx="269.52" cy="180.22" r="4.43"/><circle class="cls-2" cx="276.94" cy="170.02" r="4.43"/><path class="cls-2" d="M169.64,266.47a8.77,8.77,0,1,0,12.25-1.94A8.76,8.76,0,0,0,169.64,266.47Zm9.12,6.62a2.5,2.5,0,1,1-.55-3.5A2.5,2.5,0,0,1,178.76,273.09Z"/><rect class="cls-2" x="173.6" y="349.48" width="6.26" height="30.06" transform="matrix(0.99, 0.16, -0.16, 0.99, 59.2, -23.16)"/><circle class="cls-2" cx="201.79" cy="411.51" r="4.43"/><circle class="cls-2" cx="194.38" cy="401.3" r="4.43"/><circle class="cls-2" cx="173.09" cy="323.16" r="4.43"/><circle class="cls-2" cx="165.67" cy="312.96" r="4.43"/><path class="cls-2" d="M224.24,444.81a8.77,8.77,0,1,0,1.94-12.25A8.78,8.78,0,0,0,224.24,444.81Zm9.12-6.63a2.51,2.51,0,1,1-3.5-.55A2.52,2.52,0,0,1,233.36,438.18Z"/><rect class="cls-2" x="316.54" y="453.33" width="6.26" height="30.06" transform="translate(-242.77 540.56) rotate(-63)"/><circle class="cls-2" cx="372.12" cy="459.05" r="4.43"/><circle class="cls-2" cx="360.12" cy="462.95" r="4.43"/><circle class="cls-2" cx="279.23" cy="459.05" r="4.43"/><circle class="cls-2" cx="267.23" cy="462.95" r="4.43"/><path class="cls-2" d="M410.73,448a8.76,8.76,0,1,0-11.05-5.63A8.77,8.77,0,0,0,410.73,448Zm-3.49-10.72a2.51,2.51,0,1,1-1.61,3.16A2.52,2.52,0,0,1,407.24,437.27Z"/><rect class="cls-2" x="459.48" y="349.48" width="6.26" height="30.06" transform="translate(531.99 949.37) rotate(-135)"/><circle class="cls-2" cx="469.97" cy="311.76" r="4.43"/><circle class="cls-2" cx="469.97" cy="324.37" r="4.43"/><circle class="cls-2" cx="441.27" cy="400.1" r="4.43"/><circle class="cls-2" cx="441.27" cy="412.71" r="4.43"/><path class="cls-2" d="M471.38,271.62a8.77,8.77,0,1,0-8.76,8.77A8.77,8.77,0,0,0,471.38,271.62Zm-11.27,0a2.51,2.51,0,1,1,2.51,2.5A2.51,2.51,0,0,1,460.11,271.62Z"/><rect class="cls-2" x="404.89" y="181.44" width="6.26" height="30.06" transform="translate(860.76 186.29) rotate(153)"/><circle class="cls-2" cx="360.12" cy="173.17" r="4.43"/><circle class="cls-2" cx="372.12" cy="177.07" r="4.43"/><circle class="cls-2" cx="435.27" cy="227.77" r="4.43"/><circle class="cls-2" cx="447.27" cy="231.67" r="4.43"/><path class="cls-2" d="M322.38,159.43a8.76,8.76,0,1,0,5.63,11A8.75,8.75,0,0,0,322.38,159.43Zm-3.48,10.72a2.51,2.51,0,1,1,3.16-1.61A2.52,2.52,0,0,1,318.9,170.15Z"/><rect class="cls-2" x="219.47" y="235.14" width="5.01" height="24.05" transform="translate(341.43 -62.83) rotate(63)"/><circle class="cls-2" cx="203.34" cy="285.48" r="3.54"/><circle class="cls-2" cx="206.46" cy="275.88" r="3.54"/><circle class="cls-2" cx="247.02" cy="225.36" r="3.54"/><circle class="cls-2" cx="250.14" cy="215.76" r="3.54"/><path class="cls-2" d="M192.35,315.67a7,7,0,1,0,8.83-4.5A7,7,0,0,0,192.35,315.67Zm8.57,2.79a2,2,0,1,1-1.28-2.53A2,2,0,0,1,200.92,318.46Z"/><rect class="cls-2" x="219.47" y="376.49" width="5.01" height="24.05" transform="translate(-58.04 39.51) rotate(-9)"/><circle class="cls-2" cx="252.66" cy="418.08" r="3.54"/><circle class="cls-2" cx="244.5" cy="412.14" r="3.54"/><circle class="cls-2" cx="208.98" cy="357.96" r="3.54"/><circle class="cls-2" cx="200.82" cy="352.03" r="3.54"/><path class="cls-2" d="M278,437.86a7,7,0,1,0-1.56-9.79A7,7,0,0,0,278,437.86Zm5.3-7.29a2,2,0,1,1-2.8.44A2,2,0,0,1,283.28,430.57Z"/><rect class="cls-2" x="353.9" y="420.16" width="5.01" height="24.05" transform="matrix(0.16, -0.99, 0.99, 0.16, -126.21, 716.6)"/><circle class="cls-2" cx="394.01" cy="412.14" r="3.54"/><circle class="cls-2" cx="385.85" cy="418.08" r="3.54"/><circle class="cls-2" cx="323.34" cy="435.11" r="3.54"/><circle class="cls-2" cx="315.17" cy="441.04" r="3.54"/><path class="cls-2" d="M420.65,394.18a7,7,0,1,0-9.8-1.55A7,7,0,0,0,420.65,394.18Zm-5.3-7.29a2,2,0,1,1-.44,2.8A2,2,0,0,1,415.35,386.89Z"/><rect class="cls-2" x="436.99" y="305.81" width="5.01" height="24.05" transform="translate(686.79 800.55) rotate(-153)"/><circle class="cls-2" cx="432.05" cy="275.88" r="3.54"/><circle class="cls-2" cx="435.17" cy="285.48" r="3.54"/><circle class="cls-2" cx="432.05" cy="350.19" r="3.54"/><circle class="cls-2" cx="435.17" cy="359.79" r="3.54"/><path class="cls-2" d="M423.2,245a7,7,0,1,0-4.5,8.84A7,7,0,0,0,423.2,245Zm-8.58,2.79a2,2,0,1,1,2.53,1.29A2,2,0,0,1,414.62,247.78Z"/><rect class="cls-2" x="353.9" y="191.46" width="5.01" height="24.05" transform="translate(752.31 95.35) rotate(135)"/><circle class="cls-2" cx="314.21" cy="197.6" r="3.54"/><circle class="cls-2" cx="324.3" cy="197.6" r="3.54"/><circle class="cls-2" cx="384.88" cy="220.56" r="3.54"/><circle class="cls-2" cx="394.97" cy="220.56" r="3.54"/><path class="cls-2" d="M282.1,196.47a7,7,0,1,0,7,7A7,7,0,0,0,282.1,196.47Zm0,9a2,2,0,1,1,2-2A2,2,0,0,1,282.1,205.49Z"/><rect class="cls-2" x="225.59" y="278.83" width="4.01" height="19.24" transform="translate(270.62 -76.45) rotate(45)"/><circle class="cls-2" cx="222.88" cy="322.21" r="2.83"/><circle class="cls-2" cx="222.88" cy="314.14" r="2.83"/><circle class="cls-2" cx="241.25" cy="265.67" r="2.83"/><circle class="cls-2" cx="241.25" cy="257.6" r="2.83"/><path class="cls-2" d="M222,347.9a5.61,5.61,0,1,0,5.61-5.61A5.61,5.61,0,0,0,222,347.9Zm7.21,0a1.6,1.6,0,1,1-1.6-1.61A1.6,1.6,0,0,1,229.19,347.9Z"/><rect class="cls-2" x="260.53" y="386.37" width="4.01" height="19.24" transform="translate(-151.16 162.35) rotate(-27)"/><circle class="cls-2" cx="293.19" cy="410.9" r="2.83"/><circle class="cls-2" cx="285.51" cy="408.41" r="2.83"/><circle class="cls-2" cx="245.09" cy="375.96" r="2.83"/><circle class="cls-2" cx="237.41" cy="373.46" r="2.83"/><path class="cls-2" d="M317.34,419.7a5.61,5.61,0,1,0-3.6-7.07A5.61,5.61,0,0,0,317.34,419.7Zm2.23-6.86a1.6,1.6,0,1,1-2,1A1.61,1.61,0,0,1,319.57,412.84Z"/><rect class="cls-2" x="373.61" y="386.37" width="4.01" height="19.24" transform="translate(43.25 828.93) rotate(-99)"/><circle class="cls-2" cx="399.26" cy="371.45" r="2.83"/><circle class="cls-2" cx="394.52" cy="377.98" r="2.83"/><circle class="cls-2" cx="351.17" cy="406.39" r="2.83"/><circle class="cls-2" cx="346.42" cy="412.92" r="2.83"/><path class="cls-2" d="M415.09,351.2a5.61,5.61,0,1,0-7.83,1.24A5.6,5.6,0,0,0,415.09,351.2ZM409.26,347a1.6,1.6,0,1,1,.35,2.24A1.61,1.61,0,0,1,409.26,347Z"/><rect class="cls-2" x="408.55" y="278.83" width="4.01" height="19.24" transform="translate(770.93 637.57) rotate(-171)"/><circle class="cls-2" cx="394.52" cy="258.37" r="2.83"/><circle class="cls-2" cx="399.26" cy="264.9" r="2.83"/><circle class="cls-2" cx="412.89" cy="314.91" r="2.83"/><circle class="cls-2" cx="417.63" cy="321.44" r="2.83"/><path class="cls-2" d="M380.15,237.06a5.61,5.61,0,1,0-1.24,7.83A5.61,5.61,0,0,0,380.15,237.06Zm-5.84,4.24a1.61,1.61,0,1,1,2.24.35A1.6,1.6,0,0,1,374.31,241.3Z"/><rect class="cls-2" x="317.07" y="212.36" width="4.01" height="19.24" transform="translate(661.72 38.47) rotate(117)"/><circle class="cls-2" cx="285.51" cy="227.94" r="2.83"/><circle class="cls-2" cx="293.19" cy="225.44" r="2.83"/><circle class="cls-2" cx="344.96" cy="227.94" r="2.83"/><circle class="cls-2" cx="352.64" cy="225.44" r="2.83"/><path class="cls-2" d="M260.8,235a5.61,5.61,0,1,0,7.07,3.6A5.6,5.6,0,0,0,260.8,235Zm2.23,6.86a1.6,1.6,0,1,1,1-2A1.61,1.61,0,0,1,263,241.88Z"/><rect class="cls-2" x="240.79" y="310.62" width="3.21" height="15.39" transform="translate(170.93 -75.35) rotate(27)"/><circle class="cls-2" cx="247.15" cy="345.17" r="2.27"/><circle class="cls-2" cx="245.16" cy="339.03" r="2.27"/><circle class="cls-2" cx="247.15" cy="297.61" r="2.27"/><circle class="cls-2" cx="245.16" cy="291.47" r="2.27"/><path class="cls-2" d="M252.82,364.94a4.49,4.49,0,1,0,2.88-5.66A4.49,4.49,0,0,0,252.82,364.94Zm5.49-1.79a1.28,1.28,0,1,1-1.62-.82A1.28,1.28,0,0,1,258.31,363.15Z"/><rect class="cls-2" x="293.96" y="383.81" width="3.21" height="15.39" transform="translate(-190.27 323.66) rotate(-45)"/><circle class="cls-2" cx="322.57" cy="395.27" r="2.27"/><circle class="cls-2" cx="316.11" cy="395.27" r="2.27"/><circle class="cls-2" cx="277.34" cy="380.57" r="2.27"/><circle class="cls-2" cx="270.88" cy="380.57" r="2.27"/><path class="cls-2" d="M343.12,396a4.49,4.49,0,1,0-4.49-4.49A4.49,4.49,0,0,0,343.12,396Zm0-5.77a1.29,1.29,0,1,1-1.28,1.28A1.28,1.28,0,0,1,343.12,390.22Z"/><rect class="cls-2" x="379.99" y="355.85" width="3.21" height="15.39" transform="translate(230.91 868.6) rotate(-117)"/><circle class="cls-2" cx="393.53" cy="339.03" r="2.27"/><circle class="cls-2" cx="391.53" cy="345.17" r="2.27"/><circle class="cls-2" cx="365.57" cy="377.5" r="2.27"/><circle class="cls-2" cx="363.58" cy="383.64" r="2.27"/><path class="cls-2" d="M400.56,319.7a4.49,4.49,0,1,0-5.65,2.89A4.48,4.48,0,0,0,400.56,319.7Zm-5.49-1.78a1.28,1.28,0,0,1,2.44.79,1.28,1.28,0,0,1-1.61.83A1.29,1.29,0,0,1,395.07,317.92Z"/><rect class="cls-2" x="379.99" y="265.39" width="3.21" height="15.39" transform="translate(801.22 483.12) rotate(171)"/><circle class="cls-2" cx="361.96" cy="254.16" r="2.27"/><circle class="cls-2" cx="367.19" cy="257.96" r="2.27"/><circle class="cls-2" cx="389.92" cy="292.64" r="2.27"/><circle class="cls-2" cx="395.14" cy="296.44" r="2.27"/><path class="cls-2" d="M345.76,241.5a4.49,4.49,0,1,0,1,6.27A4.49,4.49,0,0,0,345.76,241.5Zm-3.39,4.67a1.28,1.28,0,0,1-.29-1.79,1.29,1.29,0,1,1,2.08,1.51A1.28,1.28,0,0,1,342.37,246.17Z"/><rect class="cls-2" x="293.96" y="237.44" width="3.21" height="15.39" transform="matrix(-0.16, 0.99, -0.99, -0.16, 583.91, -8.44)"/><circle class="cls-2" cx="271.5" cy="257.96" r="2.27"/><circle class="cls-2" cx="276.72" cy="254.16" r="2.27"/><circle class="cls-2" cx="316.73" cy="243.26" r="2.27"/><circle class="cls-2" cx="321.95" cy="239.47" r="2.27"/><path class="cls-2" d="M254.45,269.46a4.49,4.49,0,1,0,6.27,1A4.48,4.48,0,0,0,254.45,269.46Zm3.39,4.66a1.28,1.28,0,1,1,.28-1.79A1.28,1.28,0,0,1,257.84,274.12Z"/><rect class="cls-2" x="259.63" y="330.97" width="2.57" height="12.31" transform="translate(55.95 -36.66) rotate(9)"/><circle class="cls-2" cx="271.17" cy="356.38" r="1.81"/><circle class="cls-2" cx="268.14" cy="352.2" r="1.81"/><circle class="cls-2" cx="259.41" cy="320.19" r="1.81"/><circle class="cls-2" cx="256.38" cy="316.01" r="1.81"/><path class="cls-2" d="M280.37,370a3.59,3.59,0,1,0,.79-5A3.58,3.58,0,0,0,280.37,370Zm3.73-2.72a1,1,0,1,1-1.66,1.21,1,1,0,0,1,.23-1.43A1,1,0,0,1,284.1,367.3Z"/><rect class="cls-2" x="318.18" y="373.51" width="2.57" height="12.31" transform="translate(-163.86 491.94) rotate(-63)"/><circle class="cls-2" cx="340.94" cy="375.85" r="1.81"/><circle class="cls-2" cx="336.02" cy="377.45" r="1.81"/><circle class="cls-2" cx="302.89" cy="375.85" r="1.81"/><circle class="cls-2" cx="297.98" cy="377.45" r="1.81"/><path class="cls-2" d="M356.75,371.32a3.59,3.59,0,1,0-4.52-2.3A3.59,3.59,0,0,0,356.75,371.32Zm-1.42-4.39a1,1,0,1,1,.63,1.95,1,1,0,1,1-.63-1.95Z"/><rect class="cls-2" x="376.72" y="330.97" width="2.57" height="12.31" transform="translate(406.91 842.8) rotate(-135)"/><circle class="cls-2" cx="381.02" cy="315.52" r="1.81"/><circle class="cls-2" cx="381.02" cy="320.69" r="1.81"/><circle class="cls-2" cx="369.26" cy="351.7" r="1.81"/><circle class="cls-2" cx="369.26" cy="356.87" r="1.81"/><path class="cls-2" d="M381.6,299.08a3.59,3.59,0,1,0-3.59,3.59A3.59,3.59,0,0,0,381.6,299.08Zm-4.62,0a1,1,0,1,1,2,0,1,1,0,0,1-2,0Z"/><rect class="cls-2" x="354.36" y="262.14" width="2.57" height="12.31" transform="translate(794.33 345.89) rotate(153)"/><circle class="cls-2" cx="336.02" cy="258.76" r="1.81"/><circle class="cls-2" cx="340.94" cy="260.35" r="1.81"/><circle class="cls-2" cx="366.81" cy="281.12" r="1.81"/><circle class="cls-2" cx="371.72" cy="282.72" r="1.81"/><path class="cls-2" d="M320.57,253.13a3.59,3.59,0,1,0,2.3,4.52A3.59,3.59,0,0,0,320.57,253.13Zm-1.43,4.39a1,1,0,1,1,1.29-.66A1,1,0,0,1,319.14,257.52Z"/><rect class="cls-2" x="281.99" y="262.14" width="2.57" height="12.31" transform="translate(503.95 -53.46) rotate(81)"/><circle class="cls-2" cx="268.14" cy="284.01" r="1.81"/><circle class="cls-2" cx="271.17" cy="279.83" r="1.81"/><circle class="cls-2" cx="298.92" cy="261.64" r="1.81"/><circle class="cls-2" cx="301.95" cy="257.46" r="1.81"/><path class="cls-2" d="M258,297a3.59,3.59,0,1,0,5-.8A3.59,3.59,0,0,0,258,297Zm3.74,2.71a1,1,0,1,1-.23-1.43A1,1,0,0,1,261.74,299.68Z"/></g></g></svg>