<svg xmlns="http://www.w3.org/2000/svg" width="200.002" height="170.024" viewBox="0 0 200.002 170.024">
  <g id="économie-illustration" transform="translate(0.002 0.024)">
    <g id="Layer_2" data-name="Layer 2">
      <g id="Isolation_Mode" data-name="Isolation Mode">
        <path id="Path_64" data-name="Path 64" d="M200,100a99.63,99.63,0,0,1-28.6,70H28.6A100,100,0,1,1,200,100Z" fill="#fff"/>
        <rect id="Rectangle_73" data-name="Rectangle 73" width="74.62" height="89.54" transform="translate(64.18 80.46)" fill="#e5e5ff"/>
        <rect id="Rectangle_74" data-name="Rectangle 74" width="82.08" height="3.73" transform="translate(60.45 78.59)" fill="#33f"/>
        <rect id="Rectangle_75" data-name="Rectangle 75" width="29.85" height="3.73" transform="translate(70.15 158.06)" fill="#e5e5ff" style="mix-blend-mode: multiply;isolation: isolate"/>
        <rect id="Rectangle_76" data-name="Rectangle 76" width="29.85" height="3.73" transform="translate(72.39 152.09)" fill="#e5e5ff" style="mix-blend-mode: multiply;isolation: isolate"/>
        <rect id="Rectangle_77" data-name="Rectangle 77" width="29.85" height="3.73" transform="translate(70.15 146.12)" fill="#e5e5ff" style="mix-blend-mode: multiply;isolation: isolate"/>
        <rect id="Rectangle_78" data-name="Rectangle 78" width="29.85" height="3.73" transform="translate(70.15 140.15)" fill="#e5e5ff" style="mix-blend-mode: multiply;isolation: isolate"/>
        <rect id="Rectangle_79" data-name="Rectangle 79" width="29.85" height="3.73" transform="translate(72.39 134.18)" fill="#e5e5ff" style="mix-blend-mode: multiply;isolation: isolate"/>
        <rect id="Rectangle_80" data-name="Rectangle 80" width="29.85" height="3.73" transform="translate(81.34 128.21)" fill="#e5e5ff" style="mix-blend-mode: multiply;isolation: isolate"/>
        <rect id="Rectangle_81" data-name="Rectangle 81" width="29.85" height="3.73" transform="translate(106.985 138.539) rotate(30)" fill="#e5e5ff" style="mix-blend-mode: multiply;isolation: isolate"/>
        <rect id="Rectangle_82" data-name="Rectangle 82" width="29.85" height="3.73" transform="translate(103.36 143.636) rotate(30)" fill="#e5e5ff" style="mix-blend-mode: multiply;isolation: isolate"/>
        <circle id="Ellipse_163" data-name="Ellipse 163" cx="14.92" cy="14.92" r="14.92" transform="translate(86.57 41.28)" fill="#ffeae5"/>
        <g id="Group_100" data-name="Group 100" style="mix-blend-mode: multiply;isolation: isolate">
          <path id="Path_65" data-name="Path 65" d="M101.49,43.28A12.93,12.93,0,1,1,88.57,56.2a12.93,12.93,0,0,1,12.92-12.92m0-2A14.93,14.93,0,1,0,116.42,56.2a14.93,14.93,0,0,0-14.93-14.92Z" fill="#ffeae5"/>
        </g>
        <path id="Path_66" data-name="Path 66" d="M104.4,60.25a3.45,3.45,0,0,0,1.35-1.45h3.18a6.17,6.17,0,0,1-2.43,3.31,7.5,7.5,0,0,1-8.26-.1,6.62,6.62,0,0,1-2.5-3.43H94.05V56.93h1.37V55.46H94.05V53.81h1.71a6.58,6.58,0,0,1,2.5-3.43,7.52,7.52,0,0,1,8.24-.08,6.25,6.25,0,0,1,2.43,3.31h-3.18a3.45,3.45,0,0,0-1.35-1.45,4,4,0,0,0-2-.48,4.18,4.18,0,0,0-2.16.55,3.78,3.78,0,0,0-1.46,1.58h3.82v1.65H98.29v1.47h4.32v1.65H98.77a3.77,3.77,0,0,0,1.47,1.59,4.07,4.07,0,0,0,2.17.58,3.82,3.82,0,0,0,1.99-.5Z" fill="#f53"/>
        <rect id="Rectangle_83" data-name="Rectangle 83" width="2.24" height="22.39" transform="translate(93.66 9.19)" fill="#ffeae5"/>
        <rect id="Rectangle_84" data-name="Rectangle 84" width="2.24" height="22.39" transform="translate(100.37 11.43)" fill="#ffeae5"/>
        <rect id="Rectangle_85" data-name="Rectangle 85" width="2.24" height="22.39" transform="translate(107.09 9.19)" fill="#ffeae5"/>
        <rect id="Rectangle_86" data-name="Rectangle 86" width="200" height="5" transform="translate(0 165)" fill="#33f"/>
        <rect id="Rectangle_87" data-name="Rectangle 87" width="200" height="5" transform="translate(0 165)" fill="#33f"/>
      </g>
    </g>
  </g>
</svg>
