<svg xmlns="http://www.w3.org/2000/svg" xmlns:xlink="http://www.w3.org/1999/xlink" width="200.002" height="170.024" viewBox="0 0 200.002 170.024">
  <defs>
    <clipPath id="clip-path">
      <path id="Path_73" data-name="Path 73" d="M122.5,132.5h15v-15Z" fill="#ffeae5"/>
    </clipPath>
    <clipPath id="clip-path-2">
      <path id="Path_79" data-name="Path 79" d="M77.5,132.5h-15v-15Z" fill="#ffeae5"/>
    </clipPath>
    <clipPath id="clip-path-3">
      <circle id="Ellipse_166" data-name="Ellipse 166" cx="30" cy="30" r="30" transform="translate(70 40.56)" fill="#e5e5ff"/>
    </clipPath>
  </defs>
  <g id="écologie-illustration" transform="translate(0.002 0.024)">
    <g id="Layer_2" data-name="Layer 2">
      <g id="Isolation_Mode" data-name="Isolation Mode">
        <path id="Path_67" data-name="Path 67" d="M200,100a99.63,99.63,0,0,1-28.6,70H28.6A100,100,0,1,1,200,100Z" fill="#fff"/>
        <rect id="Rectangle_88" data-name="Rectangle 88" width="15" height="37.5" transform="translate(130 170) rotate(180)" fill="#ffeae5"/>
        <rect id="Rectangle_89" data-name="Rectangle 89" width="19.5" height="7.5" transform="translate(132.25 170) rotate(180)" fill="#f53"/>
        <path id="Path_68" data-name="Path 68" d="M130,147.5l15-15H130Z" fill="#ffeae5"/>
        <path id="Path_69" data-name="Path 69" d="M137.5,95H145v33.75a3.75,3.75,0,0,1-3.75,3.75h0a3.75,3.75,0,0,1-3.75-3.75Z" transform="translate(282.5 227.5) rotate(180)" fill="#ffeae5"/>
        <path id="Path_70" data-name="Path 70" d="M122.25,115h7.5v19.87a3.75,3.75,0,0,1-3.75,3.75h0a3.75,3.75,0,0,1-3.75-3.75Z" transform="translate(125.44 305.56) rotate(-135)" fill="#ffeae5"/>
        <path id="Path_71" data-name="Path 71" d="M122.5,132.5h15v-15Z" fill="#ffeae5"/>
        <g id="Group_101" data-name="Group 101" clip-path="url(#clip-path)">
          <path id="Path_72" data-name="Path 72" d="M122.25,115h7.5v19.87a3.75,3.75,0,0,1-3.75,3.75h0a3.75,3.75,0,0,1-3.75-3.75Z" transform="translate(125.44 305.56) rotate(-135)" fill="none" stroke="#ffeae5" stroke-miterlimit="10" stroke-width="1" style="mix-blend-mode: multiply;isolation: isolate"/>
        </g>
        <rect id="Rectangle_90" data-name="Rectangle 90" width="15" height="37.5" transform="translate(70 132.5)" fill="#ffeae5"/>
        <rect id="Rectangle_91" data-name="Rectangle 91" width="19.5" height="7.5" transform="translate(67.75 162.5)" fill="#f53"/>
        <path id="Path_74" data-name="Path 74" d="M70,147.5l-15-15H70Z" fill="#ffeae5"/>
        <path id="Path_75" data-name="Path 75" d="M58.75,95h0a3.75,3.75,0,0,1,3.75,3.75V132.5H55V98.75A3.75,3.75,0,0,1,58.75,95Z" fill="#ffeae5"/>
        <path id="Path_76" data-name="Path 76" d="M74,115h0a3.75,3.75,0,0,1,3.75,3.75v19.87h-7.5V118.74A3.75,3.75,0,0,1,74,115Z" transform="translate(-67.99 89.46) rotate(-45)" fill="#ffeae5"/>
        <path id="Path_77" data-name="Path 77" d="M77.5,132.5h-15v-15Z" fill="#ffeae5"/>
        <g id="Group_102" data-name="Group 102" clip-path="url(#clip-path-2)">
          <path id="Path_78" data-name="Path 78" d="M74,115h0a3.75,3.75,0,0,1,3.75,3.75v19.87h-7.5V118.74A3.75,3.75,0,0,1,74,115Z" transform="translate(-67.99 89.46) rotate(-45)" fill="none" stroke="#ffeae5" stroke-miterlimit="10" stroke-width="1" style="mix-blend-mode: multiply;isolation: isolate"/>
        </g>
        <circle id="Ellipse_164" data-name="Ellipse 164" cx="33.75" cy="33.75" r="33.75" transform="translate(66.25 36.81)" fill="#e5e5ff"/>
        <circle id="Ellipse_165" data-name="Ellipse 165" cx="30" cy="30" r="30" transform="translate(70 40.56)" fill="#e5e5ff" style="mix-blend-mode: multiply;isolation: isolate"/>
        <g id="Group_104" data-name="Group 104" clip-path="url(#clip-path-3)">
          <g id="Group_103" data-name="Group 103" opacity="0.5">
            <path id="Path_80" data-name="Path 80" d="M141.79,53.42H108.57a4.28,4.28,0,0,0-4.28,4.29V62a4.28,4.28,0,0,0,4.28,4.29h33.22Z" fill="#33f"/>
            <rect id="Rectangle_92" data-name="Rectangle 92" width="34.29" height="8.57" transform="translate(82.86 36.28)" fill="#33f"/>
            <path id="Path_81" data-name="Path 81" d="M141.79,70.56h-37.5A4.29,4.29,0,0,0,100,74.85v8.57a4.29,4.29,0,0,0,4.29,4.29h0A4.28,4.28,0,0,1,108.57,92v12.86h33.22Z" fill="#33f"/>
            <path id="Path_82" data-name="Path 82" d="M58.21,53.42H79.64a4.29,4.29,0,0,1,4.29,4.29V70.56a4.29,4.29,0,0,1-4.29,4.29h0a4.28,4.28,0,0,0-4.28,4.28v25.72H58.21Z" fill="#33f"/>
          </g>
        </g>
        <rect id="Rectangle_93" data-name="Rectangle 93" width="200" height="5" transform="translate(0 165)" fill="#33f"/>
        <rect id="Rectangle_94" data-name="Rectangle 94" width="200" height="5" transform="translate(0 165)" fill="#33f"/>
      </g>
    </g>
  </g>
</svg>
